<?xml version="1.0" encoding="UTF-8" standalone="no"?>
<svg xmlns="http://www.w3.org/2000/svg" xmlns:xlink="http://www.w3.org/1999/xlink" width="432.000mm" height="279.000mm" viewBox="0.000000 0.000000 432.000000 279.000000" stroke-linejoin="round" stroke-linecap="round" fill="none" fill-rule="evenodd"><desc>Composer Export</desc><script type="text/ecmascript"><![CDATA[
if(typeof(top) != "undefined")
{
	top.ShowPaper = ShowPaper;
}
function ShowHotSpot(evt,hotspotid)
{
	var svgDocument = evt.target.ownerDocument;
	var strId = "hotspot."+hotspotid;
	var hotspot = svgDocument.getElementById(strId);
	if(hotspot)
		hotspot.setAttribute("opacity",".5");
}
function HideHotSpot(evt,hotspotid)
{
	var svgDocument = evt.target.ownerDocument;
	var strId = "hotspot."+hotspotid;
	var hotspot = svgDocument.getElementById(strId);
	if(hotspot)
		hotspot.setAttribute("opacity","0");

	var toolTip = svgDocument.getElementById('ToolTip');
	if(toolTip)
		toolTip.setAttribute("visibility","hidden");
}
function ShowToolTip(evt,hotspotid,strTooltip)
{
	if(strTooltip=="")
	return;

	// change text
	var svgDocument = evt.target.ownerDocument;
	var tiptext = svgDocument.getElementById('ToolTipText');
	if( !tiptext )
	return;
	tiptext.firstChild.nodeValue = " " + strTooltip + "  " ;

	// show tooltip before, else some refresh issue

	var toolTip = svgDocument.getElementById('ToolTip');
	if(!toolTip)
	return;

	toolTip.setAttribute("visibility","visible");
	toolTip.setAttribute("opacity",".95");

	// move tooltip
	// get viewbox

	var root = svgDocument.documentElement;
	var vbox = (root.getAttribute("viewBox")).split(' ');
	var x0 = parseFloat(vbox[0]);
	var y0 = parseFloat(vbox[1]);
	var vboxW = parseFloat(vbox[2]);
	var vboxH = parseFloat(vbox[3]);

	// get default width of svg

	var strW = root.getAttribute("width");
	var svgW = parseFloat(strW);
	if(strW.indexOf('mm') != -1)
	svgW *= 3.779;

	var strH = root.getAttribute("height");
	var svgH = parseFloat(strH);
	if(strH.indexOf('mm') != -1)
	svgH *= 3.779;  	// 96 dpi  -> 96/25.4 = 3.779

	// update the viewbox / width / height if svg is embedded in html with zoom fit all
	var realx0 = x0;
	var realy0 = y0;
	var realvboxW = vboxW;
	var realvboxH = vboxH;
	var realsvgW = svgW;
	var realsvgH = svgH;

	if ((typeof(top) == "undefined") || (typeof(top.svgctl1) != "undefined")) // embedded in html
	{
		// get window size in pxl

		svgW = window.innerWidth;
		svgH = window.innerHeight;

		// calculate real viewbox

		realsvgW = svgW;
		realsvgH = svgH;
		if((svgW / svgH) > (vboxW / vboxH))
		{
			realvboxW = (vboxH * svgW) / svgH;
			realvboxH = vboxH;
			realx0 = x0 - (realvboxW - vboxW)/2 ;
		}
		else
		{
			realvboxH = (vboxW * svgH) / svgW;
			realvboxW = vboxW;
			realy0 = y0 - (realvboxH - vboxH)/2 ;
		}
	}

	// get user zoom/pan

	var newScale = root.currentScale;
	var translation = root.currentTranslate;

	// transform pxl to user unit

	var xPos = (((evt.clientX+10- translation.x)/newScale) * realvboxW)/realsvgW  + realx0 ;
	var yPos = (((evt.clientY+5- translation.y)/newScale) * realvboxH)/ realsvgH  + realy0 ;
	var scaleForWidth = ( (1 / newScale) * realvboxH) / realsvgH;

	// move tooltip

	toolTip.setAttribute("transform", "translate(" + xPos + "," + yPos + ")" );

	// resize tooltip

	var fontsize = 12;
	tiptext.setAttribute("font-size",fontsize*scaleForWidth);
	tiptext.setAttribute("y", fontsize*scaleForWidth);
	var tipBG = svgDocument.getElementById('ToolTipBG');
	var outline = tiptext.getBBox();
	if(tipBG)
	{
		tipBG.setAttribute("stroke-width", 1*scaleForWidth);
		tipBG.setAttribute("width", Number(outline.width) );
		tipBG.setAttribute("height", Number(outline.height) + fontsize*.5*scaleForWidth );
	}
	var ToolTipShadow = svgDocument.getElementById('ToolTipShadow');
	if(ToolTipShadow)
	{
		ToolTipShadow.setAttribute("width", Number(outline.width) );
		ToolTipShadow.setAttribute("height", Number(outline.height) + fontsize*.5*scaleForWidth );
		ToolTipShadow.setAttribute("x", 3*scaleForWidth);
		ToolTipShadow.setAttribute("y", 3*scaleForWidth);
	}
}
function ShowPaper()
{
  var svgDocument = getDocument();
  var paper = svgDocument.getElementById("paperID");
  if(paper)
  {
    paper.setAttribute("transform","scale(1)");
    paper.setAttribute("opacity","1");
    paper.setAttribute("visibility","visible");
  }
  var svg = svgDocument.getRootElement();
  if(svg)
  {
    svg.setAttribute("width","442.000mm");
    svg.setAttribute("height","289.000mm");
    svg.setAttribute("viewBox","-5.000000 -5.000000 442.000000 289.000000");
  }
}
]]></script><defs><mask id="mask0" x="0" y="0" height="100%" width="100%"><image x="0.373355" y="-0.373358" height="25.000000" width="25.000000" xlink:href="DWB-Idler_files/8aae4b0fdf80e5e6_mask_0.jpg"/></mask><mask id="mask1" x="0" y="0" height="100%" width="100%"><image x="0.000000" y="254.000015" height="25.000000" width="25.000000" xlink:href="DWB-Idler_files/8aae4b0fdf80e5e6_mask_1.jpg"/></mask><mask id="mask2" x="0" y="0" height="100%" width="100%"><image x="407.373352" y="254.000015" height="25.000000" width="25.000000" xlink:href="DWB-Idler_files/8aae4b0fdf80e5e6_mask_2.jpg"/></mask><mask id="mask3" x="0" y="0" height="100%" width="100%"><image x="407.000000" y="0.000000" height="25.000000" width="25.000000" xlink:href="DWB-Idler_files/8aae4b0fdf80e5e6_mask_3.jpg"/></mask></defs><g><path style="fill:#ffffff" d="M431.86,278.85L0.07,278.85L0.07,0.07L431.86,0.07z"/><path style="fill:#4c4c4c" d="M256.03,73.06L256.52,73.32L260.06,76.56L263.40,82.29L263.47,82.92L263.63,82.96L263.93,83.53L264.12,84.28L264.23,84.93L264.38,84.96L264.69,85.53L264.87,86.29L265.02,87.15L265.38,87.54L265.48,88.19L265.64,88.23L265.94,88.79L266.12,89.55L268.30,98.42L270.06,109.70L270.58,118.80L238.11,123.00L238.18,123.47L237.70,134.61L236.45,142.39L234.44,148.66L231.59,152.83L228.26,154.07L225.17,152.58L221.39,147.58L218.12,140.56L215.37,131.53L213.37,121.74L212.37,113.71L212.12,110.70L211.79,100.67L212.37,92.72L213.86,84.93L216.32,79.62L219.54,76.82L251.67,72.83z"/><path style="fill:#a69e96" d="M223.63,86.14L226.67,90.13L229.67,96.91L232.18,105.94L233.94,116.72L234.42,126.73L233.69,135.86L232.19,141.89L229.93,145.40L229.36,145.84L227.59,146.07L226.17,146.06L223.17,143.29L219.89,137.29L217.13,128.77L215.38,120.23L214.37,110.95L214.38,99.49L215.54,91.88L217.65,86.97L220.05,85.09L220.90,85.11z"/><path style="fill:#958d87" d="M217.87,92.96L216.37,98.73L215.88,105.26L215.89,110.64L215.56,110.54L215.63,101.75L216.62,95.22L218.51,90.59L219.80,89.62L220.22,89.54z"/><path style="fill:#868c8c" d="M223.89,90.15L226.45,93.61L228.92,99.16L231.17,107.20L232.68,116.47L232.94,121.24L232.94,128.09L232.43,133.61L231.19,138.38L229.78,140.53L228.42,141.38L227.25,141.74L226.50,141.46L225.74,141.27L224.92,140.79L222.15,137.04L219.38,130.53L217.38,122.49L216.38,115.97L215.89,110.64L215.88,105.26L216.37,98.73L217.87,92.96L220.22,89.54L221.49,89.22z"/><path style="fill:#c8cfee" d="M363.39,42.20L363.90,42.90L362.03,42.98L342.21,45.47L342.21,46.58L363.79,43.99L363.93,43.90L364.12,44.23L365.90,46.21L368.21,48.97L368.39,49.48L370.24,51.22L371.23,52.47L381.95,64.27L384.19,66.30L386.97,69.33L387.96,69.28L390.34,71.74L390.46,72.05L392.57,74.04L392.73,74.30L393.56,75.29L394.23,76.08L394.52,77.00L394.44,77.11L393.66,77.61L373.30,80.08L372.82,80.35L372.68,106.54L369.80,108.19L369.12,109.01L369.08,111.01L369.37,111.22L369.38,120.81L368.81,120.99L368.81,125.36L390.47,122.66L390.94,125.01L391.45,126.51L393.53,128.72L394.00,129.68L372.79,132.24L372.54,132.49L372.28,146.50L371.92,146.60L363.88,137.78L363.70,136.24L367.32,135.80L367.91,135.39L367.92,134.18L367.89,133.27L367.14,131.73L364.96,132.14L365.37,130.34L366.13,127.84L367.14,119.32L367.64,119.04L367.67,118.74L365.90,116.70L363.49,114.07L363.60,113.71L362.35,113.22L361.62,112.45L360.86,112.20L358.02,112.21L343.96,113.95L343.67,114.16L343.33,115.13L341.06,112.94L339.81,111.43L335.78,107.17L335.61,106.67L336.20,106.42L340.24,105.97L340.54,105.76L340.57,104.33L340.55,103.17L340.03,101.91L338.46,102.17L334.85,102.53L335.02,94.73L335.18,91.38L338.55,90.98L338.72,88.14L339.28,87.95L339.30,78.83L339.06,78.57L338.29,74.07L335.26,65.82L335.49,39.01L335.70,38.71L357.60,35.92z"/><path style="fill:#c8cfee" d="M107.29,72.30L108.88,74.21L108.73,74.31L87.37,77.08L87.38,78.20L109.05,75.49L128.36,96.63L132.11,100.66L133.37,100.90L139.38,107.43L139.92,109.10L118.21,111.69L118.06,118.06L117.83,138.15L114.81,139.89L114.28,140.87L114.01,156.39L114.21,156.68L118.06,156.43L135.91,154.25L136.11,156.11L136.61,157.87L138.90,160.59L139.41,161.29L117.71,163.87L117.55,177.52L117.37,178.04L116.80,177.93L115.82,176.65L107.54,167.62L106.54,166.11L90.96,149.09L90.77,148.96L90.97,148.42L90.97,137.02L90.71,141.13L90.56,148.93L86.73,144.79L80.41,137.81L80.09,136.05L80.34,122.98L83.64,122.52L83.94,122.32L83.94,107.44L83.19,104.68L80.67,97.92L80.68,75.16L80.86,70.32L81.60,70.06L101.92,67.56L103.00,67.57z"/><path style="fill:#b3bad6" d="M350.33,59.28L354.11,61.76L357.59,67.06L359.10,70.03L358.28,73.08L357.92,75.69L357.49,75.83L357.08,76.40L357.08,78.61L357.47,79.26L357.43,79.44L357.27,79.59L356.85,82.69L356.59,88.96L356.33,89.95L355.78,90.15L340.72,92.00L340.42,90.12L341.04,89.71L341.02,80.12L340.73,79.91L340.79,77.17L341.47,72.83L342.79,66.37L345.97,60.52L349.82,59.00z"/><path style="fill:#b3bad6" d="M394.10,130.93L394.10,132.44L393.97,142.14L393.73,143.90L372.28,146.50L372.54,132.49L372.79,132.24L394.00,129.68z"/><path style="fill:#b3bad6" d="M139.63,135.61L136.63,137.13L136.10,138.11L135.89,139.91L135.29,140.30L135.23,149.26L135.28,149.94L135.75,149.76L135.89,149.84L135.91,154.25L118.06,156.43L114.21,156.68L114.01,156.39L114.28,140.87L114.81,139.89L117.83,138.15L118.06,118.06L118.21,111.69L139.92,109.10z"/><path style="fill:#787e7e" d="M221.36,92.62L220.72,92.81L221.09,92.35L221.39,92.36z"/><path style="fill:#787e7e" d="M220.55,93.13L219.74,93.57L220.30,92.88L220.72,92.81z"/><path style="fill:#787e7e" d="M224.94,101.14L226.42,103.68L227.92,107.94L229.06,113.62L229.20,114.89L229.31,116.13L229.46,117.14L229.67,120.09L228.66,116.23L227.92,111.68L220.56,112.54L220.14,109.45L220.15,104.26L220.63,101.74L221.65,100.00L223.15,99.64z"/><path style="fill:#787e7e" d="M218.12,97.72L217.39,102.76L217.12,111.06L216.56,111.06L216.80,102.42L217.62,97.47L219.28,93.61L219.74,93.57z"/><path style="fill:#787e7e" d="M230.36,119.20L230.92,119.20L230.93,124.58L230.68,127.84L229.67,131.60L228.32,133.80L227.83,133.87L227.91,133.39L229.18,131.36L229.93,128.34L230.43,121.49z"/><path style="fill:#787e7e" d="M228.95,141.91L227.25,141.74L228.42,141.38L229.78,140.53z"/><path style="fill:#958d87" d="M221.49,89.22L220.22,89.54L220.54,89.10z"/><path style="fill:#a69e96" d="M229.20,114.89L229.06,113.62L229.17,113.71z"/><path style="fill:#a69e96" d="M229.46,117.14L229.31,116.13L229.42,116.22z"/><path style="fill:#c6c1bc" d="M377.79,47.67L378.01,48.40L378.11,49.56L378.26,49.68L378.18,50.35L374.81,50.74L374.48,53.14L373.90,53.03L373.48,52.23L374.34,52.02L374.44,50.98L374.18,50.72L370.81,51.00L370.24,51.22L368.39,49.48L368.21,48.97L372.90,48.32L373.30,47.47L373.81,47.23L377.18,46.98z"/><path style="fill:#c6c1bc" d="M343.82,52.23L344.35,54.43L342.72,54.52L337.45,55.27L337.28,56.09L336.60,56.48L336.25,56.05L335.94,54.02L336.43,52.99L339.21,52.51L343.57,51.97z"/><path style="fill:#c6c1bc" d="M398.53,70.27L398.87,70.98L398.92,71.63L399.08,71.73L398.92,73.34L395.89,73.82L395.54,75.95L394.71,75.84L394.56,75.32L395.23,75.16L395.25,73.59L392.57,74.04L390.46,72.05L390.34,71.74L393.67,71.35L394.36,70.28L397.77,69.82z"/><path style="fill:#c6c1bc" d="M364.66,75.02L365.13,76.08L365.15,77.25L358.51,78.08L358.36,79.19L357.47,79.26L357.08,78.61L357.08,76.40L357.49,75.83L357.92,75.69L363.29,75.09L364.41,74.84z"/><path style="fill:#c6c1bc" d="M340.55,103.17L340.57,104.33L333.93,105.17L333.79,106.24L333.10,106.38L332.77,106.18L332.50,105.45L332.50,103.49L332.91,102.90L334.45,102.70L334.85,102.53L338.46,102.17L340.03,101.91z"/><path style="fill:#c6c1bc" d="M401.03,126.97L401.64,127.91L401.68,128.82L401.83,128.92L401.74,130.09L401.18,130.29L399.14,130.50L398.66,130.77L398.49,131.86L398.07,132.92L397.47,132.79L397.26,132.19L398.00,131.90L397.98,130.49L394.10,130.93L394.00,129.68L393.53,128.72L393.87,128.50L395.91,128.27L396.74,127.85L397.13,127.24L400.75,126.73z"/><path style="fill:#c6c1bc" d="M367.89,133.27L367.92,134.18L361.27,135.02L361.11,136.14L360.64,136.07L360.19,136.22L359.84,135.55L359.86,133.11L360.26,132.76L364.96,132.14L367.14,131.73z"/><path style="fill:#b2adaa" d="M378.01,48.40L377.79,47.67L377.92,47.73z"/><path style="fill:#b2adaa" d="M378.26,49.68L378.11,49.56L378.01,48.40L378.15,48.51z"/><path style="fill:#b2adaa" d="M374.44,50.98L374.34,52.02L373.48,52.23L371.23,52.47L370.24,51.22L370.81,51.00L374.18,50.72z"/><path style="fill:#b2adaa" d="M378.42,51.34L378.17,52.09L377.67,52.59L374.48,53.14L374.81,50.74L378.18,50.35L378.26,49.68L378.40,49.77z"/><path style="fill:#b2adaa" d="M344.42,54.68L344.05,55.85L339.14,56.49L337.36,56.76L336.60,56.48L337.28,56.09L337.45,55.27L342.72,54.52L344.35,54.43z"/><path style="fill:#b2adaa" d="M399.08,71.73L398.92,71.63L398.87,70.98z"/><path style="fill:#b2adaa" d="M392.57,74.04L395.25,73.59L395.23,75.16L394.56,75.32L393.56,75.29L392.73,74.30z"/><path style="fill:#b2adaa" d="M399.25,74.92L398.73,75.66L395.54,75.95L395.89,73.82L398.92,73.34L399.08,71.73L399.22,71.84z"/><path style="fill:#b2adaa" d="M357.43,79.44L357.47,79.26L358.36,79.19L358.51,78.08L365.15,77.25L365.05,78.86L359.02,79.60L357.83,79.60z"/><path style="fill:#b2adaa" d="M333.79,106.24L333.93,105.17L340.57,104.33L340.54,105.76L340.24,105.97L336.20,106.42L335.61,106.67L333.27,106.70L333.10,106.38z"/><path style="fill:#b2adaa" d="M401.83,128.92L401.68,128.82L401.64,127.91L401.75,128.00z"/><path style="fill:#b2adaa" d="M398.00,131.90L397.26,132.19L394.10,132.44L394.10,130.93L397.98,130.49z"/><path style="fill:#b2adaa" d="M402.01,131.62L401.41,132.52L398.07,132.92L398.49,131.86L398.66,130.77L399.14,130.50L401.18,130.29L401.74,130.09L401.83,128.92L401.97,129.03z"/><path style="fill:#b2adaa" d="M361.11,136.14L361.27,135.02L367.92,134.18L367.91,135.39L367.32,135.80L363.70,136.24L360.59,136.58L360.19,136.22L360.64,136.07z"/><path style="fill:#c8cfee" d="M78.21,84.33L78.67,85.37L78.97,87.54L78.37,88.15L76.17,88.46L75.40,89.95L75.00,90.14L74.38,89.65L73.90,87.88L73.90,84.93L74.55,83.84L77.44,83.60z"/><path style="fill:#c8cfee" d="M74.42,134.02L74.91,134.78L75.30,136.69L75.18,138.14L72.55,138.52L71.91,139.89L71.48,140.27L70.63,139.31L70.39,138.30L70.41,134.63L70.84,134.05L71.57,133.77L73.92,133.76z"/><path style="fill:#c8cfee" d="M135.75,149.76L135.28,149.94L135.23,149.26z"/><path style="fill:#c8cfee" d="M102.01,164.37L102.50,165.88L102.54,168.06L100.66,168.14L99.75,168.48L98.76,170.10L98.22,169.67L97.72,168.66L97.49,167.14L97.48,165.21L97.87,164.09L98.39,163.61L100.75,163.35z"/><path style="fill:#444444" d="M263.63,82.96L263.47,82.92L263.40,82.29L263.54,82.37z"/><path style="fill:#444444" d="M264.38,84.96L264.23,84.93L264.12,84.28L264.27,84.40z"/><path style="fill:#444444" d="M265.14,86.53L265.38,87.54L265.02,87.15L264.87,86.29z"/><path style="fill:#444444" d="M265.64,88.23L265.48,88.19L265.38,87.54L265.53,87.66z"/><path style="fill:#444444" d="M266.40,89.78L268.80,98.66L270.56,108.70L271.56,119.73L271.56,126.33L271.31,131.60L270.56,137.87L268.55,144.89L265.70,149.06L262.47,150.35L230.60,154.35L228.64,154.36L228.26,154.07L231.59,152.83L234.44,148.66L236.45,142.39L237.70,134.61L238.18,123.47L238.11,123.00L270.58,118.80L270.06,109.70L268.30,98.42L266.12,89.55z"/><path style="fill:#b3bad6" d="M349.43,40.13L346.80,41.06L346.80,40.57L347.98,39.96L349.37,39.99z"/><path style="fill:#b3bad6" d="M347.72,41.24L348.22,40.95L349.33,40.96L349.33,42.07L347.80,41.98z"/><path style="fill:#b3bad6" d="M363.93,43.90L363.79,43.99L342.21,46.58L342.21,45.47L362.03,42.98L363.90,42.90z"/><path style="fill:#b3bad6" d="M339.30,56.72L340.30,58.77L340.55,60.34L339.98,60.56L336.93,60.87L337.36,56.76L339.14,56.49z"/><path style="fill:#b3bad6" d="M379.28,72.99L376.65,73.92L376.65,73.43L377.83,72.82L379.22,72.85z"/><path style="fill:#b3bad6" d="M377.57,74.64L377.56,74.10L379.12,73.55L379.42,73.55L379.43,74.93L378.15,74.85z"/><path style="fill:#b3bad6" d="M109.05,75.49L87.38,78.20L87.37,77.08L108.73,74.31L108.88,74.21L109.03,74.32z"/><path style="fill:#b3bad6" d="M88.73,82.59L89.97,84.10L89.97,85.45L89.14,85.62L87.61,85.71L87.71,81.91L87.97,81.84z"/><path style="fill:#b3bad6" d="M74.37,85.31L74.61,85.35L75.21,86.39L75.17,86.72L74.59,86.73z"/><path style="fill:#b3bad6" d="M361.62,86.36L362.61,87.63L363.87,90.13L365.13,94.14L365.13,95.23L357.77,96.26L357.85,91.72L358.34,88.70L359.29,86.64L360.38,85.86z"/><path style="fill:#b3bad6" d="M84.70,88.37L85.70,90.88L85.70,91.97L82.36,92.49L82.43,89.20L82.82,88.09L83.12,87.63L83.95,87.60z"/><path style="fill:#b3bad6" d="M369.39,89.63L370.66,93.15L367.12,93.74L367.12,90.71L367.65,89.23L368.05,88.85L368.64,88.85z"/><path style="fill:#b3bad6" d="M75.00,90.14L75.40,89.95L76.17,88.46L78.37,88.15L78.97,87.54L78.93,88.97L78.35,90.14L76.84,90.38L75.16,90.38z"/><path style="fill:#b3bad6" d="M91.54,82.74L91.22,93.50L91.16,82.57z"/><path style="fill:#b3bad6" d="M110.05,105.91L111.04,107.42L111.04,108.54L108.70,108.80L108.70,104.90L109.01,104.88z"/><path style="fill:#b3bad6" d="M95.45,108.40L95.68,108.43L96.01,108.93L95.98,109.80L95.40,109.80z"/><path style="fill:#b3bad6" d="M367.40,109.68L367.64,109.94L367.64,113.55L364.03,114.05L364.10,113.56L365.14,112.80L366.01,110.96L366.38,111.00L366.64,110.56L367.13,107.67z"/><path style="fill:#b3bad6" d="M369.08,111.01L369.12,109.01L369.80,108.19L372.68,106.54L372.82,80.35L373.30,80.08L393.66,77.61L394.44,77.11L394.52,77.00L394.25,104.03L391.63,105.43L390.94,106.25L390.71,110.28L390.47,122.66L368.81,125.36L368.81,120.99L369.38,120.81L369.37,111.22z"/><path style="fill:#b3bad6" d="M361.62,112.45L362.35,113.22L363.60,113.71L363.49,114.07L361.87,113.45L358.02,113.46L343.70,115.25L343.33,115.13L343.67,114.16L343.96,113.95L358.02,112.21L360.86,112.20z"/><path style="fill:#b3bad6" d="M96.15,113.20L97.13,111.43L99.75,111.04L99.99,110.17L100.00,111.54L99.51,112.80L98.93,113.23L96.45,113.49z"/><path style="fill:#b3bad6" d="M99.23,120.25L100.28,121.70L101.50,124.50L102.27,127.83L97.40,128.50L96.67,128.77L95.65,128.86L95.73,124.83L96.41,121.49L97.15,120.23L98.00,119.73z"/><path style="fill:#b3bad6" d="M115.05,121.99L115.82,124.83L112.28,125.34L112.29,122.82L112.80,120.82L113.20,120.46L114.06,120.45z"/><path style="fill:#b3bad6" d="M85.22,132.75L86.46,134.26L86.38,135.55L84.18,135.88L84.12,131.99L84.43,131.97z"/><path style="fill:#b3bad6" d="M87.96,116.80L87.71,133.13L87.71,109.53L87.96,90.11z"/><path style="fill:#b3bad6" d="M71.40,136.02L71.67,136.87L70.81,136.88L70.89,135.81L71.15,135.54z"/><path style="fill:#b3bad6" d="M75.41,138.62L75.09,139.80L73.91,140.38L71.48,140.27L71.91,139.89L72.55,138.52L75.18,138.14L75.30,136.69L75.41,136.79z"/><path style="fill:#b3bad6" d="M90.97,148.42L90.77,148.96L90.56,148.93L90.71,141.13L90.97,137.02z"/><path style="fill:#b3bad6" d="M112.56,162.60L113.54,163.88L113.81,165.20L113.49,165.41L111.27,165.72L111.27,161.90L111.56,161.61z"/><path style="fill:#b3bad6" d="M98.55,165.53L98.75,166.73L98.17,166.75L98.18,165.34z"/><path style="fill:#b3bad6" d="M102.52,168.99L101.99,169.97L101.18,170.15L98.90,170.24L98.76,170.10L99.75,168.48L100.66,168.14L102.54,168.06z"/><path style="fill:#b3bad6" d="M139.39,174.76L139.04,175.41L126.83,177.00L117.37,178.04L117.55,177.52L117.71,163.87L139.41,161.29z"/><g id="Actor_.0"><g style="stroke:#000000;stroke-width:0.176"><path d="M80.37,122.97L82.75,125.57L83.15,125.83L83.52,125.71L83.81,125.21L84.00,124.39L84.08,123.33L84.08,122.51"/><path d="M82.38,92.45L82.42,93.41L82.73,95.44L83.21,97.27L83.82,98.70L84.49,99.59L85.15,99.84L85.72,99.42L86.14,98.37L86.38,96.81L86.39,94.91L86.19,92.95L85.79,90.92L85.23,89.27L84.58,88.09L83.91,87.51L83.29,87.60L82.79,88.34L82.45,89.66L82.33,91.42L82.38,92.45"/><path d="M90.74,149.12L90.84,136.90L87.59,133.35L87.90,133.31L88.26,90.30L91.20,93.51L91.29,82.51L87.39,78.25L87.40,77.03L81.24,70.28L81.11,70.19"/><path d="M84.09,135.67L84.11,132.61L84.14,132.26L84.20,131.99L84.30,131.82L84.42,131.78L84.55,131.87L86.28,133.76L86.42,133.97L86.54,134.27L86.63,134.65L86.69,135.06L86.71,135.46L86.69,136.75L86.68,138.51L86.66,138.86L86.59,139.13L86.49,139.30L86.37,139.34L86.24,139.26L84.51,137.36L84.38,137.15L84.26,136.85L84.16,136.47L84.10,136.07L84.09,135.67"/><path d="M87.90,133.31L91.15,136.86L90.84,136.90"/><path d="M87.59,133.35L87.95,89.96L88.26,90.30"/><path d="M89.04,88.37L88.08,87.33L87.95,87.12L87.83,86.81L87.74,86.44L87.68,86.03L87.66,85.63L87.69,82.58L87.71,82.23L87.77,81.95L87.87,81.79L87.99,81.75L88.13,81.83L89.86,83.73L89.99,83.93L90.11,84.24L90.20,84.61L90.26,85.02L90.28,85.42L90.26,88.47L90.23,88.83L90.17,89.10L90.07,89.27L89.95,89.31L89.81,89.22L89.04,88.37"/><path d="M96.21,77.16L87.39,78.25"/><path d="M87.40,77.03L94.65,76.13"/><path d="M91.05,149.08L91.15,136.86"/><path d="M91.29,82.51L91.60,82.48L91.51,93.47L91.20,93.51"/><path d="M139.80,135.57L117.98,138.28L118.20,112.00L118.18,111.60L118.12,111.19L118.03,110.82L117.91,110.51L117.78,110.30L111.62,103.55L111.61,104.78L107.72,100.51L108.03,100.47L91.60,82.48"/><path d="M97.28,137.53L96.86,136.26L96.11,132.64L95.74,128.87L95.70,127.05L95.77,125.35L96.20,122.46L96.99,120.51L98.05,119.74L98.56,119.93L97.92,120.40L97.13,122.34L96.70,125.23L96.64,126.93L96.67,128.75L97.05,132.52L97.79,136.14L98.82,139.21L100.03,141.40L101.24,142.45L100.33,142.58L99.08,141.51L97.88,139.32L97.28,137.53"/><path d="M96.50,75.90L109.23,74.33"/><path d="M101.24,142.45L101.48,142.41L102.42,141.03L103.03,138.59L103.27,135.34L103.09,131.64L102.52,127.90L101.63,124.51L100.50,121.85L99.26,120.19L98.56,119.93"/><path d="M98.05,76.93L109.22,75.55"/><path d="M107.17,166.74L107.27,154.90L110.51,158.45L110.51,158.07L107.58,154.86L107.27,154.90"/><path d="M107.72,100.51L107.62,111.51L110.87,115.06L110.51,158.07"/><path d="M108.80,109.79L108.71,109.41L108.65,109.00L108.63,108.60L108.66,105.55L108.68,105.20L108.74,104.93L108.84,104.76L108.96,104.72L109.10,104.80L110.83,106.70L110.96,106.91L111.08,107.21L111.17,107.59L111.23,107.99L111.25,108.68L111.22,111.45L111.20,111.80L111.14,112.07L111.04,112.24L110.92,112.28L110.78,112.19L109.05,110.30L108.92,110.09L108.80,109.79"/><path d="M111.61,166.99L111.74,167.20L113.47,169.09L113.61,169.18L113.73,169.14L113.83,168.97L113.89,168.70L113.92,168.34L113.94,165.29L113.92,164.89L113.86,164.49L113.77,164.11L113.65,163.80L113.52,163.60L111.79,161.70L111.66,161.62L111.53,161.66L111.44,161.82L111.37,162.10L111.35,162.45L111.34,163.44L111.32,165.50L111.34,165.90L111.40,166.31L111.49,166.69L111.61,166.99"/><path d="M111.62,103.55L132.43,100.98"/><path d="M113.31,130.42L113.17,130.08L112.69,128.26L112.38,126.23L112.28,124.24L112.41,122.48L112.74,121.16L113.25,120.42L113.87,120.33L114.54,120.91L115.19,122.09L115.75,123.74L116.15,125.70L116.35,127.73L116.33,129.63L116.10,131.19L115.67,132.24L115.10,132.66L114.45,132.41L113.78,131.52L113.31,130.42"/><path d="M117.35,178.22L117.47,178.18L117.57,178.01L117.64,177.74L117.66,177.38L117.77,163.94L115.39,161.34L114.99,160.72L114.64,159.80L114.36,158.67L114.18,157.45L114.13,156.25L114.24,142.36L114.29,141.46L114.43,140.72L114.64,140.19L114.92,139.90L117.98,138.28"/><path d="M117.77,163.94L139.59,161.24"/><path d="M135.98,149.88L135.35,149.96L135.36,149.20"/></g><g style="stroke:#000000;stroke-width:0.529"><path d="M86.77,69.49L102.93,67.49L103.06,67.58L109.23,74.33L109.22,75.55L132.43,100.98L133.44,100.85L139.60,107.60L139.73,107.81L139.85,108.11L139.95,108.49L140.00,108.90L140.02,109.30L139.80,135.57L136.74,137.20L136.46,137.49L136.25,138.02L136.11,138.76L136.06,139.66L136.06,140.10L135.44,140.18L135.36,149.20L135.98,149.88L135.95,153.55L136.00,154.75L136.18,155.97L136.46,157.10L136.82,158.02L137.21,158.63L139.59,161.24L139.48,174.68L139.46,175.04L139.39,175.31L139.30,175.48L139.17,175.52L117.35,178.22L117.22,178.13L107.17,167.12L107.17,166.74L91.05,149.08L90.74,149.12L80.68,138.11L80.55,137.90L80.43,137.60L80.34,137.22L80.28,136.81L80.26,136.41L80.37,122.97L84.08,122.51L84.19,109.44L84.16,108.45L84.03,107.42L83.83,106.43L83.57,105.56L80.58,97.30L80.80,71.03L80.83,70.67L80.89,70.40L80.99,70.23L81.11,70.19L84.93,69.72"/></g></g><g id="Actor_.1"><g style="stroke:#000000;stroke-width:0.176"><path d="M215.84,112.26L216.53,119.11L218.26,127.57L220.67,134.75L223.47,139.86L225.93,141.98L226.38,142.36L229.08,141.98L231.27,138.75L232.71,133.02L233.26,125.43L232.85,116.78L232.66,115.56L231.52,108.02L229.42,100.09L226.78,93.86L223.89,90.00L221.05,88.93L218.57,90.76L216.73,95.30L215.72,102.05L215.65,110.29L215.84,112.26"/><path d="M226.68,146.31L229.77,145.86L232.28,142.16L233.94,135.59L233.96,135.37L234.57,126.86L234.10,116.93L232.58,106.87L230.17,97.78L227.14,90.62L226.03,89.15L223.81,86.19L220.55,84.96"/></g><g style="stroke:#000000;stroke-width:0.529"><path d="M220.55,84.96L217.70,87.06L215.59,92.27L214.43,100.03L214.25,104.60L214.35,109.48L215.36,119.61L217.35,129.32L220.11,137.56L223.34,143.43L226.68,146.31L226.72,146.30"/></g></g><g id="Actor_.2"><g style="stroke:#000000;stroke-width:0.176"><path d="M338.92,90.97L338.91,91.79L338.84,92.85L338.65,93.67L338.35,94.17L337.99,94.29L337.58,94.03L335.21,91.43"/><path d="M335.94,38.65L336.08,38.74L342.24,45.49L342.23,46.71L366.44,73.23L366.45,72.01L372.61,78.76L372.74,78.97L372.86,79.27L372.96,79.65L373.02,80.06L373.03,80.46L372.82,106.73L369.75,108.36L369.48,108.64L369.26,109.18L369.13,109.92L369.07,110.82L369.07,111.26L369.69,111.18L369.61,120.96L368.99,121.04L367.31,119.20"/><path d="M339.35,56.53L339.75,57.07L340.36,58.50L340.84,60.33L341.15,62.35L341.24,64.35L341.12,66.10L340.78,67.43L340.28,68.17L339.66,68.26L338.99,67.69L338.34,66.50L337.78,64.84L337.38,62.89L337.18,60.86L337.20,58.95L337.43,57.40L337.70,56.73"/><path d="M343.51,115.33L343.77,114.06L341.50,100.97L340.62,89.96L338.94,88.12"/><path d="M340.62,89.96L341.25,89.88L339.56,88.04"/><path d="M339.64,79.02L340.70,80.18L341.33,80.11L341.19,87.67L341.25,89.88"/><path d="M339.74,102.11L339.77,102.04L339.96,101.89L340.19,101.98L340.42,102.28L340.63,102.78L340.79,103.41L340.90,104.10L340.93,104.79L340.89,105.39L340.77,105.85L340.60,106.10L340.39,106.13L340.24,106.01"/><path d="M340.70,80.18L341.07,75.80L342.96,66.40L346.03,60.58L349.96,58.93L354.32,61.66L358.65,68.45L361.28,75.42"/><path d="M342.23,46.71L346.89,46.13"/><path d="M342.24,45.49L345.73,45.05"/><path d="M343.77,114.06L359.67,112.10L360.24,112.08L360.88,112.16L361.69,112.42L361.90,112.54"/><path d="M343.31,52.07L343.34,52.00L343.54,51.85L343.76,51.94L343.99,52.25L344.20,52.74L344.37,53.37L344.47,54.07L344.51,54.75L344.46,55.36L344.35,55.81L344.17,56.07L343.96,56.10L343.82,55.97"/><path d="M347.29,44.86L364.06,42.78"/><path d="M346.87,41.29L346.92,41.40L347.43,41.76L347.95,41.94L347.85,41.87L347.73,41.60L347.85,41.33L348.20,41.09L348.74,40.90L349.41,40.79L350.14,40.78L350.85,40.85L351.46,41.00L351.91,41.22L352.15,41.49L352.16,41.76L351.96,41.98L352.15,41.93L352.80,41.62L353.14,41.24L353.14,40.84L352.86,40.53L352.79,40.46L352.14,40.14L351.25,39.92L350.22,39.82L349.16,39.84L348.19,40.00L347.42,40.26L346.92,40.61L346.74,41.01L346.87,41.29L346.91,41.20L347.41,40.85L348.19,40.58L349.16,40.43L350.21,40.40L351.24,40.51L352.13,40.73L352.79,41.05L353.05,41.34"/><path d="M348.45,45.94L364.05,44.01"/><path d="M351.96,41.98L351.27,42.15L350.24,42.24L349.18,42.20L348.21,42.03L347.95,41.94"/><path d="M367.10,104.32L365.50,91.74L364.23,87.95L362.64,85.06L361.00,83.65L359.48,83.86L358.24,85.69L357.42,88.92L357.11,93.21L357.35,98.10L358.10,103.04L359.28,107.52L360.77,111.04L362.41,113.22L364.01,113.82L365.41,112.79L366.45,110.23L367.02,106.41L367.10,104.32L367.39,109.42L369.07,111.26"/><path d="M359.18,104.33L360.33,107.74L361.67,110.18L363.05,111.37L364.33,111.19L365.38,109.65L366.07,106.92L366.33,103.30L366.26,101.82L366.13,99.19L365.50,95.01L364.50,91.24L363.24,88.27L361.86,86.43L360.51,85.92L359.33,86.80L358.45,88.96L357.97,92.17L357.94,96.09L358.36,100.30L359.18,104.33"/><path d="M360.51,83.40L359.73,83.51L361.10,83.31L360.51,83.40"/><path d="M359.73,83.51L359.48,83.86"/><path d="M362.41,113.22L362.73,113.49L364.36,114.11L365.79,113.05L366.86,110.44L367.29,107.57"/><path d="M364.71,88.05L364.58,87.68L362.96,84.73L361.29,83.29L361.10,83.31L363.50,82.95"/><path d="M365.50,91.74L365.40,90.99L362.62,79.21"/><path d="M364.36,114.11L368.02,113.57"/><path d="M363.96,114.37L363.37,113.74"/><path d="M364.79,78.94L364.93,79.07L365.14,79.04L365.32,78.78L365.43,78.33L365.48,77.73L365.44,77.04L365.34,76.34L365.18,75.76L364.96,75.22L364.73,74.91L364.51,74.83L364.31,74.97L364.28,75.04"/><path d="M366.97,131.94L367.00,131.87L367.20,131.73L367.42,131.81L367.65,132.12L367.86,132.61L368.03,133.24L368.13,133.94L368.17,134.65L368.12,135.23L368.01,135.68L367.84,135.94L367.62,135.97L367.48,135.84"/><path d="M367.69,97.40L367.74,97.66L368.30,99.32L368.94,100.50L369.61,101.08L370.24,100.99L370.74,100.24L371.08,98.92L371.20,97.17L371.11,95.17L370.80,93.15L370.32,91.32L369.71,89.88L369.04,88.99L368.38,88.75L367.81,89.17L367.39,90.22L367.15,91.77L367.14,93.68L367.34,95.71L367.69,97.40"/><path d="M366.45,72.01L387.26,69.43"/><path d="M367.94,48.27L367.63,48.31L367.94,48.65"/><path d="M368.99,121.04L368.96,124.71L369.01,125.91L369.19,127.13L369.47,128.26L369.83,129.17L370.23,129.79L372.61,132.40L372.49,145.84L372.47,146.20L372.41,146.47L372.31,146.63L372.19,146.68"/><path d="M369.61,120.96L367.93,119.12"/><path d="M367.95,118.75L368.03,117.07L368.01,110.10"/><path d="M372.61,132.40L393.80,129.77L393.98,129.74L394.13,129.68L394.22,129.61L394.25,129.54"/><path d="M372.82,106.73L394.01,104.11L394.34,104.09L394.43,104.09L394.46,104.12"/><path d="M377.39,74.58L376.88,74.22L376.83,74.11L376.87,74.02L377.37,73.67L378.15,73.41L379.12,73.25L380.17,73.22L381.20,73.33L382.09,73.55L382.75,73.87L383.01,74.16L382.76,74.44L382.11,74.75L381.92,74.80L382.12,74.58L382.11,74.31L381.87,74.04L381.42,73.82L380.81,73.67L380.10,73.60L379.36,73.62L378.69,73.72L378.16,73.91L377.81,74.15L377.69,74.42L377.81,74.69L377.91,74.76L377.39,74.58"/><path d="M376.83,74.11L376.70,73.83L376.87,73.43L377.38,73.08L378.15,72.82L379.12,72.66L380.18,72.64L381.21,72.74L382.10,72.96L382.75,73.28L383.10,73.66L383.10,74.07L383.01,74.16"/><path d="M377.91,74.76L378.17,74.85L379.14,75.02L380.20,75.06L381.23,74.97L381.92,74.80"/><path d="M394.13,143.88L394.05,143.71L393.86,143.44"/><path d="M394.68,76.69L394.60,77.12L394.41,77.53"/></g><g style="stroke:#000000;stroke-width:0.529"><path d="M367.95,118.75L363.96,114.37L363.38,113.97L362.23,113.56L361.05,113.35L360.05,113.31L359.41,113.36L343.51,115.33L335.54,106.59"/><path d="M335.11,102.68L335.21,91.43L338.92,90.97L338.94,88.12L339.56,88.04L339.64,79.02L339.02,78.34L339.03,77.90L338.99,76.90L338.87,75.88L338.67,74.89L338.40,74.01L335.42,65.76L335.63,39.48L335.66,39.13L335.72,38.86L335.82,38.69L335.94,38.65L338.50,38.33"/><path d="M363.86,136.29L364.05,137.83L372.05,146.59L372.19,146.68L394.11,143.95L394.13,143.88L394.25,129.54L394.21,129.46L392.05,127.09L391.65,126.47L391.29,125.56L391.01,124.43L390.84,123.21L390.78,122.00L390.90,108.12L390.95,107.22L391.09,106.48L391.30,105.94L391.57,105.65L394.46,104.12L394.68,76.69L394.65,76.46L394.57,76.27L394.43,76.06L388.27,69.31L387.26,69.43L384.37,66.27L384.06,66.31L367.94,48.65L367.94,48.27L364.05,44.01L364.06,42.78L357.90,36.03L357.76,35.95L340.07,38.14"/><path d="M367.95,118.75L367.93,119.12L367.31,119.20L366.27,128.11L365.01,132.19"/></g></g><g id="Actor_.3"><g style="stroke:#000000;stroke-width:0.176"><path d="M214.35,109.48L214.25,104.60L214.43,100.02L215.59,92.27L217.70,87.06L220.55,84.96L223.81,86.19L227.14,90.62L227.91,92.45L230.17,97.78L232.58,106.87L234.10,116.93L234.57,126.86L233.94,135.59L232.28,142.16L229.77,145.86L226.68,146.31L223.34,143.43L220.11,137.56L217.35,129.32L216.22,123.82L215.36,119.61L214.35,109.48"/></g><g style="stroke:#000000;stroke-width:0.529"><path d="M227.84,75.84L252.43,72.80L252.82,72.81L256.14,73.11L256.50,73.25L260.25,76.62L263.61,82.31L263.75,82.56L266.75,90.34L269.20,99.68L270.90,109.89L271.75,120.22L271.67,129.89L270.67,138.19L270.60,138.47L268.74,144.85L266.16,148.75L265.94,149.06L265.62,149.28L262.48,150.43L262.10,150.54L229.68,154.56L229.29,154.54L228.92,154.40L225.50,152.67L225.22,152.42L221.78,147.98L221.63,147.70L218.43,140.92L215.68,132.29L213.58,122.42L212.29,112.05L211.91,101.96L212.45,92.89L213.89,85.51L213.96,85.20L216.21,80.01L216.42,79.71L219.31,77.15L219.63,76.92L220.01,76.81L226.43,76.02"/></g></g><g id="Actor_.4"><g style="stroke:#000000;stroke-width:0.176"><path d="M217.53,118.86L219.02,126.12L221.13,132.41L223.59,136.90L226.14,139.10L226.75,139.01L224.21,136.82L221.74,132.34L219.64,126.04L218.11,118.62L217.34,110.88L217.40,103.65L218.29,97.73L219.90,93.75L221.80,92.34L221.46,92.22L219.29,93.82L217.67,97.80L216.78,103.73L216.72,110.95L217.50,118.70L217.53,118.86"/><path d="M219.05,118.86L218.90,118.10L218.28,111.92L218.33,106.16L219.03,101.43L220.32,98.26L222.06,96.98L222.67,96.90L224.66,97.65L226.69,100.35L228.54,104.71L230.00,110.26L230.93,116.39L231.22,122.44L230.84,127.75L229.83,131.76L228.29,134.02L226.41,134.29L225.79,134.36L223.76,132.61L221.79,129.04L220.11,124.01L219.05,118.86"/><path d="M222.06,96.98L224.04,97.73L226.07,100.43L227.92,104.79L229.39,110.33L230.32,116.46L230.60,122.51L230.22,127.83L229.21,131.84L227.68,134.09L225.89,134.35"/><path d="M226.75,139.01L228.51,138.76L230.43,135.92L231.70,130.90L232.18,124.24L231.81,116.65L230.65,108.96L228.81,102.01L226.49,96.54L223.95,93.16L221.80,92.34"/><path d="M223.47,99.80L224.03,100.28L222.97,100.43"/><path d="M224.03,100.28L225.21,101.29L226.77,104.13L226.76,104.11"/><path d="M226.90,131.38L228.22,130.40L228.14,130.61"/><path d="M226.77,104.13L228.23,108.49L229.04,112.46"/><path d="M228.22,130.40L229.20,128.01L229.17,128.20"/><path d="M229.20,128.01L229.78,124.08L229.82,119.05L229.70,117.77"/></g><g style="stroke:#000000;stroke-width:0.529"><path d="M225.33,141.06L225.16,140.91L222.32,137.13L222.18,136.86L219.63,130.84L217.60,123.18L216.32,114.71L215.92,106.36L216.45,99.02L217.93,93.15L220.21,89.79"/><path d="M226.39,141.52L228.01,142.13"/><path d="M229.04,112.46L229.45,116.58L229.70,117.77"/><path d="M229.70,117.77L229.29,113.66L229.04,112.46"/></g></g><g id="Actor_.5"><g style="stroke:#000000;stroke-width:0.176"><path d="M357.67,79.35L357.84,79.41L357.98,79.31L358.01,79.24L358.09,79.04L358.15,78.64L358.16,78.16L358.10,77.64L358.00,77.14L357.86,76.72L357.70,76.42L357.52,76.28L357.37,76.30"/><path d="M358.26,79.76L358.44,79.62L358.58,79.29L358.65,78.80L358.65,78.19L358.59,77.55L358.46,76.93L358.29,76.40L358.08,76.02L357.87,75.84"/><path d="M395.42,76.16L395.69,75.95L395.89,75.45L396.00,74.71L396.01,73.81L395.91,72.84L395.72,71.91L395.46,71.12L395.15,70.56L394.83,70.28"/><path d="M395.16,75.25L395.11,75.21L395.06,75.19L394.99,75.19L394.63,75.23"/><path d="M394.71,71.21L394.66,71.25L394.60,71.27L394.13,71.33"/><path d="M398.92,75.68L399.16,75.32L399.32,74.69L399.38,73.86L399.34,72.91L399.19,71.94L398.96,71.07L398.67,70.39L398.35,69.96"/></g><g style="stroke:#000000;stroke-width:0.529"><path d="M365.25,78.89L358.26,79.76L358.05,79.68L357.67,79.35L357.50,79.12L357.35,78.76L357.22,78.29L357.15,77.78L357.12,77.27L357.15,76.82L357.24,76.49L357.67,75.87L364.78,74.98"/><path d="M393.77,75.34L394.63,75.23L394.79,75.61L395.11,76.04L395.42,76.16L398.92,75.68L399.23,75.24L399.44,74.93L399.58,74.39L399.63,73.67L399.59,72.85L399.47,72.01L399.27,71.26L399.01,70.67L398.74,70.30L398.35,69.96L398.04,69.85L394.54,70.32L394.29,70.68L394.13,71.33L390.52,71.78"/></g></g><g id="Actor_.6"><g style="stroke:#000000;stroke-width:0.176"><path d="M70.90,138.50L70.83,138.32L70.69,137.72L70.61,137.07L70.60,136.45L70.66,135.93L70.78,135.55L70.95,135.36L71.15,135.39L71.37,135.62L71.40,135.70L71.39,135.68L71.22,135.66L71.07,135.82L70.97,136.13L70.92,136.57L70.93,137.09L71.00,137.63L71.12,138.13L71.27,138.54L71.45,138.81L71.63,138.92L71.78,138.86L71.79,138.84L71.78,138.91L71.63,139.20L71.44,139.28L71.23,139.15L71.02,138.82L70.90,138.50"/><path d="M72.20,135.13L72.06,136.09L72.10,136.86L72.30,137.62L72.74,138.50L75.35,138.17L75.50,137.23L75.46,136.45L75.25,135.69L74.82,134.81L72.20,135.13L71.61,134.84L71.27,134.57L71.02,134.38L70.78,134.40L70.57,134.62"/><path d="M72.16,140.63L72.02,140.09L72.07,139.61L72.29,139.11L72.74,138.50"/><path d="M71.08,133.90L71.09,134.27L71.27,134.57L71.52,134.94L71.75,135.47L71.95,136.14L72.10,136.86L72.19,137.62L72.22,138.38L72.18,139.06L72.07,139.61L71.92,140.00L71.71,140.22L71.47,140.24L71.22,140.06"/><path d="M71.40,135.70L71.57,136.04L71.73,136.59L71.84,137.23L71.89,137.87L71.87,138.45L71.79,138.84"/><path d="M75.22,139.69L75.44,139.19L75.49,138.71L75.35,138.17"/><path d="M74.82,134.81L74.80,134.44L74.63,134.15"/></g><g style="stroke:#000000;stroke-width:0.529"><path d="M70.74,139.16L70.54,138.49L70.39,137.76L70.30,137.00L70.27,136.25L70.31,135.57L70.41,135.02L70.57,134.62L70.63,134.52L71.08,133.90L73.69,133.58L74.29,133.88L74.63,134.15L74.88,134.51L75.11,135.05L75.31,135.72L75.46,136.45L75.55,137.20L75.58,137.96L75.54,138.64L75.44,139.19L75.28,139.59L75.22,139.69L74.77,140.31L72.16,140.63L71.56,140.33L71.22,140.06L70.97,139.70L70.74,139.16"/></g></g><g id="Actor_.7"><g style="stroke:#000000;stroke-width:0.176"><path d="M360.95,136.66L361.13,136.52L361.27,136.19L361.34,135.69L361.35,135.09L361.28,134.44L361.15,133.82L361.12,133.72L360.98,133.30L360.77,132.92L360.56,132.74"/><path d="M360.36,136.25L360.53,136.31L360.67,136.20L360.78,135.94L360.84,135.54L360.85,135.06L360.79,134.54L360.69,134.04L360.59,133.72L360.55,133.62L360.39,133.32L360.22,133.17L360.06,133.20"/><path d="M397.32,132.13L397.69,132.08L397.75,132.09L397.80,132.11L397.85,132.15"/><path d="M396.83,128.23L397.29,128.17L397.35,128.15L397.41,128.11"/><path d="M398.11,133.05L398.38,132.85L398.58,132.35L398.70,131.61L398.70,130.71L398.61,129.74L398.41,128.81L398.15,128.02L397.84,127.46L397.52,127.18"/><path d="M401.61,132.58L401.85,132.22L402.01,131.59L402.07,130.76L402.03,129.81L401.88,128.84L401.65,127.97L401.36,127.29L401.04,126.86"/></g><g style="stroke:#000000;stroke-width:0.529"><path d="M367.94,135.79L360.95,136.66L360.74,136.58L360.36,136.25L360.19,136.02L360.04,135.66L359.91,135.19L359.84,134.68L359.81,134.17L359.84,133.72L359.93,133.39L360.36,132.77L367.47,131.88"/><path d="M393.47,128.64L396.83,128.23L396.99,127.58L397.23,127.22L400.73,126.75L401.04,126.86L401.43,127.20L401.71,127.57L401.96,128.16L402.16,128.91L402.28,129.74L402.32,130.55L402.27,131.29L402.13,131.83L401.92,132.14L401.61,132.58L398.11,133.05L397.80,132.94L397.48,132.51L397.32,132.13L394.22,132.52"/></g></g><g id="Actor_.8"><g style="stroke:#000000;stroke-width:0.176"><path d="M95.56,110.61L95.55,110.56L95.48,110.02L95.47,109.51L95.52,109.07L95.62,108.75L95.76,108.60L95.93,108.62L95.95,108.64L95.91,108.56L95.70,108.33L95.49,108.30L95.32,108.49L95.20,108.86L95.14,109.39L95.16,110.01L95.24,110.66L95.38,111.26L95.56,111.75L95.77,112.08L95.98,112.22L96.17,112.13L96.32,111.85L96.34,111.78L96.33,111.79L96.17,111.86L95.99,111.75L95.82,111.48L95.66,111.07L95.56,110.61"/><path d="M96.75,108.07L99.36,107.75L99.80,108.62L100.00,109.38L100.04,110.16L99.90,111.11L97.28,111.43L96.85,110.56L96.64,109.80L96.60,109.02L96.75,108.07L96.16,107.78L95.81,107.50L95.56,107.32L95.32,107.34L95.12,107.56"/><path d="M95.62,106.84L95.64,107.21L95.81,107.50L96.06,107.88L96.30,108.41L96.49,109.07L96.64,109.80L96.73,110.56L96.76,111.32L96.72,112.00L96.62,112.55L96.57,113.03L96.70,113.57"/><path d="M97.28,111.43L96.84,112.05L96.62,112.55L96.46,112.94L96.25,113.16L96.02,113.18L95.77,113.00"/><path d="M96.34,111.78L96.41,111.39L96.44,110.81L96.39,110.17L96.28,109.53L96.11,108.98L95.95,108.64"/><path d="M99.77,112.63L99.98,112.13L100.03,111.65L99.90,111.11"/><path d="M99.36,107.75L99.35,107.38L99.17,107.09"/></g><g style="stroke:#000000;stroke-width:0.529"><path d="M95.35,112.26L95.52,112.63L95.77,113.00L96.11,113.27L96.70,113.57L99.31,113.24L99.77,112.63L99.82,112.52L99.98,112.13L100.08,111.58L100.12,110.90L100.09,110.14L100.00,109.38L99.86,108.65L99.66,107.99L99.42,107.45L99.17,107.09L98.83,106.82L98.24,106.52L95.62,106.84L95.18,107.46L95.12,107.56L94.96,107.95L94.86,108.50L94.82,109.19L94.84,109.94L94.94,110.70L95.08,111.43L95.28,112.10L95.35,112.26"/></g></g><g id="Actor_.9"><g style="stroke:#000000;stroke-width:0.176"><path d="M74.20,87.14L74.19,87.04L74.17,86.42L74.23,85.89L74.35,85.51L74.52,85.33L74.73,85.35L74.94,85.59L74.98,85.67L74.96,85.65L74.79,85.63L74.65,85.78L74.55,86.09L74.50,86.53L74.51,87.05L74.57,87.50L74.58,87.59L74.69,88.09L74.85,88.50L75.02,88.78L75.20,88.89L75.36,88.82L75.37,88.80L75.35,88.88L75.20,89.16L75.01,89.24L74.86,89.15L74.80,89.11L74.59,88.78L74.41,88.29L74.27,87.69L74.20,87.14"/><path d="M75.84,85.09L75.78,85.10L75.19,84.81L74.84,84.53L74.59,84.35L74.35,84.37L74.15,84.59"/><path d="M77.22,84.92L78.39,84.78L78.83,85.65L79.03,86.41L79.07,87.19L78.93,88.14L76.31,88.46L75.87,89.07L75.65,89.57L75.60,90.05L75.73,90.59"/><path d="M74.80,90.03L75.05,90.21L75.28,90.19L75.49,89.97L75.65,89.57L75.75,89.03L75.79,88.34L75.76,87.59L75.67,86.83L75.63,86.05L75.78,85.10"/><path d="M74.98,85.67L75.14,86.00L75.31,86.56L75.42,87.19L75.47,87.83L75.44,88.42L75.37,88.80"/><path d="M76.31,88.46L75.88,87.59L75.67,86.83L75.52,86.10L75.33,85.44L75.09,84.90L74.84,84.53L74.67,84.24L74.65,83.87"/><path d="M78.80,89.65L79.01,89.16L79.06,88.68L78.93,88.14"/><path d="M78.39,84.78L78.38,84.41L78.20,84.11"/></g><g style="stroke:#000000;stroke-width:0.529"><path d="M76.27,83.67L77.27,83.55L77.86,83.84L78.20,84.11L78.45,84.48L78.69,85.01L78.89,85.68L79.03,86.41L79.12,87.17L79.15,87.93L79.11,88.61L79.01,89.16L78.85,89.55L78.80,89.65L78.34,90.27L75.73,90.59L75.14,90.30L74.80,90.03L74.55,89.66L74.31,89.12L74.11,88.46L73.97,87.73L73.87,86.97L73.85,86.21L73.89,85.53L73.99,84.98L74.15,84.59L74.21,84.48L74.65,83.87L74.89,83.84"/></g></g><g id="Actor_.10"><g style="stroke:#000000;stroke-width:0.176"><path d="M332.82,103.36L332.98,103.34L333.15,103.48L333.32,103.78L333.46,104.21L333.56,104.70L333.61,105.22L333.61,105.70L333.55,106.10L333.44,106.37L333.29,106.48L333.13,106.41"/><path d="M333.32,102.90L333.54,103.09L333.74,103.46L333.92,103.99L334.05,104.61L334.11,105.25L334.10,105.86L334.03,106.35L333.90,106.69L333.71,106.82"/></g><g style="stroke:#000000;stroke-width:0.529"><path d="M340.24,102.04L333.32,102.90L333.13,102.93L332.82,103.36L332.69,103.55L332.61,103.89L332.58,104.33L332.60,104.84L332.68,105.35L332.80,105.82L332.96,106.19L333.13,106.41L333.51,106.74L333.71,106.82L340.70,105.95"/></g></g><g id="Actor_.11"><g style="stroke:#000000;stroke-width:0.176"><path d="M336.90,52.87L337.11,53.05L337.32,53.43L337.49,53.95L337.62,54.57L337.68,55.22L337.68,55.82L337.63,56.13L337.61,56.32L337.47,56.65L337.29,56.78"/><path d="M336.70,56.38L336.87,56.44L337.01,56.33L337.10,56.13L337.12,56.07L337.18,55.67L337.19,55.19L337.13,54.67L337.03,54.17L336.89,53.75L336.73,53.45L336.56,53.30L336.40,53.33"/><path d="M374.19,52.28L374.14,52.24L374.09,52.22L374.02,52.21L373.66,52.26"/><path d="M373.74,48.24L373.69,48.28L373.63,48.30L373.16,48.35"/><path d="M373.86,47.31L374.18,47.58L374.49,48.15L374.75,48.93L374.94,49.86L375.04,50.83L375.03,51.74L374.92,52.48L374.72,52.98L374.45,53.18"/><path d="M377.95,52.70L378.19,52.35L378.35,51.72L378.41,50.89L378.37,49.93L378.22,48.97L377.99,48.10L377.70,47.42L377.38,46.99"/></g><g style="stroke:#000000;stroke-width:0.529"><path d="M344.28,55.91L337.29,56.78L337.08,56.71L336.70,56.38L336.53,56.15L336.38,55.78L336.37,55.75L336.25,55.32L336.18,54.80L336.15,54.30L336.18,53.85L336.27,53.51L336.70,52.90L343.81,52.01"/><path d="M374.57,47.21L373.57,47.35L373.32,47.71L373.16,48.35L368.23,48.97"/><path d="M375.87,47.04L377.07,46.87L377.38,46.99L377.77,47.33L378.04,47.69L378.30,48.29L378.50,49.04L378.62,49.87L378.66,50.69L378.61,51.42L378.47,51.96L378.26,52.27L377.95,52.70L374.45,53.18L374.14,53.06L373.82,52.64L373.66,52.26L371.48,52.53"/></g></g><g id="Actor_.12"><g style="stroke:#000000;stroke-width:0.176"><path d="M98.46,169.90L98.71,170.08L98.95,170.06L99.15,169.84L99.31,169.45L99.53,168.95L99.98,168.33L99.54,167.46L99.33,166.70L99.29,165.92L99.44,164.97L102.05,164.65L102.04,164.28L101.86,163.99"/><path d="M98.69,168.65L98.86,168.76L99.02,168.69L99.03,168.68L99.01,168.75L98.87,169.03L98.68,169.11L98.46,168.98L98.25,168.65L98.07,168.16L97.93,167.56L97.85,166.91L97.83,166.29L97.89,165.76L98.01,165.39L98.18,165.20L98.39,165.22L98.60,165.46L98.64,165.54L98.62,165.52L98.45,165.50L98.31,165.65L98.21,165.97L98.16,166.41L98.17,166.92L98.24,167.46L98.36,167.96L98.51,168.38L98.69,168.65"/><path d="M98.64,165.54L98.80,165.88L98.97,166.43L99.08,167.06L99.13,167.71L99.10,168.29L99.03,168.68"/><path d="M98.31,163.74L98.33,164.11L98.50,164.40L98.85,164.68L99.44,164.97"/><path d="M97.81,164.46L98.01,164.24L98.25,164.22L98.50,164.40L98.75,164.77L98.93,165.18L98.99,165.31L99.19,165.97L99.33,166.70L99.42,167.46L99.45,168.21L99.41,168.90L99.31,169.45L99.26,169.92L99.39,170.47"/><path d="M99.98,168.33L102.59,168.01L102.72,168.55L102.67,169.03L102.46,169.53"/><path d="M102.05,164.65L102.49,165.52L102.69,166.28L102.73,167.06L102.59,168.01"/></g><g style="stroke:#000000;stroke-width:0.529"><path d="M98.80,170.17L98.46,169.90L98.21,169.53L97.97,169.00L97.77,168.33L97.63,167.60L97.54,166.84L97.51,166.09L97.55,165.40L97.65,164.85L97.81,164.46L97.87,164.36L98.31,163.74L100.93,163.42L101.52,163.72L101.86,163.99L102.11,164.35L102.35,164.89L102.55,165.55L102.69,166.28L102.79,167.04L102.81,167.80L102.77,168.48L102.67,169.03L102.52,169.42L102.46,169.53L102.01,170.14L99.39,170.47L98.80,170.17"/></g></g><g id="PMI326947-Bolt.0"><g><path style="stroke:#000000;stroke-width:0.250" d="M353.15,16.97L357.03,16.97L375.87,48.20"/></g><g><path style="fill:#000000" d="M376.87,48.20L376.86,48.10L376.85,48.00L376.82,47.91L376.79,47.81L376.75,47.73L376.70,47.64L376.64,47.56L376.57,47.49L376.50,47.42L376.42,47.37L376.34,47.32L376.25,47.27L376.16,47.24L376.06,47.22L375.96,47.20L375.87,47.20L375.77,47.20L375.67,47.22L375.57,47.24L375.48,47.27L375.39,47.32L375.31,47.37L375.23,47.42L375.16,47.49L375.09,47.56L375.03,47.64L374.98,47.73L374.94,47.81L374.91,47.91L374.88,48.00L374.87,48.10L374.87,48.20L374.87,48.30L374.88,48.39L374.91,48.49L374.94,48.58L374.98,48.67L375.03,48.75L375.09,48.83L375.16,48.90L375.23,48.97L375.31,49.03L375.39,49.08L375.48,49.12L375.57,49.15L375.67,49.18L375.77,49.19L375.87,49.20L375.96,49.19L376.06,49.18L376.16,49.15L376.25,49.12L376.34,49.08L376.42,49.03L376.50,48.97L376.57,48.90L376.64,48.83L376.70,48.75L376.75,48.67L376.79,48.58L376.82,48.49L376.85,48.39L376.86,48.30z"/></g><g><path style="fill:#ffffa0" d="M331.98,20.07L353.93,20.07L353.93,13.87L331.98,13.87z"/><path style="stroke:#000000;stroke-width:0.250;stroke-opacity:0.98" d="M331.98,20.07L353.93,20.07L353.93,13.87L331.98,13.87z"/><text xml:space="preserve" fill="#000000" stroke-width="0" x="332.76" y="18.33" font-size="3.77" opacity="1.00" font-family="MS Shell Dlg">326947-Bolt</text></g></g><g id="PMI63736-Housing.0"><g><path style="stroke:#000000;stroke-width:0.250" d="M318.39,22.40L322.27,22.40L351.09,49.22"/></g><g><path style="fill:#000000" d="M352.09,49.22L352.08,49.12L352.07,49.02L352.04,48.92L352.01,48.83L351.97,48.74L351.92,48.66L351.86,48.58L351.79,48.51L351.72,48.44L351.64,48.38L351.56,48.33L351.47,48.29L351.38,48.26L351.28,48.23L351.19,48.22L351.09,48.22L350.99,48.22L350.89,48.23L350.80,48.26L350.70,48.29L350.62,48.33L350.53,48.38L350.45,48.44L350.38,48.51L350.31,48.58L350.26,48.66L350.21,48.74L350.16,48.83L350.13,48.92L350.11,49.02L350.09,49.12L350.09,49.22L350.09,49.31L350.11,49.41L350.13,49.51L350.16,49.60L350.21,49.69L350.26,49.77L350.31,49.85L350.38,49.92L350.45,49.99L350.53,50.05L350.62,50.10L350.70,50.14L350.80,50.17L350.89,50.20L350.99,50.21L351.09,50.22L351.19,50.21L351.28,50.20L351.38,50.17L351.47,50.14L351.56,50.10L351.64,50.05L351.72,49.99L351.79,49.92L351.86,49.85L351.92,49.77L351.97,49.69L352.01,49.60L352.04,49.51L352.07,49.41L352.08,49.31z"/></g><g><path style="fill:#ffffa0" d="M291.93,25.51L319.16,25.51L319.16,19.30L291.93,19.30z"/><path style="stroke:#000000;stroke-width:0.250;stroke-opacity:0.98" d="M291.93,25.51L319.16,25.51L319.16,19.30L291.93,19.30z"/><text xml:space="preserve" fill="#000000" stroke-width="0" x="292.71" y="23.76" font-size="3.78" opacity="1.00" font-family="MS Shell Dlg">63736-Housing</text></g></g><g id="PMI63733-501-Wheel.0"><g><path style="stroke:#000000;stroke-width:0.250" d="M204.03,52.27L207.91,52.27L239.08,90.62"/></g><g><path style="fill:#000000" d="M240.08,90.62L240.08,90.53L240.06,90.43L240.04,90.33L240.00,90.24L239.96,90.15L239.91,90.07L239.85,89.99L239.79,89.92L239.71,89.85L239.64,89.79L239.55,89.74L239.46,89.70L239.37,89.67L239.28,89.64L239.18,89.63L239.08,89.62L238.98,89.63L238.89,89.64L238.79,89.67L238.70,89.70L238.61,89.74L238.52,89.79L238.45,89.85L238.37,89.92L238.31,89.99L238.25,90.07L238.20,90.15L238.16,90.24L238.12,90.33L238.10,90.43L238.08,90.53L238.08,90.62L238.08,90.72L238.10,90.82L238.12,90.91L238.16,91.01L238.20,91.10L238.25,91.18L238.31,91.26L238.37,91.33L238.45,91.40L238.52,91.46L238.61,91.51L238.70,91.55L238.79,91.58L238.89,91.60L238.98,91.62L239.08,91.62L239.18,91.62L239.28,91.60L239.37,91.58L239.46,91.55L239.55,91.51L239.64,91.46L239.71,91.40L239.79,91.33L239.85,91.26L239.91,91.18L239.96,91.10L240.00,91.01L240.04,90.91L240.06,90.82L240.08,90.72z"/></g><g><path style="fill:#ffffa0" d="M173.14,55.37L204.81,55.37L204.81,49.17L173.14,49.17z"/><path style="stroke:#000000;stroke-width:0.250;stroke-opacity:0.98" d="M173.14,55.37L204.81,55.37L204.81,49.17L173.14,49.17z"/><text xml:space="preserve" fill="#000000" stroke-width="0" x="173.91" y="53.63" font-size="3.78" opacity="1.00" font-family="MS Shell Dlg">63733-501-Wheel</text></g></g><g id="PMI361605-Nut.0"><g><path style="stroke:#000000;stroke-width:0.250" d="M55.84,62.79L59.72,62.79L77.42,86.18"/></g><g><path style="fill:#000000" d="M78.42,86.18L78.42,86.09L78.40,85.99L78.38,85.89L78.35,85.80L78.30,85.71L78.25,85.63L78.19,85.55L78.13,85.48L78.06,85.41L77.98,85.35L77.89,85.30L77.80,85.26L77.71,85.23L77.62,85.20L77.52,85.19L77.42,85.18L77.32,85.19L77.23,85.20L77.13,85.23L77.04,85.26L76.95,85.30L76.87,85.35L76.79,85.41L76.71,85.48L76.65,85.55L76.59,85.63L76.54,85.71L76.50,85.80L76.46,85.89L76.44,85.99L76.43,86.09L76.42,86.18L76.43,86.28L76.44,86.38L76.46,86.47L76.50,86.57L76.54,86.66L76.59,86.74L76.65,86.82L76.71,86.89L76.79,86.96L76.87,87.02L76.95,87.07L77.04,87.11L77.13,87.14L77.23,87.16L77.32,87.18L77.42,87.18L77.52,87.18L77.62,87.16L77.71,87.14L77.80,87.11L77.89,87.07L77.98,87.02L78.06,86.96L78.13,86.89L78.19,86.82L78.25,86.74L78.30,86.66L78.35,86.57L78.38,86.47L78.40,86.38L78.42,86.28z"/></g><g><path style="fill:#ffffa0" d="M35.33,65.90L56.62,65.90L56.62,59.69L35.33,59.69z"/><path style="stroke:#000000;stroke-width:0.250;stroke-opacity:0.98" d="M35.33,65.90L56.62,65.90L56.62,59.69L35.33,59.69z"/><text xml:space="preserve" fill="#000000" stroke-width="0" x="36.11" y="64.15" font-size="3.78" opacity="1.00" font-family="MS Shell Dlg">361605-Nut</text></g></g><g id="PMI63734-Housing.0"><g><path style="stroke:#000000;stroke-width:0.250" d="M55.68,52.27L59.56,52.27L103.31,81.12"/></g><g><path style="fill:#000000" d="M104.31,81.12L104.31,81.02L104.29,80.93L104.27,80.83L104.24,80.74L104.20,80.65L104.15,80.56L104.09,80.49L104.02,80.41L103.95,80.35L103.87,80.29L103.79,80.24L103.70,80.20L103.60,80.16L103.51,80.14L103.41,80.13L103.31,80.12L103.22,80.13L103.12,80.14L103.02,80.16L102.93,80.20L102.84,80.24L102.76,80.29L102.68,80.35L102.61,80.41L102.54,80.49L102.48,80.56L102.43,80.65L102.39,80.74L102.36,80.83L102.33,80.93L102.32,81.02L102.31,81.12L102.32,81.22L102.33,81.32L102.36,81.41L102.39,81.50L102.43,81.59L102.48,81.68L102.54,81.75L102.61,81.83L102.68,81.89L102.76,81.95L102.84,82.00L102.93,82.04L103.02,82.08L103.12,82.10L103.22,82.12L103.31,82.12L103.41,82.12L103.51,82.10L103.60,82.08L103.70,82.04L103.79,82.00L103.87,81.95L103.95,81.89L104.02,81.83L104.09,81.75L104.15,81.68L104.20,81.59L104.24,81.50L104.27,81.41L104.29,81.32L104.31,81.22z"/></g><g><path style="fill:#ffffa0" d="M29.22,55.37L56.45,55.37L56.45,49.17L29.22,49.17z"/><path style="stroke:#000000;stroke-width:0.250;stroke-opacity:0.98" d="M29.22,55.37L56.45,55.37L56.45,49.17L29.22,49.17z"/><text xml:space="preserve" fill="#000000" stroke-width="0" x="30.00" y="53.63" font-size="3.78" opacity="1.00" font-family="MS Shell Dlg">63734-Housing</text></g></g><g/><g><g/><g><image x="0.373355" y="-0.373358" height="25.000000" width="25.000000" xlink:href="DWB-Idler_files/8aae4b0fdf80e5e6_image_0.jpg" mask="url(#mask0)"/></g></g><g><g/><g><image x="0.000000" y="254.000015" height="25.000000" width="25.000000" xlink:href="DWB-Idler_files/8aae4b0fdf80e5e6_image_1.jpg" mask="url(#mask1)"/></g></g><g><g/><g><image x="407.373352" y="254.000015" height="25.000000" width="25.000000" xlink:href="DWB-Idler_files/8aae4b0fdf80e5e6_image_2.jpg" mask="url(#mask2)"/></g></g><g><g/><g><image x="407.000000" y="0.000000" height="25.000000" width="25.000000" xlink:href="DWB-Idler_files/8aae4b0fdf80e5e6_image_3.jpg" mask="url(#mask3)"/></g></g><g><g/><g><path style="stroke:#000000;stroke-width:0.125;fill:#ffffff" d="M141.85,5.42L260.38,5.42L260.38,22.35L141.85,22.35z"/><text xml:space="preserve" fill="#000000" stroke-width="0" x="143.96" y="17.06" font-size="10.29" opacity="1.00" font-family="MS Shell Dlg">Idler Wheel Block Assem</text></g></g><g/><g id="paperID" visibility="hidden" opacity="0.00" transform="scale(0.000100)"><path style="stroke:#000000;stroke-width:0.500;fill:#e6e6e6;fill-rule:evenodd" d="M-2000.00,-2000.00L2432.00,-2000.00L2432.00,2279.00L-2000.00,2279.00zM0.00,0.00L432.00,0.00L432.00,279.00L0.00,279.00z"/><path style="fill:#000000;fill-opacity:0.118" d="M3.00,279.00L432.00,279.00L432.00,3.00L435.00,3.00L435.00,282.00L3.00,282.00z"/></g><g><g><path style="stroke:#000000;stroke-width:0.353;fill:#f0f0ff" d="M135.94,227.80L220.37,227.80L220.37,234.21L135.94,234.21z"/><text xml:space="preserve" fill="#000000" stroke-width="0" x="138.41" y="232.73" font-size="4.62" opacity="1.00" font-family="MS Shell Dlg" font-weight="bold">Description</text><text xml:space="preserve" fill="#000000" stroke-width="0" x="167.30" y="232.73" font-size="4.63" opacity="1.00" font-family="MS Shell Dlg" font-weight="bold">BOM ID</text><text xml:space="preserve" fill="#000000" stroke-width="0" x="210.57" y="232.73" font-size="4.58" opacity="1.00" font-family="MS Shell Dlg" font-weight="bold">Qty</text><path style="stroke:#000000;stroke-width:0.353" d="M164.83,227.80L164.83,234.21"/><path style="stroke:#000000;stroke-width:0.353" d="M208.10,227.80L208.10,234.21"/></g><g id="Line63733-501-Wheel"><path style="stroke:#000000;stroke-width:0.353;fill:#ffffff" d="M135.94,234.21L220.37,234.21L220.37,240.63L135.94,240.63z"/><text xml:space="preserve" fill="#000000" stroke-width="0" x="138.41" y="239.15" font-size="4.80" opacity="1.00" font-family="MS Shell Dlg">63733-101</text><text xml:space="preserve" fill="#000000" stroke-width="0" x="167.30" y="239.15" font-size="4.82" opacity="1.00" font-family="MS Shell Dlg">63733-501-Wheel</text><text xml:space="preserve" fill="#000000" stroke-width="0" x="210.57" y="239.15" font-size="4.47" opacity="1.00" font-family="MS Shell Dlg">3</text><path style="stroke:#000000;stroke-width:0.353" d="M164.83,234.21L164.83,240.63"/><path style="stroke:#000000;stroke-width:0.353" d="M208.10,234.21L208.10,240.63"/></g><g id="Line63734-Housing"><path style="stroke:#000000;stroke-width:0.353;fill:#f0f0ff" d="M135.94,240.63L220.37,240.63L220.37,247.05L135.94,247.05z"/><text xml:space="preserve" fill="#000000" stroke-width="0" x="138.41" y="245.57" font-size="4.77" opacity="1.00" font-family="MS Shell Dlg">63734</text><text xml:space="preserve" fill="#000000" stroke-width="0" x="167.30" y="245.57" font-size="4.81" opacity="1.00" font-family="MS Shell Dlg">63734-Housing</text><text xml:space="preserve" fill="#000000" stroke-width="0" x="210.57" y="245.57" font-size="3.88" opacity="1.00" font-family="MS Shell Dlg">1</text><path style="stroke:#000000;stroke-width:0.353" d="M164.83,240.63L164.83,247.05"/><path style="stroke:#000000;stroke-width:0.353" d="M208.10,240.63L208.10,247.05"/></g><g id="Line63736-Housing"><path style="stroke:#000000;stroke-width:0.353;fill:#ffffff" d="M135.94,247.05L220.37,247.05L220.37,253.47L135.94,253.47z"/><text xml:space="preserve" fill="#000000" stroke-width="0" x="138.41" y="251.99" font-size="4.77" opacity="1.00" font-family="MS Shell Dlg">63736</text><text xml:space="preserve" fill="#000000" stroke-width="0" x="167.30" y="251.99" font-size="4.81" opacity="1.00" font-family="MS Shell Dlg">63736-Housing</text><text xml:space="preserve" fill="#000000" stroke-width="0" x="210.57" y="251.99" font-size="3.88" opacity="1.00" font-family="MS Shell Dlg">1</text><path style="stroke:#000000;stroke-width:0.353" d="M164.83,247.05L164.83,253.47"/><path style="stroke:#000000;stroke-width:0.353" d="M208.10,247.05L208.10,253.47"/></g><g><path style="stroke:#000000;stroke-width:0.353;fill:#f0f0ff" d="M225.37,227.80L309.79,227.80L309.79,234.21L225.37,234.21z"/><text xml:space="preserve" fill="#000000" stroke-width="0" x="227.84" y="232.73" font-size="4.62" opacity="1.00" font-family="MS Shell Dlg" font-weight="bold">Description</text><text xml:space="preserve" fill="#000000" stroke-width="0" x="256.72" y="232.73" font-size="4.63" opacity="1.00" font-family="MS Shell Dlg" font-weight="bold">BOM ID</text><text xml:space="preserve" fill="#000000" stroke-width="0" x="299.99" y="232.73" font-size="4.58" opacity="1.00" font-family="MS Shell Dlg" font-weight="bold">Qty</text><path style="stroke:#000000;stroke-width:0.353" d="M254.25,227.80L254.25,234.21"/><path style="stroke:#000000;stroke-width:0.353" d="M297.52,227.80L297.52,234.21"/></g><g id="Line326947-Bolt"><path style="stroke:#000000;stroke-width:0.353;fill:#ffffff" d="M225.37,234.21L309.79,234.21L309.79,240.63L225.37,240.63z"/><text xml:space="preserve" fill="#000000" stroke-width="0" x="227.84" y="239.15" font-size="4.79" opacity="1.00" font-family="MS Shell Dlg">326947</text><text xml:space="preserve" fill="#000000" stroke-width="0" x="256.72" y="239.15" font-size="4.80" opacity="1.00" font-family="MS Shell Dlg">326947-Bolt</text><text xml:space="preserve" fill="#000000" stroke-width="0" x="299.99" y="239.15" font-size="4.72" opacity="1.00" font-family="MS Shell Dlg">4</text><path style="stroke:#000000;stroke-width:0.353" d="M254.25,234.21L254.25,240.63"/><path style="stroke:#000000;stroke-width:0.353" d="M297.52,234.21L297.52,240.63"/></g><g id="Line361605-Nut"><path style="stroke:#000000;stroke-width:0.353;fill:#f0f0ff" d="M225.37,240.63L309.79,240.63L309.79,247.05L225.37,247.05z"/><text xml:space="preserve" fill="#000000" stroke-width="0" x="227.84" y="245.57" font-size="4.79" opacity="1.00" font-family="MS Shell Dlg">361605</text><text xml:space="preserve" fill="#000000" stroke-width="0" x="256.72" y="245.57" font-size="4.81" opacity="1.00" font-family="MS Shell Dlg">361605-Nut</text><text xml:space="preserve" fill="#000000" stroke-width="0" x="299.99" y="245.57" font-size="4.72" opacity="1.00" font-family="MS Shell Dlg">4</text><path style="stroke:#000000;stroke-width:0.353" d="M254.25,240.63L254.25,247.05"/><path style="stroke:#000000;stroke-width:0.353" d="M297.52,240.63L297.52,247.05"/></g></g><g id="hotspot.0" onmouseover="ShowHotSpot(evt,'0')" onmouseout="HideHotSpot(evt,'0')" onmousemove="ShowToolTip(evt,'0',&quot;Forward&quot;)" opacity="0"><a xlink:href="javascript:history.go(1)"><path style="fill:#00ff00;fill-rule:evenodd" d="M431.64,278.56L407.40,278.56L407.40,253.98L431.64,253.98z"/></a></g><g id="hotspot.1" onmouseover="ShowHotSpot(evt,'1')" onmouseout="HideHotSpot(evt,'1')" onmousemove="ShowToolTip(evt,'1',&quot;Order&quot;)" opacity="0"><a xlink:href="https://www.mitek-us.com/resources/machinery/Find-and-Order-Parts/" target="_blank"><path style="fill:#00ff00;fill-rule:evenodd" d="M431.64,25.02L407.06,25.02L407.06,0.44L431.64,0.44z"/></a></g><g id="hotspot.2" onmouseover="ShowHotSpot(evt,'2')" onmouseout="HideHotSpot(evt,'2')" onmousemove="ShowToolTip(evt,'2',&quot;Home&quot;)" opacity="0"><a xlink:href="./RT-Overview.svg"><path style="fill:#00ff00;fill-rule:evenodd" d="M25.36,24.68L0.44,24.68L0.44,0.44L25.36,0.44z"/></a></g><g id="hotspot.3" onmouseover="ShowHotSpot(evt,'3')" onmouseout="HideHotSpot(evt,'3')" onmousemove="ShowToolTip(evt,'3',&quot;Back&quot;)" opacity="0"><a xlink:href="javascript:history.go(-1)"><path style="fill:#00ff00;fill-rule:evenodd" d="M25.02,278.56L0.44,278.56L0.44,253.98L25.02,253.98z"/></a></g><g id="hotspot.4" onmouseover="ShowHotSpot(evt,'4')" onmouseout="HideHotSpot(evt,'4')" onmousemove="ShowToolTip(evt,'4',&quot;Hex&quot;)" opacity="0"><path style="fill:#00ff00;fill-rule:evenodd" d="M225.37,234.21L225.37,240.63L309.79,240.63L309.79,234.21zM354.11,16.87L357.33,17.14L357.38,17.48L354.11,17.41L353.91,20.26L332.05,20.26L332.05,14.02L353.91,14.02zM378.00,47.63L378.67,49.67L378.69,51.50L378.35,52.17L377.33,52.85L374.29,53.08L373.60,52.35L371.22,52.39L369.88,50.66L368.37,48.97L373.13,48.31L373.78,47.27L377.33,46.92zM344.41,53.05L344.41,55.90L339.53,56.46L336.93,56.46L336.59,56.12L336.58,53.17L337.83,52.72L343.73,52.00zM399.40,71.37L399.41,74.92L399.03,75.56L397.92,75.81L394.99,75.78L393.29,74.77L390.87,72.01L390.78,71.71L393.52,71.42L394.28,70.81L394.52,70.38L398.39,70.01zM365.44,76.48L365.34,78.88L359.90,79.54L357.96,79.54L357.27,78.20L357.27,76.57L357.83,75.77L364.80,75.08zM340.70,102.58L340.94,105.37L339.90,106.04L336.92,106.46L333.55,106.71L332.83,105.70L332.81,103.36L333.08,102.96L338.17,102.28L340.36,102.24zM401.39,127.06L402.11,128.40L402.11,131.94L401.65,132.49L399.61,132.82L397.69,132.81L397.32,132.14L394.50,132.27L394.30,129.41L393.84,128.74L396.88,128.06L397.26,127.42L398.24,127.05L400.79,126.72zM368.16,133.50L368.19,135.36L367.83,135.67L364.08,136.33L360.70,136.58L359.99,135.23L360.01,133.27L360.55,132.81L364.99,132.15L367.52,132.10z"/></g><g id="hotspot.5" onmouseover="ShowHotSpot(evt,'5')" onmouseout="HideHotSpot(evt,'5')" onmousemove="ShowToolTip(evt,'5',&quot;Hex Nut_Ansi Inch Mitek-body-1&quot;)" opacity="0"><path style="fill:#00ff00;fill-rule:evenodd" d="M225.37,240.63L225.37,247.05L309.79,247.05L309.79,240.63zM56.78,62.69L59.99,62.91L56.78,63.23L56.58,66.09L35.40,66.09L35.40,59.84L56.58,59.84zM78.35,84.23L78.98,85.64L78.99,89.51L78.70,89.90L77.17,90.41L75.24,90.39L74.58,89.70L74.20,88.72L74.22,84.40L75.61,83.65L77.27,83.57zM99.06,106.97L100.02,109.06L100.03,112.25L99.56,113.14L96.61,113.52L95.61,112.79L95.24,111.80L94.89,108.85L95.51,107.05L96.50,106.68L98.68,106.67zM75.25,135.18L75.58,138.71L75.25,139.74L74.47,140.32L71.50,140.29L70.80,139.30L70.47,137.93L70.46,134.95L71.37,133.82L74.24,133.82zM102.10,164.34L102.73,166.09L102.64,169.17L101.63,170.19L98.65,170.17L97.95,168.83L97.52,165.76L98.13,163.98L98.52,163.69L101.08,163.38z"/></g><g id="hotspot.6" onmouseover="ShowHotSpot(evt,'6')" onmouseout="HideHotSpot(evt,'6')" onmousemove="ShowToolTip(evt,'6',&quot;63733-body-2&quot;)" opacity="0"><path style="fill:#00ff00;fill-rule:evenodd" d="M135.94,234.21L135.94,240.63L220.37,240.63L220.37,234.21zM205.11,52.17L208.32,52.43L208.37,52.78L205.11,52.71L204.91,55.56L173.20,55.56L173.20,49.32L204.91,49.32zM259.89,76.13L263.27,81.58L266.33,89.04L269.03,98.90L270.74,108.39L271.76,119.25L271.76,129.88L270.74,138.03L269.05,144.15L265.86,149.10L262.16,150.50L232.28,154.21L228.63,154.23L224.94,152.15L221.52,147.43L218.11,139.97L215.40,130.80L213.72,122.64L212.36,111.44L212.01,101.38L212.70,91.87L214.04,85.06L216.62,79.49L220.04,76.80L249.93,73.09L256.16,73.07z"/></g><g id="hotspot.7" onmouseover="ShowHotSpot(evt,'7')" onmouseout="HideHotSpot(evt,'7')" onmousemove="ShowToolTip(evt,'7',&quot;63734-body-1&quot;)" opacity="0"><path style="fill:#00ff00;fill-rule:evenodd" d="M135.94,240.63L135.94,247.05L220.37,247.05L220.37,240.63zM56.78,52.17L59.99,52.39L56.78,52.71L56.58,55.56L29.29,55.56L29.29,49.32L56.58,49.32zM108.84,73.76L109.52,75.80L130.59,98.86L131.92,100.58L133.65,100.89L134.32,101.91L139.44,107.32L140.07,108.72L139.72,135.65L137.23,136.89L136.31,138.00L135.96,140.04L135.57,140.32L135.68,149.43L136.01,149.78L136.32,156.26L137.01,158.29L139.41,160.98L139.39,175.37L118.91,177.97L116.99,177.96L108.84,168.81L104.12,163.34L98.65,157.27L91.89,150.11L91.20,149.11L89.18,147.39L80.64,137.94L80.54,122.97L84.08,122.43L84.06,107.37L80.98,98.23L80.89,70.37L84.95,69.66L85.73,69.33L87.69,69.35L101.26,67.66L103.09,67.64zM99.06,106.97L100.02,109.06L100.03,112.25L99.56,113.14L96.61,113.52L95.61,112.79L95.24,111.80L94.89,108.85L95.51,107.05L96.50,106.68L98.68,106.67z"/></g><g id="hotspot.8" onmouseover="ShowHotSpot(evt,'8')" onmouseout="HideHotSpot(evt,'8')" onmousemove="ShowToolTip(evt,'8',&quot;63736-body-1&quot;)" opacity="0"><path style="fill:#00ff00;fill-rule:evenodd" d="M135.94,247.05L135.94,253.47L220.37,253.47L220.37,247.05zM319.49,22.30L322.70,22.52L319.49,22.84L319.29,25.70L292.00,25.70L292.00,19.45L319.29,19.45zM364.10,42.86L364.42,44.57L366.48,46.59L367.81,48.32L370.87,51.71L380.06,61.86L381.76,63.90L384.44,66.30L387.18,69.37L388.18,69.32L392.96,74.42L394.64,76.46L394.63,94.58L394.32,104.12L393.27,104.77L391.24,106.13L390.89,122.64L391.21,125.04L391.91,126.72L394.31,129.41L393.94,143.79L393.19,144.06L374.15,146.40L371.89,146.40L366.11,139.96L364.05,137.60L364.05,136.32L367.83,135.67L368.19,135.36L368.16,133.50L367.52,132.10L365.29,131.91L365.68,130.12L366.45,127.16L367.40,119.27L367.87,118.59L363.75,114.15L362.05,113.47L358.20,113.48L347.11,114.95L343.40,115.19L337.60,108.73L335.80,106.68L339.90,106.04L340.94,105.37L340.70,102.58L340.36,102.24L338.17,102.28L335.21,102.74L335.44,91.40L338.97,90.85L339.33,88.16L339.66,87.81L339.66,79.18L339.28,78.54L338.28,73.43L335.55,65.98L335.79,38.80L345.30,37.45L356.16,36.10L357.99,36.07zM344.41,53.05L344.41,55.90L339.53,56.46L336.93,56.46L336.59,56.12L336.58,53.17L337.83,52.72L343.73,52.00zM365.44,76.48L365.34,78.88L359.90,79.54L357.96,79.54L357.27,78.20L357.27,76.57L357.83,75.77L364.80,75.08z"/></g><g id="ToolTip" visibility="hidden" opacity="0" transform="translate(0,0)"><rect id="ToolTipShadow" opacity="0.20" fill="black" stroke="none" x="0" y="0" width="30" height="8"/><rect id="ToolTipBG" fill="#ffffe1" stroke="black" x="0" y="0" width="30" height="8"/><text xml:space="preserve" id="ToolTipText" fill="black" x="0" y="0" width="30" height="8">tooltip</text></g></g></svg>
