<?xml version="1.0" encoding="UTF-8" standalone="no"?>
<svg xmlns="http://www.w3.org/2000/svg" xmlns:xlink="http://www.w3.org/1999/xlink" width="432.000mm" height="279.000mm" viewBox="0.000000 0.000000 432.000000 279.000000" stroke-linejoin="round" stroke-linecap="round" fill="none" fill-rule="evenodd"><desc>Composer Export</desc><script type="text/ecmascript"><![CDATA[
if(typeof(top) != "undefined")
{
	top.ShowPaper = ShowPaper;
}
function ShowHotSpot(evt,hotspotid)
{
	var svgDocument = evt.target.ownerDocument;
	var strId = "hotspot."+hotspotid;
	var hotspot = svgDocument.getElementById(strId);
	if(hotspot)
		hotspot.setAttribute("opacity",".5");
}
function HideHotSpot(evt,hotspotid)
{
	var svgDocument = evt.target.ownerDocument;
	var strId = "hotspot."+hotspotid;
	var hotspot = svgDocument.getElementById(strId);
	if(hotspot)
		hotspot.setAttribute("opacity","0");

	var toolTip = svgDocument.getElementById('ToolTip');
	if(toolTip)
		toolTip.setAttribute("visibility","hidden");
}
function ShowToolTip(evt,hotspotid,strTooltip)
{
	if(strTooltip=="")
	return;

	// change text
	var svgDocument = evt.target.ownerDocument;
	var tiptext = svgDocument.getElementById('ToolTipText');
	if( !tiptext )
	return;
	tiptext.firstChild.nodeValue = " " + strTooltip + "  " ;

	// show tooltip before, else some refresh issue

	var toolTip = svgDocument.getElementById('ToolTip');
	if(!toolTip)
	return;

	toolTip.setAttribute("visibility","visible");
	toolTip.setAttribute("opacity",".95");

	// move tooltip
	// get viewbox

	var root = svgDocument.documentElement;
	var vbox = (root.getAttribute("viewBox")).split(' ');
	var x0 = parseFloat(vbox[0]);
	var y0 = parseFloat(vbox[1]);
	var vboxW = parseFloat(vbox[2]);
	var vboxH = parseFloat(vbox[3]);

	// get default width of svg

	var strW = root.getAttribute("width");
	var svgW = parseFloat(strW);
	if(strW.indexOf('mm') != -1)
	svgW *= 3.779;

	var strH = root.getAttribute("height");
	var svgH = parseFloat(strH);
	if(strH.indexOf('mm') != -1)
	svgH *= 3.779;  	// 96 dpi  -> 96/25.4 = 3.779

	// update the viewbox / width / height if svg is embedded in html with zoom fit all
	var realx0 = x0;
	var realy0 = y0;
	var realvboxW = vboxW;
	var realvboxH = vboxH;
	var realsvgW = svgW;
	var realsvgH = svgH;

	if ((typeof(top) == "undefined") || (typeof(top.svgctl1) != "undefined")) // embedded in html
	{
		// get window size in pxl

		svgW = window.innerWidth;
		svgH = window.innerHeight;

		// calculate real viewbox

		realsvgW = svgW;
		realsvgH = svgH;
		if((svgW / svgH) > (vboxW / vboxH))
		{
			realvboxW = (vboxH * svgW) / svgH;
			realvboxH = vboxH;
			realx0 = x0 - (realvboxW - vboxW)/2 ;
		}
		else
		{
			realvboxH = (vboxW * svgH) / svgW;
			realvboxW = vboxW;
			realy0 = y0 - (realvboxH - vboxH)/2 ;
		}
	}

	// get user zoom/pan

	var newScale = root.currentScale;
	var translation = root.currentTranslate;

	// transform pxl to user unit

	var xPos = (((evt.clientX+10- translation.x)/newScale) * realvboxW)/realsvgW  + realx0 ;
	var yPos = (((evt.clientY+5- translation.y)/newScale) * realvboxH)/ realsvgH  + realy0 ;
	var scaleForWidth = ( (1 / newScale) * realvboxH) / realsvgH;

	// move tooltip

	toolTip.setAttribute("transform", "translate(" + xPos + "," + yPos + ")" );

	// resize tooltip

	var fontsize = 12;
	tiptext.setAttribute("font-size",fontsize*scaleForWidth);
	tiptext.setAttribute("y", fontsize*scaleForWidth);
	var tipBG = svgDocument.getElementById('ToolTipBG');
	var outline = tiptext.getBBox();
	if(tipBG)
	{
		tipBG.setAttribute("stroke-width", 1*scaleForWidth);
		tipBG.setAttribute("width", Number(outline.width) );
		tipBG.setAttribute("height", Number(outline.height) + fontsize*.5*scaleForWidth );
	}
	var ToolTipShadow = svgDocument.getElementById('ToolTipShadow');
	if(ToolTipShadow)
	{
		ToolTipShadow.setAttribute("width", Number(outline.width) );
		ToolTipShadow.setAttribute("height", Number(outline.height) + fontsize*.5*scaleForWidth );
		ToolTipShadow.setAttribute("x", 3*scaleForWidth);
		ToolTipShadow.setAttribute("y", 3*scaleForWidth);
	}
}
function ShowPaper()
{
  var svgDocument = getDocument();
  var paper = svgDocument.getElementById("paperID");
  if(paper)
  {
    paper.setAttribute("transform","scale(1)");
    paper.setAttribute("opacity","1");
    paper.setAttribute("visibility","visible");
  }
  var svg = svgDocument.getRootElement();
  if(svg)
  {
    svg.setAttribute("width","442.000mm");
    svg.setAttribute("height","289.000mm");
    svg.setAttribute("viewBox","-5.000000 -5.000000 442.000000 289.000000");
  }
}
]]></script><defs><mask id="mask0" x="0" y="0" height="100%" width="100%"><image x="0.373355" y="-0.373358" height="25.000000" width="25.000000" xlink:href="GRW-Assem_files/9f1aa40763a14548_mask_0.jpg"/></mask><mask id="mask1" x="0" y="0" height="100%" width="100%"><image x="0.000000" y="254.000015" height="25.000000" width="25.000000" xlink:href="GRW-Assem_files/9f1aa40763a14548_mask_1.jpg"/></mask><mask id="mask2" x="0" y="0" height="100%" width="100%"><image x="407.373352" y="254.000015" height="25.000000" width="25.000000" xlink:href="GRW-Assem_files/9f1aa40763a14548_mask_2.jpg"/></mask><mask id="mask3" x="0" y="0" height="100%" width="100%"><image x="407.000000" y="0.000000" height="25.000000" width="25.000000" xlink:href="GRW-Assem_files/9f1aa40763a14548_mask_3.jpg"/></mask></defs><g><path style="fill:#ffffff" d="M431.86,278.85L0.07,278.85L0.07,0.07L431.86,0.07z"/><path style="fill:#c8cfee" d="M34.80,104.93L34.81,105.31L34.45,105.43L34.49,105.94L34.86,106.56L47.65,106.66L47.58,110.79L34.94,110.54L34.79,109.18L34.45,109.96L31.77,110.28L31.26,111.80L31.03,110.69L25.42,110.52L25.23,109.95L25.01,111.30L21.91,111.45L21.70,111.75L21.50,113.65L21.47,105.00L21.88,104.41L25.01,104.42L25.24,106.45L31.03,106.53L31.27,105.01L31.67,104.67L34.30,104.66z"/><path style="fill:#c8cfee" d="M35.33,127.23L35.30,127.90L34.95,128.01L35.28,129.09L35.41,128.96L48.16,128.99L48.09,132.87L35.45,132.86L35.28,132.01L34.96,132.78L32.42,133.00L32.00,133.59L31.86,136.01L31.71,135.88L31.56,134.45L31.53,133.01L25.93,133.03L25.74,133.60L22.41,133.78L22.21,134.08L22.01,135.97L21.99,128.09L22.23,126.82L25.49,126.76L25.91,128.60L31.53,128.60L31.77,127.33L32.18,126.99L35.06,126.97z"/><path style="fill:#c8cfee" d="M60.47,145.48L60.28,145.78L60.62,146.30L60.55,146.55L58.53,147.32L58.52,154.69L60.05,154.61L60.90,154.21L61.01,151.74L62.38,152.08L63.16,152.56L64.15,153.60L63.92,154.52L61.81,155.62L58.77,156.10L58.58,156.91L58.30,157.13L58.25,159.78L58.24,161.55L58.26,162.46L59.62,162.61L60.72,162.97L61.12,163.14L62.76,164.29L62.54,164.62L62.14,164.65L61.62,164.98L61.39,163.86L60.86,163.35L60.88,164.45L58.78,165.13L58.78,172.76L60.89,172.26L61.14,172.01L61.26,169.55L63.13,170.14L64.39,171.14L64.41,172.31L62.31,173.42L59.28,173.91L59.09,174.72L58.80,174.94L58.75,177.59L58.73,179.85L58.77,182.78L60.55,182.71L61.14,182.29L61.26,180.84L62.65,181.66L63.17,182.37L61.34,183.20L61.08,183.70L61.02,186.63L59.20,187.07L56.85,186.95L54.84,186.46L53.60,185.44L53.60,182.02L54.85,181.02L55.35,180.76L55.45,179.37L57.87,179.53L58.01,179.36L58.12,177.65L56.09,177.18L55.60,176.92L55.40,174.83L53.35,173.90L52.51,173.23L52.56,170.95L54.01,169.90L55.62,169.46L55.66,169.15L53.86,168.12L53.10,167.38L53.09,164.21L54.83,162.94L55.19,161.59L57.62,161.71L57.61,159.86L55.35,159.11L55.13,157.01L52.35,155.59L52.09,155.34L52.06,153.15L53.51,152.09L55.10,151.67L55.36,145.65L56.02,145.06L56.77,144.81L59.37,144.80z"/><path style="fill:#868c8c" d="M130.36,49.99L130.98,50.42L130.86,51.60L130.10,52.85L129.09,53.59L127.75,54.01L127.79,54.24L128.84,54.52L131.29,54.51L131.34,53.84L131.47,53.69L131.87,53.98L131.88,54.92L129.52,55.52L129.35,56.86L129.17,59.65L128.07,59.55L127.60,59.27L127.32,58.54L127.09,56.52L126.94,53.75L127.36,53.50L126.16,53.43L125.85,53.00L124.85,52.50L124.57,52.80L123.46,52.92L123.49,51.25L124.60,51.03L126.25,51.00L127.32,50.82L128.25,50.00L129.37,49.77z"/><path style="fill:#868c8c" d="M132.36,61.79L133.75,62.95L133.02,63.30L131.86,64.38L131.60,66.64L131.35,67.38L129.50,67.55L129.35,80.94L128.49,81.11L129.60,81.35L131.30,81.36L131.25,80.61L131.64,80.50L131.88,80.83L131.91,81.52L131.77,81.59L129.51,82.35L129.34,96.48L129.10,101.01L127.40,101.15L126.34,100.41L126.36,80.95L126.61,80.67L126.61,80.36L126.36,80.09L126.36,67.03L124.83,66.05L124.83,62.88L126.00,61.79L127.76,61.29L130.60,61.29z"/><path style="fill:#868c8c" d="M385.28,82.07L385.69,86.62L385.69,110.28L385.19,125.83L384.70,132.11L350.23,132.01L348.82,148.15L348.46,149.75L348.32,148.33L348.15,136.54L348.58,136.36L348.56,125.47L348.00,125.47L347.71,133.95L347.57,129.76L347.57,113.04L347.71,104.35L347.81,102.92L347.71,102.83L347.76,96.43L348.05,96.21L348.35,93.30L348.57,96.26L348.56,89.88L348.46,89.79L348.56,83.44L348.95,82.32L349.48,81.84L384.95,81.83z"/><path style="fill:#868c8c" d="M94.49,87.61L94.98,105.94L94.98,127.84L94.76,135.95L53.25,136.02L53.00,140.39L56.85,140.55L93.31,140.76L93.23,143.65L53.00,143.65L52.85,141.29L48.74,141.14L48.62,134.20L48.60,129.25L48.37,128.90L48.11,111.87L48.12,106.83L48.23,100.16L52.35,100.01L52.77,97.66L55.25,95.38L65.39,95.24L65.79,87.36z"/><path style="fill:#868c8c" d="M176.50,95.65L184.28,97.40L190.55,100.16L194.19,103.60L194.57,107.29L192.28,110.76L187.32,113.83L180.26,116.30L169.89,117.96L169.73,135.36L169.41,136.80L161.45,136.79L157.19,136.54L149.66,135.03L148.74,135.00L142.88,132.53L140.14,130.51L138.86,129.03L138.56,128.83L137.87,125.50L137.86,107.01L138.85,103.23L143.31,99.41L149.83,96.91L157.36,95.40L168.22,94.90z"/><path style="fill:#868c8c" d="M400.75,120.48L391.12,120.47L390.98,123.82L390.59,123.69L390.70,108.01L400.93,107.71L401.78,107.30L402.16,96.39L405.02,96.39L405.14,113.63L405.14,117.64L405.14,119.14L405.04,125.67L402.41,125.74L402.25,128.34L402.00,135.98L401.81,125.39z"/><path style="fill:#b3bad6" d="M34.45,105.43L34.81,105.31L34.86,106.56L34.49,105.94z"/><path style="fill:#b3bad6" d="M48.12,106.83L48.11,111.87L47.74,112.19L34.94,112.44L34.78,113.79L34.48,113.99L31.52,113.97L31.36,113.68L31.50,113.47L31.17,112.36L31.03,112.18L25.24,112.28L25.01,114.30L21.74,114.23L21.50,113.65L21.70,111.75L21.91,111.45L25.01,111.30L25.23,109.95L25.42,110.52L31.03,110.69L31.26,111.80L31.77,110.28L34.45,109.96L34.79,109.18L34.94,110.54L47.58,110.79L47.65,106.66z"/><path style="fill:#b3bad6" d="M34.95,128.01L35.30,127.90L35.41,128.96L35.28,129.09z"/><path style="fill:#b3bad6" d="M48.60,129.25L48.62,134.20L48.24,134.51L35.44,134.52L35.21,136.30L32.02,136.29L31.86,136.01L32.00,133.59L32.42,133.00L34.96,132.78L35.28,132.01L35.45,132.86L48.09,132.87L48.16,128.99L48.37,128.90z"/><path style="fill:#b3bad6" d="M22.01,135.97L22.21,134.08L22.41,133.78L25.74,133.60L25.93,133.03L31.53,133.01L31.56,134.45L25.74,134.60L25.51,136.63L22.24,136.55z"/><path style="fill:#b3bad6" d="M60.89,145.79L61.01,151.74L60.90,154.21L60.05,154.61L58.52,154.69L58.53,147.32L60.55,146.55L60.62,146.30L60.28,145.78L60.47,145.48z"/><path style="fill:#b3bad6" d="M63.79,155.60L60.99,157.03L60.89,158.71L60.31,159.39L58.25,159.78L58.30,157.13L58.58,156.91L58.77,156.10L61.81,155.62L63.92,154.52z"/><path style="fill:#b3bad6" d="M58.52,161.70L60.70,161.58L60.72,162.97L59.62,162.61L58.26,162.46L58.24,161.55L58.38,161.54z"/><path style="fill:#b3bad6" d="M61.39,163.86L61.62,164.98L62.14,164.65L62.54,164.62L62.76,164.29L62.90,164.37L62.89,167.24L61.29,168.65L61.26,169.55L61.14,172.01L60.89,172.26L58.78,172.76L58.78,165.13L60.88,164.45L60.86,163.35z"/><path style="fill:#b3bad6" d="M64.38,173.23L63.52,173.89L61.30,174.66L61.24,174.83L61.13,176.77L60.79,177.17L58.75,177.59L58.80,174.94L59.09,174.72L59.28,173.91L62.31,173.42L64.41,172.31z"/><path style="fill:#b3bad6" d="M61.26,180.84L61.14,182.29L60.55,182.71L58.77,182.78L58.73,179.85L58.99,179.60L61.23,179.41z"/><path style="fill:#b3bad6" d="M61.34,183.20L63.17,182.37L63.14,185.30L62.13,186.29L61.02,186.63L61.08,183.70z"/><path style="fill:#c6c1bc" d="M60.87,86.87L62.13,87.37L62.75,88.05L62.91,88.79L62.90,89.80L61.28,89.63L60.55,89.89L59.04,90.64L58.79,94.41L57.69,94.62L56.09,94.41L54.35,93.64L54.09,91.89L54.09,89.46L54.35,87.71L56.26,86.86L59.11,86.62z"/><path style="fill:#c6c1bc" d="M63.15,105.66L63.16,107.61L60.77,107.68L59.11,108.53L58.87,112.30L57.68,112.43L55.59,111.97L54.85,111.45L54.85,105.52L56.77,104.68L61.12,104.68z"/><path style="fill:#c6c1bc" d="M409.82,112.63L408.64,112.73L408.64,113.02L409.80,113.15L409.96,113.55L412.97,113.47L413.19,112.19L418.30,112.19L418.44,112.36L418.31,118.32L413.21,118.49L413.01,119.06L412.79,117.71L409.94,117.72L409.78,118.57L408.68,118.72L408.42,119.65L408.30,119.42L408.28,117.71L405.14,117.64L405.14,113.63L408.28,113.55L408.42,111.45L409.78,111.45z"/><path style="fill:#c6c1bc" d="M61.62,157.36L62.90,158.34L62.92,159.02L62.40,159.47L61.05,160.13L58.52,160.60L58.38,161.54L58.24,161.55L58.25,159.78L60.31,159.39L60.89,158.71L60.99,157.03z"/><path style="fill:#c6c1bc" d="M55.35,159.11L57.61,159.86L57.62,161.71L55.19,161.59L53.35,160.60L53.10,160.36L53.10,158.20L54.60,157.17L55.13,157.01z"/><path style="fill:#c6c1bc" d="M62.93,175.61L63.40,176.85L62.90,177.28L61.55,177.94L59.02,178.41L58.99,179.60L58.73,179.85L58.75,177.59L60.79,177.17L61.13,176.77L61.24,174.83z"/><path style="fill:#c6c1bc" d="M55.60,176.92L56.09,177.18L58.12,177.65L58.01,179.36L57.87,179.53L55.45,179.37L53.86,178.66L53.57,178.19L53.60,176.00L55.13,174.97L55.40,174.83z"/><path style="fill:#c8cfee" d="M31.50,113.47L31.36,113.68L31.21,113.56L31.17,112.36z"/><path style="fill:#787e7e" d="M131.60,51.26L131.87,52.58L131.47,53.69L131.34,53.84L131.29,54.51L128.84,54.52L127.79,54.24L127.75,54.01L129.09,53.59L130.10,52.85L130.86,51.60L130.98,50.42L131.13,50.47z"/><path style="fill:#787e7e" d="M125.85,53.00L126.16,53.43L123.54,53.27L123.46,52.92L124.57,52.80L124.85,52.50z"/><path style="fill:#787e7e" d="M126.94,53.75L126.16,53.43L127.36,53.50z"/><path style="fill:#787e7e" d="M131.83,56.33L131.54,56.54L131.12,59.13L130.53,59.55L129.17,59.65L129.35,56.86L129.52,55.52L131.88,54.92z"/><path style="fill:#787e7e" d="M127.63,62.98L127.49,62.31L128.00,62.01L128.84,62.02L128.84,63.14z"/><path style="fill:#787e7e" d="M133.63,65.90L132.26,67.04L131.87,80.19L131.64,80.50L131.25,80.61L131.30,81.36L129.60,81.35L128.49,81.11L129.35,80.94L129.50,67.55L131.35,67.38L131.60,66.64L131.86,64.38L133.02,63.30L133.75,62.95L133.88,63.05z"/><path style="fill:#787e7e" d="M385.96,82.85L386.19,85.37L386.35,96.30L386.38,125.34L386.71,125.44L386.69,135.36L386.42,136.34L386.14,136.56L385.94,148.16L385.71,149.93L385.10,150.58L349.56,150.60L348.56,150.09L348.46,149.75L348.82,148.15L350.23,132.01L384.70,132.11L385.19,125.83L385.69,110.28L385.69,86.62L385.28,82.07L385.44,82.10z"/><path style="fill:#787e7e" d="M348.57,96.26L348.35,93.30L348.46,89.79L348.56,89.88z"/><path style="fill:#787e7e" d="M83.17,97.75L84.36,97.15L85.71,97.15L85.70,99.26L84.68,99.18L83.18,98.40z"/><path style="fill:#787e7e" d="M131.87,100.01L131.61,100.51L130.53,101.18L127.40,101.15L129.10,101.01L129.34,96.48L129.51,82.35L131.77,81.59L131.91,81.52z"/><path style="fill:#787e7e" d="M343.33,103.63L343.31,128.35L342.97,129.01L305.08,129.00L304.68,133.12L255.26,133.03L251.50,132.77L251.25,132.52L251.03,130.92L251.77,130.83L251.91,123.98L304.94,123.84L305.08,121.98L343.06,122.08L343.05,104.18L342.87,103.40z"/><path style="fill:#787e7e" d="M163.95,103.01L165.12,102.42L166.23,102.41L166.25,104.50L163.95,103.93z"/><path style="fill:#787e7e" d="M194.41,103.80L195.06,106.94L195.07,127.09L194.23,129.02L193.08,130.37L190.19,132.75L184.78,135.11L175.49,137.12L167.89,137.54L165.46,137.54L158.69,137.04L154.93,136.54L149.39,135.30L148.74,135.00L149.66,135.03L157.19,136.54L161.45,136.79L169.41,136.80L169.73,135.36L169.89,117.96L180.26,116.30L187.32,113.83L192.28,110.76L194.57,107.29L194.19,103.60z"/><path style="fill:#787e7e" d="M347.71,104.35L347.71,102.83L347.81,102.92z"/><path style="fill:#787e7e" d="M180.78,104.38L181.01,111.22L181.29,111.70L176.93,112.97L171.15,113.71L168.38,113.80L168.46,111.02L172.67,110.22L176.67,108.70L178.78,107.29L179.93,105.94L180.53,104.14z"/><path style="fill:#787e7e" d="M145.14,105.00L145.65,103.01L146.92,102.02L148.57,100.67L153.58,98.65L160.62,97.41L164.20,97.38L163.96,98.99L163.66,99.20L159.10,99.91L156.10,100.92L153.44,102.77L152.41,104.50L152.20,106.29L151.08,106.94L148.05,109.20L147.40,109.23L146.17,108.17L145.13,106.46z"/><path style="fill:#787e7e" d="M176.98,105.49L176.03,106.30L173.67,107.45L170.15,108.19L167.86,108.26L167.88,107.72L168.64,107.44L172.16,106.94L173.42,106.70L176.28,105.29L177.28,104.19z"/><path style="fill:#787e7e" d="M55.59,116.55L56.01,116.21L57.86,115.95L57.86,118.07L56.84,117.99L55.60,117.47z"/><path style="fill:#787e7e" d="M401.81,125.39L400.75,124.99L390.70,124.76L390.59,123.69L390.98,123.82L391.12,120.47L400.75,120.48z"/><path style="fill:#787e7e" d="M405.00,134.86L404.77,136.38L402.16,136.39L402.00,135.98L402.25,128.34L402.41,125.74L405.04,125.67z"/><path style="fill:#787e7e" d="M348.58,136.36L348.15,136.54L347.73,136.36L347.71,133.95L348.00,125.47L348.56,125.47z"/><path style="fill:#787e7e" d="M53.00,140.39L53.25,136.02L94.76,135.95L94.74,140.64L93.31,140.76L56.85,140.55z"/><path style="fill:#868c8c" d="M304.94,98.90L305.08,103.02L342.87,103.40L343.05,104.18L343.06,122.08L305.08,121.98L304.94,123.84L251.91,123.98L251.77,130.83L251.03,130.92L251.00,107.02L251.25,99.25L251.90,98.65z"/><path style="fill:#868c8c" d="M386.71,125.44L386.38,125.34L386.35,96.30L386.68,96.39z"/><path style="fill:#b2adaa" d="M62.91,88.79L62.75,88.05L62.88,88.12z"/><path style="fill:#b2adaa" d="M56.26,88.94L56.35,88.22L57.01,87.87L58.12,87.86L58.12,89.22L56.83,89.15z"/><path style="fill:#b2adaa" d="M62.90,89.80L62.90,93.50L61.62,94.23L59.53,94.65L57.69,94.62L58.79,94.41L59.04,90.64L60.55,89.89L61.28,89.63z"/><path style="fill:#b2adaa" d="M56.50,106.42L57.51,105.67L58.62,105.67L58.64,107.26L57.09,106.96z"/><path style="fill:#b2adaa" d="M418.82,112.67L418.82,120.08L418.47,120.48L413.19,120.58L413.05,119.47L409.93,119.47L409.78,121.33L408.42,121.33L408.42,119.65L408.68,118.72L409.78,118.57L409.94,117.72L412.79,117.71L413.01,119.06L413.21,118.49L418.31,118.32L418.44,112.36z"/><path style="fill:#b2adaa" d="M63.14,111.30L62.30,111.97L60.28,112.46L57.68,112.43L58.87,112.30L59.11,108.53L60.77,107.68L63.16,107.61z"/><path style="fill:#b2adaa" d="M409.80,113.15L408.64,113.02L408.64,112.73L409.82,112.63z"/><path style="fill:#b2adaa" d="M405.14,119.14L405.14,117.64L408.28,117.71L408.30,119.42L407.26,119.23z"/><path style="fill:#b2adaa" d="M62.89,160.21L62.53,160.60L60.70,161.58L58.52,161.70L58.38,161.54L58.52,160.60L61.05,160.13L62.40,159.47L62.92,159.02z"/><path style="fill:#b2adaa" d="M63.39,178.02L63.03,178.41L61.23,179.41L58.99,179.60L59.02,178.41L61.55,177.94L62.90,177.28L63.40,176.85z"/><g id="Actor_.0"><g style="stroke:#000000;stroke-width:0.176"><path d="M58.29,177.65L58.15,178.45L56.50,178.28L55.08,177.91L54.05,177.38L53.54,176.75"/><path d="M55.63,176.24L55.60,176.27L55.57,176.65L55.88,177.02L56.14,177.16"/><path d="M58.15,178.45L58.14,179.77"/><path d="M63.47,176.78L62.98,177.41L61.98,177.93L60.58,178.29L58.94,178.45L58.92,179.78"/><path d="M58.94,178.45L58.75,177.65"/><path d="M60.85,177.19L61.14,177.04L61.43,176.67L61.38,176.29L61.37,176.28"/></g><g style="stroke:#000000;stroke-width:0.529"><path d="M56.14,177.16L56.48,177.34L57.32,177.55L58.29,177.65L58.28,178.98L58.14,179.77L56.49,179.61L55.07,179.24L54.04,178.71L53.53,178.08L53.54,176.75L53.59,176.09L54.20,175.49L55.31,175.00L55.64,174.93"/><path d="M61.38,174.97L61.61,175.02L62.74,175.52L63.39,176.13L63.47,176.78L63.46,178.11L62.97,178.74L61.97,179.26L60.56,179.62L58.92,179.78L58.74,178.98L58.75,177.65L59.72,177.56L60.55,177.35L60.85,177.19"/></g></g><g id="Actor_.1"><g style="stroke:#000000;stroke-width:0.176"><path d="M21.92,114.32L21.91,114.28"/><path d="M21.52,113.64L21.54,113.65L21.55,113.36L21.56,112.80L21.87,114.08"/><path d="M21.57,112.26L21.56,112.80L21.98,111.30L21.60,108.82L21.59,111.04L21.57,112.26"/><path d="M21.54,113.65L21.54,113.66"/><path d="M21.98,111.30L25.14,111.31L25.15,106.35L21.99,106.34L21.60,108.82L21.59,106.75L21.59,105.94L21.58,105.38L21.57,105.08L21.56,105.07"/><path d="M21.99,106.34L21.58,105.38L21.94,104.41"/><path d="M25.10,113.68L25.14,111.31"/><path d="M25.30,112.32L25.32,110.02L25.32,108.60L25.32,106.44"/><path d="M25.12,105.06L25.15,106.35"/><path d="M47.81,106.58L47.82,106.80L47.83,107.30L47.83,108.96L47.82,110.79L47.81,111.54L47.80,112.08L47.79,112.32"/></g><g style="stroke:#000000;stroke-width:0.529"><path d="M31.30,106.53L25.45,106.51L25.40,106.50L25.35,106.47L25.32,106.44L25.30,105.39L25.29,105.06L25.12,105.06L25.11,104.42L21.94,104.41L21.56,105.07L21.54,105.37L21.52,106.70L21.50,108.79L21.50,110.98L21.50,111.97L21.51,113.35L21.52,113.64L21.54,113.66L21.69,113.92"/><path d="M21.90,114.29L21.92,114.32L25.09,114.33L25.10,113.68L25.26,113.68L25.28,113.31L25.30,112.32L25.33,112.28L25.38,112.26L25.43,112.25L31.28,112.27"/><path d="M35.04,112.28L47.79,112.32L48.32,111.80L48.33,111.60L48.34,111.16L48.35,109.81L48.35,109.03L48.35,107.70L48.34,107.29L48.34,107.11L47.81,106.58L35.06,106.54"/></g></g><g id="Actor_.2"><g style="stroke:#000000;stroke-width:0.176"><path d="M348.04,96.28L348.10,98.33L348.15,102.33L348.17,107.83L348.17,114.24L348.14,120.87L348.07,128.77L348.02,131.95L347.95,135.20L347.87,136.40"/><path d="M347.84,128.77L347.87,129.51L347.92,129.44L347.97,127.94L348.02,125.33L348.06,121.43L348.09,117.12L348.10,112.72L348.07,106.63L348.07,105.50L348.03,103.46L347.98,102.80L347.93,103.60L347.88,105.76L347.83,109.06L347.80,113.14L347.78,117.55L347.78,121.82L347.79,125.48L347.82,128.14L347.84,128.77"/><path d="M348.40,136.40L348.44,140.00L348.52,142.74L348.62,142.59L348.73,139.60L348.83,133.72L348.91,126.61L348.96,118.02L348.98,109.24L348.97,101.22L348.93,96.28L348.43,96.28"/><path d="M348.30,136.40L348.79,136.40"/><path d="M348.93,96.28L348.92,94.82L348.85,90.74L348.75,89.43L348.65,91.02L348.53,96.28"/><path d="M386.49,96.41L386.51,99.05L386.52,108.63L386.49,118.97L386.43,129.05L386.35,136.53"/></g><g style="stroke:#000000;stroke-width:0.529"><path d="M348.30,136.40L347.87,136.40L347.80,135.41L347.74,132.34L347.71,127.53L347.70,121.49L347.71,114.88L347.75,108.42L347.81,102.80L347.89,98.64L347.96,96.38L348.04,96.28L348.43,96.28"/><path d="M386.35,136.53L386.30,140.65L386.22,144.97L386.13,147.91L386.05,149.36L385.99,149.78L385.72,150.23L385.36,150.58L384.91,150.79L384.53,150.83L349.95,150.68L349.57,150.63L349.12,150.42L348.77,150.07L348.56,149.62L348.51,149.24L348.41,146.70L348.33,141.18L348.30,136.40"/><path d="M361.82,81.82L350.26,81.79L349.88,81.84L349.43,82.05L349.08,82.40L348.86,82.84L348.74,83.54L348.69,83.91L348.57,87.77L348.45,94.42L348.43,96.28"/><path d="M386.49,96.41L386.46,91.16L386.38,85.74L386.27,83.32L386.22,82.94L386.01,82.49L385.67,82.14L385.22,81.93L384.84,81.88L363.17,81.82"/><path d="M386.35,136.53L386.79,136.54L386.86,135.34L386.94,132.09L387.01,127.13L387.06,121.01L387.09,114.38L387.09,107.97L387.07,102.47L387.02,98.47L386.96,96.41L386.49,96.41"/></g></g><g id="Actor_.3"><g style="stroke:#000000;stroke-width:0.176"><path d="M252.05,98.63L252.11,99.89L252.15,102.90L252.18,107.31L252.18,112.65L252.16,118.34L252.12,123.76L252.07,128.33L252.00,131.56L251.93,133.08"/><path d="M251.22,132.37L251.28,130.90L251.34,127.81L251.40,123.43L251.44,117.21L251.45,107.66L251.42,103.44L251.38,100.56L251.32,99.34"/><path d="M305.20,103.19L305.24,110.08L305.23,115.67L305.20,121.31L305.15,126.38L305.11,129.01"/><path d="M343.06,129.15L343.11,128.69L343.16,126.89L343.21,123.93L343.26,115.91L343.27,111.72L343.24,105.66L343.19,103.58L343.14,103.32"/></g><g style="stroke:#000000;stroke-width:0.529"><path d="M252.27,133.09L251.93,133.08L251.22,132.37L251.16,132.04L251.10,129.97L251.07,126.37L251.06,118.86L251.09,110.87L251.14,106.02L251.19,102.36L251.26,99.92L251.32,99.34L252.05,98.63L305.07,98.88L305.13,99.22L305.19,101.38L305.20,103.19L343.14,103.32L343.50,103.68L343.55,103.93L343.59,105.51L343.61,108.24L343.63,111.84L343.60,120.02L343.52,126.59L343.47,128.35L343.42,128.79L343.06,129.15L305.11,129.01L305.09,130.33L305.02,132.74L304.96,133.34L252.27,133.09"/></g></g><g id="Actor_.4"><g style="stroke:#000000;stroke-width:0.176"><path d="M48.36,100.09L48.95,125.19L48.82,141.14"/><path d="M48.95,125.19L53.27,125.21"/></g><g style="stroke:#000000;stroke-width:0.529"><path d="M48.66,134.30L48.82,141.14L53.14,141.15L53.27,125.21L52.68,100.10L48.36,100.09L48.30,107.07"/><path d="M48.26,111.86L48.23,116.03L48.53,129.10"/></g></g><g id="Actor_.5"><g style="stroke:#000000;stroke-width:0.176"><path d="M57.87,159.80L57.73,160.59L56.08,160.43L54.66,160.06L53.63,159.53L53.11,158.90"/><path d="M55.72,159.30L55.46,159.17L55.15,158.80L55.18,158.41L55.21,158.39"/><path d="M57.72,161.92L57.73,160.59"/><path d="M58.50,161.93L58.51,160.60L60.15,160.44L61.56,160.08L62.56,159.56L63.05,158.93"/><path d="M58.33,159.80L58.51,160.60"/><path d="M60.43,159.34L60.72,159.19L61.00,158.82L60.96,158.43L60.95,158.43"/></g><g style="stroke:#000000;stroke-width:0.529"><path d="M55.22,157.07L54.89,157.14L53.78,157.63L53.17,158.24L53.11,158.90L53.10,160.23L53.62,160.86L54.65,161.39L56.07,161.76L57.72,161.92L57.86,161.13L57.87,159.80L56.90,159.70L56.06,159.48L55.72,159.30"/><path d="M60.43,159.34L60.13,159.50L59.30,159.71L58.33,159.80L58.32,161.13L58.50,161.93L60.14,161.77L61.54,161.41L62.55,160.89L63.04,160.26L63.05,158.93L62.96,158.28L62.32,157.66L61.19,157.17L60.96,157.12"/></g></g><g id="Actor_.6"><g style="stroke:#000000;stroke-width:0.176"><path d="M54.09,185.75L54.70,186.32L55.97,186.81L58.46,187.17L60.96,186.82L60.98,183.91L55.99,183.89L55.97,186.81"/><path d="M62.57,181.66L62.76,181.94L62.65,182.49L62.09,182.99L61.14,183.39L59.89,183.65L58.49,183.74L57.08,183.64L55.83,183.38L54.85,182.97L54.27,182.46L54.14,181.91L54.14,182.07L54.27,182.62L54.73,183.05L55.99,183.89"/><path d="M53.46,182.21L54.73,183.05L54.85,183.13L55.83,183.53L57.08,183.80L58.49,183.90L59.89,183.81L61.14,183.55L62.09,183.15L62.21,183.07L63.44,182.24"/><path d="M54.32,181.62L54.14,181.91"/><path d="M55.57,182.04L55.58,181.99L55.59,180.76"/><path d="M55.44,180.86L55.59,180.81"/><path d="M55.73,163.85L55.81,164.21L56.20,164.55L56.85,164.82L57.69,165.00L58.63,165.06L59.56,165.01L60.39,164.84L61.03,164.57L61.40,164.23L61.47,163.87L61.47,163.87"/><path d="M56.44,163.09L56.26,163.38L56.27,163.44L56.33,163.68L56.65,163.95L57.18,164.18L57.86,164.32L58.63,164.37L59.39,164.33L60.07,164.19L60.59,163.97L60.89,163.69L60.95,163.40L60.75,163.10"/><path d="M62.77,185.78L62.19,186.35L60.62,186.95"/><path d="M60.98,183.91L62.21,183.07L62.65,182.65L62.75,182.10L62.76,181.94"/><path d="M61.33,182.06L61.33,182.01L61.34,180.84"/><path d="M61.38,180.87L61.34,180.86"/></g><g style="stroke:#000000;stroke-width:0.529"><path d="M55.60,179.38L55.59,180.76L55.44,180.86L55.24,180.92L54.48,181.38L54.32,181.62L53.46,182.21L53.43,185.12L54.09,185.75L54.26,185.92L54.70,186.32L55.38,186.67L56.29,186.94L57.35,187.11L58.46,187.17L59.57,187.12L60.62,186.95L61.52,186.69L62.19,186.35L62.60,185.95L62.77,185.78L63.42,185.16L63.44,182.24L62.57,181.66L62.39,181.41L61.60,180.94L61.38,180.87L61.34,180.84L61.35,179.42"/><path d="M55.64,174.67L55.62,176.71"/><path d="M61.47,163.87L61.23,163.51L60.75,163.10L60.32,162.85L59.71,162.66L58.97,162.56L58.20,162.56L57.47,162.66L56.86,162.84L56.44,163.09L55.95,163.49L55.73,163.85L55.66,171.98"/><path d="M61.38,174.72L61.37,176.75"/><path d="M61.41,172.03L61.47,163.87"/></g></g><g id="Actor_.7"><g style="stroke:#000000;stroke-width:0.176"><path d="M126.48,67.03L127.12,67.45L127.14,64.55L125.76,63.36L124.82,63.01"/><path d="M131.51,100.71L130.88,100.98L130.05,101.15L129.11,101.21L128.17,101.15L127.34,100.97L126.69,100.70"/><path d="M132.12,81.21L132.04,81.48L131.67,81.82L131.03,82.09L130.20,82.26L129.27,82.32L128.33,82.25L127.49,82.07L126.84,81.80L126.45,81.46L126.37,81.10"/><path d="M126.95,80.84L127.05,80.66L127.06,80.62L126.98,80.68"/><path d="M131.61,61.49L132.44,61.84L132.93,62.26L133.04,62.73L132.75,63.18L132.11,63.57L131.16,63.85L130.03,64.00L129.43,64.01L128.83,63.99L127.69,63.84L126.73,63.55L126.06,63.16L125.76,62.70L125.85,62.24L126.32,61.81L127.13,61.47"/><path d="M132.06,81.22L131.83,81.27L131.54,81.20L131.38,81.08L131.31,80.95L131.29,80.82L131.31,80.69L131.33,80.64L131.04,80.76L130.21,80.93L129.28,80.99L128.34,80.92L127.50,80.75L126.97,80.52"/><path d="M127.06,80.62L127.07,80.56"/><path d="M127.14,64.55L130.09,64.30L131.72,64.57L131.69,67.46L127.12,67.45"/><path d="M127.54,62.77L127.80,63.00L128.23,63.18L128.79,63.30L129.41,63.34L129.68,63.32L130.03,63.30L130.59,63.19L131.01,63.01L131.26,62.79L131.30,62.54L131.14,62.31L130.79,62.10L130.29,61.95L129.69,61.87L129.06,61.87L128.47,61.94L127.98,62.09L127.64,62.29L127.49,62.53L127.54,62.77"/><path d="M131.33,80.64L131.40,80.61L131.49,80.75L131.76,81.00L131.94,81.10"/><path d="M131.42,80.65L131.48,80.70"/><path d="M131.52,80.56L131.40,80.61"/><path d="M131.69,67.46L132.23,67.10"/><path d="M131.72,64.57L133.06,63.39L133.97,63.04"/><path d="M131.63,61.50L131.64,61.50L131.64,61.50"/></g><g style="stroke:#000000;stroke-width:0.529"><path d="M126.47,68.13L126.48,67.03L124.79,65.90L124.82,63.01L126.05,61.89L127.07,61.48L127.13,61.47L128.18,61.26L129.36,61.18L130.55,61.27L131.64,61.50L132.70,61.92L133.97,63.04L133.94,65.94L132.23,67.10L132.13,79.88L132.05,80.16L131.68,80.49L131.52,80.56L131.87,80.76L132.11,81.12L132.12,81.21L131.95,100.01L131.88,100.38L131.51,100.71L131.17,101.00L130.62,101.23L129.91,101.38L129.10,101.43L128.30,101.37L127.58,101.22L127.02,100.98L126.30,100.36L126.21,99.99L126.37,81.10L126.59,80.74L126.97,80.52L126.85,80.47L126.47,80.14L126.38,79.77L126.47,69.02"/></g></g><g id="Actor_.8"><g style="stroke:#000000;stroke-width:0.176"><path d="M52.43,171.41L52.62,172.19L53.44,172.91L54.41,173.31L54.82,173.49L56.60,173.86L58.59,174.00L60.58,173.88L62.34,173.51L63.69,172.94L64.48,172.23L64.52,172.04"/><path d="M55.67,171.23L55.48,171.52L55.58,171.91L55.80,172.10"/><path d="M61.27,172.14L61.51,171.93L61.58,171.54L61.41,171.29"/></g><g style="stroke:#000000;stroke-width:0.529"><path d="M55.68,169.52L55.57,169.53L54.00,170.01L52.91,170.66L52.43,171.41L52.42,172.42L52.61,173.20L53.43,173.92L54.81,174.50L56.59,174.87L58.58,175.01L60.57,174.89L62.33,174.52L63.68,173.95L64.48,173.24L64.62,172.46L64.63,171.97"/><path d="M55.80,172.10L55.99,172.27L56.68,172.56L57.57,172.75L58.56,172.81L59.56,172.75L60.44,172.57L61.11,172.29L61.27,172.14"/><path d="M64.19,170.80L64.12,170.70L63.00,170.04L61.43,169.56"/></g></g><g id="Actor_.9"><g style="stroke:#000000;stroke-width:0.176"><path d="M54.75,111.36L54.78,107.66L55.96,107.51L56.95,107.62L57.95,107.96L59.12,108.64L59.09,112.34L57.91,112.49L56.91,112.38L55.93,112.04L54.76,111.36"/><path d="M54.78,107.66L54.77,106.72L54.76,106.16L54.89,105.73L55.32,105.32"/><path d="M54.73,105.72L54.75,105.83L54.76,106.16L54.91,106.59L55.36,107.00L56.06,107.35L56.95,107.62L57.99,107.79L59.12,107.85L60.25,107.79L61.28,107.63L60.29,107.97L59.12,108.64"/><path d="M57.15,105.88L56.77,106.15L56.65,106.46L56.79,106.76L57.00,106.92L56.82,106.85L56.36,106.53L56.20,106.16L56.35,105.80L56.79,105.48L57.48,105.24L58.35,105.09L59.29,105.06L60.21,105.16L61.01,105.36L61.60,105.65L61.92,106.00L61.93,106.37L61.63,106.71L61.24,106.91L61.48,106.63L61.47,106.32L61.21,106.02L60.71,105.78L60.03,105.61L59.26,105.53L58.46,105.55L57.73,105.67L57.15,105.88"/><path d="M57.00,106.92L57.53,107.10L58.40,107.25L59.34,107.29L60.26,107.20L61.05,107.00L61.24,106.91"/><path d="M59.09,112.34L60.25,112.49L61.24,112.39L62.22,112.06L63.39,111.39"/><path d="M62.80,105.35L63.25,105.76L63.40,106.19L63.26,106.63L62.84,107.03L62.15,107.37L61.28,107.63L62.25,107.53L63.42,107.69"/></g><g style="stroke:#000000;stroke-width:0.529"><path d="M55.32,111.76L56.03,112.11L56.91,112.38L57.95,112.55L59.08,112.61L60.21,112.56L61.24,112.39L62.12,112.13L62.80,111.79L63.39,111.39L63.42,107.69L63.41,106.76L63.40,106.19L63.39,105.87L63.38,105.76L62.80,105.35L62.10,105.00L61.21,104.73L60.17,104.56L59.04,104.50L57.91,104.56L56.88,104.72L56.01,104.98L55.32,105.32L54.73,105.72L54.70,109.42L54.71,110.36L54.72,110.92L54.73,111.25L54.75,111.36L54.76,111.36L55.32,111.76"/></g></g><g id="Actor_.10"><g style="stroke:#000000;stroke-width:0.176"><path d="M54.18,87.96L54.27,88.07L54.34,88.40L54.56,88.82L55.06,89.22L55.81,89.56L56.74,89.81L55.71,89.72L54.50,89.89L54.46,93.59"/><path d="M54.50,89.89L54.41,88.96L54.34,88.40L54.42,87.97L54.79,87.55"/><path d="M63.12,89.75L62.00,89.61L61.05,89.73L60.05,89.92L58.93,90.00L57.79,89.96L56.74,89.81L57.76,90.13L58.97,90.79L58.94,94.48L57.72,94.66L56.70,94.57L55.68,94.25L54.48,93.60"/><path d="M56.06,87.86L55.88,88.01L55.78,88.37L56.00,88.73L56.50,89.05L57.24,89.28L58.13,89.42L59.08,89.43L59.36,89.40L59.98,89.32L60.74,89.11L61.27,88.81L61.53,88.46L61.47,88.09L61.10,87.75L60.47,87.47L59.65,87.28L58.72,87.21L57.78,87.25L56.93,87.42L56.28,87.68L56.06,87.86"/><path d="M60.68,89.13L60.86,89.02L61.08,88.73L61.03,88.42L60.72,88.13L60.19,87.89L59.49,87.74L58.71,87.67L57.91,87.71L57.20,87.85L56.65,88.07L56.31,88.35L56.23,88.66L56.41,88.96L56.60,89.08"/><path d="M58.94,94.48L60.06,94.62L61.01,94.50L61.96,94.14L63.09,93.44"/><path d="M58.97,90.79L60.10,90.09L61.05,89.73L61.89,89.46L62.52,89.10L62.89,88.69L62.97,88.25L62.76,87.82L62.26,87.42"/></g><g style="stroke:#000000;stroke-width:0.529"><path d="M58.27,86.66L57.27,86.73L56.27,86.91L55.43,87.19L54.79,87.55L54.18,87.96L54.15,91.66L54.23,92.60L54.30,93.16L54.38,93.49L54.46,93.59L54.48,93.60L55.03,93.99L55.77,94.33L56.70,94.57L57.75,94.72L58.89,94.76L60.01,94.68L61.01,94.50L61.85,94.22L62.49,93.86L63.09,93.44L63.12,89.75L63.05,88.82L62.97,88.25L62.90,87.92L62.81,87.82L62.26,87.42L61.51,87.08L60.58,86.84L59.53,86.69L58.85,86.67"/></g></g><g id="Actor_.11"><g style="stroke:#000000;stroke-width:0.176"><path d="M408.67,113.57L408.67,113.49L408.68,113.69L408.69,114.20L408.70,114.20L408.72,113.20L408.72,114.66L408.72,116.33L408.71,118.01L408.70,119.51L408.68,120.65L408.66,121.32L408.64,121.42"/><path d="M408.70,114.20L408.69,114.53L408.70,115.39L408.69,116.38L408.69,117.36L408.68,118.25L408.67,118.92L408.66,119.27L408.66,119.31L408.65,119.37L408.64,119.31"/><path d="M408.69,114.20L408.71,112.64L410.15,112.65"/><path d="M408.71,112.64L408.70,111.77L408.68,111.43"/><path d="M408.72,113.20L410.14,113.21"/></g><g style="stroke:#000000;stroke-width:0.529"><path d="M408.60,119.31L408.61,119.97L408.62,120.95L408.64,121.42L410.08,121.43L410.10,121.32L410.12,120.66L410.14,119.51L410.14,119.14L410.15,118.01L410.16,116.33L410.16,114.67L410.16,113.21L410.14,113.21L410.15,112.65L410.14,111.78L410.12,111.44L408.68,111.43L408.66,111.67L408.64,112.46L408.62,113.57"/></g></g><g id="Actor_.12"><g style="stroke:#000000;stroke-width:0.176"><path d="M142.64,132.41L142.43,132.23L139.09,129.18"/><path d="M145.08,105.66L145.00,106.00L146.66,108.71L150.50,111.08L156.09,112.85L162.84,113.84L170.00,113.92L176.81,113.11L182.53,111.48L186.53,109.20L188.39,106.54L187.89,103.76L185.10,101.19L180.33,99.09L174.07,97.69L167.02,97.15L159.94,97.52L153.58,98.76L148.66,100.74L145.69,103.24L145.08,105.66"/><path d="M181.24,111.84L181.14,111.65L181.05,110.95L181.06,106.21L180.98,104.88L180.93,104.53L180.73,104.13L179.32,102.40L179.01,102.14L176.30,100.71L172.56,99.68L172.37,99.65L168.14,99.16L163.75,99.23L159.68,99.85L159.45,99.90L156.04,101.03L153.78,102.54L153.45,102.82L153.25,103.20L152.36,104.99L152.31,105.34L152.33,110.59L152.22,111.29L152.07,111.58"/><path d="M155.95,104.01L156.15,105.15L157.54,106.43L159.93,107.48L163.05,108.18L166.58,108.45L170.12,108.27L173.29,107.65L175.75,106.66L177.23,105.41L177.58,104.03L177.59,103.20L177.24,104.58L175.76,105.83L173.30,106.82L170.12,107.44L166.58,107.62L163.06,107.35L159.94,106.65L157.55,105.60L156.15,104.32L155.91,102.93L155.90,103.76L155.95,104.01"/><path d="M155.91,102.93L156.84,101.60L158.83,100.46L161.69,99.65L165.09,99.24L168.67,99.28L172.04,99.78L174.84,100.66L176.75,101.85L177.59,103.20"/><path d="M164.60,104.12L164.93,104.27L165.76,104.46L166.69,104.53L167.63,104.48L168.47,104.32L169.13,104.05L169.52,103.72L169.61,103.36L169.39,103.00L168.88,102.68L168.14,102.45L167.25,102.32L166.30,102.31L165.40,102.42L164.64,102.63L164.11,102.93L163.87,103.29L163.93,103.65L164.30,103.99L164.60,104.12"/><path d="M175.62,137.12L183.41,135.58"/><path d="M190.15,132.92L193.93,129.70"/></g><g style="stroke:#000000;stroke-width:0.529"><path d="M138.30,127.12L138.58,128.56L138.73,128.85L139.09,129.18L140.75,130.88L142.64,132.41L148.91,135.14L152.96,136.20L157.19,136.97L158.88,137.11L164.52,137.54L166.28,137.65L170.90,137.55L175.40,137.16L176.86,136.89L181.89,135.90L183.76,135.51L187.00,134.37L190.15,132.92L192.12,131.43L193.93,129.70L194.23,129.44L194.38,129.16L195.23,127.15L195.29,125.26L195.39,108.18L194.73,104.23L194.53,103.83L190.93,100.45L190.63,100.19L184.48,97.46L176.26,95.60L167.28,94.88L158.24,95.33L149.85,96.94L143.42,99.49L139.18,103.01L138.97,103.40L138.00,107.04L137.94,107.39L137.85,124.65L137.88,124.90L138.30,127.12"/></g></g><g id="Actor_.13"><g style="stroke:#000000;stroke-width:0.176"><path d="M53.10,141.15L53.08,143.74"/><path d="M53.14,141.09L93.44,141.23"/></g><g style="stroke:#000000;stroke-width:0.529"><path d="M93.43,140.76L93.44,141.23L93.42,143.89L53.08,143.74L53.01,141.15"/></g></g><g id="Actor_.14"><g style="stroke:#000000;stroke-width:0.176"><path d="M65.80,87.40L65.83,88.05L66.30,108.13L66.33,109.55L66.34,114.12L66.33,116.82L66.30,122.11L66.26,120.43L66.29,115.11L66.27,112.11L65.78,91.71L65.77,91.81L65.74,93.19L65.70,97.00L55.62,96.97L52.71,99.61L52.70,100.94"/><path d="M52.71,99.61L52.67,97.94"/><path d="M53.15,139.67L53.19,137.65L53.22,135.35L53.30,124.72L53.27,123.04L53.25,124.37"/><path d="M53.30,124.72L56.21,122.07L66.30,122.11"/><path d="M53.27,123.04L56.17,120.40L56.21,122.07"/><path d="M55.62,117.40L55.45,117.03L55.60,116.65L56.06,116.32L56.77,116.07L57.67,115.92L58.64,115.89L59.12,115.92L59.59,115.99L60.41,116.20L61.02,116.50L61.35,116.86L61.36,117.24L61.05,117.59L61.01,117.61L60.45,117.89L59.64,118.10L58.69,118.19L57.72,118.15L56.82,118.00L56.09,117.74L55.62,117.40"/><path d="M55.62,96.97L55.58,95.29"/><path d="M56.17,120.40L66.26,120.43"/><path d="M65.70,97.00L65.66,95.33"/><path d="M83.53,97.58L83.22,97.95L83.23,98.34L83.56,98.71L84.19,99.02L85.04,99.24L86.02,99.34L87.02,99.31L87.94,99.16L88.67,98.89L89.15,98.55L89.30,98.17L89.13,97.78L88.64,97.44L87.89,97.17L86.97,97.01L85.96,96.98L84.99,97.07L84.15,97.28L83.53,97.58"/></g><g style="stroke:#000000;stroke-width:0.529"><path d="M71.70,87.42L65.80,87.40L65.77,87.60L65.74,88.62L65.71,90.37L65.66,95.33L55.58,95.29L52.67,97.94L52.65,100.10"/><path d="M73.07,87.43L94.62,87.50L94.65,88.15L95.12,108.23L95.15,109.65L95.16,111.72L95.15,116.92L95.14,119.55L95.00,135.49L94.95,139.54L94.92,140.56L94.89,140.76L53.15,140.62"/></g></g><g id="Actor_.15"><g style="stroke:#000000;stroke-width:0.176"><path d="M22.05,135.96L22.06,135.97L22.08,135.67L22.09,135.12L22.51,133.61L22.12,131.13L22.11,133.35L22.09,135.12L22.45,136.63"/><path d="M22.06,135.97L22.07,135.97"/><path d="M22.51,133.61L25.67,133.62L25.63,136.00"/><path d="M22.12,130.42L22.12,131.13L22.52,128.66L22.11,127.69L22.12,129.07L22.12,130.42"/><path d="M22.47,126.73L22.11,127.69L22.10,127.40L22.08,127.39"/><path d="M22.52,128.66L25.68,128.67L25.67,133.62"/><path d="M25.82,134.63L25.84,133.03L25.85,131.62L25.85,130.22L25.84,128.74"/><path d="M25.65,127.39L25.68,128.67"/><path d="M48.31,134.64L48.32,134.55L48.34,133.72L48.36,131.72L48.36,130.42L48.35,129.33L48.34,128.96L48.33,128.90"/></g><g style="stroke:#000000;stroke-width:0.529"><path d="M31.81,134.58L25.96,134.56L25.91,134.57L25.86,134.59L25.82,134.63L25.81,135.27L25.80,135.86L25.78,136.00L25.63,136.00L25.61,136.64L22.45,136.63L22.07,135.97L22.05,135.96L22.04,135.66L22.03,135.10L22.03,134.29L22.02,132.22L22.03,130.00L22.04,129.02L22.07,127.68L22.08,127.39L22.47,126.73L25.63,126.74L25.65,127.39L25.81,127.39L25.82,127.48L25.84,128.03L25.84,128.74L25.88,128.78L25.93,128.81L25.98,128.81L31.83,128.84"/><path d="M35.58,128.85L48.33,128.90L48.86,129.43L48.87,129.48L48.87,129.78L48.88,130.30L48.88,131.73L48.87,133.19L48.86,133.72L48.85,134.04L48.84,134.12L48.31,134.64L35.56,134.60"/></g></g><g id="Actor_.16"><g style="stroke:#000000;stroke-width:0.176"><path d="M413.31,112.17L413.33,112.58L413.34,113.41L413.34,114.57L413.34,115.94L413.33,117.36L413.32,118.68L413.31,119.77L413.29,120.49L413.28,120.78"/><path d="M413.24,119.49L413.26,119.52L413.27,119.61"/><path d="M413.30,113.28L413.28,113.37L413.27,113.41"/><path d="M418.46,120.76L418.47,120.71L418.48,120.51L418.49,120.20L418.51,119.28L418.52,118.06L418.53,116.67L418.53,115.90"/></g><g style="stroke:#000000;stroke-width:0.529"><path d="M408.66,119.31L405.38,119.30"/><path d="M405.40,113.56L408.68,113.57"/><path d="M410.14,119.31L412.98,119.31L413.07,119.33L413.15,119.37L413.22,119.44L413.24,119.49L413.25,119.97L413.26,120.60L413.28,120.78L418.46,120.76L419.04,120.19L419.05,120.15L419.06,119.70L419.08,118.91L419.09,117.85L419.10,116.65L419.10,115.91"/><path d="M410.16,113.57L413.00,113.58L413.09,113.56L413.18,113.52L413.24,113.45L413.27,113.41L413.28,112.73L413.29,112.22L413.31,112.17L418.04,112.16"/></g></g><g id="Actor_.17"><g style="stroke:#000000;stroke-width:0.176"><path d="M52.01,153.56L52.20,154.34L53.02,155.06L53.33,155.18L54.40,155.63L56.18,156.01L58.17,156.15L60.16,156.03L61.92,155.66L63.27,155.09L64.06,154.38L64.21,153.60"/><path d="M55.25,153.38L55.06,153.67L55.16,154.06L55.38,154.25"/><path d="M60.99,153.43L61.16,153.69L61.09,154.08L60.85,154.29"/></g><g style="stroke:#000000;stroke-width:0.529"><path d="M55.26,151.67L55.15,151.68L53.57,152.16L52.49,152.81L52.01,153.56L52.00,154.57L52.19,155.35L53.01,156.07L54.39,156.64L56.17,157.02L58.16,157.16L60.15,157.04L61.91,156.67L63.26,156.10L64.05,155.39L64.20,154.61L64.21,153.60L63.70,152.85L62.58,152.19L61.00,151.71"/><path d="M55.38,154.25L55.57,154.42L56.26,154.71L57.15,154.89L58.14,154.96L59.14,154.90L60.02,154.72L60.69,154.43L60.85,154.29"/></g></g><g id="Actor_.18"><g style="stroke:#000000;stroke-width:0.176"><path d="M32.39,136.52L31.96,135.54L31.84,134.72L31.83,135.42L31.81,135.87L31.80,136.03"/><path d="M31.96,127.24L31.84,127.52L31.85,127.93L31.86,128.61L31.86,129.51L31.87,130.53L31.86,131.63L31.86,132.77L31.85,133.83L31.84,134.72L31.98,133.90L32.44,132.94L31.99,131.63L31.87,130.53L32.00,129.43L32.44,128.13L31.98,127.80L31.84,127.52L31.83,127.39"/><path d="M31.81,134.58L31.81,134.59L31.80,134.58"/><path d="M31.81,134.45L31.82,134.38"/><path d="M31.83,133.89L31.83,134.05"/><path d="M32.44,132.94L35.01,132.94L35.45,133.92L35.56,134.74L35.42,135.56L34.96,136.52"/><path d="M31.84,132.28L31.84,132.55"/><path d="M31.84,133.39L31.84,133.16"/><path d="M31.85,130.70L31.85,130.43"/><path d="M31.85,131.62L31.85,131.33"/><path d="M31.84,129.12L31.84,129.27"/><path d="M31.83,128.92L31.83,128.86L31.83,128.86"/><path d="M31.85,129.66L31.85,129.89"/><path d="M32.44,128.13L35.01,128.14L35.45,127.81L35.57,127.53L35.43,127.25"/><path d="M35.01,132.94L35.46,131.64L35.59,130.54L35.46,129.42L35.01,128.14"/></g><g style="stroke:#000000;stroke-width:0.529"><path d="M31.77,134.58L31.77,134.81L31.78,135.49L31.79,135.90L31.80,136.03L31.93,136.18L32.39,136.52L34.96,136.52L35.39,136.20L35.52,136.05L35.54,135.88L35.55,135.43L35.56,134.74L35.57,133.84L35.58,132.78L35.59,131.65L35.59,130.54L35.59,129.50L35.58,128.61L35.58,127.94L35.57,127.53L35.55,127.40L35.43,127.25L34.96,126.92L32.39,126.91L31.96,127.24L31.83,127.39L31.82,127.55L31.80,128.01L31.79,128.84"/></g></g><g id="Actor_.19"><g style="stroke:#000000;stroke-width:0.176"><path d="M390.77,124.64L390.79,124.63L390.80,124.40L390.84,123.30L390.88,120.51L390.90,116.35L390.91,113.66L390.90,111.27L390.88,109.43L390.86,108.34L390.83,108.13"/><path d="M390.77,117.38L390.78,118.95L390.79,119.35L390.80,119.43L390.81,119.18L390.82,118.62L390.85,115.86L390.84,114.12L390.83,113.57L390.82,113.33L390.81,113.41L390.79,114.51L390.77,117.38"/><path d="M391.13,124.99L391.14,124.99L391.16,124.75L391.20,123.60L391.23,121.66L391.24,120.51L391.27,116.35L391.27,113.54L391.26,111.05L391.25,110.09L391.25,109.13L391.22,108.00L391.19,107.77"/><path d="M402.37,96.31L402.44,97.91L402.49,101.53L402.51,106.75L402.52,113.03L402.51,115.56L402.49,119.67L402.45,125.96L402.38,131.21L402.31,134.86L402.23,136.52"/><path d="M402.25,126.46L402.18,126.02L402.05,125.75"/><path d="M402.32,106.37L402.25,106.81L402.11,107.08"/></g><g style="stroke:#000000;stroke-width:0.529"><path d="M402.05,125.75L401.98,125.62L401.66,125.30L401.26,125.09L400.82,125.02L391.13,124.99L390.77,124.64L390.74,123.98L390.72,122.49L390.71,120.35L390.71,117.21L390.72,115.04L390.74,112.46L390.77,110.30L390.80,108.80L390.83,108.13L391.19,107.77L396.02,107.79"/><path d="M402.11,107.08L402.04,107.21L401.72,107.53L401.32,107.73L400.88,107.80L397.23,107.79"/><path d="M402.11,107.08L402.14,104.08L402.21,99.57L402.29,96.88L402.37,96.31L405.25,96.32L405.32,97.92L405.37,101.54L405.40,106.76L405.40,113.91L405.38,119.68L405.33,125.97L405.27,131.22L405.19,134.87L405.11,136.53L402.23,136.52L402.15,135.99L402.09,133.35L402.05,128.87L402.05,125.75"/></g></g><g id="Actor_.20"><g style="stroke:#000000;stroke-width:0.176"><path d="M31.87,114.06L31.43,113.01L31.32,112.13L31.30,112.89L31.29,113.44L31.28,113.70"/><path d="M31.32,112.13L31.46,111.24L31.92,110.19L31.47,108.93L31.34,107.86L31.34,108.94L31.33,110.08L31.33,111.18L31.32,112.13"/><path d="M31.30,111.48L31.31,111.26"/><path d="M31.28,112.24L31.28,112.24L31.28,112.21"/><path d="M31.30,111.87L31.29,112.00"/><path d="M31.31,110.73L31.31,110.45"/><path d="M31.32,109.53L31.32,109.84"/><path d="M31.32,108.90L31.32,108.59"/><path d="M31.32,108.02L31.32,107.74"/><path d="M31.30,105.09L31.31,105.13L31.45,105.31L31.91,105.53L31.47,106.79L31.34,107.86L31.34,106.88L31.33,106.04L31.32,105.45L31.31,105.13L31.43,104.95"/><path d="M31.30,106.53L31.30,106.51L31.30,106.55"/><path d="M31.31,106.77L31.31,106.65"/><path d="M31.31,107.07L31.32,107.28"/><path d="M31.92,110.19L34.49,110.20L34.92,111.25L35.04,112.14L34.90,113.03L34.44,114.07"/><path d="M32.44,105.53L31.91,105.53"/><path d="M34.49,110.20L34.94,108.94L35.06,107.87L34.93,106.80L34.48,105.54L33.70,105.53"/><path d="M34.89,104.96L35.03,105.14L34.92,105.32L34.48,105.54"/></g><g style="stroke:#000000;stroke-width:0.529"><path d="M33.94,104.74L34.43,104.74L34.89,104.96L35.02,105.11L35.03,105.14L35.04,105.46L35.05,106.06L35.06,106.89L35.06,107.87L35.06,108.96L35.06,110.10L35.05,111.19L35.04,112.14L35.03,112.91L35.01,113.45L35.00,113.71L34.87,113.86L34.44,114.07L31.87,114.06L31.41,113.85L31.28,113.70L31.26,113.66L31.25,113.34L31.24,112.74L31.24,112.27"/><path d="M32.68,104.74L31.86,104.73L31.43,104.95L31.30,105.09L31.28,105.36L31.27,105.90L31.26,106.53"/></g></g><g id="Actor_.21"><g style="stroke:#000000;stroke-width:0.176"><path d="M123.65,51.23L123.65,51.27L123.65,51.49L123.65,52.10L123.65,52.45L123.65,53.04L123.64,53.23L123.64,53.30"/><path d="M123.64,52.68L123.64,52.53L123.64,52.13L123.64,51.91L123.64,51.84L123.65,51.94L123.65,52.19L123.64,52.58L123.64,52.69L123.64,52.68"/><path d="M124.73,53.54L124.74,53.44L124.75,53.03L124.75,52.49L124.75,52.07L124.75,51.33L124.75,51.05L124.74,51.00"/><path d="M126.33,53.53L126.34,53.54L126.34,53.44L126.35,53.22L126.35,52.83L126.35,53.44L126.33,53.62"/><path d="M126.35,52.83L126.35,52.07L126.35,51.26L126.36,52.09L126.35,52.83"/><path d="M126.35,53.44L127.45,53.44L127.46,52.09L126.36,52.09"/><path d="M126.95,53.83L126.98,54.94L126.97,56.32"/><path d="M127.19,56.37L129.48,56.89L129.49,55.51L126.98,54.94"/><path d="M127.45,50.79L127.46,50.85L127.46,51.17L127.46,52.04L127.46,52.54L127.46,53.15L127.45,53.66L127.44,53.77L127.44,53.72"/><path d="M127.45,53.44L127.44,53.63"/><path d="M127.44,53.77L127.54,53.89L127.58,53.95L127.62,54.07"/><path d="M127.52,54.08L127.57,53.96L127.50,54.00L127.51,53.99"/><path d="M127.57,53.96L127.57,53.93"/><path d="M127.46,52.09L127.46,50.93L127.44,50.93"/><path d="M129.48,56.89L131.69,56.42"/><path d="M129.49,55.51L132.02,54.97"/><path d="M131.32,54.09L131.36,53.97L131.41,53.91L131.37,53.95L131.14,54.14"/><path d="M131.37,53.95L131.41,53.88L131.41,53.91"/><path d="M131.41,53.88L131.51,53.73"/><path d="M131.41,54.10L131.37,53.99L131.42,54.02"/><path d="M131.37,53.99L131.37,53.97"/></g><g style="stroke:#000000;stroke-width:0.529"><path d="M125.75,51.18L125.54,51.20L125.14,51.15L124.74,51.00L123.65,51.23L123.64,51.30L123.64,51.49L123.63,52.08L123.63,52.43L123.63,53.03L123.64,53.26L123.64,53.30L124.73,53.54L125.13,53.39L125.53,53.34L125.93,53.39L126.33,53.53L126.33,53.62L127.43,53.63L127.44,53.72L126.95,53.83L126.94,55.21L126.97,56.32L127.19,56.37L127.50,58.96L127.61,59.20L127.92,59.42L128.39,59.58L128.97,59.68L129.60,59.71L130.22,59.65L130.74,59.52L131.13,59.32L131.33,59.09L131.69,56.42L132.01,56.35L132.02,54.97L132.00,53.83L131.51,53.73"/><path d="M126.67,50.93L127.44,50.93L127.45,50.79L127.86,50.35L128.53,49.96L129.29,49.78L130.08,49.84L130.80,50.14L131.38,50.63L131.75,51.27L131.87,51.54L132.00,52.30L131.86,53.05L131.75,53.31L131.51,53.73"/></g></g><g id="Actor_.22"><g style="stroke:#000000;stroke-width:0.176"><path d="M55.71,166.04L55.57,166.04L55.55,168.95L54.28,168.47L53.67,167.90"/><path d="M55.71,165.59L55.40,165.52L54.43,165.11L53.85,164.61L53.72,164.06L53.72,164.22L53.85,164.77L54.30,165.20L55.57,166.04"/><path d="M55.71,165.75L55.40,165.68L54.43,165.27L54.30,165.20L53.04,164.35"/><path d="M53.72,164.06L53.90,163.77"/><path d="M55.55,168.95L55.69,168.97"/><path d="M55.15,164.18L55.16,164.13L55.17,162.91"/><path d="M55.02,163.01L55.17,162.96"/><path d="M55.30,146.00L55.39,146.36L55.78,146.70L56.43,146.97L57.27,147.15L58.21,147.21L59.14,147.16L59.97,146.98L60.61,146.72L60.98,146.38L61.05,146.02L61.05,146.02"/><path d="M56.02,145.24L55.84,145.53L55.91,145.83L56.22,146.10L56.75,146.32L57.44,146.47L58.20,146.52L58.97,146.48L59.65,146.33L60.17,146.12L60.47,145.84L60.53,145.54L60.33,145.25"/><path d="M60.91,163.24L60.91,162.99"/><path d="M60.96,163.02L60.91,163.01"/><path d="M61.43,168.62L61.76,168.50L62.35,167.93"/><path d="M62.14,163.81L62.33,164.09L62.23,164.64L61.67,165.14L61.46,165.23"/><path d="M63.02,164.39L61.79,165.22L61.67,165.30L61.46,165.39"/><path d="M61.46,165.45L61.79,165.22L62.23,164.80L62.33,164.25L62.33,164.09"/></g><g style="stroke:#000000;stroke-width:0.529"><path d="M55.18,161.52L55.17,162.91L55.02,163.01L54.82,163.07L54.05,163.53L53.90,163.77L53.04,164.35L53.01,167.27L53.67,167.90L53.84,168.07L54.28,168.47L54.96,168.81L55.69,169.03"/><path d="M55.22,156.82L55.20,158.86"/><path d="M61.05,146.02L60.81,145.66L60.33,145.25L59.90,145.00L59.28,144.81L58.55,144.71L57.77,144.71L57.04,144.81L56.44,144.99L56.02,145.24L55.53,145.64L55.30,146.00L55.24,154.13"/><path d="M60.92,161.57L60.91,162.99L60.96,163.02L61.18,163.09L61.97,163.55L62.14,163.81L63.02,164.39L62.99,167.31L62.35,167.93L62.18,168.10L61.76,168.50L61.43,168.66"/><path d="M60.96,156.87L60.95,158.90"/><path d="M61.05,146.02L60.98,154.17"/></g></g><g id="PMI580200-Wheel.0"><g><path style="stroke:#000000;stroke-width:0.250" d="M162.13,73.60L165.27,94.41"/></g><g><path style="fill:#000000" d="M166.27,94.41L166.27,94.31L166.25,94.21L166.23,94.12L166.20,94.03L166.16,93.94L166.10,93.85L166.05,93.78L165.98,93.70L165.91,93.64L165.83,93.58L165.74,93.53L165.66,93.49L165.56,93.45L165.47,93.43L165.37,93.41L165.27,93.41L165.18,93.41L165.08,93.43L164.98,93.45L164.89,93.49L164.80,93.53L164.72,93.58L164.64,93.64L164.57,93.70L164.50,93.78L164.44,93.85L164.39,93.94L164.35,94.03L164.32,94.12L164.29,94.21L164.28,94.31L164.27,94.41L164.28,94.51L164.29,94.60L164.32,94.70L164.35,94.79L164.39,94.88L164.44,94.97L164.50,95.04L164.57,95.12L164.64,95.18L164.72,95.24L164.80,95.29L164.89,95.33L164.98,95.37L165.08,95.39L165.18,95.40L165.27,95.41L165.37,95.40L165.47,95.39L165.56,95.37L165.66,95.33L165.74,95.29L165.83,95.24L165.91,95.18L165.98,95.12L166.05,95.04L166.10,94.97L166.16,94.88L166.20,94.79L166.23,94.70L166.25,94.60L166.27,94.51z"/></g><g><path style="fill:#ffffa0" d="M149.04,74.38L175.22,74.38L175.22,68.17L149.04,68.17z"/><path style="stroke:#000000;stroke-width:0.250;stroke-opacity:0.98" d="M149.04,74.38L175.22,74.38L175.22,68.17L149.04,68.17z"/><text xml:space="preserve" fill="#000000" stroke-width="0" x="149.81" y="72.64" font-size="3.78" opacity="1.00" font-family="MS Shell Dlg">580200-Wheel</text></g></g><g id="PMI364050-Lock Washer.0"><g><path style="stroke:#000000;stroke-width:0.250" d="M79.56,172.08L75.68,172.08L63.82,176.84"/></g><g><path style="fill:#000000" d="M64.82,176.84L64.81,176.74L64.80,176.65L64.78,176.55L64.74,176.46L64.70,176.37L64.65,176.29L64.59,176.21L64.53,176.13L64.45,176.07L64.37,176.01L64.29,175.96L64.20,175.92L64.11,175.88L64.01,175.86L63.92,175.85L63.82,175.84L63.72,175.85L63.62,175.86L63.53,175.88L63.44,175.92L63.35,175.96L63.26,176.01L63.18,176.07L63.11,176.13L63.05,176.21L62.99,176.29L62.94,176.37L62.89,176.46L62.86,176.55L62.84,176.65L62.82,176.74L62.82,176.84L62.82,176.94L62.84,177.04L62.86,177.13L62.89,177.22L62.94,177.31L62.99,177.40L63.05,177.48L63.11,177.55L63.18,177.61L63.26,177.67L63.35,177.72L63.44,177.77L63.53,177.80L63.62,177.82L63.72,177.84L63.82,177.84L63.92,177.84L64.01,177.82L64.11,177.80L64.20,177.77L64.29,177.72L64.37,177.67L64.45,177.61L64.53,177.55L64.59,177.48L64.65,177.40L64.70,177.31L64.74,177.22L64.78,177.13L64.80,177.04L64.81,176.94z"/></g><g><path style="fill:#ffffa0" d="M78.78,175.19L116.33,175.19L116.33,168.98L78.78,168.98z"/><path style="stroke:#000000;stroke-width:0.250;stroke-opacity:0.98" d="M78.78,175.19L116.33,175.19L116.33,168.98L78.78,168.98z"/><text xml:space="preserve" fill="#000000" stroke-width="0" x="79.55" y="173.44" font-size="3.79" opacity="1.00" font-family="MS Shell Dlg">364050-Lock Washer</text></g></g><g id="PMI361609-Nut.0"><g><path style="stroke:#000000;stroke-width:0.250" d="M52.11,72.30L55.99,72.30L58.89,86.66"/></g><g><path style="fill:#000000" d="M59.89,86.66L59.88,86.56L59.87,86.46L59.84,86.37L59.81,86.28L59.77,86.19L59.72,86.10L59.66,86.03L59.59,85.95L59.52,85.89L59.44,85.83L59.36,85.78L59.27,85.74L59.18,85.70L59.08,85.68L58.99,85.66L58.89,85.66L58.79,85.66L58.69,85.68L58.60,85.70L58.50,85.74L58.42,85.78L58.33,85.83L58.25,85.89L58.18,85.95L58.11,86.03L58.06,86.10L58.01,86.19L57.96,86.28L57.93,86.37L57.91,86.46L57.89,86.56L57.89,86.66L57.89,86.76L57.91,86.85L57.93,86.95L57.96,87.04L58.01,87.13L58.06,87.22L58.11,87.29L58.18,87.37L58.25,87.43L58.33,87.49L58.42,87.54L58.50,87.58L58.60,87.62L58.69,87.64L58.79,87.65L58.89,87.66L58.99,87.65L59.08,87.64L59.18,87.62L59.27,87.58L59.36,87.54L59.44,87.49L59.52,87.43L59.59,87.37L59.66,87.29L59.72,87.22L59.77,87.13L59.81,87.04L59.84,86.95L59.87,86.85L59.88,86.76z"/></g><g><path style="fill:#ffffa0" d="M31.60,75.40L52.88,75.40L52.88,69.19L31.60,69.19z"/><path style="stroke:#000000;stroke-width:0.250;stroke-opacity:0.98" d="M31.60,75.40L52.88,75.40L52.88,69.19L31.60,69.19z"/><text xml:space="preserve" fill="#000000" stroke-width="0" x="32.38" y="73.65" font-size="3.78" opacity="1.00" font-family="MS Shell Dlg">361609-Nut</text></g></g><g id="PMI326365-Bolt.0"><g><path style="stroke:#000000;stroke-width:0.250" d="M419.32,81.07L418.56,115.90"/></g><g><path style="fill:#000000" d="M419.56,115.90L419.55,115.80L419.54,115.70L419.51,115.61L419.48,115.52L419.44,115.43L419.39,115.34L419.33,115.26L419.26,115.19L419.19,115.13L419.11,115.07L419.03,115.02L418.94,114.97L418.85,114.94L418.75,114.92L418.66,114.90L418.56,114.90L418.46,114.90L418.36,114.92L418.27,114.94L418.17,114.97L418.09,115.02L418.00,115.07L417.92,115.13L417.85,115.19L417.78,115.26L417.73,115.34L417.68,115.43L417.63,115.52L417.60,115.61L417.58,115.70L417.56,115.80L417.56,115.90L417.56,116.00L417.58,116.09L417.60,116.19L417.63,116.28L417.68,116.37L417.73,116.45L417.78,116.53L417.85,116.61L417.92,116.67L418.00,116.73L418.09,116.78L418.17,116.82L418.27,116.86L418.36,116.88L418.46,116.89L418.56,116.90L418.66,116.89L418.75,116.88L418.85,116.86L418.94,116.82L419.03,116.78L419.11,116.73L419.19,116.67L419.26,116.61L419.33,116.53L419.39,116.45L419.44,116.37L419.48,116.28L419.51,116.19L419.54,116.09L419.55,116.00z"/></g><g><path style="fill:#ffffa0" d="M408.35,81.85L430.30,81.85L430.30,75.64L408.35,75.64z"/><path style="stroke:#000000;stroke-width:0.250;stroke-opacity:0.98" d="M408.35,81.85L430.30,81.85L430.30,75.64L408.35,75.64z"/><text xml:space="preserve" fill="#000000" stroke-width="0" x="409.13" y="80.10" font-size="3.77" opacity="1.00" font-family="MS Shell Dlg">326365-Bolt</text></g></g><g id="PMI580195-Runner.0"><g><path style="stroke:#000000;stroke-width:0.250" d="M343.20,61.39L362.90,82.08"/></g><g><path style="fill:#000000" d="M363.90,82.08L363.89,81.98L363.88,81.89L363.86,81.79L363.82,81.70L363.78,81.61L363.73,81.52L363.67,81.45L363.61,81.37L363.53,81.31L363.45,81.25L363.37,81.20L363.28,81.16L363.19,81.12L363.09,81.10L363.00,81.08L362.90,81.08L362.80,81.08L362.70,81.10L362.61,81.12L362.52,81.16L362.43,81.20L362.34,81.25L362.26,81.31L362.19,81.37L362.13,81.45L362.07,81.52L362.02,81.61L361.97,81.70L361.94,81.79L361.92,81.89L361.90,81.98L361.90,82.08L361.90,82.18L361.92,82.28L361.94,82.37L361.97,82.46L362.02,82.55L362.07,82.64L362.13,82.71L362.19,82.79L362.26,82.85L362.34,82.91L362.43,82.96L362.52,83.00L362.61,83.04L362.70,83.06L362.80,83.08L362.90,83.08L363.00,83.08L363.09,83.06L363.19,83.04L363.28,83.00L363.37,82.96L363.45,82.91L363.53,82.85L363.61,82.79L363.67,82.71L363.73,82.64L363.78,82.55L363.82,82.46L363.86,82.37L363.88,82.28L363.89,82.18z"/></g><g><path style="fill:#ffffa0" d="M329.27,62.16L357.13,62.16L357.13,55.95L329.27,55.95z"/><path style="stroke:#000000;stroke-width:0.250;stroke-opacity:0.98" d="M329.27,62.16L357.13,62.16L357.13,55.95L329.27,55.95z"/><text xml:space="preserve" fill="#000000" stroke-width="0" x="330.04" y="60.42" font-size="3.79" opacity="1.00" font-family="MS Shell Dlg">580195-Runner</text></g></g><g id="PMI82933-Hub.0"><g><path style="stroke:#000000;stroke-width:0.250" d="M394.37,73.60L396.72,109.21"/></g><g><path style="fill:#000000" d="M397.72,109.21L397.71,109.11L397.70,109.01L397.67,108.91L397.64,108.82L397.60,108.73L397.55,108.65L397.49,108.57L397.42,108.50L397.35,108.43L397.27,108.37L397.19,108.32L397.10,108.28L397.01,108.25L396.91,108.22L396.81,108.21L396.72,108.21L396.62,108.21L396.52,108.22L396.43,108.25L396.33,108.28L396.24,108.32L396.16,108.37L396.08,108.43L396.01,108.50L395.94,108.57L395.88,108.65L395.83,108.73L395.79,108.82L395.76,108.91L395.74,109.01L395.72,109.11L395.72,109.21L395.72,109.30L395.74,109.40L395.76,109.50L395.79,109.59L395.83,109.68L395.88,109.76L395.94,109.84L396.01,109.91L396.08,109.98L396.16,110.04L396.24,110.09L396.33,110.13L396.43,110.16L396.52,110.19L396.62,110.20L396.72,110.21L396.81,110.20L396.91,110.19L397.01,110.16L397.10,110.13L397.19,110.09L397.27,110.04L397.35,109.98L397.42,109.91L397.49,109.84L397.55,109.76L397.60,109.68L397.64,109.59L397.67,109.50L397.70,109.40L397.71,109.30z"/></g><g><path style="fill:#ffffa0" d="M384.25,74.38L404.48,74.38L404.48,68.17L384.25,68.17z"/><path style="stroke:#000000;stroke-width:0.250;stroke-opacity:0.98" d="M384.25,74.38L404.48,74.38L404.48,68.17L384.25,68.17z"/><text xml:space="preserve" fill="#000000" stroke-width="0" x="385.03" y="72.63" font-size="3.78" opacity="1.00" font-family="MS Shell Dlg">82933-Hub</text></g></g><g id="PMI327367-Bolt.0"><g><path style="stroke:#000000;stroke-width:0.250" d="M79.22,180.91L75.34,180.91L63.82,184.59"/></g><g><path style="fill:#000000" d="M64.82,184.59L64.81,184.49L64.80,184.40L64.78,184.30L64.74,184.21L64.70,184.12L64.65,184.04L64.59,183.96L64.53,183.88L64.45,183.82L64.37,183.76L64.29,183.71L64.20,183.67L64.11,183.63L64.01,183.61L63.92,183.60L63.82,183.59L63.72,183.60L63.62,183.61L63.53,183.63L63.44,183.67L63.35,183.71L63.26,183.76L63.18,183.82L63.11,183.88L63.05,183.96L62.99,184.04L62.94,184.12L62.89,184.21L62.86,184.30L62.84,184.40L62.82,184.49L62.82,184.59L62.82,184.69L62.84,184.79L62.86,184.88L62.89,184.97L62.94,185.06L62.99,185.15L63.05,185.23L63.11,185.30L63.18,185.36L63.26,185.42L63.35,185.47L63.44,185.52L63.53,185.55L63.62,185.57L63.72,185.59L63.82,185.59L63.92,185.59L64.01,185.57L64.11,185.55L64.20,185.52L64.29,185.47L64.37,185.42L64.45,185.36L64.53,185.30L64.59,185.23L64.65,185.15L64.70,185.06L64.74,184.97L64.78,184.88L64.80,184.79L64.81,184.69z"/></g><g><path style="fill:#ffffa0" d="M78.44,184.01L100.38,184.01L100.38,177.80L78.44,177.80z"/><path style="stroke:#000000;stroke-width:0.250;stroke-opacity:0.98" d="M78.44,184.01L100.38,184.01L100.38,177.80L78.44,177.80z"/><text xml:space="preserve" fill="#000000" stroke-width="0" x="79.22" y="182.27" font-size="3.77" opacity="1.00" font-family="MS Shell Dlg">327367-Bolt</text></g></g><g id="PMI327370-Bolt.0"><g><path style="stroke:#000000;stroke-width:0.250" d="M11.69,124.52L21.55,113.78"/></g><g><path style="fill:#000000" d="M22.55,113.78L22.54,113.69L22.53,113.59L22.50,113.49L22.47,113.40L22.43,113.31L22.38,113.23L22.32,113.15L22.25,113.08L22.18,113.01L22.10,112.95L22.02,112.90L21.93,112.86L21.84,112.83L21.74,112.80L21.64,112.79L21.55,112.78L21.45,112.79L21.35,112.80L21.26,112.83L21.16,112.86L21.07,112.90L20.99,112.95L20.91,113.01L20.84,113.08L20.77,113.15L20.71,113.23L20.66,113.31L20.62,113.40L20.59,113.49L20.57,113.59L20.55,113.69L20.55,113.78L20.55,113.88L20.57,113.98L20.59,114.07L20.62,114.17L20.66,114.26L20.71,114.34L20.77,114.42L20.84,114.49L20.91,114.56L20.99,114.62L21.07,114.67L21.16,114.71L21.26,114.74L21.35,114.77L21.45,114.78L21.55,114.78L21.64,114.78L21.74,114.77L21.84,114.74L21.93,114.71L22.02,114.67L22.10,114.62L22.18,114.56L22.25,114.49L22.32,114.42L22.38,114.34L22.43,114.26L22.47,114.17L22.50,114.07L22.53,113.98L22.54,113.88z"/></g><g><path style="fill:#ffffa0" d="M0.71,125.29L22.66,125.29L22.66,119.09L0.71,119.09z"/><path style="stroke:#000000;stroke-width:0.250;stroke-opacity:0.98" d="M0.71,125.29L22.66,125.29L22.66,119.09L0.71,119.09z"/><text xml:space="preserve" fill="#000000" stroke-width="0" x="1.49" y="123.55" font-size="3.77" opacity="1.00" font-family="MS Shell Dlg">327370-Bolt</text></g></g><g id="PMI361659-Nut.0"><g><path style="stroke:#000000;stroke-width:0.250" d="M39.53,83.79L32.82,106.39"/></g><g><path style="fill:#000000" d="M33.82,106.39L33.81,106.29L33.80,106.19L33.78,106.10L33.74,106.00L33.70,105.92L33.65,105.83L33.59,105.75L33.53,105.68L33.45,105.61L33.37,105.56L33.29,105.50L33.20,105.46L33.11,105.43L33.01,105.41L32.92,105.39L32.82,105.39L32.72,105.39L32.62,105.41L32.53,105.43L32.44,105.46L32.35,105.50L32.26,105.56L32.18,105.61L32.11,105.68L32.05,105.75L31.99,105.83L31.94,105.92L31.89,106.00L31.86,106.10L31.84,106.19L31.82,106.29L31.82,106.39L31.82,106.48L31.84,106.58L31.86,106.68L31.89,106.77L31.94,106.86L31.99,106.94L32.05,107.02L32.11,107.09L32.18,107.16L32.26,107.22L32.35,107.27L32.44,107.31L32.53,107.34L32.62,107.37L32.72,107.38L32.82,107.39L32.92,107.38L33.01,107.37L33.11,107.34L33.20,107.31L33.29,107.27L33.37,107.22L33.45,107.16L33.53,107.09L33.59,107.02L33.65,106.94L33.70,106.86L33.74,106.77L33.78,106.68L33.80,106.58L33.81,106.48z"/></g><g><path style="fill:#ffffa0" d="M28.88,84.56L50.17,84.56L50.17,78.36L28.88,78.36z"/><path style="stroke:#000000;stroke-width:0.250;stroke-opacity:0.98" d="M28.88,84.56L50.17,84.56L50.17,78.36L28.88,78.36z"/><text xml:space="preserve" fill="#000000" stroke-width="0" x="29.66" y="82.82" font-size="3.78" opacity="1.00" font-family="MS Shell Dlg">361659-Nut</text></g></g><g id="PMI63706-501-Weldment.0"><g><path style="stroke:#000000;stroke-width:0.250" d="M84.99,71.28L81.11,71.28L71.41,89.22"/></g><g><path style="fill:#000000" d="M72.41,89.22L72.41,89.13L72.39,89.03L72.37,88.93L72.34,88.84L72.30,88.75L72.25,88.67L72.19,88.59L72.12,88.52L72.05,88.45L71.97,88.39L71.89,88.34L71.80,88.30L71.70,88.27L71.61,88.24L71.51,88.23L71.41,88.22L71.32,88.23L71.22,88.24L71.12,88.27L71.03,88.30L70.94,88.34L70.86,88.39L70.78,88.45L70.71,88.52L70.64,88.59L70.58,88.67L70.53,88.75L70.49,88.84L70.46,88.93L70.43,89.03L70.42,89.13L70.41,89.22L70.42,89.32L70.43,89.42L70.46,89.51L70.49,89.61L70.53,89.70L70.58,89.78L70.64,89.86L70.71,89.93L70.78,90.00L70.86,90.06L70.94,90.11L71.03,90.15L71.12,90.18L71.22,90.21L71.32,90.22L71.41,90.22L71.51,90.22L71.61,90.21L71.70,90.18L71.80,90.15L71.89,90.11L71.97,90.06L72.05,90.00L72.12,89.93L72.19,89.86L72.25,89.78L72.30,89.70L72.34,89.61L72.37,89.51L72.39,89.42L72.41,89.32z"/></g><g><path style="fill:#ffffa0" d="M84.21,74.38L122.23,74.38L122.23,68.17L84.21,68.17z"/><path style="stroke:#000000;stroke-width:0.250;stroke-opacity:0.98" d="M84.21,74.38L122.23,74.38L122.23,68.17L84.21,68.17z"/><text xml:space="preserve" fill="#000000" stroke-width="0" x="84.99" y="72.64" font-size="3.79" opacity="1.00" font-family="MS Shell Dlg">63706-501-Weldment</text></g></g><g id="PMI365134-Washer.0"><g><path style="stroke:#000000;stroke-width:0.250" d="M79.56,163.26L75.68,163.26L64.17,171.56"/></g><g><path style="fill:#000000" d="M65.17,171.56L65.17,171.46L65.15,171.36L65.13,171.27L65.09,171.17L65.05,171.09L65.00,171.00L64.94,170.92L64.88,170.85L64.81,170.78L64.73,170.73L64.64,170.68L64.55,170.63L64.46,170.60L64.37,170.58L64.27,170.56L64.17,170.56L64.07,170.56L63.98,170.58L63.88,170.60L63.79,170.63L63.70,170.68L63.62,170.73L63.54,170.78L63.46,170.85L63.40,170.92L63.34,171.00L63.29,171.09L63.25,171.17L63.21,171.27L63.19,171.36L63.18,171.46L63.17,171.56L63.18,171.66L63.19,171.75L63.21,171.85L63.25,171.94L63.29,172.03L63.34,172.11L63.40,172.19L63.46,172.26L63.54,172.33L63.62,172.39L63.70,172.44L63.79,172.48L63.88,172.51L63.98,172.54L64.07,172.55L64.17,172.56L64.27,172.55L64.37,172.54L64.46,172.51L64.55,172.48L64.64,172.44L64.73,172.39L64.81,172.33L64.88,172.26L64.94,172.19L65.00,172.11L65.05,172.03L65.09,171.94L65.13,171.85L65.15,171.75L65.17,171.66z"/></g><g><path style="fill:#ffffa0" d="M78.78,166.36L107.27,166.36L107.27,160.16L78.78,160.16z"/><path style="stroke:#000000;stroke-width:0.250;stroke-opacity:0.98" d="M78.78,166.36L107.27,166.36L107.27,160.16L78.78,160.16z"/><text xml:space="preserve" fill="#000000" stroke-width="0" x="79.55" y="164.62" font-size="3.79" opacity="1.00" font-family="MS Shell Dlg">365134-Washer</text></g></g><g id="PMI82830-Bolt.0"><g><path style="stroke:#000000;stroke-width:0.250" d="M111.07,56.00L114.95,56.00L126.46,69.03"/></g><g><path style="fill:#000000" d="M127.46,69.03L127.46,68.93L127.44,68.83L127.42,68.74L127.39,68.64L127.35,68.55L127.30,68.47L127.24,68.39L127.17,68.32L127.10,68.25L127.02,68.19L126.94,68.14L126.85,68.10L126.75,68.07L126.66,68.04L126.56,68.03L126.46,68.03L126.37,68.03L126.27,68.04L126.17,68.07L126.08,68.10L125.99,68.14L125.91,68.19L125.83,68.25L125.76,68.32L125.69,68.39L125.63,68.47L125.58,68.55L125.54,68.64L125.51,68.74L125.48,68.83L125.47,68.93L125.46,69.03L125.47,69.12L125.48,69.22L125.51,69.32L125.54,69.41L125.58,69.50L125.63,69.58L125.69,69.66L125.76,69.73L125.83,69.80L125.91,69.86L125.99,69.91L126.08,69.95L126.17,69.98L126.27,70.01L126.37,70.02L126.46,70.03L126.56,70.02L126.66,70.01L126.75,69.98L126.85,69.95L126.94,69.91L127.02,69.86L127.10,69.80L127.17,69.73L127.24,69.66L127.30,69.58L127.35,69.50L127.39,69.41L127.42,69.32L127.44,69.22L127.46,69.12z"/></g><g><path style="fill:#ffffa0" d="M92.02,59.11L111.85,59.11L111.85,52.90L92.02,52.90z"/><path style="stroke:#000000;stroke-width:0.250;stroke-opacity:0.98" d="M92.02,59.11L111.85,59.11L111.85,52.90L92.02,52.90z"/><text xml:space="preserve" fill="#000000" stroke-width="0" x="92.79" y="57.36" font-size="3.77" opacity="1.00" font-family="MS Shell Dlg">82830-Bolt</text></g></g><g id="PMI701004-Fitting.0"><g><path style="stroke:#000000;stroke-width:0.250" d="M113.94,42.77L117.82,42.77L126.52,51.08"/></g><g><path style="fill:#000000" d="M127.52,51.08L127.52,50.98L127.50,50.89L127.48,50.79L127.45,50.70L127.41,50.61L127.35,50.52L127.30,50.45L127.23,50.37L127.16,50.31L127.08,50.25L126.99,50.20L126.91,50.16L126.81,50.12L126.72,50.10L126.62,50.08L126.52,50.08L126.43,50.08L126.33,50.10L126.23,50.12L126.14,50.16L126.05,50.20L125.97,50.25L125.89,50.31L125.82,50.37L125.75,50.45L125.69,50.52L125.64,50.61L125.60,50.70L125.57,50.79L125.54,50.89L125.53,50.98L125.52,51.08L125.53,51.18L125.54,51.28L125.57,51.37L125.60,51.46L125.64,51.55L125.69,51.64L125.75,51.71L125.82,51.79L125.89,51.85L125.97,51.91L126.05,51.96L126.14,52.00L126.23,52.04L126.33,52.06L126.43,52.08L126.52,52.08L126.62,52.08L126.72,52.06L126.81,52.04L126.91,52.00L126.99,51.96L127.08,51.91L127.16,51.85L127.23,51.79L127.30,51.71L127.35,51.64L127.41,51.55L127.45,51.46L127.48,51.37L127.50,51.28L127.52,51.18z"/></g><g><path style="fill:#ffffa0" d="M88.96,45.87L114.72,45.87L114.72,39.66L88.96,39.66z"/><path style="stroke:#000000;stroke-width:0.250;stroke-opacity:0.98" d="M88.96,45.87L114.72,45.87L114.72,39.66L88.96,39.66z"/><text xml:space="preserve" fill="#000000" stroke-width="0" x="89.74" y="44.12" font-size="3.77" opacity="1.00" font-family="MS Shell Dlg">701004-Fitting</text></g></g><g/><g><g/><g><image x="0.373355" y="-0.373358" height="25.000000" width="25.000000" xlink:href="GRW-Assem_files/9f1aa40763a14548_image_0.jpg" mask="url(#mask0)"/></g></g><g><g/><g><image x="0.000000" y="254.000015" height="25.000000" width="25.000000" xlink:href="GRW-Assem_files/9f1aa40763a14548_image_1.jpg" mask="url(#mask1)"/></g></g><g><g/><g><image x="407.373352" y="254.000015" height="25.000000" width="25.000000" xlink:href="GRW-Assem_files/9f1aa40763a14548_image_2.jpg" mask="url(#mask2)"/></g></g><g><g/><g><image x="407.000000" y="0.000000" height="25.000000" width="25.000000" xlink:href="GRW-Assem_files/9f1aa40763a14548_image_3.jpg" mask="url(#mask3)"/></g></g><g><g/><g><path style="stroke:#000000;stroke-width:0.125;fill:#ffffff" d="M124.59,11.41L269.37,11.41L269.37,28.34L124.59,28.34z"/><text xml:space="preserve" fill="#000000" stroke-width="0" x="126.70" y="23.05" font-size="10.35" opacity="1.00" font-family="MS Shell Dlg">Guide &amp; Runner Wheel Assem</text></g></g><g/><g id="paperID" visibility="hidden" opacity="0.00" transform="scale(0.000100)"><path style="stroke:#000000;stroke-width:0.500;fill:#e6e6e6;fill-rule:evenodd" d="M-2000.00,-2000.00L2432.00,-2000.00L2432.00,2279.00L-2000.00,2279.00zM0.00,0.00L432.00,0.00L432.00,279.00L0.00,279.00z"/><path style="fill:#000000;fill-opacity:0.118" d="M3.00,279.00L432.00,279.00L432.00,3.00L435.00,3.00L435.00,282.00L3.00,282.00z"/></g><g><g><path style="stroke:#000000;stroke-width:0.353;fill:#f0f0ff" d="M107.35,207.21L199.85,207.21L199.85,213.63L107.35,213.63z"/><text xml:space="preserve" fill="#000000" stroke-width="0" x="109.82" y="212.15" font-size="4.62" opacity="1.00" font-family="MS Shell Dlg" font-weight="bold">Description</text><text xml:space="preserve" fill="#000000" stroke-width="0" x="138.70" y="212.15" font-size="4.63" opacity="1.00" font-family="MS Shell Dlg" font-weight="bold">BOM ID</text><text xml:space="preserve" fill="#000000" stroke-width="0" x="190.05" y="212.15" font-size="4.58" opacity="1.00" font-family="MS Shell Dlg" font-weight="bold">Qty</text><path style="stroke:#000000;stroke-width:0.353" d="M136.23,207.21L136.23,213.63"/><path style="stroke:#000000;stroke-width:0.353" d="M187.59,207.21L187.59,213.63"/></g><g id="Line63706-501-Weldment"><path style="stroke:#000000;stroke-width:0.353;fill:#ffffff" d="M107.35,213.63L199.85,213.63L199.85,220.05L107.35,220.05z"/><text xml:space="preserve" fill="#000000" stroke-width="0" x="109.82" y="218.57" font-size="4.80" opacity="1.00" font-family="MS Shell Dlg">63706-501</text><text xml:space="preserve" fill="#000000" stroke-width="0" x="138.70" y="218.57" font-size="4.82" opacity="1.00" font-family="MS Shell Dlg">63706-501-Weldment</text><text xml:space="preserve" fill="#000000" stroke-width="0" x="190.05" y="218.57" font-size="3.88" opacity="1.00" font-family="MS Shell Dlg">1</text><path style="stroke:#000000;stroke-width:0.353" d="M136.23,213.63L136.23,220.05"/><path style="stroke:#000000;stroke-width:0.353" d="M187.59,213.63L187.59,220.05"/></g><g id="Line82830-Bolt"><path style="stroke:#000000;stroke-width:0.353;fill:#f0f0ff" d="M107.35,220.05L199.85,220.05L199.85,226.47L107.35,226.47z"/><text xml:space="preserve" fill="#000000" stroke-width="0" x="109.82" y="224.99" font-size="4.78" opacity="1.00" font-family="MS Shell Dlg">82830</text><text xml:space="preserve" fill="#000000" stroke-width="0" x="138.70" y="224.99" font-size="4.80" opacity="1.00" font-family="MS Shell Dlg">82830-Bolt</text><text xml:space="preserve" fill="#000000" stroke-width="0" x="190.05" y="224.99" font-size="3.88" opacity="1.00" font-family="MS Shell Dlg">1</text><path style="stroke:#000000;stroke-width:0.353" d="M136.23,220.05L136.23,226.47"/><path style="stroke:#000000;stroke-width:0.353" d="M187.59,220.05L187.59,226.47"/></g><g id="Line82933-Hub"><path style="stroke:#000000;stroke-width:0.353;fill:#ffffff" d="M107.35,226.47L199.85,226.47L199.85,232.89L107.35,232.89z"/><text xml:space="preserve" fill="#000000" stroke-width="0" x="109.82" y="231.40" font-size="4.78" opacity="1.00" font-family="MS Shell Dlg">82933</text><text xml:space="preserve" fill="#000000" stroke-width="0" x="138.70" y="231.40" font-size="4.81" opacity="1.00" font-family="MS Shell Dlg">82933-Hub</text><text xml:space="preserve" fill="#000000" stroke-width="0" x="190.05" y="231.40" font-size="3.88" opacity="1.00" font-family="MS Shell Dlg">1</text><path style="stroke:#000000;stroke-width:0.353" d="M136.23,226.47L136.23,232.89"/><path style="stroke:#000000;stroke-width:0.353" d="M187.59,226.47L187.59,232.89"/></g><g id="Line326365-Bolt"><path style="stroke:#000000;stroke-width:0.353;fill:#f0f0ff" d="M107.35,232.89L199.85,232.89L199.85,239.30L107.35,239.30z"/><text xml:space="preserve" fill="#000000" stroke-width="0" x="109.82" y="237.82" font-size="4.79" opacity="1.00" font-family="MS Shell Dlg">326365</text><text xml:space="preserve" fill="#000000" stroke-width="0" x="138.70" y="237.82" font-size="4.80" opacity="1.00" font-family="MS Shell Dlg">326365-Bolt</text><text xml:space="preserve" fill="#000000" stroke-width="0" x="190.05" y="237.82" font-size="3.88" opacity="1.00" font-family="MS Shell Dlg">1</text><path style="stroke:#000000;stroke-width:0.353" d="M136.23,232.89L136.23,239.30"/><path style="stroke:#000000;stroke-width:0.353" d="M187.59,232.89L187.59,239.30"/></g><g id="Line327367-Bolt"><path style="stroke:#000000;stroke-width:0.353;fill:#ffffff" d="M107.35,239.30L199.85,239.30L199.85,245.72L107.35,245.72z"/><text xml:space="preserve" fill="#000000" stroke-width="0" x="109.82" y="244.24" font-size="4.79" opacity="1.00" font-family="MS Shell Dlg">327367</text><text xml:space="preserve" fill="#000000" stroke-width="0" x="138.70" y="244.24" font-size="4.80" opacity="1.00" font-family="MS Shell Dlg">327367-Bolt</text><text xml:space="preserve" fill="#000000" stroke-width="0" x="190.05" y="244.24" font-size="4.58" opacity="1.00" font-family="MS Shell Dlg">2</text><path style="stroke:#000000;stroke-width:0.353" d="M136.23,239.30L136.23,245.72"/><path style="stroke:#000000;stroke-width:0.353" d="M187.59,239.30L187.59,245.72"/></g><g id="Line327370-Bolt"><path style="stroke:#000000;stroke-width:0.353;fill:#f0f0ff" d="M107.35,245.72L199.85,245.72L199.85,252.14L107.35,252.14z"/><text xml:space="preserve" fill="#000000" stroke-width="0" x="109.82" y="250.66" font-size="4.79" opacity="1.00" font-family="MS Shell Dlg">327370</text><text xml:space="preserve" fill="#000000" stroke-width="0" x="138.70" y="250.66" font-size="4.80" opacity="1.00" font-family="MS Shell Dlg">327370-Bolt</text><text xml:space="preserve" fill="#000000" stroke-width="0" x="190.05" y="250.66" font-size="4.58" opacity="1.00" font-family="MS Shell Dlg">2</text><path style="stroke:#000000;stroke-width:0.353" d="M136.23,245.72L136.23,252.14"/><path style="stroke:#000000;stroke-width:0.353" d="M187.59,245.72L187.59,252.14"/></g><g id="Line361609-Nut"><path style="stroke:#000000;stroke-width:0.353;fill:#ffffff" d="M107.35,252.14L199.85,252.14L199.85,258.56L107.35,258.56z"/><text xml:space="preserve" fill="#000000" stroke-width="0" x="109.82" y="257.08" font-size="4.79" opacity="1.00" font-family="MS Shell Dlg">361609</text><text xml:space="preserve" fill="#000000" stroke-width="0" x="138.70" y="257.08" font-size="4.81" opacity="1.00" font-family="MS Shell Dlg">361609-Nut</text><text xml:space="preserve" fill="#000000" stroke-width="0" x="190.05" y="257.08" font-size="4.58" opacity="1.00" font-family="MS Shell Dlg">2</text><path style="stroke:#000000;stroke-width:0.353" d="M136.23,252.14L136.23,258.56"/><path style="stroke:#000000;stroke-width:0.353" d="M187.59,252.14L187.59,258.56"/></g><g><path style="stroke:#000000;stroke-width:0.353;fill:#f0f0ff" d="M204.85,207.21L297.35,207.21L297.35,213.63L204.85,213.63z"/><text xml:space="preserve" fill="#000000" stroke-width="0" x="207.32" y="212.15" font-size="4.62" opacity="1.00" font-family="MS Shell Dlg" font-weight="bold">Description</text><text xml:space="preserve" fill="#000000" stroke-width="0" x="236.21" y="212.15" font-size="4.63" opacity="1.00" font-family="MS Shell Dlg" font-weight="bold">BOM ID</text><text xml:space="preserve" fill="#000000" stroke-width="0" x="287.56" y="212.15" font-size="4.58" opacity="1.00" font-family="MS Shell Dlg" font-weight="bold">Qty</text><path style="stroke:#000000;stroke-width:0.353" d="M233.74,207.21L233.74,213.63"/><path style="stroke:#000000;stroke-width:0.353" d="M285.09,207.21L285.09,213.63"/></g><g id="Line361659-Nut"><path style="stroke:#000000;stroke-width:0.353;fill:#ffffff" d="M204.85,213.63L297.35,213.63L297.35,220.05L204.85,220.05z"/><text xml:space="preserve" fill="#000000" stroke-width="0" x="207.32" y="218.57" font-size="4.79" opacity="1.00" font-family="MS Shell Dlg">361659</text><text xml:space="preserve" fill="#000000" stroke-width="0" x="236.21" y="218.57" font-size="4.81" opacity="1.00" font-family="MS Shell Dlg">361659-Nut</text><text xml:space="preserve" fill="#000000" stroke-width="0" x="287.56" y="218.57" font-size="4.58" opacity="1.00" font-family="MS Shell Dlg">2</text><path style="stroke:#000000;stroke-width:0.353" d="M233.74,213.63L233.74,220.05"/><path style="stroke:#000000;stroke-width:0.353" d="M285.09,213.63L285.09,220.05"/></g><g id="Line364050-Lock Washer"><path style="stroke:#000000;stroke-width:0.353;fill:#f0f0ff" d="M204.85,220.05L297.35,220.05L297.35,226.47L204.85,226.47z"/><text xml:space="preserve" fill="#000000" stroke-width="0" x="207.32" y="224.99" font-size="4.79" opacity="1.00" font-family="MS Shell Dlg">364050</text><text xml:space="preserve" fill="#000000" stroke-width="0" x="236.21" y="224.99" font-size="4.83" opacity="1.00" font-family="MS Shell Dlg">364050-Lock Washer</text><text xml:space="preserve" fill="#000000" stroke-width="0" x="287.56" y="224.99" font-size="4.47" opacity="1.00" font-family="MS Shell Dlg">3</text><path style="stroke:#000000;stroke-width:0.353" d="M233.74,220.05L233.74,226.47"/><path style="stroke:#000000;stroke-width:0.353" d="M285.09,220.05L285.09,226.47"/></g><g id="Line365134-Washer"><path style="stroke:#000000;stroke-width:0.353;fill:#ffffff" d="M204.85,226.47L297.35,226.47L297.35,232.89L204.85,232.89z"/><text xml:space="preserve" fill="#000000" stroke-width="0" x="207.32" y="231.40" font-size="4.79" opacity="1.00" font-family="MS Shell Dlg">365134</text><text xml:space="preserve" fill="#000000" stroke-width="0" x="236.21" y="231.40" font-size="4.82" opacity="1.00" font-family="MS Shell Dlg">365134-Washer</text><text xml:space="preserve" fill="#000000" stroke-width="0" x="287.56" y="231.40" font-size="4.58" opacity="1.00" font-family="MS Shell Dlg">2</text><path style="stroke:#000000;stroke-width:0.353" d="M233.74,226.47L233.74,232.89"/><path style="stroke:#000000;stroke-width:0.353" d="M285.09,226.47L285.09,232.89"/></g><g id="Line580195-Runner"><path style="stroke:#000000;stroke-width:0.353;fill:#f0f0ff" d="M204.85,232.89L297.35,232.89L297.35,239.30L204.85,239.30z"/><text xml:space="preserve" fill="#000000" stroke-width="0" x="207.32" y="237.82" font-size="4.79" opacity="1.00" font-family="MS Shell Dlg">580195</text><text xml:space="preserve" fill="#000000" stroke-width="0" x="236.21" y="237.82" font-size="4.82" opacity="1.00" font-family="MS Shell Dlg">580195-Runner</text><text xml:space="preserve" fill="#000000" stroke-width="0" x="287.56" y="237.82" font-size="3.88" opacity="1.00" font-family="MS Shell Dlg">1</text><path style="stroke:#000000;stroke-width:0.353" d="M233.74,232.89L233.74,239.30"/><path style="stroke:#000000;stroke-width:0.353" d="M285.09,232.89L285.09,239.30"/></g><g id="Line580200-Wheel"><path style="stroke:#000000;stroke-width:0.353;fill:#ffffff" d="M204.85,239.30L297.35,239.30L297.35,245.72L204.85,245.72z"/><text xml:space="preserve" fill="#000000" stroke-width="0" x="207.32" y="244.24" font-size="4.79" opacity="1.00" font-family="MS Shell Dlg">580200</text><text xml:space="preserve" fill="#000000" stroke-width="0" x="236.21" y="244.24" font-size="4.81" opacity="1.00" font-family="MS Shell Dlg">580200-Wheel</text><text xml:space="preserve" fill="#000000" stroke-width="0" x="287.56" y="244.24" font-size="3.88" opacity="1.00" font-family="MS Shell Dlg">1</text><path style="stroke:#000000;stroke-width:0.353" d="M233.74,239.30L233.74,245.72"/><path style="stroke:#000000;stroke-width:0.353" d="M285.09,239.30L285.09,245.72"/></g><g id="Line701004-Fitting"><path style="stroke:#000000;stroke-width:0.353;fill:#f0f0ff" d="M204.85,245.72L297.35,245.72L297.35,252.14L204.85,252.14z"/><text xml:space="preserve" fill="#000000" stroke-width="0" x="207.32" y="250.66" font-size="4.78" opacity="1.00" font-family="MS Shell Dlg">701004</text><text xml:space="preserve" fill="#000000" stroke-width="0" x="236.21" y="250.66" font-size="4.80" opacity="1.00" font-family="MS Shell Dlg">701004-Fitting</text><text xml:space="preserve" fill="#000000" stroke-width="0" x="287.56" y="250.66" font-size="3.88" opacity="1.00" font-family="MS Shell Dlg">1</text><path style="stroke:#000000;stroke-width:0.353" d="M233.74,245.72L233.74,252.14"/><path style="stroke:#000000;stroke-width:0.353" d="M285.09,245.72L285.09,252.14"/></g></g><g id="hotspot.0" onmouseover="ShowHotSpot(evt,'0')" onmouseout="HideHotSpot(evt,'0')" onmousemove="ShowToolTip(evt,'0',&quot;Forward&quot;)" opacity="0"><a xlink:href="javascript:history.go(1)"><path style="fill:#00ff00;fill-rule:evenodd" d="M431.64,278.56L407.40,278.56L407.40,253.98L431.64,253.98z"/></a></g><g id="hotspot.1" onmouseover="ShowHotSpot(evt,'1')" onmouseout="HideHotSpot(evt,'1')" onmousemove="ShowToolTip(evt,'1',&quot;Order&quot;)" opacity="0"><a xlink:href="https://www.mitek-us.com/resources/machinery/Find-and-Order-Parts/" target="_blank"><path style="fill:#00ff00;fill-rule:evenodd" d="M431.64,25.02L407.06,25.02L407.06,0.44L431.64,0.44z"/></a></g><g id="hotspot.2" onmouseover="ShowHotSpot(evt,'2')" onmouseout="HideHotSpot(evt,'2')" onmousemove="ShowToolTip(evt,'2',&quot;Home&quot;)" opacity="0"><a xlink:href="./RT-Overview.svg"><path style="fill:#00ff00;fill-rule:evenodd" d="M25.36,24.68L0.44,24.68L0.44,0.44L25.36,0.44z"/></a></g><g id="hotspot.3" onmouseover="ShowHotSpot(evt,'3')" onmouseout="HideHotSpot(evt,'3')" onmousemove="ShowToolTip(evt,'3',&quot;Back&quot;)" opacity="0"><a xlink:href="javascript:history.go(-1)"><path style="fill:#00ff00;fill-rule:evenodd" d="M25.02,278.56L0.44,278.56L0.44,253.98L25.02,253.98z"/></a></g><g id="hotspot.4" onmouseover="ShowHotSpot(evt,'4')" onmouseout="HideHotSpot(evt,'4')" onmousemove="ShowToolTip(evt,'4',&quot;Hex&quot;)" opacity="0"><path style="fill:#00ff00;fill-rule:evenodd" d="M107.35,232.89L107.35,239.30L199.85,239.30L199.85,232.89zM408.42,82.04L408.42,75.79L430.28,75.79L430.28,82.04L419.62,82.24L419.37,89.12L419.18,89.27L419.08,82.24zM419.03,104.74L418.84,104.88L418.98,89.41L419.18,89.27zM419.06,112.80L419.42,115.54L419.09,120.06L418.62,120.61L413.52,120.73L413.30,119.58L410.09,119.35L410.45,113.80L413.20,113.50L413.52,112.11L418.40,111.91L418.64,105.02L418.84,104.88zM405.36,119.03L405.46,114.58L405.72,113.83L408.56,113.80L408.58,119.35z"/></g><g id="hotspot.5" onmouseover="ShowHotSpot(evt,'5')" onmouseout="HideHotSpot(evt,'5')" onmousemove="ShowToolTip(evt,'5',&quot;HeadFillet&quot;)" opacity="0"><path style="fill:#00ff00;fill-rule:evenodd" d="M107.35,239.30L107.35,245.72L199.85,245.72L199.85,239.30zM61.01,145.69L61.00,154.00L60.53,154.55L58.48,154.90L55.84,154.59L55.44,154.32L55.55,145.50L57.47,144.70L58.95,144.70zM60.98,156.89L61.00,158.76L60.71,159.14L58.50,159.98L58.48,161.80L60.98,161.64L61.22,163.14L63.05,164.36L63.04,167.24L61.67,168.58L61.35,172.00L60.55,172.56L56.89,172.56L55.88,172.21L55.55,169.14L53.88,168.10L53.18,167.44L53.18,164.17L55.24,162.84L55.45,161.65L57.58,161.78L57.96,161.13L57.93,159.99L55.44,159.07L55.44,156.89zM61.33,174.90L61.34,176.75L60.87,177.29L58.82,177.61L58.94,179.70L61.33,179.66L61.66,181.02L63.07,181.99L63.60,183.50L65.85,183.98L64.99,184.46L64.29,185.51L63.38,185.46L61.23,186.81L55.87,186.81L54.55,186.09L53.86,185.43L53.75,182.05L55.53,180.78L55.77,179.66L58.15,179.70L58.28,177.61L56.54,177.32L55.89,176.95L55.77,174.90zM74.32,181.23L78.30,180.81L78.51,177.95L100.37,177.95L100.37,184.20L78.51,184.20L78.30,181.35z"/></g><g id="hotspot.6" onmouseover="ShowHotSpot(evt,'6')" onmouseout="HideHotSpot(evt,'6')" onmousemove="ShowToolTip(evt,'6',&quot;HeadFillet&quot;)" opacity="0"><path style="fill:#00ff00;fill-rule:evenodd" d="M107.35,245.72L107.35,252.14L199.85,252.14L199.85,245.72zM25.57,106.47L31.13,106.68L31.13,112.25L25.57,112.46L25.00,114.27L20.82,114.63L20.85,113.17L21.24,112.88L21.82,104.64L25.00,104.66zM48.44,107.35L48.44,111.57L47.97,112.12L35.06,112.25L35.06,106.68L47.76,106.67zM22.64,119.24L22.64,125.48L0.78,125.48L0.78,119.24L16.88,118.94zM26.00,128.77L31.80,129.08L31.79,134.66L25.90,134.51L25.70,136.68L22.52,136.67L22.24,136.27L22.24,127.12L22.52,126.72L25.70,126.70zM48.80,129.39L48.67,134.54L35.74,134.65L35.74,129.08L48.46,129.05z"/></g><g id="hotspot.7" onmouseover="ShowHotSpot(evt,'7')" onmouseout="HideHotSpot(evt,'7')" onmousemove="ShowToolTip(evt,'7',&quot;EndChamfer&quot;)" opacity="0"><path style="fill:#00ff00;fill-rule:evenodd" d="M107.35,252.14L107.35,258.56L199.85,258.56L199.85,252.14zM53.05,72.20L56.24,72.40L56.34,73.99L55.89,72.74L53.05,72.74L52.85,75.59L31.67,75.59L31.67,69.34L52.85,69.34zM56.68,75.69L56.34,73.99L56.54,74.14zM57.02,77.39L56.68,75.69L56.88,75.83zM57.37,78.74L57.02,77.39L57.22,77.53zM57.70,80.44L57.37,78.74L57.56,78.89zM58.04,82.14L57.70,80.44L57.90,80.59zM58.38,83.84L58.04,82.14L58.24,82.28zM58.69,85.54L58.38,83.84L58.57,83.98zM59.60,86.01L59.97,86.66L61.33,86.99L63.05,87.99L63.01,93.55L62.39,93.96L60.88,94.48L56.55,94.49L54.42,93.56L54.53,87.79L56.12,87.01L57.51,86.70L58.69,85.54zM63.35,105.68L63.38,111.24L62.25,112.15L60.53,112.46L57.58,112.47L55.55,111.79L54.87,111.44L54.76,105.68L57.13,104.65L60.99,104.65z"/></g><g id="hotspot.8" onmouseover="ShowHotSpot(evt,'8')" onmouseout="HideHotSpot(evt,'8')" onmousemove="ShowToolTip(evt,'8',&quot;EndChamfer&quot;)" opacity="0"><path style="fill:#00ff00;fill-rule:evenodd" d="M204.85,213.63L204.85,220.05L297.35,220.05L297.35,213.63zM28.95,84.75L28.95,78.51L50.13,78.51L50.13,84.75L39.51,84.99L39.05,85.50L38.93,84.96zM33.71,104.78L34.85,104.99L34.86,113.94L31.43,113.84L31.32,104.98L33.14,104.75L33.58,103.86zM35.57,127.35L35.43,136.24L32.11,136.24L32.11,127.15L35.23,127.01z"/></g><g id="hotspot.9" onmouseover="ShowHotSpot(evt,'9')" onmouseout="HideHotSpot(evt,'9')" onmousemove="ShowToolTip(evt,'9',&quot;Gap&quot;)" opacity="0"><path style="fill:#00ff00;fill-rule:evenodd" d="M204.85,220.05L204.85,226.47L297.35,226.47L297.35,220.05zM410.25,112.48L410.24,118.34L409.91,121.42L408.76,121.42L408.76,111.42L409.88,111.44zM62.34,157.61L63.04,158.26L63.05,160.47L62.05,161.15L60.54,161.68L58.48,161.80L58.50,159.98L60.71,159.14L61.31,157.24zM55.44,159.07L57.93,159.99L57.96,161.13L57.58,161.79L55.88,161.68L53.87,160.98L53.51,160.66L53.50,157.71L55.21,157.23zM74.99,172.42L75.16,172.22L78.64,171.98L78.85,169.13L116.32,169.13L116.32,175.38L78.85,175.38L78.64,172.52zM74.83,172.64L74.08,172.55L74.99,172.42zM63.04,175.95L65.50,176.16L65.32,176.32L64.60,177.63L63.24,178.30L62.34,179.10L58.94,179.70L58.82,177.61L60.87,177.29L61.34,176.75L61.55,175.22L62.33,175.20zM55.89,176.95L56.54,177.32L58.28,177.61L58.15,179.70L55.53,179.35L54.51,179.01L53.82,178.34L53.85,175.70L55.59,174.92z"/></g><g id="hotspot.10" onmouseover="ShowHotSpot(evt,'10')" onmouseout="HideHotSpot(evt,'10')" onmousemove="ShowToolTip(evt,'10',&quot;Base-Revolve&quot;)" opacity="0"><path style="fill:#00ff00;fill-rule:evenodd" d="M204.85,226.47L204.85,232.89L297.35,232.89L297.35,226.47zM64.07,153.16L64.06,155.36L62.25,156.60L60.53,156.93L55.89,156.93L54.17,156.60L52.52,155.55L52.13,154.91L52.16,153.31L53.74,152.18L55.21,151.81L55.44,154.32L55.84,154.59L58.48,154.90L60.53,154.55L61.00,154.00L61.21,151.80L61.62,151.78zM75.44,163.38L78.64,163.16L78.85,160.30L107.49,160.30L107.39,166.45L78.85,166.55L78.64,163.70zM63.72,170.48L65.38,170.80L64.11,173.74L61.91,174.60L59.51,174.91L57.92,174.92L55.19,174.59L52.74,173.32L52.80,170.92L54.41,169.80L55.56,169.80L55.88,172.21L56.89,172.56L60.55,172.56L61.35,172.00L61.55,169.79L62.32,169.79z"/></g><g id="hotspot.11" onmouseover="ShowHotSpot(evt,'11')" onmouseout="HideHotSpot(evt,'11')" onmousemove="ShowToolTip(evt,'11',&quot;580195-body-1&quot;)" opacity="0"><path style="fill:#00ff00;fill-rule:evenodd" d="M204.85,232.89L204.85,239.30L297.35,239.30L297.35,232.89zM329.33,62.35L329.33,56.10L357.30,56.10L357.20,62.24L344.61,62.58zM363.77,81.55L385.14,81.90L386.17,82.56L387.16,102.28L387.16,119.70L386.79,136.30L386.40,136.59L386.15,149.23L385.70,150.48L349.14,150.48L348.80,150.14L348.13,136.56L348.05,96.54L348.44,96.25L348.80,83.71L349.30,82.18L349.69,81.89L362.01,81.66L362.31,81.26L363.41,81.21z"/></g><g id="hotspot.12" onmouseover="ShowHotSpot(evt,'12')" onmouseout="HideHotSpot(evt,'12')" onmousemove="ShowToolTip(evt,'12',&quot;580200-body-1&quot;)" opacity="0"><path style="fill:#00ff00;fill-rule:evenodd" d="M204.85,239.30L204.85,245.72L297.35,245.72L297.35,239.30zM149.10,74.57L149.10,68.32L175.38,68.32L175.27,74.46L162.68,74.77L162.58,76.37L162.14,74.77zM162.92,78.74L162.72,78.60L162.58,76.37L162.78,76.51zM163.26,80.78L162.92,78.74L163.12,78.89zM163.60,83.16L163.40,83.01L163.26,80.78L163.45,80.93zM163.94,85.19L163.60,83.16L163.79,83.30zM164.28,87.57L164.08,87.43L163.94,85.19L164.13,85.34zM164.62,89.94L164.42,89.80L164.28,87.57L164.47,87.71zM164.95,91.98L164.62,89.94L164.81,90.09zM165.52,93.45L165.91,93.75L166.43,94.92L175.70,95.49L183.52,97.18L189.96,99.90L193.01,102.28L194.73,103.95L195.39,107.71L195.39,124.11L195.07,127.86L194.24,129.41L190.64,132.60L184.54,135.32L173.67,137.35L165.86,137.58L157.04,136.90L150.58,135.55L147.54,134.52L142.43,132.16L138.71,128.75L138.03,125.36L138.03,108.84L138.34,105.76L139.41,102.75L144.03,99.22L150.13,96.84L157.27,95.49L164.16,94.92L164.85,93.58L164.95,91.98z"/></g><g id="hotspot.13" onmouseover="ShowHotSpot(evt,'13')" onmouseout="HideHotSpot(evt,'13')" onmousemove="ShowToolTip(evt,'13',&quot;63706-body-1&quot;)" opacity="0"><path style="fill:#00ff00;fill-rule:evenodd" d="M107.35,213.63L107.35,220.05L199.85,220.05L199.85,213.63zM80.96,71.83L80.86,71.44L84.07,71.18L84.28,68.32L122.43,68.32L122.32,74.46L84.28,74.57L84.07,71.72zM72.75,87.40L94.60,87.67L94.92,95.83L94.94,140.76L53.39,140.42L52.69,97.83L55.42,95.47L65.75,95.28L65.95,87.67L72.18,87.40L72.50,87.05zM63.35,105.68L63.38,111.24L62.25,112.15L60.53,112.46L57.58,112.47L55.55,111.79L54.87,111.44L54.76,105.68L57.13,104.65L60.99,104.65z"/></g><g id="hotspot.14" onmouseover="ShowHotSpot(evt,'14')" onmouseout="HideHotSpot(evt,'14')" onmousemove="ShowToolTip(evt,'14',&quot;701004-body-1&quot;)" opacity="0"><path style="fill:#00ff00;fill-rule:evenodd" d="M204.85,245.72L204.85,252.14L297.35,252.14L297.35,245.72zM115.16,42.67L118.03,42.88L115.16,43.21L114.85,45.95L89.03,46.06L89.03,39.81L114.96,39.81zM131.94,51.69L131.91,56.22L131.23,59.27L130.84,59.56L128.14,59.56L127.48,58.52L127.17,56.46L127.13,53.72L126.15,53.39L125.02,53.41L123.67,53.17L123.67,51.37L124.33,50.98L125.44,51.14L125.71,50.36L128.03,50.34L128.40,49.99L130.58,49.99z"/></g><g id="hotspot.15" onmouseover="ShowHotSpot(evt,'15')" onmouseout="HideHotSpot(evt,'15')" onmousemove="ShowToolTip(evt,'15',&quot;82830-body-1&quot;)" opacity="0"><path style="fill:#00ff00;fill-rule:evenodd" d="M107.35,220.05L107.35,226.47L199.85,226.47L199.85,220.05zM112.11,55.90L115.32,56.12L112.11,56.44L111.91,59.30L92.08,59.30L92.08,53.05L111.91,53.05zM131.93,61.54L133.95,62.92L133.98,65.76L132.60,66.75L131.90,80.34L131.81,100.58L130.47,101.28L127.82,101.28L126.48,100.58L126.53,81.01L126.84,80.53L126.48,79.90L126.48,70.04L125.82,69.69L125.82,68.01L126.38,68.02L126.50,67.01L125.03,66.06L125.14,62.69L126.04,61.89L128.41,61.21L130.56,61.21z"/></g><g id="hotspot.16" onmouseover="ShowHotSpot(evt,'16')" onmouseout="HideHotSpot(evt,'16')" onmousemove="ShowToolTip(evt,'16',&quot;82933-body-1&quot;)" opacity="0"><path style="fill:#00ff00;fill-rule:evenodd" d="M107.35,226.47L107.35,232.89L199.85,232.89L199.85,226.47zM384.32,74.57L384.32,68.32L404.48,68.32L404.48,74.57L394.84,74.77L394.74,78.74L394.55,78.60L394.30,74.77zM395.08,83.84L394.88,83.69L394.74,78.74L394.94,78.89zM395.42,88.93L395.22,88.78L395.08,83.84L395.28,83.98zM395.76,94.02L395.56,93.87L395.42,88.93L395.62,89.07zM396.10,99.11L395.90,98.97L395.76,94.02L395.95,94.16zM396.44,104.54L396.24,104.40L396.10,99.11L396.29,99.25zM405.49,106.35L405.16,136.35L402.31,136.35L402.13,125.67L401.09,125.00L390.88,124.70L390.85,108.45L391.12,108.05L396.34,107.83L396.44,104.54L396.63,104.68L396.88,107.83L401.33,107.73L402.13,107.17L402.31,96.49L405.16,96.49z"/></g><g id="ToolTip" visibility="hidden" opacity="0" transform="translate(0,0)"><rect id="ToolTipShadow" opacity="0.20" fill="black" stroke="none" x="0" y="0" width="30" height="8"/><rect id="ToolTipBG" fill="#ffffe1" stroke="black" x="0" y="0" width="30" height="8"/><text xml:space="preserve" id="ToolTipText" fill="black" x="0" y="0" width="30" height="8">tooltip</text></g></g></svg>
