<?xml version="1.0" encoding="UTF-8" standalone="no"?>
<svg xmlns="http://www.w3.org/2000/svg" xmlns:xlink="http://www.w3.org/1999/xlink" width="432.000mm" height="279.000mm" viewBox="0.000000 0.000000 432.000000 279.000000" stroke-linejoin="round" stroke-linecap="round" fill="none" fill-rule="evenodd"><desc>Composer Export</desc><script type="text/ecmascript"><![CDATA[
if(typeof(top) != "undefined")
{
	top.ShowPaper = ShowPaper;
}
function ShowHotSpot(evt,hotspotid)
{
	var svgDocument = evt.target.ownerDocument;
	var strId = "hotspot."+hotspotid;
	var hotspot = svgDocument.getElementById(strId);
	if(hotspot)
		hotspot.setAttribute("opacity",".5");
}
function HideHotSpot(evt,hotspotid)
{
	var svgDocument = evt.target.ownerDocument;
	var strId = "hotspot."+hotspotid;
	var hotspot = svgDocument.getElementById(strId);
	if(hotspot)
		hotspot.setAttribute("opacity","0");

	var toolTip = svgDocument.getElementById('ToolTip');
	if(toolTip)
		toolTip.setAttribute("visibility","hidden");
}
function ShowToolTip(evt,hotspotid,strTooltip)
{
	if(strTooltip=="")
	return;

	// change text
	var svgDocument = evt.target.ownerDocument;
	var tiptext = svgDocument.getElementById('ToolTipText');
	if( !tiptext )
	return;
	tiptext.firstChild.nodeValue = " " + strTooltip + "  " ;

	// show tooltip before, else some refresh issue

	var toolTip = svgDocument.getElementById('ToolTip');
	if(!toolTip)
	return;

	toolTip.setAttribute("visibility","visible");
	toolTip.setAttribute("opacity",".95");

	// move tooltip
	// get viewbox

	var root = svgDocument.documentElement;
	var vbox = (root.getAttribute("viewBox")).split(' ');
	var x0 = parseFloat(vbox[0]);
	var y0 = parseFloat(vbox[1]);
	var vboxW = parseFloat(vbox[2]);
	var vboxH = parseFloat(vbox[3]);

	// get default width of svg

	var strW = root.getAttribute("width");
	var svgW = parseFloat(strW);
	if(strW.indexOf('mm') != -1)
	svgW *= 3.779;

	var strH = root.getAttribute("height");
	var svgH = parseFloat(strH);
	if(strH.indexOf('mm') != -1)
	svgH *= 3.779;  	// 96 dpi  -> 96/25.4 = 3.779

	// update the viewbox / width / height if svg is embedded in html with zoom fit all
	var realx0 = x0;
	var realy0 = y0;
	var realvboxW = vboxW;
	var realvboxH = vboxH;
	var realsvgW = svgW;
	var realsvgH = svgH;

	if ((typeof(top) == "undefined") || (typeof(top.svgctl1) != "undefined")) // embedded in html
	{
		// get window size in pxl

		svgW = window.innerWidth;
		svgH = window.innerHeight;

		// calculate real viewbox

		realsvgW = svgW;
		realsvgH = svgH;
		if((svgW / svgH) > (vboxW / vboxH))
		{
			realvboxW = (vboxH * svgW) / svgH;
			realvboxH = vboxH;
			realx0 = x0 - (realvboxW - vboxW)/2 ;
		}
		else
		{
			realvboxH = (vboxW * svgH) / svgW;
			realvboxW = vboxW;
			realy0 = y0 - (realvboxH - vboxH)/2 ;
		}
	}

	// get user zoom/pan

	var newScale = root.currentScale;
	var translation = root.currentTranslate;

	// transform pxl to user unit

	var xPos = (((evt.clientX+10- translation.x)/newScale) * realvboxW)/realsvgW  + realx0 ;
	var yPos = (((evt.clientY+5- translation.y)/newScale) * realvboxH)/ realsvgH  + realy0 ;
	var scaleForWidth = ( (1 / newScale) * realvboxH) / realsvgH;

	// move tooltip

	toolTip.setAttribute("transform", "translate(" + xPos + "," + yPos + ")" );

	// resize tooltip

	var fontsize = 12;
	tiptext.setAttribute("font-size",fontsize*scaleForWidth);
	tiptext.setAttribute("y", fontsize*scaleForWidth);
	var tipBG = svgDocument.getElementById('ToolTipBG');
	var outline = tiptext.getBBox();
	if(tipBG)
	{
		tipBG.setAttribute("stroke-width", 1*scaleForWidth);
		tipBG.setAttribute("width", Number(outline.width) );
		tipBG.setAttribute("height", Number(outline.height) + fontsize*.5*scaleForWidth );
	}
	var ToolTipShadow = svgDocument.getElementById('ToolTipShadow');
	if(ToolTipShadow)
	{
		ToolTipShadow.setAttribute("width", Number(outline.width) );
		ToolTipShadow.setAttribute("height", Number(outline.height) + fontsize*.5*scaleForWidth );
		ToolTipShadow.setAttribute("x", 3*scaleForWidth);
		ToolTipShadow.setAttribute("y", 3*scaleForWidth);
	}
}
function ShowPaper()
{
  var svgDocument = getDocument();
  var paper = svgDocument.getElementById("paperID");
  if(paper)
  {
    paper.setAttribute("transform","scale(1)");
    paper.setAttribute("opacity","1");
    paper.setAttribute("visibility","visible");
  }
  var svg = svgDocument.getRootElement();
  if(svg)
  {
    svg.setAttribute("width","442.000mm");
    svg.setAttribute("height","289.000mm");
    svg.setAttribute("viewBox","-5.000000 -5.000000 442.000000 289.000000");
  }
}
]]></script><defs><mask id="mask0" x="0" y="0" height="100%" width="100%"><image x="0.373355" y="-0.373358" height="25.000000" width="25.000000" xlink:href="PT-L-Covers_files/8bc6013dc31da7f5_mask_0.jpg"/></mask><mask id="mask1" x="0" y="0" height="100%" width="100%"><image x="0.000000" y="254.000015" height="25.000000" width="25.000000" xlink:href="PT-L-Covers_files/8bc6013dc31da7f5_mask_1.jpg"/></mask><mask id="mask2" x="0" y="0" height="100%" width="100%"><image x="407.373352" y="254.000015" height="25.000000" width="25.000000" xlink:href="PT-L-Covers_files/8bc6013dc31da7f5_mask_2.jpg"/></mask><mask id="mask3" x="0" y="0" height="100%" width="100%"><image x="407.000000" y="0.000000" height="25.000000" width="25.000000" xlink:href="PT-L-Covers_files/8bc6013dc31da7f5_mask_3.jpg"/></mask></defs><g><path style="fill:#ffffff" d="M431.86,278.85L0.07,278.85L0.07,0.07L431.86,0.07z"/><path style="fill:#868c8c" d="M24.33,274.12L24.16,274.08L24.23,255.48L24.53,255.10z"/><path style="fill:#f74242" d="M75.10,130.27L74.99,265.85L74.34,265.81L74.18,265.63L74.25,130.23L75.49,129.98z"/><path style="fill:#de3b3b" d="M180.16,111.80L181.80,111.61L181.92,246.83L181.47,247.44L74.99,265.85L75.10,130.27L75.49,129.98L76.03,129.90L76.43,129.87L76.47,23.36L81.27,22.52L82.27,22.38L94.32,20.26L95.31,20.13L107.36,18.00L108.35,17.87L111.88,17.25L130.69,13.99L140.72,12.23L141.71,12.10L153.76,9.97L154.76,9.84L166.81,7.72L167.80,7.58L171.33,6.97L177.09,5.97L178.60,5.72L180.03,5.58z"/><path style="fill:#787e7e" d="M24.27,223.50L24.33,138.76L73.33,130.26L74.25,130.23L74.18,265.63L24.33,274.12L24.53,255.10L25.01,254.27L25.65,253.91L28.42,253.42L29.34,252.28L29.79,251.77L29.74,225.85L29.60,225.79L29.00,224.59L28.51,224.29L26.42,224.58L24.97,224.60L24.48,224.11z"/><path style="fill:#ffffff" d="M105.49,140.37L105.12,140.67L103.60,140.91L97.83,141.92L92.06,142.92L90.88,142.90L90.89,136.79L98.91,135.28L105.61,134.24z"/><path style="fill:#b2adaa" d="M208.98,20.56L208.09,20.98L208.10,21.89L208.72,22.33L208.52,22.67L207.87,22.69L207.63,22.33L207.90,20.31L208.35,20.10z"/><path style="fill:#b2adaa" d="M119.96,35.85L119.24,36.22L119.31,37.47L119.84,37.64L119.89,37.86L119.74,37.96L118.81,37.97L118.65,37.68L118.79,37.47L118.57,36.35L118.96,35.67z"/><path style="fill:#b2adaa" d="M266.91,106.12L266.82,106.29L265.96,106.70L266.05,107.68L266.67,108.12L265.71,108.30L265.57,108.12L265.61,106.34L266.12,105.87z"/><path style="fill:#b2adaa" d="M61.52,141.70L60.79,142.07L60.87,143.32L61.39,143.49L61.45,143.71L61.30,143.81L60.37,143.82L60.21,143.53L60.34,143.32L60.13,142.20L60.51,141.52z"/><path style="fill:#b2adaa" d="M61.52,274.39L60.79,274.75L60.79,276.09L61.39,276.18L61.46,276.39L61.31,276.49L60.29,276.61L60.12,276.19L60.13,274.89L60.51,274.21z"/><path style="fill:#f74242" d="M106.11,134.44L105.95,134.57L106.03,135.19L106.14,135.72L105.95,140.57L105.12,140.67L105.49,140.37L105.61,134.24L106.03,134.16z"/><path style="fill:#787e7e" d="M231.69,187.54L231.19,188.80L230.62,189.23L228.08,189.71L226.93,190.31L226.41,191.79L226.40,217.57L226.92,218.81L228.59,218.81L230.20,218.57L230.93,218.81L231.70,219.80L231.68,238.20L231.38,238.41L199.07,243.97L181.92,246.83L181.80,111.61L181.95,111.45L231.68,102.90z"/><path style="fill:#c8cfee" d="M208.09,20.98L208.98,20.56L209.60,20.38L209.74,20.55L209.69,21.33L209.37,21.49L208.89,22.32L208.72,22.33L208.10,21.89z"/><path style="fill:#c8cfee" d="M120.75,36.53L121.10,36.64L121.09,37.39L120.55,36.99L119.84,37.64L119.31,37.47L119.24,36.22L119.96,35.85L120.63,35.93z"/><path style="fill:#c8cfee" d="M267.68,106.35L267.82,106.94L268.12,107.11L267.91,107.67L267.54,107.21L267.33,107.24L266.84,108.11L266.67,108.12L266.05,107.68L265.96,106.70L266.82,106.29L266.91,106.12L267.54,106.18z"/><path style="fill:#c8cfee" d="M62.31,142.38L62.66,142.49L62.65,143.24L62.11,142.84L61.39,143.49L60.87,143.32L60.79,142.07L61.52,141.70L62.19,141.78z"/><path style="fill:#c8cfee" d="M62.31,275.07L62.66,275.18L62.63,275.92L62.32,275.73L62.32,275.47L62.07,275.46L61.39,276.18L60.79,276.09L60.79,274.75L61.52,274.39L62.19,274.47z"/><path style="fill:#b2adaa" d="M214.37,98.43L214.47,98.76L213.79,98.93L213.58,99.22L213.60,99.91L214.46,100.15L214.52,100.31L214.28,100.67L213.38,100.69L213.15,100.34L213.14,99.05L213.31,98.40L213.91,98.15z"/><path style="fill:#b2adaa" d="M221.01,114.16L220.14,114.54L220.04,115.55L220.23,115.69L220.73,116.12L220.59,116.21L219.64,116.24L219.54,115.88L219.67,114.12L219.81,113.93L220.66,113.95z"/><path style="fill:#b2adaa" d="M113.89,116.15L113.04,116.54L112.94,117.55L113.38,117.71L113.62,118.12L113.48,118.22L112.54,118.24L112.42,117.91L112.57,116.13L112.70,115.95L113.56,115.96z"/><path style="fill:#b2adaa" d="M107.63,133.73L107.42,134.03L106.78,134.09L106.65,135.19L106.69,135.36L107.35,135.46L107.38,135.91L106.14,135.72L106.03,135.19L106.11,134.44L106.31,133.69L106.44,133.50L107.28,133.51z"/><path style="fill:#b2adaa" d="M266.91,238.82L266.82,238.98L265.96,239.39L266.05,240.37L266.67,240.81L265.71,240.99L265.57,240.81L265.58,239.04L265.96,238.58L266.55,238.59z"/><path style="fill:#b2adaa" d="M221.01,246.85L220.14,247.23L220.13,248.41L220.73,248.64L220.78,248.86L219.64,248.92L219.52,248.59L219.99,246.61L220.66,246.62z"/><path style="fill:#b2adaa" d="M215.24,247.60L214.37,247.98L214.27,249.00L214.46,249.13L214.96,249.56L214.82,249.65L213.87,249.68L213.77,249.32L214.23,247.37L214.89,247.38z"/><path style="fill:#b2adaa" d="M113.89,265.15L113.04,265.54L112.93,266.55L113.13,266.69L113.63,267.12L113.49,267.21L112.54,267.24L112.32,266.41L112.63,265.64L112.42,265.36L112.68,264.93L113.57,264.96z"/><path style="fill:#b2adaa" d="M107.42,266.60L106.70,266.98L106.68,268.06L107.34,268.21L107.37,268.58L106.19,268.57L106.02,267.90L106.34,266.86L106.29,266.63L106.44,266.19L107.28,266.23z"/><path style="fill:#ffffff" d="M230.43,103.97L230.77,103.88L230.77,105.06L230.43,104.97z"/><path style="fill:#ffffff" d="M184.91,111.84L184.85,112.86L184.44,112.83L184.54,111.74z"/><path style="fill:#ffffff" d="M165.58,130.15L165.30,130.25L155.77,131.88L151.50,132.64L150.57,132.62L150.58,126.50L151.06,126.23L165.51,123.89z"/><path style="fill:#ffffff" d="M71.26,132.69L71.08,132.62L71.08,131.47L71.48,131.46z"/><path style="fill:#ffffff" d="M177.63,140.72L177.69,143.32L176.84,144.96L176.00,144.81L175.49,143.32L175.49,142.13L176.11,140.25L176.41,140.03L177.24,140.04z"/><path style="fill:#ffffff" d="M25.59,140.45L25.26,140.69L25.17,139.50L25.57,139.48z"/><path style="fill:#ffffff" d="M230.43,236.66L230.82,236.76L230.77,237.75L230.43,237.66z"/><path style="fill:#ffffff" d="M184.64,245.81L184.45,245.74L184.45,244.60L184.85,244.58z"/><path style="fill:#ffffff" d="M71.26,265.37L71.08,265.31L71.08,264.16L71.48,264.15z"/><path style="fill:#ffffff" d="M25.59,273.14L25.26,273.37L25.17,272.19L25.57,272.17z"/><path style="fill:#c6c1bc" d="M207.63,22.33L207.61,20.47L207.90,20.31z"/><path style="fill:#c6c1bc" d="M118.79,37.47L118.65,37.68L118.50,37.56L118.57,36.35z"/><path style="fill:#c6c1bc" d="M265.61,106.34L265.72,105.91L266.12,105.87z"/><path style="fill:#c6c1bc" d="M265.18,106.93L265.61,106.34L265.57,108.12z"/><path style="fill:#c6c1bc" d="M219.30,114.97L219.67,114.12L219.54,115.88z"/><path style="fill:#c6c1bc" d="M112.27,116.52L112.57,116.13L112.42,117.91L112.28,117.76z"/><path style="fill:#c6c1bc" d="M106.11,134.44L106.03,134.16L106.31,133.69z"/><path style="fill:#c6c1bc" d="M106.03,135.19L105.95,134.57L106.11,134.44z"/><path style="fill:#c6c1bc" d="M60.34,143.32L60.21,143.53L60.05,143.41L60.13,142.20z"/><path style="fill:#c6c1bc" d="M265.27,239.70L265.58,239.04L265.57,240.81z"/><path style="fill:#c6c1bc" d="M219.37,247.48L219.80,246.62L219.99,246.61L219.52,248.59L219.38,248.44z"/><path style="fill:#c6c1bc" d="M213.53,248.41L214.03,247.38L214.23,247.37L213.77,249.32z"/><path style="fill:#c6c1bc" d="M112.63,265.64L112.32,266.41L112.28,265.51L112.42,265.36z"/><path style="fill:#c6c1bc" d="M106.34,266.86L106.02,267.90L105.99,267.02L106.29,266.63z"/><path style="fill:#b3bad6" d="M210.15,20.87L210.17,21.32L209.69,21.33L209.74,20.55z"/><path style="fill:#b3bad6" d="M209.95,22.14L209.62,22.53L208.89,22.32L209.37,21.49L209.69,21.33z"/><path style="fill:#b3bad6" d="M121.11,36.16L121.10,36.64L120.75,36.53L120.63,35.93z"/><path style="fill:#b3bad6" d="M121.09,37.39L120.72,37.97L120.07,37.97L119.89,37.86L119.84,37.64L120.55,36.99z"/><path style="fill:#b3bad6" d="M216.18,100.08L215.79,100.68L215.16,100.66L214.52,100.31L214.46,100.15L215.37,99.96L215.65,99.66z"/><path style="fill:#b3bad6" d="M268.09,106.67L268.12,107.11L267.82,106.94L267.68,106.35z"/><path style="fill:#b3bad6" d="M267.91,107.67L267.56,108.32L266.84,108.11L267.33,107.24L267.54,107.21z"/><path style="fill:#b3bad6" d="M221.95,115.63L221.56,116.24L220.92,116.22L220.73,116.12L220.23,115.69L221.14,115.51L221.42,115.21z"/><path style="fill:#b3bad6" d="M114.85,117.64L114.45,118.24L113.80,118.23L113.62,118.12L113.38,117.71L114.31,117.22z"/><path style="fill:#b3bad6" d="M108.57,135.20L108.20,135.79L107.38,135.91L107.35,135.46L108.04,135.04z"/><path style="fill:#b3bad6" d="M107.35,135.46L106.69,135.36L106.65,135.19z"/><path style="fill:#b3bad6" d="M62.67,142.01L62.66,142.49L62.31,142.38L62.19,141.78z"/><path style="fill:#b3bad6" d="M62.65,143.24L62.28,143.82L61.63,143.82L61.45,143.71L61.39,143.49L62.11,142.84z"/><path style="fill:#b3bad6" d="M267.91,240.35L267.57,241.01L266.84,240.80L267.33,239.93L267.54,239.90z"/><path style="fill:#b3bad6" d="M221.98,248.33L221.90,248.74L221.59,248.96L220.78,248.86L220.73,248.64L221.32,248.13z"/><path style="fill:#b3bad6" d="M216.19,249.06L215.79,249.68L215.15,249.66L214.96,249.56L214.46,249.13L215.89,248.89z"/><path style="fill:#b3bad6" d="M114.85,266.63L114.45,267.24L113.81,267.22L113.63,267.12L113.13,266.69L114.04,266.50L114.32,266.21z"/><path style="fill:#b3bad6" d="M108.58,267.91L108.46,268.48L107.37,268.58L107.34,268.21L108.03,267.72z"/><path style="fill:#b3bad6" d="M62.67,274.70L62.66,275.18L62.31,275.07L62.19,274.47z"/><path style="fill:#b3bad6" d="M62.32,275.73L62.63,275.92L62.28,276.51L61.63,276.51L61.46,276.39L61.39,276.18L62.07,275.46L62.32,275.47z"/><path style="fill:#c8cfee" d="M210.24,21.58L209.95,22.14L209.69,21.33L210.17,21.32z"/><path style="fill:#c8cfee" d="M216.41,99.41L216.18,100.08L215.65,99.66L215.37,99.96L214.46,100.15L213.60,99.91L213.58,99.22L213.79,98.93L214.47,98.76L215.89,98.62z"/><path style="fill:#c8cfee" d="M222.18,114.96L221.95,115.63L221.42,115.21L221.14,115.51L220.23,115.69L220.04,115.55L220.14,114.54L221.01,114.16L221.67,114.18z"/><path style="fill:#c8cfee" d="M115.08,116.97L114.85,117.64L114.31,117.22L113.38,117.71L112.94,117.55L113.04,116.54L113.89,116.15L114.33,115.96z"/><path style="fill:#c8cfee" d="M108.78,134.76L108.57,135.20L108.04,135.04L107.35,135.46L106.65,135.19L106.78,134.09L107.42,134.03L107.63,133.73L108.30,133.74z"/><path style="fill:#c8cfee" d="M268.09,239.63L267.91,240.35L267.54,239.90L267.33,239.93L266.84,240.80L266.67,240.81L266.05,240.37L265.96,239.39L266.82,238.98L266.91,238.82L267.57,238.84z"/><path style="fill:#c8cfee" d="M222.18,247.65L221.98,248.33L221.32,248.13L220.73,248.64L220.13,248.41L220.14,247.23L221.01,246.85L221.67,246.87z"/><path style="fill:#c8cfee" d="M216.41,248.41L216.19,249.06L215.89,248.89L214.46,249.13L214.27,249.00L214.37,247.98L215.24,247.60L215.90,247.62z"/><path style="fill:#c8cfee" d="M115.08,265.96L114.85,266.63L114.32,266.21L114.04,266.50L113.13,266.69L112.93,266.55L113.04,265.54L113.89,265.15L114.33,264.96z"/><path style="fill:#c8cfee" d="M108.78,267.45L108.58,267.91L108.03,267.72L107.34,268.21L106.68,268.06L106.70,266.98L107.42,266.60L108.29,266.42z"/><path style="fill:#868c8c" d="M230.92,105.04L230.77,105.06L230.77,103.88L230.92,103.90z"/><path style="fill:#868c8c" d="M185.02,112.81L184.85,112.86L184.91,111.84L185.04,111.93z"/><path style="fill:#868c8c" d="M71.64,132.64L71.26,132.69L71.48,131.46L71.64,131.50z"/><path style="fill:#868c8c" d="M25.86,139.71L25.59,140.45L25.57,139.48z"/><path style="fill:#868c8c" d="M24.27,223.50L24.16,138.79L24.33,138.76z"/><path style="fill:#868c8c" d="M230.92,237.72L230.77,237.75L230.82,236.76L230.94,236.84z"/><path style="fill:#868c8c" d="M185.01,245.77L184.64,245.81L184.85,244.58L185.01,244.62z"/><path style="fill:#868c8c" d="M29.79,251.77L29.34,252.28L29.51,251.50L29.60,225.79L29.74,225.85z"/><path style="fill:#868c8c" d="M71.64,265.33L71.26,265.37L71.48,264.15L71.64,264.19z"/><path style="fill:#868c8c" d="M25.86,272.40L25.59,273.14L25.57,272.17z"/><path style="fill:#f74242" d="M172.46,18.47L173.25,18.38L173.29,18.71L172.77,19.50L172.45,19.18z"/><path style="fill:#f74242" d="M84.23,34.56L83.93,34.85L83.58,34.64L83.80,33.63L84.19,33.66z"/><path style="fill:#f74242" d="M179.17,97.46L178.79,97.35L178.86,96.33L179.26,96.36z"/><path style="fill:#f74242" d="M77.83,115.01L77.45,114.91L77.52,113.89L77.92,113.92z"/><path style="fill:#f74242" d="M76.43,129.87L76.03,129.90L76.08,23.38L76.47,23.36z"/><path style="fill:#f74242" d="M165.98,130.12L165.58,130.15L165.51,123.89L165.96,123.70z"/><path style="fill:#f74242" d="M178.29,141.02L178.27,143.40L177.55,144.69L176.84,144.96L177.69,143.32L177.63,140.72z"/><path style="fill:#f74242" d="M179.25,246.53L178.79,246.35L178.86,245.33L179.25,245.35z"/><path style="fill:#f74242" d="M77.83,264.01L77.45,263.90L77.52,262.89L77.92,262.91z"/><path style="fill:#ffffff" d="M83.58,34.64L83.62,33.67L83.80,33.63z"/><path style="fill:#ffffff" d="M178.79,97.35L178.68,96.38L178.86,96.33z"/><path style="fill:#ffffff" d="M77.45,114.91L77.35,113.94L77.52,113.89z"/><path style="fill:#ffffff" d="M178.79,246.35L178.68,245.38L178.86,245.33z"/><path style="fill:#ffffff" d="M77.45,263.90L77.35,262.94L77.52,262.89z"/><g id="Actor_.0"><g style="stroke:#000000;stroke-width:0.176"><path d="M213.82,100.02L213.76,99.85L213.73,99.64L213.73,99.64L213.74,99.42L213.79,99.21L213.87,99.03"/><path d="M215.61,100.81L215.42,100.68L215.26,100.45L215.25,100.39L215.16,100.13L215.13,99.76L215.17,99.37L215.24,99.10L215.27,99.02L215.43,98.73L215.62,98.55L215.83,98.48"/><path d="M215.96,99.41L215.92,99.55L215.90,99.74L215.92,99.92L215.97,100.08L216.05,100.20L216.15,100.26L216.25,100.26L216.36,100.20L216.45,100.08L216.51,99.92"/><path d="M215.17,98.94L215.10,99.09L215.01,99.46L214.99,99.84L215.04,100.20L215.07,100.27"/><path d="M216.02,99.89L215.96,99.70L216.02,99.53L216.06,99.52L216.07,99.65L216.05,99.79L216.03,99.85L216.11,99.64L216.05,99.45L216.11,99.28L216.38,99.26L216.49,99.67L216.35,100.09L216.07,100.07L216.02,99.90L216.03,99.85L216.02,99.89L216.02,99.90"/><path d="M215.83,100.80L215.82,100.80"/><path d="M215.53,100.81L215.53,100.81"/><path d="M215.97,99.37L216.05,99.23L216.15,99.13L216.26,99.10L216.36,99.13L216.45,99.22L216.51,99.36L216.55,99.54"/><path d="M216.35,100.09L216.08,100.11L216.07,100.07"/><path d="M216.49,99.67L216.11,99.64"/><path d="M216.06,99.52L216.05,99.45L216.02,99.53"/><path d="M216.05,99.45L216.05,99.45"/></g><g style="stroke:#000000;stroke-width:0.529"><path d="M215.07,100.27L214.03,100.19L213.92,100.14L213.82,100.02L213.76,99.89"/><path d="M215.17,98.94L214.10,98.86L213.98,98.91L213.87,99.03L213.82,99.11"/><path d="M213.75,99.24L213.79,99.15"/><path d="M215.53,100.81L215.82,100.80"/><path d="M215.53,100.81L215.33,100.71L215.16,100.51L215.07,100.27"/><path d="M215.17,98.94L215.24,98.79L215.43,98.57L215.64,98.48L215.83,98.48L216.04,98.54L216.22,98.72L216.39,98.94L216.49,99.16L216.54,99.44L216.55,99.54L216.55,99.64L216.55,99.73L216.51,99.92L216.48,100.03L216.38,100.29L216.24,100.47L216.03,100.68L215.83,100.80"/></g></g><g id="Actor_.1"><g style="stroke:#000000;stroke-width:0.176"><path d="M112.36,117.30L112.34,117.21L112.35,116.99L112.39,116.78L112.40,116.77"/><path d="M114.26,118.35L114.06,118.25L113.90,118.03L113.79,117.73L113.74,117.36L113.76,117.07L113.77,116.97L113.86,116.61L113.97,116.38L114.01,116.31L114.20,116.11L114.41,116.02"/><path d="M114.63,116.82L114.58,116.94L114.53,117.12L114.52,117.31L114.54,117.49L114.60,117.65L114.68,117.75L114.78,117.81L114.89,117.79L114.99,117.72L115.07,117.59L115.13,117.43"/><path d="M114.68,117.08L114.69,117.17L114.60,117.17L114.59,117.11L114.66,116.99L114.68,117.04L114.68,117.08L114.71,117.31L114.63,117.45L114.64,117.57L114.89,117.69L115.09,117.34L115.05,116.88L114.74,116.85L114.79,116.76L115.05,116.88"/><path d="M114.69,117.17L114.67,117.31L114.63,117.43L114.63,117.44L114.60,117.17"/><path d="M113.68,117.81L113.67,117.80L113.61,117.44L113.62,117.06L113.69,116.69L113.78,116.48"/><path d="M114.63,117.45L114.63,117.44"/><path d="M115.16,117.05L115.12,116.88L115.05,116.74L114.96,116.66L114.85,116.64L114.75,116.69L114.65,116.79"/><path d="M114.74,116.85L114.67,116.97L114.68,117.08"/><path d="M114.71,117.31L115.09,117.34"/><path d="M114.67,116.97L114.66,116.99"/></g><g style="stroke:#000000;stroke-width:0.529"><path d="M112.36,117.41L112.33,117.32L112.30,117.17L112.30,117.00L112.34,116.84L112.40,116.70L112.41,116.68"/><path d="M113.68,117.81L113.80,118.09L113.97,118.28L114.18,118.35L114.26,118.35L114.48,118.33L114.68,118.18L114.88,117.99L115.02,117.79L115.11,117.53L115.13,117.43L115.16,117.24L115.16,117.05L115.15,116.93L115.09,116.66L114.98,116.45L114.81,116.23L114.62,116.06L114.41,116.02L114.22,116.02L114.01,116.14L113.83,116.37L113.78,116.48"/><path d="M113.68,117.81L113.20,117.77"/><path d="M113.78,116.48L113.30,116.44"/></g></g><g id="Actor_.2"><g style="stroke:#000000;stroke-width:0.176"><path d="M106.07,267.70L106.05,267.60L106.06,267.38L106.11,267.17L106.11,267.16"/><path d="M107.95,268.76L107.76,268.64L107.60,268.42L107.49,268.10L107.45,267.73L107.48,267.38L107.48,267.35L107.58,266.99L107.69,266.76L107.74,266.70L107.93,266.51L108.14,266.43"/><path d="M107.39,268.22L107.37,268.18L107.32,267.82L107.33,267.43L107.41,267.06L107.49,266.89"/><path d="M108.35,267.22L108.29,267.33L108.24,267.51L108.23,267.70L108.25,267.88L108.26,267.93L108.30,268.04L108.38,268.16L108.48,268.21L108.58,268.21L108.69,268.14L108.78,268.02L108.84,267.85"/><path d="M108.87,267.47L108.83,267.30L108.77,267.16L108.68,267.07L108.57,267.05L108.47,267.09L108.37,267.18"/><path d="M108.39,267.46L108.38,267.38L108.45,267.27L108.76,267.30L108.80,267.76L108.59,268.10L108.34,267.97L108.33,267.86L108.41,267.73L108.39,267.46"/><path d="M108.38,267.38L108.37,267.39L108.39,267.46L108.39,267.50L108.39,267.59L108.38,267.73L108.34,267.85L108.33,267.85L108.31,267.59L108.39,267.59"/><path d="M108.41,267.73L108.80,267.76"/><path d="M108.31,267.59L108.30,267.50L108.37,267.39"/><path d="M108.33,267.85L108.33,267.86"/><path d="M108.76,267.30L108.51,267.17L108.45,267.27"/></g><g style="stroke:#000000;stroke-width:0.529"><path d="M106.13,267.08L106.11,267.10L106.05,267.23L106.01,267.39L106.01,267.56L106.03,267.72L106.07,267.81"/><path d="M107.00,266.85L107.49,266.89L107.56,266.75L107.74,266.53L107.95,266.43L108.14,266.43L108.35,266.48L108.53,266.65L108.70,266.88L108.81,267.09L108.86,267.37L108.87,267.47L108.87,267.66L108.84,267.85L108.81,267.96L108.71,268.22L108.58,268.41L108.37,268.61L108.17,268.74L107.95,268.76L107.87,268.75L107.66,268.67L107.49,268.47L107.39,268.22"/><path d="M107.39,268.22L106.91,268.18"/></g></g><g id="Actor_.3"><g style="stroke:#000000;stroke-width:0.176"><path d="M60.90,143.35L60.98,143.40L61.11,143.41L61.13,143.39"/><path d="M60.88,144.00L60.66,143.84L60.49,143.56L60.39,143.17L60.37,142.74L60.43,142.31L60.57,141.92L60.76,141.62L60.90,142.08"/><path d="M61.00,142.07L61.10,142.03L61.23,142.05L61.25,142.07"/><path d="M60.97,142.08L60.87,141.52L61.11,141.42"/><path d="M60.87,141.52L60.59,141.50"/><path d="M60.76,141.62L60.61,141.61"/></g><g style="stroke:#000000;stroke-width:0.529"><path d="M61.00,142.07L60.97,142.08L60.90,142.08L60.91,142.13L60.81,142.29L60.74,142.50L60.71,142.73L60.72,142.96L60.77,143.17L60.86,143.32L60.90,143.35"/><path d="M61.53,143.66L61.37,143.87L61.13,144.01L60.88,144.00L60.61,143.98L60.39,143.82L60.22,143.53L60.12,143.15L60.09,142.72L60.15,142.28L60.29,141.90L60.49,141.60L60.61,141.61L60.59,141.50L60.83,141.40L61.11,141.42L61.35,141.46L61.56,141.65L61.67,141.86"/></g></g><g id="Actor_.4"><g style="stroke:#000000;stroke-width:0.176"><path d="M118.56,37.00L118.55,36.85L118.57,36.63L118.59,36.57"/><path d="M120.58,38.10L120.37,38.06L120.19,37.90L120.05,37.64L119.97,37.30L119.96,36.92L120.01,36.54L120.14,36.20L120.26,36.00L120.31,35.95L120.51,35.80L120.73,35.77"/><path d="M120.88,36.50L120.82,36.60L120.76,36.77L120.73,36.96L120.74,37.15L120.78,37.32L120.85,37.45L120.94,37.53L121.04,37.55L121.15,37.51L121.24,37.40L121.29,37.30L121.32,37.25L121.36,37.07"/><path d="M121.38,36.88L121.35,36.70L121.30,36.54L121.21,36.44L121.11,36.39L121.01,36.40L120.91,36.47"/><path d="M120.92,36.65L121.28,36.68L121.29,37.15L120.90,37.12L120.89,36.89L120.89,36.68L121.04,36.49L121.28,36.68"/><path d="M120.89,36.68L120.87,36.71L120.87,36.71L120.89,36.84L120.89,36.89L120.89,36.98L120.86,37.11L120.82,37.21L120.82,36.97L120.89,36.98"/><path d="M120.90,37.12L120.82,37.22L120.82,37.26L121.06,37.44L121.29,37.15"/><path d="M120.82,36.97L120.82,36.78L120.87,36.71"/><path d="M119.99,36.21L119.96,36.27L119.86,36.62L119.81,37.00L119.84,37.38L119.89,37.54"/><path d="M120.82,37.21L120.82,37.22"/></g><g style="stroke:#000000;stroke-width:0.529"><path d="M121.28,37.40L121.16,37.64L121.01,37.80L120.79,38.01L120.58,38.10L120.29,38.07L120.09,37.94L119.94,37.70L119.89,37.54L119.40,37.51"/><path d="M118.64,36.40L118.57,36.51L118.52,36.66L118.51,36.83L118.52,36.99L118.56,37.13L118.57,37.16"/><path d="M119.99,36.21L119.50,36.18"/><path d="M121.28,37.40L121.36,37.07"/><path d="M121.36,37.07L121.38,36.88L121.37,36.81L121.33,36.53L121.25,36.29L121.12,36.12L120.93,35.87L120.73,35.77L120.53,35.75L120.32,35.81L120.12,35.99L119.99,36.21"/></g></g><g id="Actor_.5"><g style="stroke:#000000;stroke-width:0.176"><path d="M221.42,249.14L221.22,249.04L221.05,248.83L220.94,248.53L220.93,248.47L220.89,248.16L220.91,247.78L220.97,247.50L221.00,247.42L221.14,247.11L221.33,246.90L221.49,246.83L221.54,246.81L221.75,246.84"/><path d="M219.50,248.08L219.49,248.01L219.49,247.79L219.53,247.58L219.54,247.56"/><path d="M220.93,247.26L220.83,247.49L220.76,247.87L220.75,248.25L220.82,248.59"/><path d="M219.53,247.49L219.53,247.49"/><path d="M219.59,247.45L219.61,247.39"/><path d="M221.70,247.77L221.67,247.91L221.66,248.10L221.69,248.29L221.74,248.44L221.83,248.54L221.93,248.59L222.03,248.58L222.13,248.50L222.22,248.37L222.28,248.20"/><path d="M222.30,247.82L222.26,247.65L222.19,247.52L222.09,247.44L221.99,247.43L221.88,247.47L221.79,247.58L221.72,247.73"/><path d="M222.12,248.40L221.83,248.38L221.85,248.45L222.12,248.40L222.25,247.96L221.86,247.93L221.81,247.76L221.85,247.62L222.12,247.57L222.25,247.96"/><path d="M221.81,247.76L221.80,247.77L221.82,247.81L221.83,247.95L221.81,248.08L221.80,248.15L221.86,247.93"/><path d="M221.83,248.38L221.77,248.23L221.80,248.15L221.78,248.21L221.77,248.22L221.72,248.06L221.79,247.82L221.82,247.81"/><path d="M221.77,248.22L221.77,248.23"/><path d="M221.79,247.82L221.80,247.77"/><path d="M221.35,246.81L221.35,246.81"/></g><g style="stroke:#000000;stroke-width:0.529"><path d="M221.75,246.84L221.94,247.00L222.11,247.23L222.23,247.43L222.29,247.70L222.30,247.82L222.31,248.01L222.28,248.20L222.26,248.30L222.16,248.56L222.03,248.76L221.83,248.96L221.63,249.11L221.42,249.14L221.33,249.13L221.13,249.07L220.95,248.89L220.82,248.60L220.82,248.59"/><path d="M220.82,248.59L220.35,248.56"/><path d="M219.51,248.19L219.47,248.11L219.44,247.96L219.44,247.79L219.48,247.63L219.53,247.49"/><path d="M219.55,247.46L219.53,247.49"/><path d="M221.35,246.81L221.14,246.94L220.96,247.17L220.93,247.26"/><path d="M220.93,247.26L220.44,247.23"/><path d="M219.57,247.44L219.67,247.31"/><path d="M221.75,246.84L221.56,246.81L221.54,246.81L221.35,246.81"/></g></g><g id="Actor_.6"><g style="stroke:#000000;stroke-width:0.176"><path d="M214.67,249.93L214.43,249.86L214.23,249.64L214.08,249.31L214.01,248.90L214.03,248.46L214.12,248.04L214.05,248.04"/><path d="M214.44,248.22L214.19,247.87L213.91,247.85"/><path d="M214.19,247.87L214.38,247.56L214.61,247.37L214.85,247.33"/><path d="M214.12,248.04L214.30,248.21"/><path d="M214.55,249.26L214.57,249.28L214.70,249.32L214.77,249.30"/><path d="M214.65,247.97L214.67,247.96L214.80,247.93L214.87,247.97"/></g><g style="stroke:#000000;stroke-width:0.529"><path d="M215.31,247.76L215.27,247.68L215.08,247.43L214.85,247.33L214.58,247.31L214.33,247.35L214.10,247.54L213.91,247.85L214.05,248.04L213.84,248.02L213.75,248.44L213.74,248.88L213.81,249.29L213.95,249.62L214.15,249.83L214.39,249.91L214.67,249.93L214.91,249.85L215.13,249.63L215.17,249.56"/><path d="M214.65,247.97L214.54,248.06L214.44,248.22L214.30,248.21L214.41,248.31L214.36,248.54L214.35,248.77L214.39,248.99L214.46,249.17L214.55,249.26"/></g></g><g id="Actor_.7"><g style="stroke:#000000;stroke-width:0.176"><path d="M106.09,134.48L106.07,134.55L106.05,134.76L106.06,134.91"/><path d="M108.08,136.01L107.87,135.98L107.69,135.82L107.55,135.55L107.47,135.21L107.46,134.83L107.52,134.45L107.64,134.12L107.76,133.92L107.81,133.86L108.01,133.71L108.23,133.68"/><path d="M107.49,134.13L107.46,134.18L107.36,134.53L107.31,134.92L107.34,135.29L107.39,135.46"/><path d="M108.86,134.99L108.82,135.17L108.74,135.32L108.65,135.42L108.54,135.46L108.44,135.45L108.35,135.37L108.28,135.23L108.24,135.06L108.23,134.87L108.26,134.68L108.32,134.52L108.38,134.42"/><path d="M108.88,134.79L108.85,134.61L108.82,134.52L108.80,134.46L108.71,134.35L108.61,134.30L108.51,134.31L108.41,134.39"/><path d="M108.78,134.59L108.42,134.56L108.39,134.60L108.40,135.04L108.32,135.13L108.32,135.17L108.56,135.36L108.79,135.07L108.78,134.59L108.54,134.40L108.42,134.56"/><path d="M108.40,135.04L108.79,135.07"/><path d="M108.39,134.80L108.39,134.76L108.37,134.63L108.37,134.63L108.32,134.69L108.32,134.88L108.39,134.89L108.39,134.80"/><path d="M108.32,135.13L108.32,135.12L108.36,135.03L108.39,134.89"/><path d="M108.37,134.63L108.39,134.60"/><path d="M108.32,134.88L108.32,135.12"/><path d="M108.75,134.20L108.75,134.20"/><path d="M108.43,133.78L108.43,133.78"/></g><g style="stroke:#000000;stroke-width:0.529"><path d="M106.14,134.31L106.07,134.42L106.02,134.58L106.01,134.74L106.02,134.91L106.06,135.05L106.07,135.07"/><path d="M106.90,135.42L107.39,135.46L107.44,135.62L107.59,135.86L107.79,135.99L108.08,136.01L108.29,135.92L108.51,135.71L108.66,135.55L108.78,135.32"/><path d="M107.49,134.13L107.62,133.90L107.82,133.73L108.03,133.67L108.23,133.68L108.43,133.78"/><path d="M107.49,134.13L107.00,134.09"/><path d="M108.78,135.31L108.86,134.99"/><path d="M108.86,134.99L108.88,134.79L108.87,134.73L108.83,134.44L108.75,134.20"/><path d="M108.43,133.78L108.62,134.03L108.75,134.20"/></g></g><g id="Actor_.8"><g style="stroke:#000000;stroke-width:0.176"><path d="M220.00,249.15L220.00,249.15"/><path d="M220.27,249.17L220.06,249.01L219.89,248.72L219.79,248.33L219.77,247.90L219.83,247.46L219.81,247.46"/><path d="M220.30,248.52L220.37,248.58L220.50,248.58L220.53,248.57"/><path d="M220.52,246.60L220.28,246.69L220.06,246.93L219.89,247.28L220.17,247.57"/><path d="M219.83,247.46L219.96,247.55"/><path d="M220.40,247.25L220.50,247.20L220.63,247.23L220.65,247.24"/><path d="M219.89,247.28L219.61,247.26"/></g><g style="stroke:#000000;stroke-width:0.529"><path d="M221.06,247.04L220.97,246.84L220.76,246.65L220.52,246.60L220.24,246.57L220.00,246.67L219.78,246.91L219.61,247.26L219.81,247.46L219.56,247.44L219.49,247.88L219.51,248.31L219.61,248.70L219.78,248.99L220.00,249.15L220.27,249.17L220.52,249.19L220.76,249.05L220.93,248.84"/><path d="M220.40,247.25L220.37,247.25L220.26,247.38L220.17,247.57L219.96,247.55L220.14,247.67L220.10,247.90L220.11,248.13L220.17,248.33L220.26,248.49L220.30,248.52"/></g></g><g id="Actor_.9"><g style="stroke:#000000;stroke-width:0.176"><path d="M74.47,130.14L75.00,130.18L75.00,265.93"/><path d="M75.00,130.18L76.67,129.89L76.14,129.85"/><path d="M76.14,23.38L76.67,23.42L76.67,129.89"/><path d="M77.56,262.87L77.75,262.71L77.88,262.71L78.01,262.78L78.11,262.93L78.20,263.38L78.11,263.85L77.88,264.16L77.75,264.20L77.62,264.16L77.48,263.99"/><path d="M77.56,113.81L77.75,113.66L77.88,113.65L78.01,113.73L78.11,113.88L78.20,114.32L78.11,114.80L78.01,114.98L77.88,115.10L77.75,115.15L77.62,115.11L77.48,114.94"/><path d="M76.67,23.42L180.28,5.50"/><path d="M83.77,33.55L83.96,33.40L84.09,33.39L84.22,33.47L84.39,33.82L84.41,34.06L84.32,34.54L84.22,34.73L84.09,34.84L83.96,34.89L83.82,34.85L83.69,34.69"/><path d="M105.70,140.54L106.23,140.58L90.80,143.25L90.80,143.12"/><path d="M106.23,140.58L106.23,135.67"/><path d="M106.19,134.10L105.71,134.18"/><path d="M150.72,132.75L150.72,132.89L166.15,130.22L165.61,130.18"/><path d="M166.15,130.22L166.15,123.73L165.61,123.82"/><path d="M172.74,18.16L172.92,18.01L173.06,18.00L173.19,18.08L173.35,18.43L173.38,18.67L173.29,19.15L173.19,19.33L173.06,19.45L172.92,19.50L172.80,19.46L172.65,19.29"/><path d="M176.97,139.84L177.42,139.83L177.86,140.10L178.23,140.63L178.46,141.36L178.54,142.21L178.46,143.09L178.23,143.90L177.86,144.56L177.42,144.99L176.93,145.14L176.58,145.04"/><path d="M178.86,246.46L179.00,246.62L179.13,246.66L179.27,246.62L179.40,246.50L179.50,246.31L179.58,245.84L179.50,245.39L179.40,245.24L179.27,245.17L179.13,245.17L178.95,245.33"/><path d="M178.95,96.27L179.13,96.12L179.27,96.11L179.40,96.19L179.50,96.34L179.58,96.78L179.50,97.26L179.40,97.44L179.27,97.56L179.13,97.61L179.00,97.57L178.86,97.40"/><path d="M181.95,111.68L180.28,111.97L180.28,111.85"/></g><g style="stroke:#000000;stroke-width:0.529"><path d="M180.28,72.13L180.28,5.50L179.75,5.46L76.14,23.38L76.14,129.85L74.47,130.14L74.47,265.89L75.00,265.93L181.95,247.43L181.95,111.68L181.41,111.64L180.28,111.84L180.28,73.65"/><path d="M77.58,262.89L77.56,262.87L77.50,262.95L77.42,263.15L77.37,263.40L77.37,263.64L77.48,263.99L77.64,263.58L77.67,263.34L77.58,262.89"/><path d="M77.42,114.81L77.48,114.94L77.64,114.53L77.67,114.28L77.58,113.84L77.50,113.89L77.42,114.10L77.37,114.34L77.42,114.81"/><path d="M83.85,34.27L83.85,33.78L83.77,33.55L83.63,33.85L83.58,34.09L83.58,34.33L83.69,34.69L83.85,34.27"/><path d="M90.80,143.12L90.80,136.76L105.70,134.19L105.70,140.54L90.80,143.12"/><path d="M150.72,132.75L165.61,130.18L165.61,123.82L150.72,126.40L150.72,132.75"/><path d="M172.75,19.11L172.65,19.29L172.55,18.94L172.55,18.70L172.67,18.27L172.75,18.19L172.84,18.63L172.75,19.11"/><path d="M176.12,144.67L176.05,144.60L175.75,143.96L175.59,143.16L175.59,142.29L175.75,141.43L176.05,140.69L176.46,140.14L176.97,139.84L177.33,140.06L177.69,140.59L177.92,141.32L178.00,142.17L177.92,143.05L177.69,143.86L177.33,144.52L176.89,144.95L176.58,145.04L176.46,145.01L176.12,144.67"/><path d="M178.86,246.46L179.03,246.05L179.05,245.80L178.96,245.35L178.88,245.41L178.76,245.86L178.76,246.10L178.86,246.46"/><path d="M179.05,96.74L178.96,97.22L178.86,97.40L178.76,97.05L178.76,96.80L178.80,96.56L178.95,96.27L179.03,96.50L179.05,96.74"/></g></g><g id="Actor_.10"><g style="stroke:#000000;stroke-width:0.176"><path d="M60.09,275.73L60.09,275.73"/><path d="M61.52,274.83L61.52,274.84L61.40,275.19L61.35,275.57L61.37,275.94L61.43,276.16"/><path d="M60.09,275.58L60.09,275.44L60.11,275.22L60.12,275.19"/><path d="M62.09,276.72L61.88,276.66L61.70,276.49L61.60,276.28L61.57,276.21L61.50,275.86L61.49,275.48L61.56,275.11L61.65,274.85L61.69,274.78L61.87,274.54L62.08,274.40L62.29,274.39"/><path d="M62.35,275.24L62.30,275.36L62.27,275.55L62.27,275.74L62.30,275.92L62.32,275.95L62.37,276.05L62.46,276.14L62.56,276.17L62.67,276.13L62.77,276.04L62.84,275.89L62.89,275.72"/><path d="M62.76,275.20L62.49,275.18L62.50,275.14L62.76,275.20L62.85,275.64L62.67,276.03L62.41,275.97L62.37,275.79L62.46,275.61L62.42,275.39L62.41,275.35L62.41,275.35L62.42,275.39"/><path d="M61.79,276.68L61.79,276.68"/><path d="M62.43,275.48L62.42,275.61L62.39,275.75L62.37,275.79L62.32,275.53L62.34,275.49L62.43,275.48L62.42,275.39"/><path d="M62.37,275.79L62.37,275.79"/><path d="M62.91,275.52L62.89,275.34L62.84,275.18L62.76,275.06L62.66,275.01L62.56,275.01L62.45,275.08L62.36,275.20"/><path d="M62.41,275.35L62.49,275.18"/><path d="M62.85,275.64L62.46,275.61"/><path d="M62.41,275.35L62.34,275.49"/><path d="M62.80,274.93L62.80,274.93"/><path d="M62.48,274.51L62.48,274.51"/></g><g style="stroke:#000000;stroke-width:0.529"><path d="M62.91,275.52L62.89,275.72L62.88,275.78L62.80,276.05L62.68,276.28L62.53,276.43L62.30,276.65L62.09,276.72L61.79,276.68L61.60,276.53L61.46,276.28L61.43,276.16"/><path d="M61.43,276.16L60.94,276.12"/><path d="M60.17,275.02L60.11,275.11L60.06,275.26L60.04,275.42L60.05,275.59L60.09,275.73L60.11,275.78"/><path d="M61.52,274.83L61.04,274.80"/><path d="M62.88,275.18L62.91,275.47L62.91,275.52"/><path d="M62.88,275.18L62.80,274.93"/><path d="M62.48,274.51L62.67,274.75L62.80,274.93"/><path d="M62.48,274.51L62.29,274.39L62.10,274.37L61.88,274.41L61.68,274.58L61.52,274.83"/></g></g><g id="Actor_.11"><g style="stroke:#000000;stroke-width:0.176"><path d="M24.41,274.28L24.41,256.98L24.49,256.14L24.70,255.36L25.02,254.72L25.44,254.27L25.90,254.06L28.49,253.61L28.95,253.40L29.36,252.95L29.69,252.31L29.90,251.53L29.97,250.69L29.97,226.74L29.88,225.86L29.69,225.22L29.36,224.69L28.95,224.38L28.46,224.34"/><path d="M25.90,224.78L25.44,224.73L25.02,224.42L24.70,223.89L24.49,223.19L24.41,222.38L24.41,138.87L36.84,136.72"/><path d="M24.41,138.87L24.15,138.84"/><path d="M25.34,273.45L25.49,273.51L25.63,273.46L25.75,273.34L25.85,273.16L25.92,272.93L25.94,272.68L25.92,272.44L25.85,272.24L25.75,272.09L25.63,272.01L25.48,272.02L25.45,272.04"/><path d="M25.63,224.76L25.66,224.75"/><path d="M25.34,140.70L25.49,140.76L25.63,140.71L25.75,140.59L25.85,140.41L25.92,140.18L25.94,139.93L25.92,139.69L25.86,139.50L25.75,139.34L25.63,139.26L25.48,139.27L25.45,139.29"/><path d="M74.46,130.21L38.03,136.51"/><path d="M71.30,265.50L71.46,265.55L71.59,265.51L71.72,265.39L71.82,265.20L71.89,264.98L71.91,264.73L71.89,264.49L71.82,264.29L71.72,264.14L71.59,264.06L71.46,264.06L71.41,264.09"/><path d="M71.41,131.34L71.45,131.32L71.59,131.31L71.72,131.39L71.82,131.54L71.89,131.74L71.91,131.98L71.89,132.23L71.82,132.46L71.72,132.64L71.59,132.76L71.46,132.80L71.30,132.75"/></g><g style="stroke:#000000;stroke-width:0.529"><path d="M36.82,136.65L24.15,138.84L24.15,222.35L24.22,223.16L24.43,223.87L24.76,224.40L25.17,224.71L25.90,224.78L28.46,224.34L28.68,224.36L29.10,224.67L29.42,225.20L29.63,225.91L29.71,226.72L29.71,240.80L29.71,250.67L29.63,251.51L29.42,252.29L29.10,252.93L28.68,253.38L28.22,253.59L25.63,254.04L25.17,254.25L24.76,254.70L24.43,255.34L24.22,256.12L24.15,256.96L24.15,274.26L24.41,274.28L74.46,265.62L74.46,130.21L74.19,130.19L38.01,136.45"/><path d="M25.65,272.42L25.59,272.22L25.49,272.07L25.45,272.04L25.36,272.10L25.24,272.25L25.16,272.46L25.11,272.70L25.11,272.95L25.16,273.17L25.24,273.35L25.34,273.45L25.49,273.32L25.59,273.14L25.65,272.91L25.68,272.66L25.65,272.42"/><path d="M25.59,140.39L25.49,140.57L25.34,140.70L25.24,140.60L25.16,140.42L25.11,140.20L25.11,139.95L25.16,139.71L25.24,139.50L25.36,139.35L25.45,139.29L25.49,139.32L25.59,139.47L25.65,139.67L25.68,139.91L25.65,140.16L25.59,140.39"/><path d="M71.33,265.49L71.30,265.50L71.21,265.40L71.12,265.22L71.08,265.00L71.08,264.75L71.12,264.51L71.21,264.30L71.32,264.15L71.41,264.09L71.45,264.12L71.55,264.26L71.62,264.47L71.64,264.71L71.62,264.96L71.55,265.18L71.45,265.38L71.33,265.49"/><path d="M71.12,132.47L71.08,132.25L71.08,132.00L71.12,131.76L71.21,131.55L71.32,131.39L71.41,131.34L71.45,131.37L71.55,131.52L71.62,131.72L71.64,131.96L71.62,132.21L71.55,132.43L71.45,132.62L71.33,132.74L71.30,132.75L71.21,132.65L71.12,132.47"/></g></g><g id="Actor_.12"><g style="stroke:#000000;stroke-width:0.176"><path d="M106.96,136.07L106.73,135.98L106.53,135.75L106.40,135.41L106.34,135.00L106.36,134.55L106.46,134.14L106.63,133.79L106.49,133.78"/><path d="M106.87,135.40L106.88,135.41L107.01,135.46L107.11,135.44"/><path d="M106.97,134.12L107.00,134.09L107.14,134.08L107.19,134.11"/><path d="M106.88,134.18L106.73,133.67L106.96,133.50L107.21,133.47"/><path d="M106.73,133.67L106.45,133.65"/><path d="M106.80,134.18L106.63,133.79"/></g><g style="stroke:#000000;stroke-width:0.529"><path d="M107.63,133.90L107.62,133.85L107.43,133.60L107.21,133.47L106.93,133.45L106.68,133.48L106.45,133.65L106.49,133.78L106.35,133.77L106.18,134.12L106.08,134.53L106.06,134.97L106.12,135.39L106.26,135.73L106.45,135.96L106.69,136.05L106.96,136.07L107.21,136.01L107.43,135.81L107.49,135.70"/><path d="M106.97,134.12L106.88,134.18L106.80,134.18L106.83,134.25L106.74,134.43L106.68,134.65L106.67,134.89L106.70,135.11L106.78,135.29L106.87,135.40"/></g></g><g id="Actor_.13"><g style="stroke:#000000;stroke-width:0.176"><path d="M106.87,268.15L106.93,268.19L107.06,268.21L107.09,268.19"/><path d="M107.05,268.82L106.81,268.78L106.60,268.60L106.44,268.30L106.35,267.91L106.34,267.47L106.41,267.04L106.56,266.66L106.74,266.98"/><path d="M106.96,266.87L107.09,266.82L107.21,266.86L107.22,266.87"/><path d="M106.84,266.99L106.65,266.52L106.87,266.30L107.11,266.22"/><path d="M106.65,266.52L106.37,266.50"/><path d="M106.56,266.66L106.43,266.65"/></g><g style="stroke:#000000;stroke-width:0.529"><path d="M107.63,266.66L107.55,266.49L107.35,266.28L107.11,266.22L106.84,266.20L106.59,266.28L106.37,266.50L106.43,266.65L106.28,266.64L106.14,267.02L106.06,267.45L106.07,267.89L106.16,268.28L106.32,268.58L106.54,268.76L106.78,268.79L107.05,268.82L107.30,268.70L107.49,268.47"/><path d="M106.96,266.87L106.96,266.87L106.84,266.99L106.74,266.98L106.79,267.06L106.71,267.26L106.67,267.49L106.68,267.73L106.73,267.94L106.81,268.10L106.87,268.15"/></g></g><g id="Actor_.14"><g style="stroke:#000000;stroke-width:0.176"><path d="M113.21,267.46L112.99,267.35L112.98,267.35L112.80,267.10L112.67,266.75L112.62,266.32L112.66,265.88L112.77,265.47L112.68,265.47"/><path d="M113.08,265.71L112.85,265.31L113.05,265.03L113.29,264.88L113.53,264.88"/><path d="M112.85,265.31L112.57,265.29"/><path d="M112.77,265.47L112.96,265.70"/><path d="M113.15,266.80L113.28,266.86L113.41,266.84L113.41,266.83"/><path d="M113.26,265.52L113.32,265.48L113.45,265.48L113.48,265.50"/></g><g style="stroke:#000000;stroke-width:0.529"><path d="M113.93,265.29L113.76,265.03L113.53,264.88L113.26,264.86L113.01,264.86L112.78,265.01L112.57,265.29L112.68,265.47L112.50,265.45L112.38,265.86L112.35,266.30L112.35,266.30L112.40,266.72L112.52,267.08L112.71,267.33L112.94,267.44L113.21,267.46L113.46,267.43L113.69,267.24L113.78,267.09"/><path d="M113.15,266.80L113.05,266.66L112.99,266.47L112.96,266.25L112.98,266.01L113.04,265.80L112.96,265.70L113.08,265.71L113.19,265.56L113.26,265.52"/></g></g><g id="Actor_.15"><g style="stroke:#000000;stroke-width:0.176"><path d="M113.37,118.40L113.13,118.38L112.91,118.22L112.74,117.92L112.65,117.54L112.63,117.10L112.69,116.67L112.83,116.29L112.71,116.28"/><path d="M113.12,116.59L112.92,116.14L112.64,116.12"/><path d="M112.83,116.29L113.02,116.58"/><path d="M112.92,116.14L113.14,115.90L113.38,115.81"/><path d="M113.16,117.74L113.23,117.79L113.36,117.80L113.39,117.79"/><path d="M113.25,116.46L113.37,116.42L113.49,116.45L113.51,116.46"/></g><g style="stroke:#000000;stroke-width:0.529"><path d="M113.37,118.40L113.09,118.38L112.85,118.36L112.63,118.20L112.47,117.90L112.37,117.52L112.35,117.08L112.42,116.65L112.56,116.26L112.71,116.28L112.64,116.12L112.86,115.88L113.11,115.79L113.38,115.81L113.62,115.86L113.83,116.06L113.92,116.26"/><path d="M113.25,116.46L113.24,116.47L113.12,116.59L113.02,116.58L113.07,116.67L113.00,116.88L112.96,117.11L112.97,117.34L113.02,117.55L113.11,117.70L113.16,117.74"/><path d="M113.37,118.40L113.61,118.27L113.78,118.05"/></g></g><g id="Actor_.16"><g style="stroke:#000000;stroke-width:0.176"><path d="M208.34,22.09L208.39,22.14L208.52,22.15L208.56,22.14"/><path d="M208.52,22.76L208.29,22.73"/><path d="M208.06,22.54L207.91,22.24L207.82,21.85L207.81,21.41L207.88,20.98L208.03,20.61L208.21,20.92"/><path d="M208.43,20.81L208.55,20.77L208.68,20.80L208.69,20.81"/><path d="M208.30,20.93L208.11,20.46L208.34,20.24L208.58,20.16"/><path d="M208.11,20.46L207.84,20.44"/><path d="M208.03,20.61L207.90,20.60"/></g><g style="stroke:#000000;stroke-width:0.529"><path d="M209.10,20.61L209.02,20.44L208.82,20.23L208.58,20.16L208.30,20.14L208.06,20.22L207.84,20.44L207.90,20.60L207.75,20.58L207.60,20.96L207.53,21.39L207.53,21.39L207.54,21.83L207.63,22.22L207.79,22.53L207.90,22.62"/><path d="M208.34,22.09L208.28,22.04L208.19,21.88L208.15,21.67L208.14,21.44L208.18,21.21L208.26,21.00L208.21,20.92L208.30,20.93L208.42,20.81L208.43,20.81"/><path d="M208.30,22.74L208.52,22.76L208.76,22.64L208.96,22.41"/></g></g><g id="Actor_.17"><g style="stroke:#000000;stroke-width:0.176"><path d="M220.42,116.45L220.19,116.37L219.99,116.16L219.84,115.83L219.77,115.42L219.78,114.98L219.88,114.56L219.80,114.56"/><path d="M220.31,115.78L220.33,115.80L220.45,115.84L220.53,115.82"/><path d="M220.61,113.85L220.36,113.89L220.13,114.08L219.94,114.39L220.20,114.74"/><path d="M219.88,114.56L220.05,114.73"/><path d="M220.40,114.49L220.42,114.47L220.55,114.45L220.63,114.49"/><path d="M219.94,114.39L219.67,114.36"/></g><g style="stroke:#000000;stroke-width:0.529"><path d="M221.06,114.28L221.03,114.19L220.84,113.95L220.61,113.85L220.33,113.82L220.09,113.87L219.86,114.05L219.67,114.36L219.80,114.56L219.60,114.54L219.51,114.96L219.49,115.40L219.56,115.81L219.71,116.14L219.91,116.35L220.15,116.43L220.42,116.45L220.67,116.37L220.89,116.15L220.93,116.08"/><path d="M220.40,114.49L220.30,114.57L220.20,114.74L220.05,114.73L220.16,114.83L220.11,115.06L220.11,115.29L220.14,115.51L220.22,115.69L220.31,115.78"/></g></g><g id="Actor_.18"><g style="stroke:#000000;stroke-width:0.176"><path d="M60.14,142.38L60.13,142.40L60.09,142.61L60.09,142.83L60.10,142.91"/><path d="M61.53,142.09L61.43,142.31L61.36,142.68L61.36,143.07L61.42,143.42"/><path d="M60.14,142.31L60.14,142.31"/><path d="M62.01,143.96L61.81,143.87L61.65,143.65L61.54,143.35L61.49,142.98L61.50,142.69L61.51,142.60L61.60,142.23L61.75,141.93L61.89,141.77L61.94,141.73L62.15,141.63"/><path d="M62.46,142.32L62.39,142.40L62.32,142.55L62.27,142.73L62.26,142.93L62.27,142.97L62.29,143.11L62.34,143.26L62.43,143.37L62.53,143.42L62.63,143.40L62.73,143.33L62.82,143.20L62.88,143.03"/><path d="M62.41,142.91L62.35,142.89L62.34,143.06L62.35,143.08L62.38,143.04L62.41,142.91L62.43,142.82L62.41,143.06L62.80,143.09L62.55,143.32L62.37,143.10L62.41,143.06"/><path d="M62.80,143.09L62.83,142.61L62.44,142.58L62.43,142.82"/><path d="M62.35,142.89L62.37,142.58L62.39,142.56L62.42,142.64L62.43,142.77L62.43,142.82"/><path d="M62.37,143.10L62.35,143.08"/><path d="M62.90,142.65L62.86,142.48L62.79,142.35L62.70,142.27L62.59,142.25L62.49,142.30"/><path d="M62.83,142.61L62.62,142.35L62.41,142.54L62.44,142.58"/><path d="M62.36,141.67L62.36,141.67"/><path d="M62.41,142.54L62.39,142.56"/></g><g style="stroke:#000000;stroke-width:0.529"><path d="M62.36,141.67L62.54,141.83L62.72,142.06L62.83,142.26L62.89,142.53L62.90,142.65L62.91,142.84L62.88,143.03L62.86,143.12L62.76,143.39L62.63,143.59L62.43,143.78L62.23,143.93L62.01,143.96L61.93,143.96L61.72,143.89L61.55,143.70L61.42,143.42L61.42,143.42"/><path d="M61.42,143.42L60.95,143.38"/><path d="M60.11,143.02L60.07,142.94L60.04,142.78L60.05,142.61L60.08,142.45L60.14,142.31L60.15,142.29"/><path d="M61.53,142.09L61.04,142.05"/><path d="M61.53,142.09L61.57,141.99L61.75,141.76L61.96,141.63L62.15,141.63L62.36,141.67"/></g></g><g id="Actor_.19"><g style="stroke:#000000;stroke-width:0.176"><path d="M221.63,114.06L221.41,114.10L221.21,114.27L221.05,114.54L221.01,114.62L220.93,114.88L220.89,115.27L220.91,115.64L221.00,115.97L221.04,116.04L221.15,116.22L221.34,116.37L221.55,116.38"/><path d="M219.54,114.81L219.50,114.95L219.48,115.17L219.50,115.30"/><path d="M220.93,114.51L220.88,114.61L220.78,114.97L220.75,115.35L220.79,115.72L220.83,115.84"/><path d="M221.72,114.96L221.68,115.09L221.66,115.28L221.67,115.47L221.72,115.63L221.79,115.76L221.89,115.83L221.99,115.84L222.10,115.79L222.19,115.67L222.26,115.52"/><path d="M222.31,115.14L222.28,114.96L222.22,114.82L222.13,114.72L222.03,114.68L221.92,114.70L221.82,114.78L221.74,114.92"/><path d="M222.09,115.68L221.82,115.66L221.82,115.67L222.09,115.68L222.25,115.27L222.14,114.85L221.88,114.84L221.81,115.02L221.86,115.24L221.78,115.44L221.80,115.38L221.82,115.25L221.82,115.11L221.81,115.03"/><path d="M221.86,115.24L222.25,115.27"/><path d="M221.82,115.11L221.77,115.13L221.72,115.25L221.77,115.46L221.78,115.44L221.77,115.47L221.82,115.66"/><path d="M221.81,115.02L221.77,115.13"/><path d="M221.77,115.47L221.77,115.46"/></g><g style="stroke:#000000;stroke-width:0.529"><path d="M220.93,114.51L221.03,114.32L221.22,114.12L221.43,114.05L221.63,114.06L221.83,114.14L222.00,114.34L222.16,114.55L222.26,114.78L222.30,115.06L222.31,115.14L222.30,115.33L222.26,115.52L222.23,115.65L222.12,115.90L221.97,116.07L221.76,116.28L221.55,116.38L221.25,116.37L221.05,116.26L220.89,116.03L220.83,115.84"/><path d="M220.83,115.84L220.33,115.80"/><path d="M219.50,115.44L219.46,115.31L219.44,115.15L219.45,114.98L219.49,114.82L219.56,114.70L219.57,114.69"/><path d="M219.68,114.55L219.75,114.48"/><path d="M220.93,114.51L220.44,114.47"/></g></g><g id="Actor_.20"><g style="stroke:#000000;stroke-width:0.176"><path d="M60.90,276.10L61.02,276.16L61.15,276.14L61.15,276.14"/><path d="M60.96,276.77L60.73,276.65L60.54,276.41L60.42,276.05L60.37,275.63L60.40,275.19L60.52,274.78L60.42,274.77"/><path d="M61.00,274.82L61.06,274.79L61.19,274.78L61.23,274.81"/><path d="M61.28,274.19L61.03,274.19L60.80,274.34L60.59,274.61L60.82,275.01"/><path d="M60.59,274.61L60.32,274.59"/><path d="M60.52,274.78L60.70,275.00"/></g><g style="stroke:#000000;stroke-width:0.529"><path d="M61.00,274.82L60.93,274.86L60.82,275.01L60.70,275.00L60.78,275.10L60.72,275.32L60.70,275.55L60.73,275.78L60.80,275.97L60.90,276.10L60.90,276.10"/><path d="M61.67,274.60L61.50,274.33L61.28,274.19L61.00,274.17L60.76,274.17L60.52,274.32L60.32,274.59L60.42,274.77L60.24,274.76L60.13,275.17L60.09,275.61L60.14,276.03L60.26,276.38L60.45,276.63L60.68,276.75L60.96,276.77L61.20,276.73L61.43,276.55L61.53,276.40"/></g></g><g id="Actor_.21"><g style="stroke:#000000;stroke-width:0.176"><path d="M266.31,241.24L266.09,241.12L265.90,240.87L265.78,240.51L265.73,240.09L265.77,239.65L265.89,239.24L265.79,239.23"/><path d="M265.69,239.06L265.96,239.08L266.19,239.48"/><path d="M266.26,240.58L266.38,240.64L266.51,240.62L266.52,240.61"/><path d="M266.37,239.30L266.43,239.26L266.56,239.26L266.59,239.28"/><path d="M265.89,239.24L266.07,239.47"/><path d="M265.96,239.08L266.17,238.80L266.41,238.66L266.65,238.66"/></g><g style="stroke:#000000;stroke-width:0.529"><path d="M267.03,239.07L266.87,238.81L266.65,238.66L266.37,238.64L266.13,238.64L265.89,238.78L265.69,239.06L265.79,239.23L265.61,239.22L265.49,239.63L265.46,240.06L265.46,240.07L265.50,240.49L265.62,240.85L265.81,241.10L266.04,241.22L266.31,241.24L266.56,241.21L266.79,241.03L266.89,240.87"/><path d="M266.26,240.58L266.26,240.57L266.16,240.44L266.09,240.25L266.07,240.02L266.09,239.82L266.09,239.79L266.15,239.57L266.07,239.47L266.19,239.48L266.30,239.33L266.37,239.30"/></g></g><g id="Actor_.22"><g style="stroke:#000000;stroke-width:0.176"><path d="M181.69,111.59L181.96,111.61L181.96,247.02"/><path d="M181.96,111.61L232.00,102.95"/><path d="M184.74,245.87L184.82,245.92L184.96,245.92L185.09,245.84L185.21,245.68L185.29,245.47L185.34,245.23L185.34,244.98L185.29,244.76L185.21,244.58L185.09,244.46L184.96,244.43L184.85,244.46"/><path d="M184.74,113.12L184.82,113.17L184.96,113.17L185.09,113.09L185.21,112.93L185.29,112.72L185.34,112.48L185.34,112.23L185.29,112.01L185.21,111.83L185.09,111.71L184.96,111.68L184.84,111.71"/><path d="M230.52,218.66L227.92,219.11L227.69,219.08"/><path d="M230.81,236.51L230.92,236.48L231.06,236.51L231.17,236.63L231.26,236.81L231.30,237.03L231.30,237.28L231.26,237.52L231.17,237.73L231.06,237.89L230.93,237.97L230.79,237.97L230.70,237.92"/><path d="M230.81,103.76L230.93,103.72L231.06,103.76L231.17,103.88L231.26,104.06L231.30,104.28L231.30,104.53L231.26,104.77L231.17,104.98L231.06,105.13L230.93,105.22L230.79,105.22L230.70,105.17"/></g><g style="stroke:#000000;stroke-width:0.529"><path d="M181.69,111.66L181.69,111.59L182.77,111.40L231.74,102.93L232.00,102.96L232.00,186.46L231.93,187.30L231.72,188.08L231.39,188.72L230.98,189.17L230.52,189.38L227.92,189.83L227.47,190.04L227.05,190.49L226.73,191.14L226.51,191.91L226.44,192.75L226.44,200.95L226.44,216.70L226.51,217.51L226.73,218.22L227.05,218.75L227.47,219.06L227.69,219.08L230.25,218.64L230.98,218.71L231.39,219.02L231.72,219.55L231.93,220.26L232.00,221.07L232.00,238.37L181.96,247.02"/><path d="M184.66,245.79L184.74,245.87L184.82,245.82L184.94,245.66L185.02,245.45L185.07,245.21L185.07,244.96L185.02,244.74L184.94,244.56L184.85,244.46L184.70,244.59L184.60,244.78L184.53,245.00L184.51,245.25L184.53,245.49L184.60,245.70L184.66,245.79"/><path d="M184.59,112.93L184.70,113.09L184.74,113.12L184.82,113.07L184.94,112.91L185.02,112.70L185.07,112.46L185.07,112.21L185.02,111.99L184.94,111.81L184.84,111.71L184.70,111.84L184.60,112.03L184.53,112.25L184.51,112.50L184.53,112.74L184.59,112.93"/><path d="M230.50,237.54L230.47,237.30L230.50,237.05L230.56,236.82L230.66,236.64L230.81,236.51L230.91,236.61L230.99,236.79L231.03,237.01L231.03,237.26L230.99,237.50L230.91,237.71L230.79,237.86L230.70,237.92L230.66,237.89L230.56,237.74L230.50,237.54"/><path d="M230.50,104.79L230.56,104.99L230.66,105.14L230.70,105.17L230.79,105.11L230.91,104.96L230.99,104.75L231.03,104.51L231.03,104.26L230.99,104.04L230.91,103.86L230.81,103.76L230.66,103.89L230.56,104.07L230.50,104.30L230.47,104.55L230.50,104.79"/></g></g><g id="Actor_.23"><g style="stroke:#000000;stroke-width:0.176"><path d="M119.37,37.49L119.38,37.50L119.51,37.55L119.61,37.52"/><path d="M119.46,38.15L119.23,38.06L119.03,37.84L118.90,37.50L118.84,37.08L118.86,36.64L118.96,36.22L119.13,35.88L118.99,35.87"/><path d="M119.38,36.27L119.23,35.76L119.46,35.58L119.71,35.56"/><path d="M119.23,35.76L118.95,35.73"/><path d="M119.13,35.88L119.30,36.26"/><path d="M119.69,36.19L119.64,36.16L119.51,36.18L119.47,36.20"/></g><g style="stroke:#000000;stroke-width:0.529"><path d="M119.47,36.20L119.38,36.27L119.30,36.26L119.33,36.33L119.24,36.52L119.18,36.74L119.17,36.97L119.20,37.20L119.28,37.38L119.37,37.49"/><path d="M120.13,35.98L120.12,35.94L119.93,35.68L119.71,35.56L119.43,35.54L119.18,35.56L118.95,35.73L118.99,35.87L118.85,35.86L118.68,36.20L118.58,36.62L118.56,37.06L118.62,37.47L118.76,37.82L118.95,38.04L119.19,38.13L119.46,38.15L119.71,38.09L119.93,37.89L119.99,37.79"/></g></g><g id="Actor_.24"><g style="stroke:#000000;stroke-width:0.176"><path d="M266.28,108.48L266.05,108.34L265.88,108.07L265.76,107.70L265.73,107.27L265.78,106.83L265.91,106.43L265.80,106.42"/><path d="M265.72,106.25L265.99,106.28L266.21,106.70"/><path d="M266.26,107.82L266.36,107.88L266.49,107.88L266.50,107.87"/><path d="M266.36,106.54L266.45,106.50L266.58,106.52L266.60,106.53"/><path d="M265.91,106.43L266.10,106.69"/><path d="M265.99,106.28L266.20,106.02L266.45,105.90"/></g><g style="stroke:#000000;stroke-width:0.529"><path d="M267.03,106.33L266.90,106.10L266.69,105.92L266.45,105.90L266.17,105.88L265.93,106.00L265.72,106.25L265.80,106.42L265.63,106.41L265.51,106.81L265.46,107.24L265.49,107.67L265.60,108.05L265.78,108.32L266.00,108.46L266.28,108.48L266.52,108.47L266.76,108.32L266.89,108.13"/><path d="M266.26,107.82L266.24,107.80L266.15,107.66L266.09,107.46L266.07,107.23L266.10,107.00L266.16,106.79L266.10,106.69L266.21,106.70L266.32,106.57L266.36,106.54"/></g></g><g id="Actor_.25"><g style="stroke:#000000;stroke-width:0.176"><path d="M112.38,265.89L112.37,265.91L112.34,266.13L112.35,266.27"/><path d="M112.34,266.43L112.35,266.43"/><path d="M114.35,267.41L114.14,267.36L113.96,267.18L113.86,266.98L113.83,266.91L113.75,266.56L113.75,266.18L113.82,265.80L113.91,265.55L113.95,265.47L114.01,265.39L114.12,265.23L114.33,265.10L114.54,265.09"/><path d="M114.60,265.93L114.56,266.06L114.52,266.24L114.52,266.44L114.56,266.61L114.63,266.75L114.72,266.84L114.82,266.86L114.93,266.83L115.02,266.73L115.10,266.59L115.15,266.41"/><path d="M114.62,265.89L114.71,265.77L114.81,265.70L114.92,265.70L115.02,265.76L115.10,265.87L115.15,266.03L115.17,266.22"/><path d="M114.65,266.45L114.63,266.49L114.66,266.67L114.93,266.72L115.10,266.33L115.02,265.89L114.74,265.87L114.67,266.04L114.72,266.30L114.65,266.45"/><path d="M114.05,267.37L114.05,267.37"/><path d="M114.65,266.45L114.63,266.49L114.58,266.22L114.67,266.04L114.67,266.08L114.68,266.17L114.68,266.31L114.65,266.44L114.65,266.45"/><path d="M113.68,266.85L113.63,266.64L113.61,266.26L113.66,265.88L113.77,265.54L113.78,265.53"/><path d="M114.60,266.18L114.68,266.17"/><path d="M114.63,266.49L114.63,266.49"/><path d="M114.74,265.87L114.76,265.84L115.02,265.89"/><path d="M114.67,266.04L114.67,266.04"/><path d="M115.10,266.33L114.72,266.30"/><path d="M115.13,265.88L115.13,265.88"/><path d="M114.74,265.20L114.74,265.20"/></g><g style="stroke:#000000;stroke-width:0.529"><path d="M112.42,265.72L112.37,265.80L112.32,265.95L112.30,266.12L112.31,266.28L112.34,266.43L112.37,266.47"/><path d="M112.67,265.47L112.68,265.47"/><path d="M113.68,266.85L113.72,266.97L113.86,267.23L114.05,267.37L114.35,267.41L114.56,267.34L114.78,267.12L114.94,266.97L115.06,266.75L115.14,266.47L115.15,266.41L115.17,266.22"/><path d="M113.68,266.85L113.19,266.82"/><path d="M114.74,265.20L114.54,265.09L114.35,265.07L114.14,265.11L113.94,265.27L113.78,265.53"/><path d="M113.78,265.53L113.30,265.49"/><path d="M115.13,265.88L115.16,266.17L115.17,266.22"/><path d="M115.13,265.88L115.05,265.63L114.93,265.45L114.74,265.20"/></g></g><g id="Actor_.26"><g style="stroke:#000000;stroke-width:0.176"><path d="M265.47,107.38L265.46,107.33L265.45,107.12L265.49,106.90L265.50,106.88"/><path d="M267.41,108.44L267.21,108.36L267.04,108.16L266.95,107.95L266.91,107.87L266.86,107.51L266.87,107.13L266.95,106.76L267.05,106.52L267.09,106.45L267.27,106.22L267.48,106.11L267.69,106.13"/><path d="M266.89,106.56L266.78,106.84L266.72,107.21L266.73,107.60L266.79,107.89"/><path d="M267.72,106.93L267.67,107.05L267.63,107.23L267.63,107.43L267.66,107.61L267.72,107.75L267.80,107.85L267.91,107.89L268.01,107.87L268.11,107.78L268.19,107.65L268.25,107.47"/><path d="M268.26,107.09L268.22,106.93L268.14,106.80L268.05,106.73L267.94,106.73L267.84,106.78L267.74,106.89"/><path d="M268.14,106.94L268.21,107.39L267.82,107.36L267.78,107.06L267.85,106.92L268.14,106.94L267.88,106.85L267.85,106.92"/><path d="M267.79,107.14L267.78,107.09L267.77,107.07L267.69,107.22L267.70,107.23L267.79,107.23L267.79,107.14"/><path d="M268.21,107.39L268.02,107.76L267.76,107.67L267.74,107.52L267.82,107.36"/><path d="M267.79,107.23L267.78,107.36L267.75,107.49L267.74,107.52L267.70,107.23"/><path d="M267.78,107.06L267.77,107.07"/><path d="M267.74,107.52L267.74,107.52"/></g><g style="stroke:#000000;stroke-width:0.529"><path d="M265.47,107.49L265.44,107.43L265.41,107.28L265.41,107.11L265.44,106.95L265.49,106.80L265.52,106.76"/><path d="M266.79,107.89L266.80,107.94L266.94,108.21L267.12,108.38L267.33,108.43L267.41,108.44L267.62,108.39L267.82,108.22L268.02,108.04L268.15,107.83L268.23,107.55L268.25,107.47L268.27,107.28L268.26,107.09L268.25,106.96L268.18,106.70L268.06,106.50L267.88,106.27L267.69,106.13L267.50,106.10L267.29,106.12L267.08,106.26L266.91,106.51L266.89,106.56"/><path d="M266.79,107.89L266.31,107.85"/><path d="M266.89,106.56L266.41,106.52"/></g></g><g id="Actor_.27"><g style="stroke:#000000;stroke-width:0.176"><path d="M213.91,100.15L213.96,100.19L214.08,100.22L214.13,100.20"/><path d="M214.07,100.82L213.83,100.77L213.62,100.58L213.47,100.27L213.39,99.87L213.39,99.43L213.47,99.00L213.41,99.00"/><path d="M214.01,98.87L214.01,98.86L214.14,98.83L214.26,98.87"/><path d="M214.18,98.22L213.94,98.29L213.71,98.50L213.53,98.82L213.79,99.15"/><path d="M213.53,98.82L213.25,98.80"/><path d="M213.47,99.00L213.63,99.14"/></g><g style="stroke:#000000;stroke-width:0.529"><path d="M213.93,100.14L213.91,100.15L213.84,100.09L213.76,99.92L213.72,99.71L213.72,99.47L213.76,99.25L213.63,99.14L213.79,99.15L213.89,98.98L214.01,98.87L214.03,98.89"/><path d="M214.76,98.91L214.75,98.86L214.61,98.53L214.41,98.30L214.18,98.22L213.90,98.20L213.66,98.27L213.43,98.48L213.25,98.80L213.41,99.00L213.19,98.98L213.11,99.41L213.11,99.85L213.19,100.25L213.35,100.56L213.56,100.75L213.80,100.80L214.07,100.82L214.31,100.72L214.53,100.48L214.65,100.24"/></g></g><g id="Actor_.28"><g style="stroke:#000000;stroke-width:0.176"><path d="M265.46,240.05L265.45,239.90L265.48,239.69L265.49,239.66"/><path d="M265.46,240.12L265.46,240.12L265.46,240.11"/><path d="M267.66,238.87L267.45,238.87L267.24,239.00L267.19,239.06L267.06,239.24L267.02,239.32L266.93,239.57L266.86,239.94L266.86,240.33L266.93,240.68L267.06,240.96L267.24,241.13L267.45,241.19"/><path d="M267.15,241.15L267.15,241.15"/><path d="M266.89,239.31L266.88,239.31L266.77,239.65L266.72,240.03L266.73,240.41L266.79,240.63"/><path d="M267.66,241.12L267.66,241.12"/><path d="M267.71,239.71L267.67,239.83L267.63,240.02L267.63,240.21L267.67,240.38L267.73,240.52L267.82,240.61L267.92,240.64L268.03,240.61L268.13,240.51L268.21,240.37L268.26,240.19"/><path d="M268.27,240.00L268.26,239.82L268.21,239.66L268.13,239.54L268.03,239.48L267.92,239.48L267.82,239.55L267.73,239.67"/><path d="M267.78,239.87L267.77,239.82L267.85,239.65L268.13,239.67L268.21,240.12L267.82,240.09L267.78,239.87L267.77,239.82L267.77,239.82L267.70,239.97L267.79,239.95L267.78,239.87"/><path d="M267.77,239.82L267.77,239.82"/><path d="M268.21,240.12L268.03,240.50L267.77,240.44L267.74,240.27L267.82,240.09"/><path d="M267.74,240.27L267.74,240.27L267.76,240.22L267.79,240.09L267.79,239.95"/><path d="M268.13,239.67L267.87,239.61L267.85,239.65"/><path d="M267.74,240.27L267.69,240.00L267.70,239.97"/></g><g style="stroke:#000000;stroke-width:0.529"><path d="M265.53,239.50L265.48,239.58L265.43,239.73L265.41,239.89L265.41,240.06L265.45,240.20L265.47,240.25"/><path d="M266.89,239.31L267.05,239.04L267.25,238.88L267.47,238.85L267.66,238.87L267.85,238.99L268.04,239.23L268.16,239.41L268.24,239.66L268.27,240.00L268.26,240.19L268.24,240.26L268.16,240.53L268.04,240.76L267.89,240.91L267.66,241.12L267.45,241.19L267.15,241.15L266.96,241.00L266.82,240.74L266.79,240.63"/><path d="M266.79,240.63L266.31,240.60"/><path d="M266.89,239.31L266.41,239.27"/></g></g><g id="Actor_.29"><g style="stroke:#000000;stroke-width:0.176"><path d="M213.78,248.29L213.74,248.44L213.73,248.66L213.74,248.79"/><path d="M215.79,249.87L215.58,249.85L215.39,249.71L215.24,249.46L215.15,249.12L215.13,248.75L215.18,248.37L215.26,248.10L215.29,248.02L215.46,247.75L215.66,247.58L215.87,247.54"/><path d="M215.97,248.44L215.93,248.57L215.90,248.76L215.92,248.95L215.96,249.11L216.03,249.24L216.13,249.31L216.23,249.32L216.34,249.27L216.43,249.16L216.50,249.00"/><path d="M215.17,247.99L215.12,248.09L215.02,248.45L214.99,248.83L215.03,249.20L215.07,249.32"/><path d="M215.98,248.40L216.07,248.26L216.17,248.18L216.27,248.16L216.38,248.20L216.46,248.30L216.52,248.44L216.55,248.62"/><path d="M216.10,248.72L216.49,248.75L216.33,249.16L216.07,249.14L216.02,248.95L216.02,248.93L216.02,248.94L215.96,248.73L216.01,248.61L216.07,248.59L216.05,248.51L216.10,248.72L216.02,248.93L216.05,248.86L216.07,248.73L216.07,248.59"/><path d="M216.33,249.16L216.07,249.15L216.07,249.14"/><path d="M216.05,248.51L216.05,248.50L216.12,248.32L216.39,248.33L216.49,248.75"/><path d="M216.05,248.50L216.01,248.61"/><path d="M216.02,248.95L216.02,248.94"/></g><g style="stroke:#000000;stroke-width:0.529"><path d="M213.93,248.03L213.99,247.96"/><path d="M213.81,248.17L213.80,248.18L213.74,248.30L213.70,248.46L213.68,248.63L213.70,248.79L213.74,248.92"/><path d="M215.07,249.32L215.14,249.52L215.30,249.74L215.49,249.85L215.79,249.87L216.00,249.76L216.21,249.55L216.36,249.38L216.47,249.13L216.50,249.00L216.54,248.82L216.55,248.62L216.54,248.54L216.50,248.26L216.41,248.03L216.24,247.82L216.07,247.62L215.87,247.54L215.68,247.53L215.47,247.60L215.27,247.80L215.17,247.99"/><path d="M215.07,249.32L214.57,249.28"/><path d="M215.17,247.99L214.68,247.95"/></g></g><g id="Actor_.30"><g style="stroke:#000000;stroke-width:0.176"><path d="M207.58,21.10L207.57,21.11L207.53,21.32L207.52,21.54L207.54,21.65"/><path d="M209.42,22.70L209.22,22.59L209.06,22.36L208.96,22.04L208.92,21.67L208.95,21.29L209.05,20.93L209.16,20.71L209.20,20.64L209.40,20.45L209.61,20.37"/><path d="M208.86,22.16L208.84,22.12L208.78,21.76L208.80,21.37L208.88,21.01L208.96,20.83"/><path d="M209.82,21.16L209.76,21.27L209.71,21.45L209.69,21.64L209.71,21.83L209.77,21.99L209.85,22.10L209.94,22.16L210.05,22.15L210.15,22.08L210.24,21.96L210.31,21.79"/><path d="M209.86,21.53L209.78,21.53L209.77,21.45L209.84,21.34L209.85,21.40L209.86,21.44L209.88,21.68L209.80,21.80L209.80,21.80L209.80,21.79L209.84,21.67L209.86,21.53L209.86,21.44L209.85,21.32L209.91,21.22L210.23,21.24L210.27,21.71L209.88,21.68"/><path d="M209.80,21.80L209.81,21.91L210.06,22.04L210.27,21.71"/><path d="M209.80,21.80L209.78,21.53"/><path d="M209.63,22.69L209.63,22.69"/><path d="M210.34,21.42L210.30,21.24L210.23,21.10L210.14,21.02L210.04,20.99L209.93,21.03L209.84,21.13"/><path d="M209.91,21.22L209.98,21.11L210.23,21.24"/><path d="M209.85,21.32L209.84,21.34"/></g><g style="stroke:#000000;stroke-width:0.529"><path d="M207.54,21.76L207.50,21.66L207.47,21.50L207.48,21.34L207.52,21.17L207.58,21.04L207.59,21.02"/><path d="M209.63,22.69L209.42,22.70L209.33,22.70L209.13,22.62L208.96,22.41L208.86,22.16"/><path d="M208.86,22.16L208.38,22.12"/><path d="M209.63,22.69L209.84,22.55L210.04,22.35L210.18,22.16L210.28,21.90L210.31,21.79L210.34,21.61L210.34,21.42L210.33,21.31L210.27,21.04L210.17,20.82L210.00,20.60L209.82,20.43L209.61,20.37L209.42,20.37L209.21,20.48L209.02,20.70L208.96,20.83L208.47,20.79"/></g></g><g><g/></g><g><g/></g><g><g/></g><g><g/></g><g><g/></g><g><g/></g><g><g/></g><g><g/></g><g><g/></g><g><g/></g><g><g/></g><g><g/></g><g><g/></g><g><g/></g><g><g/></g><g><g/></g><g><g/></g><g><g/></g><g><g/></g><g><g/></g><g><g/></g><g><g/></g><g><g/></g><g><g/></g><g><g/></g><g><g/></g><g><g/></g><g><g/></g><g><g/></g><g id="PMI321151-Bolt.0"><g><path style="stroke:#000000;stroke-width:0.250" d="M222.11,38.01L218.23,38.01L210.39,22.97"/></g><g><path style="fill:#000000" d="M211.39,22.97L211.39,22.88L211.37,22.78L211.35,22.68L211.31,22.59L211.27,22.50L211.22,22.42L211.16,22.34L211.10,22.27L211.03,22.20L210.95,22.14L210.86,22.09L210.77,22.05L210.68,22.02L210.59,21.99L210.49,21.98L210.39,21.97L210.29,21.98L210.20,21.99L210.10,22.02L210.01,22.05L209.92,22.09L209.84,22.14L209.76,22.20L209.68,22.27L209.62,22.34L209.56,22.42L209.51,22.50L209.47,22.59L209.43,22.68L209.41,22.78L209.40,22.88L209.39,22.97L209.40,23.07L209.41,23.17L209.43,23.26L209.47,23.36L209.51,23.45L209.56,23.53L209.62,23.61L209.68,23.68L209.76,23.75L209.84,23.81L209.92,23.86L210.01,23.90L210.10,23.93L210.20,23.95L210.29,23.97L210.39,23.97L210.49,23.97L210.59,23.95L210.68,23.93L210.77,23.90L210.86,23.86L210.95,23.81L211.03,23.75L211.10,23.68L211.16,23.61L211.22,23.53L211.27,23.45L211.31,23.36L211.35,23.26L211.37,23.17L211.39,23.07z"/></g><g><path style="fill:#ffffa0" d="M221.33,41.12L243.28,41.12L243.28,34.91L221.33,34.91z"/><path style="stroke:#000000;stroke-width:0.250;stroke-opacity:0.98" d="M221.33,41.12L243.28,41.12L243.28,34.91L221.33,34.91z"/><text xml:space="preserve" fill="#000000" stroke-width="0" x="222.11" y="39.37" font-size="3.77" opacity="1.00" font-family="MS Shell Dlg">321151-Bolt</text></g></g><g id="PMI364034-Lock Washer.0"><g><path style="stroke:#000000;stroke-width:0.250" d="M221.77,44.12L217.89,44.12L207.63,22.75"/></g><g><path style="fill:#000000" d="M208.63,22.75L208.63,22.65L208.61,22.55L208.59,22.46L208.55,22.36L208.51,22.27L208.46,22.19L208.40,22.11L208.34,22.04L208.26,21.97L208.19,21.91L208.10,21.86L208.01,21.82L207.92,21.79L207.83,21.76L207.73,21.75L207.63,21.75L207.53,21.75L207.44,21.76L207.34,21.79L207.25,21.82L207.16,21.86L207.07,21.91L207.00,21.97L206.92,22.04L206.86,22.11L206.80,22.19L206.75,22.27L206.71,22.36L206.67,22.46L206.65,22.55L206.64,22.65L206.63,22.75L206.64,22.84L206.65,22.94L206.67,23.04L206.71,23.13L206.75,23.22L206.80,23.30L206.86,23.38L206.92,23.45L207.00,23.52L207.07,23.58L207.16,23.63L207.25,23.67L207.34,23.70L207.44,23.73L207.53,23.74L207.63,23.75L207.73,23.74L207.83,23.73L207.92,23.70L208.01,23.67L208.10,23.63L208.19,23.58L208.26,23.52L208.34,23.45L208.40,23.38L208.46,23.30L208.51,23.22L208.55,23.13L208.59,23.04L208.61,22.94L208.63,22.84z"/></g><g><path style="fill:#ffffa0" d="M220.99,47.23L258.54,47.23L258.54,41.02L220.99,41.02z"/><path style="stroke:#000000;stroke-width:0.250;stroke-opacity:0.98" d="M220.99,47.23L258.54,47.23L258.54,41.02L220.99,41.02z"/><text xml:space="preserve" fill="#000000" stroke-width="0" x="221.77" y="45.48" font-size="3.79" opacity="1.00" font-family="MS Shell Dlg">364034-Lock Washer</text></g></g><g id="PMI67369-Cover.0"><g><path style="stroke:#000000;stroke-width:0.250" d="M187.15,70.60L183.27,70.60L158.10,89.91"/></g><g><path style="fill:#000000" d="M159.10,89.91L159.09,89.81L159.08,89.72L159.05,89.62L159.02,89.53L158.98,89.44L158.93,89.36L158.87,89.28L158.80,89.20L158.73,89.14L158.65,89.08L158.57,89.03L158.48,88.99L158.39,88.95L158.29,88.93L158.19,88.92L158.10,88.91L158.00,88.92L157.90,88.93L157.81,88.95L157.71,88.99L157.62,89.03L157.54,89.08L157.46,89.14L157.39,89.20L157.32,89.28L157.26,89.36L157.21,89.44L157.17,89.53L157.14,89.62L157.12,89.72L157.10,89.81L157.10,89.91L157.10,90.01L157.12,90.11L157.14,90.20L157.17,90.29L157.21,90.38L157.26,90.47L157.32,90.55L157.39,90.62L157.46,90.68L157.54,90.74L157.62,90.79L157.71,90.84L157.81,90.87L157.90,90.89L158.00,90.91L158.10,90.91L158.19,90.91L158.29,90.89L158.39,90.87L158.48,90.84L158.57,90.79L158.65,90.74L158.73,90.68L158.80,90.62L158.87,90.55L158.93,90.47L158.98,90.38L159.02,90.29L159.05,90.20L159.08,90.11L159.09,90.01z"/></g><g><path style="fill:#ffffa0" d="M186.37,73.70L209.78,73.70L209.78,67.49L186.37,67.49z"/><path style="stroke:#000000;stroke-width:0.250;stroke-opacity:0.98" d="M186.37,73.70L209.78,73.70L209.78,67.49L186.37,67.49z"/><text xml:space="preserve" fill="#000000" stroke-width="0" x="187.15" y="71.96" font-size="3.78" opacity="1.00" font-family="MS Shell Dlg">67369-Cover</text></g></g><g id="PMI67394-Cover.0"><g><path style="stroke:#000000;stroke-width:0.250" d="M31.42,112.98L44.79,165.56"/></g><g><path style="fill:#000000" d="M45.79,165.56L45.79,165.47L45.77,165.37L45.75,165.27L45.71,165.18L45.67,165.09L45.62,165.01L45.56,164.93L45.50,164.86L45.42,164.79L45.35,164.73L45.26,164.68L45.17,164.64L45.08,164.61L44.99,164.58L44.89,164.57L44.79,164.56L44.69,164.57L44.59,164.58L44.50,164.61L44.41,164.64L44.32,164.68L44.23,164.73L44.16,164.79L44.08,164.86L44.02,164.93L43.96,165.01L43.91,165.09L43.87,165.18L43.83,165.27L43.81,165.37L43.79,165.47L43.79,165.56L43.79,165.66L43.81,165.76L43.83,165.85L43.87,165.95L43.91,166.04L43.96,166.12L44.02,166.20L44.08,166.27L44.16,166.34L44.23,166.40L44.32,166.45L44.41,166.49L44.50,166.52L44.59,166.55L44.69,166.56L44.79,166.56L44.89,166.56L44.99,166.55L45.08,166.52L45.17,166.49L45.26,166.45L45.35,166.40L45.42,166.34L45.50,166.27L45.56,166.20L45.62,166.12L45.67,166.04L45.71,165.95L45.75,165.85L45.77,165.76L45.79,165.66z"/></g><g><path style="fill:#ffffa0" d="M19.72,113.75L43.13,113.75L43.13,107.55L19.72,107.55z"/><path style="stroke:#000000;stroke-width:0.250;stroke-opacity:0.98" d="M19.72,113.75L43.13,113.75L43.13,107.55L19.72,107.55z"/><text xml:space="preserve" fill="#000000" stroke-width="0" x="20.50" y="112.01" font-size="3.78" opacity="1.00" font-family="MS Shell Dlg">67394-Cover</text></g></g><g/><g><g/><g><image x="0.373355" y="-0.373358" height="25.000000" width="25.000000" xlink:href="PT-L-Covers_files/8bc6013dc31da7f5_image_0.jpg" mask="url(#mask0)"/></g></g><g><g/><g><image x="0.000000" y="254.000015" height="25.000000" width="25.000000" xlink:href="PT-L-Covers_files/8bc6013dc31da7f5_image_1.jpg" mask="url(#mask1)"/></g></g><g><g/><g><image x="407.373352" y="254.000015" height="25.000000" width="25.000000" xlink:href="PT-L-Covers_files/8bc6013dc31da7f5_image_2.jpg" mask="url(#mask2)"/></g></g><g><g/><g><image x="407.000000" y="0.000000" height="25.000000" width="25.000000" xlink:href="PT-L-Covers_files/8bc6013dc31da7f5_image_3.jpg" mask="url(#mask3)"/></g></g><g><g/><g><path style="stroke:#000000;stroke-width:0.125;fill:#ffffff" d="M240.83,8.20L355.89,8.20L355.89,25.13L240.83,25.13z"/><text xml:space="preserve" fill="#000000" stroke-width="0" x="242.95" y="19.84" font-size="10.31" opacity="1.00" font-family="MS Shell Dlg">Power Train Left Covers</text></g></g><g/><g id="paperID" visibility="hidden" opacity="0.00" transform="scale(0.000100)"><path style="stroke:#000000;stroke-width:0.500;fill:#e6e6e6;fill-rule:evenodd" d="M-2000.00,-2000.00L2432.00,-2000.00L2432.00,2279.00L-2000.00,2279.00zM0.00,0.00L432.00,0.00L432.00,279.00L0.00,279.00z"/><path style="fill:#000000;fill-opacity:0.118" d="M3.00,279.00L432.00,279.00L432.00,3.00L435.00,3.00L435.00,282.00L3.00,282.00z"/></g><g><g><path style="stroke:#000000;stroke-width:0.353;fill:#f0f0ff" d="M335.53,122.43L427.43,122.43L427.43,128.85L335.53,128.85z"/><text xml:space="preserve" fill="#000000" stroke-width="0" x="338.00" y="127.37" font-size="4.62" opacity="1.00" font-family="MS Shell Dlg" font-weight="bold">Description</text><text xml:space="preserve" fill="#000000" stroke-width="0" x="366.88" y="127.37" font-size="4.63" opacity="1.00" font-family="MS Shell Dlg" font-weight="bold">BOM ID</text><text xml:space="preserve" fill="#000000" stroke-width="0" x="417.64" y="127.37" font-size="4.58" opacity="1.00" font-family="MS Shell Dlg" font-weight="bold">Qty</text><path style="stroke:#000000;stroke-width:0.353" d="M364.42,122.43L364.42,128.85"/><path style="stroke:#000000;stroke-width:0.353" d="M415.17,122.43L415.17,128.85"/></g><g id="Line67369-Cover"><path style="stroke:#000000;stroke-width:0.353;fill:#ffffff" d="M335.53,128.85L427.43,128.85L427.43,135.27L335.53,135.27z"/><text xml:space="preserve" fill="#000000" stroke-width="0" x="338.00" y="133.79" font-size="4.77" opacity="1.00" font-family="MS Shell Dlg">67369</text><text xml:space="preserve" fill="#000000" stroke-width="0" x="366.88" y="133.79" font-size="4.81" opacity="1.00" font-family="MS Shell Dlg">67369-Cover</text><text xml:space="preserve" fill="#000000" stroke-width="0" x="417.64" y="133.79" font-size="3.88" opacity="1.00" font-family="MS Shell Dlg">1</text><path style="stroke:#000000;stroke-width:0.353" d="M364.42,128.85L364.42,135.27"/><path style="stroke:#000000;stroke-width:0.353" d="M415.17,128.85L415.17,135.27"/></g><g id="Line67394-Cover"><path style="stroke:#000000;stroke-width:0.353;fill:#f0f0ff" d="M335.53,135.27L427.43,135.27L427.43,141.69L335.53,141.69z"/><text xml:space="preserve" fill="#000000" stroke-width="0" x="338.00" y="140.21" font-size="4.77" opacity="1.00" font-family="MS Shell Dlg">67394</text><text xml:space="preserve" fill="#000000" stroke-width="0" x="366.88" y="140.21" font-size="4.81" opacity="1.00" font-family="MS Shell Dlg">67394-Cover</text><text xml:space="preserve" fill="#000000" stroke-width="0" x="417.64" y="140.21" font-size="4.58" opacity="1.00" font-family="MS Shell Dlg">2</text><path style="stroke:#000000;stroke-width:0.353" d="M364.42,135.27L364.42,141.69"/><path style="stroke:#000000;stroke-width:0.353" d="M415.17,135.27L415.17,141.69"/></g><g id="Line321151-Bolt"><path style="stroke:#000000;stroke-width:0.353;fill:#ffffff" d="M335.53,141.69L427.43,141.69L427.43,148.11L335.53,148.11z"/><text xml:space="preserve" fill="#000000" stroke-width="0" x="338.00" y="146.62" font-size="4.79" opacity="1.00" font-family="MS Shell Dlg">321151</text><text xml:space="preserve" fill="#000000" stroke-width="0" x="366.88" y="146.62" font-size="4.80" opacity="1.00" font-family="MS Shell Dlg">321151-Bolt</text><text xml:space="preserve" fill="#000000" stroke-width="0" x="417.64" y="146.62" font-size="4.37" opacity="1.00" font-family="MS Shell Dlg">14</text><path style="stroke:#000000;stroke-width:0.353" d="M364.42,141.69L364.42,148.11"/><path style="stroke:#000000;stroke-width:0.353" d="M415.17,141.69L415.17,148.11"/></g><g id="Line364034-Lock Washer"><path style="stroke:#000000;stroke-width:0.353;fill:#f0f0ff" d="M335.53,148.11L427.43,148.11L427.43,154.53L335.53,154.53z"/><text xml:space="preserve" fill="#000000" stroke-width="0" x="338.00" y="153.04" font-size="4.79" opacity="1.00" font-family="MS Shell Dlg">364034</text><text xml:space="preserve" fill="#000000" stroke-width="0" x="366.88" y="153.04" font-size="4.83" opacity="1.00" font-family="MS Shell Dlg">364034-Lock Washer</text><text xml:space="preserve" fill="#000000" stroke-width="0" x="417.64" y="153.04" font-size="4.37" opacity="1.00" font-family="MS Shell Dlg">14</text><path style="stroke:#000000;stroke-width:0.353" d="M364.42,148.11L364.42,154.53"/><path style="stroke:#000000;stroke-width:0.353" d="M415.17,148.11L415.17,154.53"/></g></g><g id="hotspot.0" onmouseover="ShowHotSpot(evt,'0')" onmouseout="HideHotSpot(evt,'0')" onmousemove="ShowToolTip(evt,'0',&quot;Forward&quot;)" opacity="0"><a xlink:href="javascript:history.go(1)"><path style="fill:#00ff00;fill-rule:evenodd" d="M431.64,278.56L407.40,278.56L407.40,253.98L431.64,253.98z"/></a></g><g id="hotspot.1" onmouseover="ShowHotSpot(evt,'1')" onmouseout="HideHotSpot(evt,'1')" onmousemove="ShowToolTip(evt,'1',&quot;Order&quot;)" opacity="0"><a xlink:href="https://www.mitek-us.com/resources/machinery/Find-and-Order-Parts/" target="_blank"><path style="fill:#00ff00;fill-rule:evenodd" d="M431.64,25.02L407.06,25.02L407.06,0.44L431.64,0.44z"/></a></g><g id="hotspot.2" onmouseover="ShowHotSpot(evt,'2')" onmouseout="HideHotSpot(evt,'2')" onmousemove="ShowToolTip(evt,'2',&quot;Home&quot;)" opacity="0"><a xlink:href="./RT-Overview.svg"><path style="fill:#00ff00;fill-rule:evenodd" d="M25.36,24.68L0.44,24.68L0.44,0.44L25.36,0.44z"/></a></g><g id="hotspot.3" onmouseover="ShowHotSpot(evt,'3')" onmouseout="HideHotSpot(evt,'3')" onmousemove="ShowToolTip(evt,'3',&quot;Back&quot;)" opacity="0"><a xlink:href="javascript:history.go(-1)"><path style="fill:#00ff00;fill-rule:evenodd" d="M25.02,278.56L0.44,278.56L0.44,253.98L25.02,253.98z"/></a></g><g id="hotspot.4" onmouseover="ShowHotSpot(evt,'4')" onmouseout="HideHotSpot(evt,'4')" onmousemove="ShowToolTip(evt,'4',&quot;Hex&quot;)" opacity="0"><path style="fill:#00ff00;fill-rule:evenodd" d="M335.53,141.69L335.53,148.11L427.43,148.11L427.43,141.69zM210.58,21.92L211.40,22.50L211.02,24.30L209.66,23.52L208.94,22.20L208.28,21.81L208.27,20.95L209.21,20.44L209.97,20.46zM121.44,36.43L121.44,37.22L121.03,37.92L120.02,37.82L119.36,37.44L119.24,36.46L120.75,35.74zM218.33,38.13L221.20,37.91L221.40,35.06L243.26,35.06L243.26,41.31L221.40,41.31L221.20,38.45zM216.46,98.83L216.33,100.61L215.35,100.68L215.04,100.28L213.94,100.01L213.93,98.88L216.12,98.49zM266.40,107.98L266.21,106.71L268.02,106.31L268.03,108.18zM222.24,114.45L222.24,115.64L221.83,116.33L221.12,116.31L220.41,115.60L220.39,114.52L221.89,114.10zM114.98,116.48L114.83,118.27L113.97,118.23L113.14,117.64L113.14,116.55L114.64,116.14zM108.89,134.15L108.87,135.32L108.15,136.05L106.80,135.17L106.79,134.32L107.71,133.81L108.52,133.78zM62.71,141.94L62.56,143.73L61.70,143.69L60.85,143.08L60.85,142.37L61.90,141.62L62.35,141.58zM266.22,240.51L266.21,239.42L268.01,239.03L268.01,240.88L267.59,241.17L267.04,241.09zM222.23,247.16L222.10,248.93L221.11,249.01L220.11,247.90L220.14,247.33L221.89,246.81zM216.47,247.84L216.33,249.61L215.08,249.60L214.72,249.24L214.62,248.26L215.65,247.51L216.11,247.48zM114.98,265.49L114.83,267.27L113.97,267.23L113.13,266.64L113.24,265.66L114.63,265.14zM108.65,266.73L108.88,268.02L108.14,268.76L106.80,267.89L106.74,267.34L107.71,266.50zM62.71,274.65L62.57,276.43L61.33,276.41L60.97,276.05L60.87,275.08L62.34,274.28z"/></g><g id="hotspot.5" onmouseover="ShowHotSpot(evt,'5')" onmouseout="HideHotSpot(evt,'5')" onmousemove="ShowToolTip(evt,'5',&quot;364034&quot;)" opacity="0"><path style="fill:#00ff00;fill-rule:evenodd" d="M335.53,148.11L335.53,154.53L427.43,154.53L427.43,148.11zM209.00,20.43L208.11,21.15L208.29,21.82L208.94,22.17L208.31,24.32L206.92,23.54L206.94,21.96L207.58,21.58L208.20,20.11L208.66,20.09zM120.17,35.96L119.24,36.47L119.37,37.44L120.05,37.81L118.92,37.91L118.54,36.77L119.24,35.69zM217.99,44.24L220.86,44.02L221.06,41.17L258.53,41.17L258.53,47.42L221.06,47.42L220.86,44.56zM214.74,98.55L213.96,98.90L213.98,99.98L214.41,100.32L214.43,100.69L213.36,100.61L213.36,98.97L213.89,98.19zM267.06,106.32L266.23,106.71L266.26,107.80L266.63,108.09L266.59,108.39L266.01,108.41L265.65,108.06L265.60,106.42L265.89,105.99L266.71,105.97zM220.86,114.08L220.44,114.52L220.42,115.59L220.86,115.93L220.88,116.30L219.82,116.22L219.83,114.26L220.59,113.82zM113.97,116.15L113.15,116.55L113.17,117.63L113.61,117.97L113.61,118.35L112.83,118.37L112.52,117.94L112.57,116.31L113.14,115.81L113.64,115.82zM107.51,133.79L106.63,134.51L106.80,135.18L107.47,135.55L107.41,135.88L106.46,135.92L106.46,133.58L107.19,133.47zM61.71,141.78L60.84,142.37L60.88,143.07L61.34,143.42L61.35,143.79L60.29,143.71L60.25,142.06L60.54,141.65zM267.05,239.02L266.23,239.42L266.25,240.50L266.68,240.84L266.69,241.21L266.01,241.13L265.64,240.76L265.65,239.17L266.21,238.68L266.72,238.69zM220.17,247.34L220.10,247.90L220.87,248.63L220.88,249.01L219.82,248.93L219.82,246.95L220.84,246.83zM215.19,247.74L214.64,248.27L214.78,249.24L215.10,249.60L214.05,249.61L214.01,247.96L214.31,247.52zM113.96,265.15L113.26,265.66L113.16,266.62L113.61,266.97L113.62,267.34L112.56,267.26L112.57,265.31L113.14,264.81L113.64,264.82zM107.50,266.49L106.66,267.55L107.47,268.26L107.41,268.59L106.46,268.63L106.42,266.61L106.71,266.19L107.18,266.17zM61.71,274.67L60.87,275.07L61.03,276.05L61.35,276.41L60.29,276.42L60.26,274.77L60.55,274.34L61.36,274.32z"/></g><g id="hotspot.6" onmouseover="ShowHotSpot(evt,'6')" onmouseout="HideHotSpot(evt,'6')" onmousemove="ShowToolTip(evt,'6',&quot;1 (1) Diameter Hole1&quot;)" opacity="0"><path style="fill:#00ff00;fill-rule:evenodd" d="M335.53,128.85L335.53,135.27L427.43,135.27L427.43,128.85zM183.03,70.71L186.24,70.50L186.44,67.64L210.00,67.64L209.89,73.78L186.44,73.89L186.24,71.04zM180.25,5.75L180.33,111.57L181.83,111.77L181.81,247.31L181.05,247.58L78.97,265.31L74.77,265.66L74.78,130.10L75.92,129.89L76.15,23.54L82.93,22.18L180.12,5.52zM121.44,36.43L121.44,37.23L121.05,37.90L118.91,37.90L118.63,37.49L118.67,36.21L119.25,35.71L120.75,35.78zM114.99,116.49L114.83,118.27L112.82,118.36L112.53,117.94L112.57,116.30L113.13,115.82L113.57,115.83zM165.54,130.24L150.81,132.62L150.80,126.36L165.53,123.98zM108.53,133.81L108.89,134.15L108.87,135.32L108.37,135.90L106.49,135.89L106.10,135.19L105.78,140.40L91.17,143.13L91.08,136.90L91.73,136.53L105.85,134.25L106.34,133.86L106.67,133.45zM177.45,140.20L178.05,141.96L177.75,143.82L177.28,144.71L176.29,144.84L175.67,143.36L175.68,142.10L176.22,140.58L177.09,139.94z"/></g><g id="hotspot.7" onmouseover="ShowHotSpot(evt,'7')" onmouseout="HideHotSpot(evt,'7')" onmousemove="ShowToolTip(evt,'7',&quot;67394-body-1&quot;)" opacity="0"><path style="fill:#00ff00;fill-rule:evenodd" d="M335.53,135.27L335.53,141.69L427.43,141.69L427.43,135.27zM19.79,113.94L19.79,107.70L43.34,107.70L43.24,113.84L32.01,114.15L31.89,114.69L31.43,114.18zM32.24,116.08L31.89,114.69L32.09,114.85zM32.58,117.44L32.24,116.08L32.44,116.22zM32.92,118.80L32.58,117.44L32.78,117.58zM33.26,120.15L32.92,118.80L33.12,118.94zM33.60,121.51L33.26,120.15L33.46,120.30zM33.94,122.87L33.60,121.51L33.80,121.66zM34.27,124.24L33.94,122.87L34.14,123.01zM34.63,125.23L34.27,124.24L34.47,124.37zM34.96,126.60L34.63,125.23L34.82,125.38zM35.30,127.96L34.96,126.60L35.16,126.75zM35.64,129.32L35.30,127.96L35.49,128.10zM35.98,130.68L35.64,129.32L35.83,129.46zM36.32,132.03L35.98,130.68L36.17,130.82zM36.66,133.39L36.32,132.03L36.51,132.18zM37.00,134.75L36.66,133.39L36.85,133.53zM37.32,136.12L37.00,134.75L37.19,134.89zM39.15,136.22L72.41,130.46L74.23,130.44L74.23,265.66L42.99,271.08L24.21,274.16L24.30,255.78L25.02,254.47L25.89,253.98L28.96,253.31L29.75,251.05L29.76,226.16L29.15,224.74L28.75,224.44L25.00,224.47L24.30,223.47L24.21,138.93L37.12,136.57L37.32,136.12L37.54,136.26zM232.04,186.90L231.72,188.27L230.91,189.16L227.84,189.83L227.31,190.31L226.59,191.63L226.60,217.70L226.95,218.71L231.04,218.67L231.44,218.97L232.04,220.74L232.04,238.15L231.64,238.43L182.04,247.01L182.13,111.54L232.04,102.93zM231.03,104.80L230.57,104.80L230.57,103.94L231.03,103.94zM220.87,114.13L221.88,114.10L222.25,114.45L222.24,115.65L221.86,116.30L219.81,116.21L219.84,114.26L220.54,113.82zM25.68,140.44L25.23,140.44L25.23,139.58L25.68,139.58zM62.72,141.95L62.56,143.73L60.29,143.72L60.26,142.05L60.53,141.65L62.38,141.61zM231.07,237.51L230.71,237.87L230.71,236.74L231.07,236.69zM25.68,273.15L25.23,273.15L25.23,272.29L25.68,272.29z"/></g><g id="ToolTip" visibility="hidden" opacity="0" transform="translate(0,0)"><rect id="ToolTipShadow" opacity="0.20" fill="black" stroke="none" x="0" y="0" width="30" height="8"/><rect id="ToolTipBG" fill="#ffffe1" stroke="black" x="0" y="0" width="30" height="8"/><text xml:space="preserve" id="ToolTipText" fill="black" x="0" y="0" width="30" height="8">tooltip</text></g></g></svg>
