<?xml version="1.0" encoding="UTF-8" standalone="no"?>
<svg xmlns="http://www.w3.org/2000/svg" xmlns:xlink="http://www.w3.org/1999/xlink" width="432.000mm" height="279.000mm" viewBox="0.000000 0.000000 432.000000 279.000000" stroke-linejoin="round" stroke-linecap="round" fill="none" fill-rule="evenodd"><desc>Composer Export</desc><script type="text/ecmascript"><![CDATA[
if(typeof(top) != "undefined")
{
	top.ShowPaper = ShowPaper;
}
function ShowHotSpot(evt,hotspotid)
{
	var svgDocument = evt.target.ownerDocument;
	var strId = "hotspot."+hotspotid;
	var hotspot = svgDocument.getElementById(strId);
	if(hotspot)
		hotspot.setAttribute("opacity",".5");
}
function HideHotSpot(evt,hotspotid)
{
	var svgDocument = evt.target.ownerDocument;
	var strId = "hotspot."+hotspotid;
	var hotspot = svgDocument.getElementById(strId);
	if(hotspot)
		hotspot.setAttribute("opacity","0");

	var toolTip = svgDocument.getElementById('ToolTip');
	if(toolTip)
		toolTip.setAttribute("visibility","hidden");
}
function ShowToolTip(evt,hotspotid,strTooltip)
{
	if(strTooltip=="")
	return;

	// change text
	var svgDocument = evt.target.ownerDocument;
	var tiptext = svgDocument.getElementById('ToolTipText');
	if( !tiptext )
	return;
	tiptext.firstChild.nodeValue = " " + strTooltip + "  " ;

	// show tooltip before, else some refresh issue

	var toolTip = svgDocument.getElementById('ToolTip');
	if(!toolTip)
	return;

	toolTip.setAttribute("visibility","visible");
	toolTip.setAttribute("opacity",".95");

	// move tooltip
	// get viewbox

	var root = svgDocument.documentElement;
	var vbox = (root.getAttribute("viewBox")).split(' ');
	var x0 = parseFloat(vbox[0]);
	var y0 = parseFloat(vbox[1]);
	var vboxW = parseFloat(vbox[2]);
	var vboxH = parseFloat(vbox[3]);

	// get default width of svg

	var strW = root.getAttribute("width");
	var svgW = parseFloat(strW);
	if(strW.indexOf('mm') != -1)
	svgW *= 3.779;

	var strH = root.getAttribute("height");
	var svgH = parseFloat(strH);
	if(strH.indexOf('mm') != -1)
	svgH *= 3.779;  	// 96 dpi  -> 96/25.4 = 3.779

	// update the viewbox / width / height if svg is embedded in html with zoom fit all
	var realx0 = x0;
	var realy0 = y0;
	var realvboxW = vboxW;
	var realvboxH = vboxH;
	var realsvgW = svgW;
	var realsvgH = svgH;

	if ((typeof(top) == "undefined") || (typeof(top.svgctl1) != "undefined")) // embedded in html
	{
		// get window size in pxl

		svgW = window.innerWidth;
		svgH = window.innerHeight;

		// calculate real viewbox

		realsvgW = svgW;
		realsvgH = svgH;
		if((svgW / svgH) > (vboxW / vboxH))
		{
			realvboxW = (vboxH * svgW) / svgH;
			realvboxH = vboxH;
			realx0 = x0 - (realvboxW - vboxW)/2 ;
		}
		else
		{
			realvboxH = (vboxW * svgH) / svgW;
			realvboxW = vboxW;
			realy0 = y0 - (realvboxH - vboxH)/2 ;
		}
	}

	// get user zoom/pan

	var newScale = root.currentScale;
	var translation = root.currentTranslate;

	// transform pxl to user unit

	var xPos = (((evt.clientX+10- translation.x)/newScale) * realvboxW)/realsvgW  + realx0 ;
	var yPos = (((evt.clientY+5- translation.y)/newScale) * realvboxH)/ realsvgH  + realy0 ;
	var scaleForWidth = ( (1 / newScale) * realvboxH) / realsvgH;

	// move tooltip

	toolTip.setAttribute("transform", "translate(" + xPos + "," + yPos + ")" );

	// resize tooltip

	var fontsize = 12;
	tiptext.setAttribute("font-size",fontsize*scaleForWidth);
	tiptext.setAttribute("y", fontsize*scaleForWidth);
	var tipBG = svgDocument.getElementById('ToolTipBG');
	var outline = tiptext.getBBox();
	if(tipBG)
	{
		tipBG.setAttribute("stroke-width", 1*scaleForWidth);
		tipBG.setAttribute("width", Number(outline.width) );
		tipBG.setAttribute("height", Number(outline.height) + fontsize*.5*scaleForWidth );
	}
	var ToolTipShadow = svgDocument.getElementById('ToolTipShadow');
	if(ToolTipShadow)
	{
		ToolTipShadow.setAttribute("width", Number(outline.width) );
		ToolTipShadow.setAttribute("height", Number(outline.height) + fontsize*.5*scaleForWidth );
		ToolTipShadow.setAttribute("x", 3*scaleForWidth);
		ToolTipShadow.setAttribute("y", 3*scaleForWidth);
	}
}
function ShowPaper()
{
  var svgDocument = getDocument();
  var paper = svgDocument.getElementById("paperID");
  if(paper)
  {
    paper.setAttribute("transform","scale(1)");
    paper.setAttribute("opacity","1");
    paper.setAttribute("visibility","visible");
  }
  var svg = svgDocument.getRootElement();
  if(svg)
  {
    svg.setAttribute("width","442.000mm");
    svg.setAttribute("height","289.000mm");
    svg.setAttribute("viewBox","-5.000000 -5.000000 442.000000 289.000000");
  }
}
]]></script><defs><mask id="mask0" x="0" y="0" height="100%" width="100%"><image x="0.373355" y="-0.373358" height="25.000000" width="25.000000" xlink:href="Take-Up-Bearing_files/a2223e682a785204_mask_0.jpg"/></mask><mask id="mask1" x="0" y="0" height="100%" width="100%"><image x="0.000000" y="254.000015" height="25.000000" width="25.000000" xlink:href="Take-Up-Bearing_files/a2223e682a785204_mask_1.jpg"/></mask><mask id="mask2" x="0" y="0" height="100%" width="100%"><image x="407.373352" y="254.000015" height="25.000000" width="25.000000" xlink:href="Take-Up-Bearing_files/a2223e682a785204_mask_2.jpg"/></mask><mask id="mask3" x="0" y="0" height="100%" width="100%"><image x="407.000000" y="0.000000" height="25.000000" width="25.000000" xlink:href="Take-Up-Bearing_files/a2223e682a785204_mask_3.jpg"/></mask></defs><g><path style="fill:#ffffff" d="M431.86,278.85L0.07,278.85L0.07,0.07L431.86,0.07z"/><path style="fill:#c9d0ef" d="M106.25,143.58L107.52,147.58L108.79,149.82L109.61,150.30L109.79,150.55L111.56,151.57L113.88,152.26L114.57,152.52L115.37,152.82L116.14,152.95L119.06,153.59L122.15,153.82L128.26,153.84L133.10,153.16L137.12,151.92L139.15,150.94L142.39,148.41L142.52,148.23L143.18,148.23L144.23,148.79L144.93,148.99L145.98,149.55L146.76,149.74L146.91,150.05L146.67,150.67L143.06,153.10L137.31,155.11L132.35,155.93L127.50,156.34L127.41,169.00L121.63,168.99L121.81,156.58L121.25,156.58L110.45,160.12L110.20,203.11L111.04,202.84L119.73,192.97L130.38,185.61L136.04,184.20L138.98,182.83L140.12,182.68L149.67,183.18L151.93,184.21L149.66,184.20L142.55,183.94L132.27,187.45L122.23,194.47L120.48,196.49L113.94,203.99L100.17,208.78L99.58,273.87L97.74,273.24L94.40,271.81L94.26,268.19L83.52,263.56L83.97,198.25L79.35,199.75L79.18,206.60L78.76,265.05L73.33,262.78L73.83,197.49L87.86,192.71L89.48,190.81L89.75,155.26L89.75,151.49L101.16,147.56L102.63,144.52L106.06,142.23z"/><path style="fill:#c6c1bc" d="M140.89,17.64L142.28,19.06L142.42,20.98L141.94,22.26L140.62,23.99L138.79,27.67L137.61,27.68L133.36,26.67L128.26,26.68L125.50,27.17L119.81,29.26L119.31,42.80L118.75,43.00L115.95,43.23L118.31,43.73L121.82,44.23L130.02,44.23L135.36,43.46L134.03,44.23L129.59,47.32L129.35,61.13L125.50,61.79L121.64,62.01L119.31,61.79L115.61,60.93L114.54,60.29L111.02,58.77L110.61,58.75L109.80,58.26L109.02,57.28L108.01,55.28L107.01,51.76L107.03,37.95L106.79,37.69L106.76,23.48L108.70,19.66L110.02,17.96L111.71,16.64L114.57,15.54L114.78,21.17L115.31,21.90L117.05,22.91L120.05,23.92L123.82,24.42L126.92,24.53L131.79,23.93L134.86,22.74L136.37,21.49L136.88,20.50L137.01,15.80L137.35,15.88z"/><path style="fill:#c6c1bc" d="M136.87,125.50L139.91,127.22L140.91,128.24L141.53,129.42L141.38,130.60L141.38,131.51L142.68,132.69L143.16,134.21L139.87,134.02L136.53,134.52L133.02,136.03L128.77,139.05L128.59,152.67L128.29,152.88L125.33,153.42L122.15,153.82L119.06,153.59L116.14,152.95L115.37,152.82L114.57,152.52L114.53,152.36L113.88,152.26L111.78,151.09L110.03,150.31L109.61,150.30L108.79,149.82L107.52,147.58L106.25,143.58L106.06,142.23L106.27,132.10L106.52,129.35L110.70,126.25L113.59,124.92L113.77,130.53L114.06,131.00L115.04,131.78L117.54,133.04L121.07,133.78L126.17,133.89L128.76,133.78L132.29,133.04L134.64,131.88L135.88,130.36L135.99,125.18z"/><path style="fill:#b4bbd7" d="M121.63,168.99L121.23,169.16L121.07,173.24L120.94,185.62L120.99,188.31L122.31,188.03L129.43,185.66L130.38,185.61L119.73,192.97L111.04,202.84L110.20,203.11L110.45,160.12L121.25,156.58L121.81,156.58z"/><path style="fill:#c9d0ef" d="M129.43,185.66L122.31,188.03L120.99,188.31L120.94,185.62L121.14,185.67z"/><path style="fill:#b2adaa" d="M143.16,134.21L143.28,137.19L143.24,144.91L140.13,143.53L139.55,143.53L139.04,143.81L138.36,144.63L138.34,146.10L138.95,146.54L139.66,146.73L140.72,147.29L141.42,147.49L142.48,148.04L142.52,148.23L142.39,148.41L139.15,150.94L137.12,151.92L133.10,153.16L128.26,153.84L122.15,153.82L125.33,153.42L128.29,152.88L128.59,152.67L128.77,139.05L133.02,136.03L136.53,134.52L139.87,134.02z"/><path style="fill:#b2adaa" d="M139.89,174.39L139.04,174.39L138.11,175.48L138.12,176.92L139.97,177.89L140.67,178.09L141.72,178.64L142.42,178.82L142.73,179.15L142.66,180.03L139.98,182.07L138.98,182.83L136.04,184.20L130.38,185.61L129.43,185.66L121.14,185.67L124.50,185.45L128.27,184.71L128.59,170.98L131.68,168.60L137.56,167.66L141.95,166.24L142.92,166.31L142.92,175.59L141.64,175.16z"/><path style="fill:#868c8c" d="M129.84,5.10L133.61,6.11L136.35,7.85L136.52,8.26L136.38,9.46L135.86,10.23L135.87,10.99L134.36,11.96L131.28,12.88L127.25,13.37L126.92,24.53L123.82,24.42L120.05,23.92L117.05,22.91L115.31,21.90L114.78,21.17L114.57,15.54L114.80,8.20L116.55,6.68L118.98,5.60L123.24,4.85L128.34,4.85z"/><path style="fill:#868c8c" d="M115.61,60.93L119.31,61.79L121.64,62.01L126.67,62.26L126.17,133.89L121.07,133.78L117.54,133.04L115.04,131.78L114.06,131.00L113.77,130.53L113.59,124.92L114.19,60.69z"/><path style="fill:#c6c1bc" d="M81.27,117.20L79.84,117.97L78.91,119.55L78.52,122.08L77.19,121.47L76.90,121.00L76.90,118.79L77.94,117.07L78.84,116.45L79.68,116.46z"/><path style="fill:#b4bbd7" d="M147.79,150.25L147.84,150.40L148.49,150.45L149.55,151.00L149.60,151.16L150.24,151.20L151.30,151.75L151.35,151.91L152.00,151.95L153.06,152.51L153.11,152.66L153.76,152.71L154.81,153.26L154.86,153.41L155.51,153.45L156.09,153.74L156.39,154.13L157.27,154.21L157.84,154.50L158.14,154.88L159.03,154.96L159.54,155.25L159.37,155.35L159.19,166.47L159.07,180.86L159.03,182.55L148.66,178.19L148.18,177.85L148.41,176.00L148.40,160.33L147.84,160.35L146.66,163.22L142.73,165.99L141.95,166.24L137.56,167.66L131.68,168.60L127.41,169.00L127.50,156.34L132.35,155.93L137.31,155.11L143.06,153.10L146.67,150.67L146.91,150.05L146.76,149.74z"/><path style="fill:#b4bbd7" d="M147.04,180.85L147.09,181.00L147.74,181.05L148.79,181.60L148.84,181.76L149.49,181.80L150.55,182.36L150.60,182.51L151.25,182.56L152.30,183.11L152.35,183.26L153.00,183.30L153.58,183.59L153.88,183.98L154.76,184.05L155.34,184.35L155.64,184.73L156.52,184.81L157.09,185.10L157.39,185.48L158.27,185.56L158.85,185.83L159.01,186.18L158.93,187.03L158.37,187.21L160.69,188.48L162.52,188.06L163.47,189.70L164.46,190.24L165.90,189.98L167.21,189.28L167.97,187.54L168.30,186.16L174.52,184.10L174.24,237.95L173.99,249.24L160.87,253.67L158.84,255.66L153.20,262.06L152.07,263.44L142.06,270.48L131.78,274.01L124.83,273.74L121.55,273.50L112.57,269.73L101.18,273.50L99.58,273.87L100.17,208.78L113.94,203.99L120.48,196.49L122.23,194.47L132.27,187.45L142.55,183.94L149.66,184.20L151.93,184.21L149.67,183.18L140.12,182.68L138.98,182.83L139.98,182.07L141.56,181.69L145.28,180.35L145.99,180.28z"/><path style="fill:#c9d0ef" d="M151.17,196.73L157.70,199.51L156.18,199.50L149.82,198.99L141.55,201.75L133.53,207.77L126.61,216.66L121.74,227.09L119.48,238.13L120.05,249.17L121.57,252.92L122.08,254.52L120.32,253.92L115.06,251.65L112.78,246.16L112.29,237.62L112.29,234.69L114.47,224.08L119.45,213.26L126.35,204.61L134.28,198.74L139.20,197.15L138.64,197.58L138.63,198.74L139.11,199.01L141.14,199.34L141.14,196.97L139.20,197.15L142.30,195.98L144.64,195.98z"/><path style="fill:#c8cfee" d="M143.24,144.91L144.15,145.31L149.00,147.30L156.44,150.58L159.26,151.72L163.45,153.61L164.39,153.62L165.13,153.07L165.98,153.07L166.57,153.46L165.60,154.32L164.63,155.60L163.97,157.96L163.55,158.31L162.88,157.93L162.75,156.83L162.49,156.52L161.97,156.07L161.29,156.07L160.71,155.78L160.22,155.32L159.54,155.25L159.03,154.96L158.44,154.58L157.84,154.50L157.27,154.21L156.69,153.83L156.09,153.74L155.51,153.45L154.81,153.26L153.76,152.71L153.06,152.51L152.00,151.95L151.30,151.75L150.24,151.20L149.55,151.00L148.49,150.45L147.79,150.25L146.76,149.74L146.64,149.58L145.98,149.55L144.93,148.99L144.88,148.84L144.23,148.79L143.18,148.23L143.13,148.08L142.48,148.04L141.42,147.49L141.37,147.33L140.72,147.29L139.66,146.73L139.61,146.58L138.95,146.54L138.34,146.10L138.36,144.63L139.04,143.81L139.55,143.53L140.13,143.53z"/><path style="fill:#c8cfee" d="M141.64,175.16L142.92,175.59L143.39,175.93L146.91,177.42L148.18,177.85L148.66,178.19L159.03,182.55L163.20,184.46L164.13,184.46L165.38,183.93L166.21,183.93L167.05,184.30L166.13,184.70L164.98,185.55L164.14,186.96L163.43,188.03L162.56,187.90L161.73,187.13L161.22,186.67L160.53,186.67L159.96,186.38L159.45,185.93L158.85,185.83L158.27,185.56L157.69,185.18L157.09,185.10L156.52,184.81L155.94,184.43L155.34,184.35L154.76,184.05L154.18,183.68L153.58,183.59L153.00,183.30L152.30,183.11L151.25,182.56L150.55,182.36L149.49,181.80L148.79,181.60L147.74,181.05L147.04,180.85L145.99,180.28L145.24,180.16L144.18,179.59L144.13,179.44L143.48,179.39L142.73,179.15L142.42,178.82L142.37,178.68L141.72,178.64L140.67,178.09L140.62,177.93L139.97,177.89L138.12,176.92L138.11,175.48L139.04,174.39L139.89,174.39z"/><path style="fill:#b2adaa" d="M144.66,21.14L144.41,35.04L142.78,38.21L143.24,40.57L142.13,39.67L141.83,39.71L141.62,40.03L140.15,41.33L137.78,42.48L142.64,42.48L143.93,42.63L143.91,56.12L140.28,59.01L137.62,60.37L136.40,60.95L131.60,61.87L126.67,62.26L121.64,62.01L125.50,61.79L129.35,61.13L129.59,47.32L134.03,44.23L135.36,43.46L130.02,44.23L121.82,44.23L118.31,43.73L115.95,43.23L118.75,43.00L119.31,42.80L119.81,29.26L125.50,27.17L128.26,26.68L133.36,26.67L137.61,27.68L138.79,27.67L140.62,23.99L141.94,22.26L142.42,20.98L142.28,19.06L142.64,19.12z"/><path style="fill:#b2adaa" d="M114.54,60.29L115.61,60.93L114.19,60.69L110.79,59.00L110.61,58.75L111.02,58.77z"/><path style="fill:#b2adaa" d="M82.69,117.72L82.70,120.58L81.94,121.82L80.82,122.74L80.18,122.77L78.52,122.08L78.91,119.55L79.84,117.97L81.27,117.20z"/><path style="fill:#b2adaa" d="M89.72,120.47L90.48,121.99L90.22,123.83L89.37,125.23L88.14,126.01L86.94,126.01L85.95,125.50L85.80,125.22L85.93,124.08L86.78,123.71L87.29,124.48L88.63,124.50L89.22,123.59L89.23,122.20L88.85,121.90L88.71,121.72L87.70,121.82L86.92,123.30L86.56,123.62L85.86,123.51L86.62,121.48L87.70,120.56L88.80,120.08z"/><path style="fill:#b2adaa" d="M142.68,132.69L141.38,131.51L141.38,130.60L141.53,129.42z"/><path style="fill:#b2adaa" d="M82.44,148.58L82.38,151.60L80.58,153.60L79.93,153.62L78.19,152.75L78.66,150.40L79.69,148.67L81.04,148.03z"/><path style="fill:#b2adaa" d="M111.78,151.09L113.88,152.26L111.56,151.57L109.79,150.55L109.61,150.30L110.03,150.31z"/><path style="fill:#b2adaa" d="M89.75,151.49L89.75,155.26L89.22,155.94L87.89,156.87L86.69,156.87L85.70,156.35L85.54,155.82L85.69,154.94L86.56,154.47L87.03,155.33L87.97,155.45L88.72,154.94L88.97,154.44L88.96,152.82L88.61,152.73L88.24,152.33L87.47,152.69L86.54,154.29L85.62,154.37L86.20,152.67L87.37,151.33L88.55,150.92L89.23,151.09z"/><path style="fill:#b2adaa" d="M114.57,152.52L113.88,152.26L114.53,152.36z"/><path style="fill:#787e7e" d="M136.87,9.11L137.01,15.80L136.88,20.50L136.37,21.49L134.86,22.74L131.79,23.93L126.92,24.53L127.25,13.37L131.28,12.88L134.36,11.96L135.87,10.99L135.86,10.23L136.38,9.46L136.52,8.26z"/><path style="fill:#787e7e" d="M135.99,125.18L135.88,130.36L134.64,131.88L132.29,133.04L128.76,133.78L126.17,133.89L126.67,62.26L131.60,61.87L136.40,60.95z"/><path style="fill:#c6c1bc" d="M143.24,40.57L143.93,42.63L142.64,42.48L137.78,42.48L140.15,41.33L141.62,40.03L141.83,39.71L142.13,39.67z"/><path style="fill:#c6c1bc" d="M81.43,119.23L81.98,120.05L81.35,121.24L80.42,121.26L79.93,120.98L79.94,119.32L80.70,118.72z"/><path style="fill:#c6c1bc" d="M89.23,122.20L89.22,123.59L88.63,124.50L87.29,124.48L88.26,124.12L88.72,123.34L88.85,121.90z"/><path style="fill:#c6c1bc" d="M85.43,123.08L86.12,121.23L87.20,120.31L87.87,119.96L88.80,120.08L87.70,120.56L86.62,121.48L85.86,123.51L86.56,123.62L86.78,123.71L85.93,124.08L85.80,125.22L85.41,124.50z"/><path style="fill:#c6c1bc" d="M137.12,142.56L137.13,143.66L136.63,144.66L136.05,145.09L135.12,145.07L134.86,144.81L134.84,143.12L135.78,142.03z"/><path style="fill:#c6c1bc" d="M81.04,148.03L79.69,148.67L78.66,150.40L78.19,152.75L77.41,152.61L76.94,152.32L76.65,151.86L76.65,149.64L77.68,147.91L78.95,147.06z"/><path style="fill:#c6c1bc" d="M81.18,150.08L81.73,150.90L80.83,152.10L80.18,152.12L79.68,151.83L79.68,150.17L80.45,149.57z"/><path style="fill:#c6c1bc" d="M85.17,153.67L86.09,151.81L86.87,151.08L87.63,150.82L88.55,150.92L87.37,151.33L86.20,152.67L85.62,154.37L86.54,154.29L86.56,154.47L85.69,154.94L85.54,155.82L85.15,155.36z"/><path style="fill:#c6c1bc" d="M88.97,154.44L88.72,154.94L87.97,155.45L87.03,155.33L87.94,154.91L88.47,154.19L88.61,152.73L88.96,152.82z"/><path style="fill:#c6c1bc" d="M142.92,166.31L141.95,166.24L142.73,165.99z"/><path style="fill:#c6c1bc" d="M136.90,173.38L136.88,174.51L136.63,175.00L136.05,175.68L135.11,175.95L134.61,175.66L134.59,173.97L135.53,172.88L135.85,172.89z"/><path style="fill:#c6c1bc" d="M128.59,170.98L128.27,184.71L124.50,185.45L121.14,185.67L120.94,185.62L121.07,173.24L121.23,169.16L121.63,168.99L127.41,169.00L131.68,168.60z"/><path style="fill:#b4bbd7" d="M149.00,147.30L159.05,143.93L159.20,144.04L159.26,151.72L156.44,150.58z"/><path style="fill:#b4bbd7" d="M138.64,197.58L139.20,197.15L141.14,196.97L141.14,199.34L139.11,199.01L138.63,198.74z"/><path style="fill:#b4bbd7" d="M83.52,263.56L78.76,265.05L79.18,206.60L79.35,199.75L83.97,198.25z"/><path style="fill:#c9d0ef" d="M154.43,141.80L159.05,143.93L149.00,147.30L144.15,145.31L143.24,144.91L143.28,137.19L143.89,137.28z"/><path style="fill:#c9d0ef" d="M142.73,165.99L146.66,163.22L147.84,160.35L148.40,160.33L148.41,176.00L148.18,177.85L146.91,177.42L143.39,175.93L142.92,175.59L142.92,166.31z"/><path style="fill:#c9d0ef" d="M143.48,179.39L144.18,179.59L145.24,180.16L145.28,180.35L141.56,181.69L139.98,182.07L142.66,180.03L142.73,179.15z"/><path style="fill:#c9d0ef" d="M163.69,182.95L165.40,182.95L169.25,181.70L173.49,183.44L174.52,184.10L168.30,186.16L167.05,184.30L166.21,183.93L165.38,183.93L164.13,184.46L163.20,184.46L159.03,182.55L159.07,180.86z"/><path style="fill:#c9d0ef" d="M159.96,186.38L160.53,186.67L160.92,186.97L161.73,187.13L162.56,187.90L162.52,188.06L160.69,188.48L158.37,187.21L158.93,187.03L159.01,186.18z"/><path style="fill:#c9d0ef" d="M145.15,194.22L148.41,195.50L146.40,195.48L141.12,194.97L132.52,197.74L129.34,200.08L123.97,204.24L117.44,212.51L112.46,223.33L110.20,234.36L110.77,244.65L111.02,245.66L112.84,250.18L112.80,250.51L112.03,250.43L109.79,249.40L109.27,248.67L107.51,244.15L107.02,237.37L107.02,234.94L109.52,222.64L115.07,210.64L122.22,201.48L128.76,196.48L136.78,193.72L139.88,193.73z"/><path style="fill:#c9d0ef" d="M164.24,203.25L163.69,203.25L163.63,202.97L163.96,202.97z"/><path style="fill:#c9d0ef" d="M146.63,212.81L153.16,215.56L154.34,215.54L155.45,214.54L155.93,214.79L157.22,216.02L157.95,217.55L159.95,218.55L160.71,219.55L161.70,224.33L161.70,228.67L161.46,232.19L159.19,239.21L155.44,245.48L151.20,249.77L145.58,252.93L141.80,253.42L139.36,253.44L135.12,251.91L132.62,249.39L131.34,247.41L129.83,243.65L129.59,242.39L129.26,235.87L130.58,229.41L133.75,222.55L138.03,217.04L143.06,213.29L146.16,212.32z"/><path style="fill:#c9d0ef" d="M136.36,266.23L137.87,266.19L137.05,266.73L129.34,267.80L126.58,267.99L118.51,265.22L118.23,264.93L118.79,264.94L121.06,265.72L122.98,266.23L132.88,264.98z"/><path style="fill:#b3bad6" d="M139.66,146.73L138.95,146.54L139.61,146.58z"/><path style="fill:#b3bad6" d="M141.42,147.49L140.72,147.29L141.37,147.33z"/><path style="fill:#b3bad6" d="M143.18,148.23L142.52,148.23L142.48,148.04L143.13,148.08z"/><path style="fill:#b3bad6" d="M144.93,148.99L144.23,148.79L144.88,148.84z"/><path style="fill:#b3bad6" d="M146.76,149.74L145.98,149.55L146.64,149.58z"/><path style="fill:#b3bad6" d="M148.49,150.45L147.84,150.40L147.79,150.25z"/><path style="fill:#b3bad6" d="M150.24,151.20L149.60,151.16L149.55,151.00z"/><path style="fill:#b3bad6" d="M152.00,151.95L151.35,151.91L151.30,151.75z"/><path style="fill:#b3bad6" d="M153.76,152.71L153.11,152.66L153.06,152.51z"/><path style="fill:#b3bad6" d="M155.51,153.45L154.86,153.41L154.81,153.26z"/><path style="fill:#b3bad6" d="M168.24,154.58L168.23,156.94L167.97,157.69L167.24,158.46L165.88,159.39L165.21,159.39L163.55,158.31L163.97,157.96L164.63,155.60L165.60,154.32L166.57,153.46L166.98,153.58z"/><path style="fill:#b3bad6" d="M157.27,154.21L156.39,154.13L156.09,153.74L156.69,153.83z"/><path style="fill:#b3bad6" d="M159.03,154.96L158.14,154.88L157.84,154.50L158.44,154.58z"/><path style="fill:#b3bad6" d="M160.71,155.78L159.92,155.63L159.54,155.25L160.22,155.32z"/><path style="fill:#b3bad6" d="M162.49,156.52L161.67,156.37L161.29,156.07L161.97,156.07z"/><path style="fill:#b3bad6" d="M140.67,178.09L139.97,177.89L140.62,177.93z"/><path style="fill:#b3bad6" d="M142.42,178.82L141.72,178.64L142.37,178.68z"/><path style="fill:#b3bad6" d="M144.18,179.59L143.48,179.39L144.13,179.44z"/><path style="fill:#b3bad6" d="M145.99,180.28L145.28,180.35L145.24,180.16z"/><path style="fill:#b3bad6" d="M147.74,181.05L147.09,181.00L147.04,180.85z"/><path style="fill:#b3bad6" d="M149.49,181.80L148.84,181.76L148.79,181.60z"/><path style="fill:#b3bad6" d="M151.25,182.56L150.60,182.51L150.55,182.36z"/><path style="fill:#b3bad6" d="M153.00,183.30L152.35,183.26L152.30,183.11z"/><path style="fill:#b3bad6" d="M154.76,184.05L153.88,183.98L153.58,183.59L154.18,183.68z"/><path style="fill:#b3bad6" d="M156.52,184.81L155.64,184.73L155.34,184.35L155.94,184.43z"/><path style="fill:#b3bad6" d="M168.30,186.16L167.97,187.54L167.21,189.28L165.90,189.98L164.46,190.24L163.47,189.70L162.52,188.06L162.56,187.90L163.43,188.03L164.14,186.96L164.98,185.55L166.13,184.70L167.05,184.30z"/><path style="fill:#b3bad6" d="M158.27,185.56L157.39,185.48L157.09,185.10L157.69,185.18z"/><path style="fill:#b3bad6" d="M159.96,186.38L159.01,186.18L158.85,185.83L159.45,185.93z"/><path style="fill:#b3bad6" d="M161.73,187.13L160.92,186.97L160.53,186.67L161.22,186.67z"/><path style="fill:#ffffff" d="M86.78,123.71L86.56,123.62L86.92,123.30L87.70,121.82L88.71,121.72L88.85,121.90L88.72,123.34L88.26,124.12L87.29,124.48z"/><path style="fill:#ffffff" d="M88.61,152.73L88.47,154.19L87.94,154.91L87.03,155.33L86.56,154.47L86.54,154.29L87.47,152.69L88.24,152.33z"/><g id="Actor_.0"><g style="stroke:#000000;stroke-width:0.176"><path d="M124.74,44.48L124.68,44.49L120.41,44.15L116.18,44.06L111.15,45.03L110.08,41.46L109.42,39.93"/><path d="M111.05,57.94L111.04,58.69L110.27,58.46"/><path d="M111.04,58.69L116.04,60.96L120.27,61.97L124.51,62.06L129.53,61.10L133.44,61.42L136.74,60.78L140.06,59.22"/><path d="M111.15,45.03L111.06,56.48"/><path d="M111.75,41.55L113.11,42.30L115.09,42.96"/><path d="M129.53,61.10L129.64,47.44L124.65,45.17L120.41,44.15L116.49,43.42L116.45,43.41"/><path d="M126.76,44.44L129.12,44.39L130.10,44.27"/><path d="M129.64,47.44L133.57,44.52L136.89,42.96L140.20,42.32L144.11,42.63"/><path d="M133.26,43.87L133.31,43.86L136.89,42.96L139.72,41.73L139.75,41.71"/></g><g style="stroke:#000000;stroke-width:0.529"><path d="M109.36,57.61L109.02,57.17L108.10,55.05L107.02,51.48L107.14,37.90"/><path d="M142.80,38.53L143.03,39.07L144.11,42.63L144.00,56.30L140.06,59.22L139.57,59.55L136.74,60.78L133.17,61.68L128.97,62.21L124.54,62.31L120.27,61.97L116.35,61.24L112.96,60.13L110.45,58.72L110.17,58.52"/></g></g><g id="Actor_.1"><g style="stroke:#000000;stroke-width:0.176"><path d="M73.96,197.53L79.32,199.82L78.78,265.18"/><path d="M79.32,199.82L84.09,198.24L83.55,263.59"/><path d="M84.09,198.24L99.63,204.88L94.86,206.47L94.35,268.21"/><path d="M87.76,192.95L89.63,193.75L89.63,194.49L110.20,203.28L111.18,202.96L119.78,193.09L129.63,186.16L131.21,185.46"/><path d="M89.63,193.75L89.66,190.78"/><path d="M89.98,151.42L110.56,160.21L110.20,203.28"/><path d="M94.86,206.47L100.22,208.76L99.68,274.11"/><path d="M100.22,208.76L114.02,204.18L122.63,194.31L132.47,187.38L142.72,183.98L152.50,184.39L149.66,183.18L139.88,182.76L138.90,182.98"/><path d="M138.22,266.23L136.92,266.93L127.06,268.16L118.30,265.15L111.59,258.23L110.61,255.72"/><path d="M111.18,202.96L114.02,204.18"/><path d="M110.56,160.21L121.96,156.43L121.85,169.05"/><path d="M121.97,273.72L113.48,269.53L112.65,269.80"/><path d="M129.96,185.62L121.03,188.58L121.16,172.92"/><path d="M121.96,156.43L129.86,156.33L137.17,155.25L143.05,153.29L146.84,150.70L147.11,150.05"/><path d="M148.06,150.46L147.98,160.38L146.73,163.32L142.95,165.92L137.06,167.87L129.75,168.96L127.92,168.98"/><path d="M164.77,203.87L159.84,195.98L152.00,190.94L142.55,190.04L137.86,191.60"/><path d="M145.72,180.39L139.70,182.39"/><path d="M147.98,160.38L148.64,160.17L148.49,178.10"/><path d="M159.48,143.98L149.09,147.43"/><path d="M152.50,184.39L161.00,188.59L162.66,188.04"/><path d="M158.38,187.30L159.13,187.05L159.14,186.13"/><path d="M159.18,180.96L159.16,182.67"/><path d="M168.30,186.16L174.80,184.01"/></g><g style="stroke:#000000;stroke-width:0.529"><path d="M106.27,142.20L102.63,144.70L101.38,147.64L89.98,151.42L89.66,190.78L87.76,192.95L73.96,197.53L73.42,262.89L78.78,265.18L83.55,263.59L92.24,267.31L94.35,268.21L94.32,271.82L99.68,274.11L112.65,269.80L121.97,273.72L131.75,274.14L142.00,270.74L151.85,263.81L158.45,256.24"/><path d="M110.61,255.72L107.66,248.14L106.94,235.99L109.50,223.09L115.06,210.84L123.03,200.55L132.54,193.36L137.86,191.60"/><path d="M127.92,168.98L121.85,169.05L121.19,169.27L121.16,172.92"/><path d="M159.42,151.85L159.48,143.98L143.33,137.07"/><path d="M174.49,221.00L174.80,184.01L169.44,181.72L164.67,183.30L159.18,180.96L159.39,155.31"/><path d="M174.48,222.45L174.26,249.36L160.90,253.79"/></g></g><g id="Actor_.2"><g style="stroke:#000000;stroke-width:0.176"><path d="M86.96,156.93L86.34,156.56L85.91,155.89L85.72,155.00L86.80,154.54"/><path d="M89.28,151.14L88.55,151.01L87.76,151.24L87.01,151.78L86.37,152.57L85.93,153.53L85.72,154.55L86.44,154.38"/><path d="M85.72,155.00L85.19,154.77"/><path d="M85.72,154.55L85.72,154.55"/><path d="M87.12,155.35L87.13,155.37L87.47,155.57L87.87,155.59L88.29,155.43L88.68,155.11L89.00,154.66L89.21,154.13L89.28,153.59L89.21,153.10L89.01,152.71L88.70,152.47L88.40,152.42"/></g><g style="stroke:#000000;stroke-width:0.529"><path d="M89.95,154.92L89.83,155.23L89.23,156.07L88.50,156.67L87.71,156.97L86.96,156.93L86.43,156.71L85.81,156.33L85.73,156.21"/><path d="M89.98,151.81L89.86,151.58L89.28,151.14L88.74,150.91L88.02,150.79L87.23,151.01L86.47,151.55L85.84,152.35L85.39,153.31L85.19,154.32L85.72,154.55L85.19,154.77L85.38,155.66L85.70,156.16"/><path d="M86.73,154.51L86.44,154.38L86.80,154.29L86.91,153.75L87.15,153.24L87.49,152.82L87.89,152.53L88.31,152.41L88.40,152.42L88.48,152.49L88.68,152.87L88.75,153.37L88.70,153.70L88.67,153.91L88.47,154.43L88.15,154.88L87.75,155.20L87.33,155.36L87.12,155.35L86.90,155.01L86.80,154.54L86.73,154.51"/></g></g><g id="Actor_.3"><g style="stroke:#000000;stroke-width:0.176"><path d="M78.96,147.11L80.47,147.76L80.07,148.42L79.64,148.95L79.11,149.43L78.37,149.95L78.53,150.82L78.57,151.54L78.52,152.21L78.35,152.95"/><path d="M78.37,149.95L76.86,149.31"/><path d="M82.55,148.57L82.15,148.42L81.72,148.25L82.15,148.52L82.48,148.95L82.69,149.52L82.75,150.16L82.67,150.85L82.46,151.55L82.12,152.21L81.69,152.76L81.19,153.18L80.64,153.45L80.09,153.54L79.60,153.45L79.17,153.18L78.84,152.75L78.64,152.19L78.57,151.54L78.65,150.84L78.87,150.14L79.21,149.49L79.64,148.95L80.13,148.52L80.68,148.25L81.23,148.16L81.72,148.25L81.20,148.05L80.47,147.76"/><path d="M80.06,152.32L79.84,152.21L79.61,151.91L79.48,151.49L79.49,151.00L79.62,150.49L79.86,150.03L80.19,149.65L80.57,149.40L80.97,149.31L81.32,149.39L81.61,149.63L81.79,149.99L81.85,150.46L81.79,150.96L81.60,151.45L81.30,151.88L80.94,152.19L80.55,152.36L80.17,152.37L80.06,152.32"/><path d="M79.67,151.64L79.57,151.30L79.57,150.91L79.67,150.50L79.87,150.13L80.14,149.82L80.44,149.62L80.76,149.55L81.05,149.61L81.28,149.80L81.42,150.10L81.47,150.47L81.42,150.88L81.26,151.27L81.03,151.61L80.74,151.87L80.42,152.00L80.12,152.01L79.86,151.88L79.67,151.64"/></g><g style="stroke:#000000;stroke-width:0.529"><path d="M76.73,151.69L76.68,151.42L76.64,150.72L76.69,150.05L76.86,149.31L77.26,148.64L77.70,148.12L78.23,147.64L78.96,147.11L79.36,147.26L79.79,147.43L80.31,147.63L81.04,147.92L82.55,148.57L82.71,149.45L82.75,150.16L82.70,150.83L82.52,151.57L82.12,152.23L81.69,152.76L81.16,153.24L80.42,153.76L80.03,153.61L79.60,153.45L79.07,153.24L78.35,152.95L76.84,152.31L76.73,151.69"/></g></g><g id="Actor_.4"><g style="stroke:#000000;stroke-width:0.176"><path d="M107.00,235.67L107.48,243.71L110.87,252.41L116.66,258.38L120.09,259.85L114.30,253.88L110.91,245.18L110.29,234.70L112.49,223.56L116.76,214.18L117.30,212.99L124.17,204.12L132.37,197.92L141.02,195.05L149.16,195.83L145.73,194.36L137.59,193.58L128.94,196.45L122.34,201.45"/><path d="M121.81,260.44L122.05,260.69L129.34,263.80L123.55,257.83L120.16,249.13L119.55,238.90L119.54,238.65L121.74,227.52L126.55,216.94L133.42,208.07L141.62,201.87L150.27,199.00L158.41,199.78L151.12,196.67L142.98,195.89L134.34,198.76L126.13,204.96L119.26,213.83L114.46,224.40L112.25,235.53L112.87,246.02L116.26,254.72L121.81,260.44L120.09,259.85"/><path d="M129.34,263.80L132.88,265.02"/><path d="M129.73,242.96L131.85,248.39L135.47,252.12L140.19,253.75L145.51,253.09L150.85,250.21L155.62,245.44L159.32,239.28L161.54,232.40L162.04,225.55L160.77,219.47L157.86,214.83L153.64,212.11L148.54,211.62L143.14,213.42L138.02,217.30L133.72,222.84L130.72,229.45L129.34,236.40L129.73,242.96"/><path d="M138.85,198.81L139.10,199.01L139.87,199.28L140.84,199.42L141.89,199.42L142.91,199.30L143.80,199.07L144.46,198.78L144.82,198.45L144.83,198.09L144.50,197.74L143.86,197.43L142.98,197.18L141.97,197.03L140.91,197.01L139.94,197.13L139.15,197.39L138.64,197.76L138.45,198.19L138.61,198.63L138.85,198.81"/><path d="M149.16,195.83L150.35,196.59"/><path d="M153.21,214.00L153.31,214.49L153.65,215.17L154.17,215.97L154.83,216.78L155.58,217.51L156.34,218.06L156.71,218.24L157.05,218.36L157.62,218.38L157.99,218.13L158.09,217.65L157.92,217.00L157.47,216.27L156.79,215.53L155.98,214.85L155.14,214.29L154.36,213.89L153.74,213.69L153.35,213.72L153.21,214.00"/><path d="M158.41,199.78L159.58,200.53"/></g><g style="stroke:#000000;stroke-width:0.529"><path d="M132.88,265.02L132.68,265.12L122.82,266.35L117.79,264.62"/><path d="M132.88,265.02L136.90,266.40L145.41,265.34L153.95,260.74L161.59,253.10L167.51,243.24L171.06,232.24L171.86,221.28L171.72,220.58"/><path d="M150.33,190.78L155.60,194.17L159.58,200.53"/><path d="M171.36,218.89L169.83,211.56L165.18,204.12L159.58,200.53"/></g></g><g id="Actor_.5"><g style="stroke:#000000;stroke-width:0.176"><path d="M139.04,182.88L135.72,184.44L132.41,185.08L128.50,184.76L123.48,185.73L121.06,185.68"/><path d="M124.06,169.03L128.62,171.10L128.50,184.76"/><path d="M128.62,171.10L131.94,168.63"/><path d="M134.80,175.72L135.10,175.97L135.48,176.05L135.90,175.96L136.30,175.70L136.66,175.30L136.92,174.80L137.05,174.26L137.07,174.00L137.06,173.74L136.93,173.30L136.67,172.97L136.33,172.80L135.92,172.81L135.51,172.99L135.12,173.33L134.92,173.62L134.81,173.78L134.61,174.30L134.54,174.84L134.60,175.33L134.80,175.72"/><path d="M143.09,166.30L142.06,166.21"/></g><g style="stroke:#000000;stroke-width:0.529"><path d="M142.98,179.21L142.97,179.96L139.04,182.88L138.55,183.22L135.72,184.44L132.14,185.34L127.95,185.88L123.51,185.97L121.06,185.78"/><path d="M143.01,175.75L143.09,166.30L142.97,165.91"/></g></g><g id="Actor_.6"><g style="stroke:#000000;stroke-width:0.176"><path d="M106.74,23.78L110.22,23.67L113.26,24.48L110.76,23.09L109.30,21.50L108.98,19.83L109.78,18.24L111.65,16.77"/><path d="M110.14,40.57L113.11,42.30L116.09,43.11L119.62,43.00L119.74,29.34L124.90,27.35L129.27,26.57L133.37,26.05L137.04,25.13L139.93,23.88L141.80,22.41L142.60,20.80L142.26,19.13L140.78,17.53"/><path d="M119.74,29.34L116.23,26.22L113.26,24.48L116.55,25.57L120.56,26.33L124.94,26.67L129.27,26.57L133.62,26.71L138.76,27.96L138.65,41.62L140.27,41.36"/><path d="M114.84,21.07L114.87,21.24L115.37,21.68"/><path d="M114.69,20.26L114.61,19.84L114.69,19.73"/><path d="M116.15,22.38L116.31,22.53L117.16,22.89"/><path d="M119.62,43.00L124.76,44.24L129.12,44.39L133.48,43.61L138.65,41.62"/><path d="M119.89,23.83L118.78,23.59L118.50,23.46"/><path d="M121.64,24.21L122.01,24.29L123.26,24.38"/><path d="M125.23,24.53L125.65,24.56L126.90,24.50"/><path d="M128.88,24.39L129.30,24.37L130.42,24.16"/><path d="M132.37,23.79L132.57,23.75L132.73,23.69"/><path d="M134.82,22.87L135.11,22.75L135.63,22.32"/><path d="M136.46,21.64L136.64,21.49L136.76,21.02"/><path d="M144.80,21.02L143.18,21.28L141.80,22.41L140.41,24.46L138.76,27.96"/></g><g style="stroke:#000000;stroke-width:0.529"><path d="M114.73,15.47L114.54,15.52L111.65,16.77L111.16,17.11L109.78,18.24L108.40,20.27L106.74,23.78L106.63,37.45L110.14,40.57L110.65,40.94L113.11,42.30L116.40,43.40L120.41,44.15L124.79,44.49L129.12,44.39L133.22,43.88L136.89,42.96L139.78,41.70L140.27,41.36L141.65,40.23L143.04,38.18L144.68,34.69L144.80,21.02L141.29,17.90L140.78,17.53L138.32,16.17L137.05,15.75"/></g></g><g id="Actor_.7"><g style="stroke:#000000;stroke-width:0.176"><path d="M110.80,126.29L108.87,127.79L108.06,129.44L108.40,131.07L109.32,133.17L110.40,136.76L115.34,135.80L119.66,135.88L115.67,135.13L112.32,134.02L109.83,132.62L108.40,131.07L107.48,129.88L106.38,129.55"/><path d="M110.40,136.76L110.28,150.42L109.18,150.08"/><path d="M110.28,150.42L115.28,152.69L119.51,153.70L123.75,153.79L128.77,152.83L128.88,139.16L123.89,136.90L119.66,135.88L123.92,136.21L128.36,136.12L132.55,135.59L136.13,134.68L138.96,133.46L140.89,131.96L141.70,130.32L141.36,128.68L139.92,127.12"/><path d="M115.14,131.83L114.67,131.56L114.56,131.41"/><path d="M113.74,130.05L113.71,130.21L113.92,130.52"/><path d="M116.50,132.60L116.74,132.74L117.40,132.93"/><path d="M119.35,133.50L119.69,133.60L120.48,133.70"/><path d="M122.80,134.00L123.20,134.05L124.04,134.05"/><path d="M127.68,133.96L126.90,134.06L126.48,134.06"/><path d="M128.77,152.83L132.67,153.15L135.99,152.51L139.30,150.94"/><path d="M128.88,139.16L132.81,136.25L136.13,134.68L139.44,134.05L143.35,134.36"/><path d="M130.88,133.46L130.37,133.61L129.98,133.66"/><path d="M133.23,132.77L133.26,132.75"/><path d="M135.05,144.90L134.85,144.51L134.79,144.02L134.86,143.48L135.07,142.96L135.32,142.59L135.38,142.50L135.76,142.17L136.18,141.99L136.58,141.98L136.93,142.15L137.18,142.47L137.31,142.92L137.33,143.17L137.31,143.44L137.17,143.98L136.91,144.47L136.56,144.87L136.15,145.14L135.74,145.23L135.35,145.15L135.05,144.90"/><path d="M133.57,132.57L133.70,132.50"/><path d="M135.42,131.29L135.23,131.59L135.01,131.72"/><path d="M135.98,130.40L136.08,130.24L136.00,129.92"/></g><g style="stroke:#000000;stroke-width:0.529"><path d="M113.74,125.04L113.63,125.07L110.80,126.29L110.31,126.63L106.38,129.55L106.27,143.21L107.34,146.78L108.26,148.90L109.18,150.08L109.70,150.45L112.20,151.86L115.59,152.97L119.51,153.70L123.78,154.04L128.21,153.94L132.41,153.41L135.99,152.51L138.82,151.28L139.30,150.94L142.93,148.26"/><path d="M143.26,144.93L143.35,134.36L142.28,130.79L141.36,128.68L140.43,127.49L139.92,127.12L137.41,125.72L136.05,125.27"/></g></g><g id="Actor_.8"><g style="stroke:#000000;stroke-width:0.176"><path d="M137.10,9.33L136.45,10.70L134.65,11.91L133.38,12.41L131.90,12.82L128.50,13.34L124.81,13.41L121.24,13.03L118.42,12.29L118.17,12.23L115.94,11.10L114.78,9.77"/><path d="M136.16,7.62L136.71,8.96L136.08,10.27L134.34,11.44L133.12,11.92L131.69,12.32L128.41,12.82L124.85,12.89L121.41,12.52L118.45,11.75L116.30,10.66L115.18,9.38L115.22,8.35L115.23,8.03L116.43,6.77"/></g><g style="stroke:#000000;stroke-width:0.529"><path d="M114.32,60.58L113.69,129.95"/><path d="M137.00,20.41L137.10,9.33L136.54,7.95L136.16,7.62L134.51,6.42L131.91,5.48L128.67,4.90L125.12,4.75L121.66,5.04L118.65,5.74L116.43,6.77L116.07,7.07L114.83,8.37L114.78,9.77L114.68,20.85"/><path d="M136.22,106.85L136.02,129.51"/><path d="M136.23,105.52L136.64,60.81"/></g></g><g id="Actor_.9"><g style="stroke:#000000;stroke-width:0.176"><path d="M77.12,118.49L78.63,119.13L79.36,118.60L79.89,118.12L80.32,117.60L80.73,116.94L79.22,116.29"/><path d="M78.60,122.13L78.77,121.39L78.83,120.72L78.78,120.00L78.63,119.13"/><path d="M82.80,117.74L82.41,117.60L81.98,117.43L81.48,117.34L80.94,117.43L80.39,117.70L79.89,118.12L79.46,118.67L79.12,119.32L78.91,120.02L78.83,120.72L78.89,121.36L79.10,121.93L79.43,122.36L79.85,122.63L80.35,122.72L80.89,122.63L81.44,122.36L81.94,121.93L82.37,121.38L82.71,120.73L82.93,120.02L83.00,119.34L82.94,118.69L82.74,118.13L82.40,117.70L81.98,117.43L81.46,117.23L80.73,116.94"/><path d="M79.86,121.08L79.74,120.66L79.74,120.18L79.87,119.67L80.12,119.20L80.45,118.83L80.83,118.58L81.22,118.49L81.58,118.57L81.87,118.80L82.05,119.17L82.11,119.63L82.04,120.14L81.85,120.63L81.56,121.06L81.20,121.37L80.80,121.54L80.43,121.55L80.10,121.39L79.86,121.08"/><path d="M79.92,120.81L79.82,120.48L79.82,120.08L79.93,119.68L80.13,119.30L80.39,119.00L80.70,118.80L81.01,118.73L81.30,118.79L81.53,118.98L81.68,119.28L81.73,119.65L81.67,120.05L81.52,120.45L81.29,120.79L80.99,121.05L80.68,121.18L80.37,121.19L80.11,121.06L79.92,120.81"/></g><g style="stroke:#000000;stroke-width:0.529"><path d="M78.20,121.96L77.09,121.49L76.93,120.60L76.89,119.89L76.94,119.23L77.12,118.49L77.52,117.82L77.95,117.30L78.48,116.81L79.22,116.29L79.61,116.44L80.04,116.60L80.56,116.81L81.29,117.10L82.80,117.74L82.96,118.63L83.00,119.34L82.95,120.00L82.78,120.75L82.38,121.41L81.94,121.93L81.41,122.42L80.68,122.94L80.28,122.79L79.85,122.63L79.33,122.42L78.60,122.13L78.20,121.96"/></g></g><g id="Actor_.10"><g style="stroke:#000000;stroke-width:0.176"><path d="M138.38,145.31L138.50,144.81L138.72,144.33"/><path d="M162.88,157.82L163.98,158.29L165.07,159.02L165.52,159.22L166.05,159.26L166.60,159.10L167.12,158.78"/><path d="M162.98,157.13L163.24,155.30L163.15,155.47L162.96,156.36L162.97,156.84"/><path d="M165.82,159.60L165.07,159.02L164.71,158.64L164.46,158.12L164.34,157.49L164.37,156.81L164.42,155.19L163.32,154.72L163.24,155.30"/><path d="M163.32,154.72L164.96,153.44"/><path d="M163.80,158.47L163.58,158.32"/><path d="M163.98,158.29L164.37,156.81L164.54,156.12L164.84,155.44L165.25,154.84L165.73,154.37L166.26,154.05L166.81,153.89L167.33,153.92L167.79,154.14"/><path d="M166.70,153.40L165.73,154.37L164.42,155.19"/><path d="M164.20,153.90L164.12,153.96L163.80,154.34"/><path d="M168.28,157.12L168.02,157.71L167.62,158.28"/><path d="M168.51,155.66L168.44,155.24"/></g><g style="stroke:#000000;stroke-width:0.529"><path d="M167.79,154.14L166.70,153.40L165.60,152.93L164.96,153.44L164.78,153.49L164.20,153.90L140.18,143.61L139.81,143.56L139.42,143.67L139.05,143.94L138.67,144.41L138.50,144.77L138.41,145.15L138.38,145.31L138.40,145.80L138.54,146.20L138.79,146.49L162.97,156.84L162.98,157.13L162.88,157.82L163.58,158.32L163.67,158.42L163.80,158.47L164.72,159.13L165.82,159.60L167.12,158.78L167.61,158.31L167.62,158.28L168.10,157.82L168.28,157.12L168.32,157.03L168.48,156.34L168.51,155.66L168.51,155.57L168.52,155.14"/></g></g><g id="Actor_.11"><g style="stroke:#000000;stroke-width:0.176"><path d="M87.22,126.11L86.59,125.73L86.16,125.06L85.98,124.18L85.44,123.95"/><path d="M89.53,120.31L88.80,120.19L88.02,120.42L87.26,120.96L86.63,121.75L86.18,122.71L85.98,123.73L86.69,123.56"/><path d="M85.98,124.18L87.06,123.71"/><path d="M85.98,123.73L85.98,123.72"/><path d="M88.65,121.60L88.95,121.65L89.27,121.89L89.47,122.28L89.54,122.77L89.46,123.31L89.25,123.84L88.93,124.28L88.54,124.61L88.12,124.77L87.72,124.75L87.39,124.55L87.38,124.53"/></g><g style="stroke:#000000;stroke-width:0.529"><path d="M86.73,125.90L86.69,125.88L86.06,125.51L85.63,124.84L85.44,123.95L85.98,123.72L85.45,123.50L85.65,122.48L86.09,121.52L86.73,120.73L87.48,120.19L88.27,119.97L89.00,120.09L89.53,120.31L90.12,120.76L90.49,121.49L90.62,122.41L90.48,123.42L90.09,124.40L89.49,125.25L88.75,125.85L87.97,126.15L87.22,126.11L86.73,125.90"/><path d="M86.73,123.55L86.69,123.56L87.06,123.71L87.16,124.19L87.38,124.53L87.59,124.54L88.01,124.38L88.40,124.06L88.72,123.61L88.93,123.08L89.00,122.54L88.94,122.05L88.74,121.66L88.65,121.60L88.57,121.59L88.15,121.71L87.74,121.99L87.40,122.42L87.17,122.93L87.06,123.47L86.73,123.55"/></g></g><g id="Actor_.12"><g style="stroke:#000000;stroke-width:0.176"><path d="M138.51,175.10L138.26,175.57L138.13,176.07"/><path d="M162.84,188.34L163.29,189.12"/><path d="M167.62,188.75L167.25,189.24L166.75,189.69L166.22,189.97L165.68,190.09L165.17,190.02L164.72,189.77L164.39,189.36L163.59,188.23L162.49,187.76"/><path d="M162.71,187.17L162.71,187.07L162.94,186.19L163.36,185.37L163.43,185.29L162.55,187.59"/><path d="M163.43,185.29L163.65,184.73L164.75,185.20L164.34,186.78L164.14,187.48L164.08,188.18L164.17,188.82L164.39,189.36L164.85,190.35"/><path d="M163.59,188.23L164.34,186.78L164.65,186.13L165.08,185.55L165.59,185.10L166.12,184.82L166.66,184.70L167.17,184.77L167.62,185.02L167.96,185.43L168.18,185.97L168.26,186.61L168.21,187.22"/><path d="M164.75,185.20L166.12,184.82L167.16,184.30"/><path d="M165.30,184.11L164.26,184.50"/><path d="M163.65,184.73L163.82,184.66"/></g><g style="stroke:#000000;stroke-width:0.529"><path d="M138.44,177.21L138.26,176.98L138.13,176.56L138.13,176.07L138.16,175.93L138.26,175.54L138.44,175.19L138.51,175.10L138.84,174.72L139.22,174.47L139.61,174.38L139.97,174.45L163.82,184.66L164.26,184.50L164.61,184.27L165.30,184.11L165.30,184.11L166.06,183.83L167.16,184.30L167.96,185.44L168.42,186.42L168.21,187.22L168.20,187.32L168.01,188.01L167.68,188.67L167.62,188.75L167.26,189.45L166.22,189.97L164.85,190.35L163.75,189.88L163.29,189.12L162.93,188.66L162.84,188.34L162.49,187.76L162.55,187.59L138.83,177.44L138.50,177.28L138.44,177.21"/></g></g><g id="PMI364034-Lock Washer.0"><g><path style="stroke:#000000;stroke-width:0.250" d="M60.90,154.09L64.78,154.09L85.66,156.76"/></g><g><path style="fill:#000000" d="M86.66,156.76L86.65,156.66L86.64,156.57L86.62,156.47L86.58,156.38L86.54,156.29L86.49,156.21L86.43,156.13L86.37,156.05L86.29,155.99L86.21,155.93L86.13,155.88L86.04,155.84L85.95,155.80L85.85,155.78L85.76,155.77L85.66,155.76L85.56,155.77L85.46,155.78L85.37,155.80L85.28,155.84L85.19,155.88L85.10,155.93L85.02,155.99L84.95,156.05L84.89,156.13L84.83,156.21L84.78,156.29L84.73,156.38L84.70,156.47L84.68,156.57L84.66,156.66L84.66,156.76L84.66,156.86L84.68,156.96L84.70,157.05L84.73,157.14L84.78,157.23L84.83,157.32L84.89,157.40L84.95,157.47L85.02,157.53L85.10,157.59L85.19,157.64L85.28,157.69L85.37,157.72L85.46,157.74L85.56,157.76L85.66,157.76L85.76,157.76L85.85,157.74L85.95,157.72L86.04,157.69L86.13,157.64L86.21,157.59L86.29,157.53L86.37,157.47L86.43,157.40L86.49,157.32L86.54,157.23L86.58,157.14L86.62,157.05L86.64,156.96L86.65,156.86z"/></g><g><path style="fill:#ffffa0" d="M24.13,157.20L61.68,157.20L61.68,150.99L24.13,150.99z"/><path style="stroke:#000000;stroke-width:0.250;stroke-opacity:0.98" d="M24.13,157.20L61.68,157.20L61.68,150.99L24.13,150.99z"/><text xml:space="preserve" fill="#000000" stroke-width="0" x="24.91" y="155.45" font-size="3.79" opacity="1.00" font-family="MS Shell Dlg">364034-Lock Washer</text></g></g><g id="PMI361601-Nut.0"><g><path style="stroke:#000000;stroke-width:0.250" d="M61.95,137.46L65.83,137.46L76.85,148.66"/></g><g><path style="fill:#000000" d="M77.85,148.66L77.85,148.56L77.83,148.46L77.81,148.37L77.78,148.28L77.73,148.19L77.68,148.10L77.62,148.02L77.56,147.95L77.49,147.89L77.41,147.83L77.32,147.78L77.23,147.74L77.14,147.70L77.05,147.68L76.95,147.66L76.85,147.66L76.75,147.66L76.66,147.68L76.56,147.70L76.47,147.74L76.38,147.78L76.30,147.83L76.22,147.89L76.14,147.95L76.08,148.02L76.02,148.10L75.97,148.19L75.93,148.28L75.89,148.37L75.87,148.46L75.86,148.56L75.85,148.66L75.86,148.76L75.87,148.85L75.89,148.95L75.93,149.04L75.97,149.13L76.02,149.21L76.08,149.29L76.14,149.37L76.22,149.43L76.30,149.49L76.38,149.54L76.47,149.58L76.56,149.62L76.66,149.64L76.75,149.65L76.85,149.66L76.95,149.65L77.05,149.64L77.14,149.62L77.23,149.58L77.32,149.54L77.41,149.49L77.49,149.43L77.56,149.37L77.62,149.29L77.68,149.21L77.73,149.13L77.78,149.04L77.81,148.95L77.83,148.85L77.85,148.76z"/></g><g><path style="fill:#ffffa0" d="M41.44,140.57L62.73,140.57L62.73,134.36L41.44,134.36z"/><path style="stroke:#000000;stroke-width:0.250;stroke-opacity:0.98" d="M41.44,140.57L62.73,140.57L62.73,134.36L41.44,134.36z"/><text xml:space="preserve" fill="#000000" stroke-width="0" x="42.22" y="138.82" font-size="3.78" opacity="1.00" font-family="MS Shell Dlg">361601-Nut</text></g></g><g id="PMI532011-Bearing.0"><g><path style="stroke:#000000;stroke-width:0.250" d="M184.77,226.05L180.89,226.05L161.75,213.13"/></g><g><path style="fill:#000000" d="M162.75,213.13L162.74,213.03L162.73,212.93L162.71,212.83L162.67,212.74L162.63,212.65L162.58,212.57L162.52,212.49L162.46,212.42L162.38,212.35L162.31,212.29L162.22,212.24L162.13,212.20L162.04,212.17L161.94,212.14L161.85,212.13L161.75,212.13L161.65,212.13L161.55,212.14L161.46,212.17L161.37,212.20L161.28,212.24L161.19,212.29L161.12,212.35L161.04,212.42L160.98,212.49L160.92,212.57L160.87,212.65L160.83,212.74L160.79,212.83L160.77,212.93L160.75,213.03L160.75,213.13L160.75,213.22L160.77,213.32L160.79,213.42L160.83,213.51L160.87,213.60L160.92,213.68L160.98,213.76L161.04,213.83L161.12,213.90L161.19,213.96L161.28,214.01L161.37,214.05L161.46,214.08L161.55,214.11L161.65,214.12L161.75,214.13L161.85,214.12L161.94,214.11L162.04,214.08L162.13,214.05L162.22,214.01L162.31,213.96L162.38,213.90L162.46,213.83L162.52,213.76L162.58,213.68L162.63,213.60L162.67,213.51L162.71,213.42L162.73,213.32L162.74,213.22z"/></g><g><path style="fill:#ffffa0" d="M184.00,229.15L212.51,229.15L212.51,222.95L184.00,222.95z"/><path style="stroke:#000000;stroke-width:0.250;stroke-opacity:0.98" d="M184.00,229.15L212.51,229.15L212.51,222.95L184.00,222.95z"/><text xml:space="preserve" fill="#000000" stroke-width="0" x="184.77" y="227.41" font-size="3.78" opacity="1.00" font-family="MS Shell Dlg">532011-Bearing</text></g></g><g id="PMI301126-14.37-Rod.0"><g><path style="stroke:#000000;stroke-width:0.250" d="M166.78,94.02L162.90,94.02L126.52,110.61"/></g><g><path style="fill:#000000" d="M127.52,110.61L127.52,110.52L127.50,110.42L127.48,110.32L127.45,110.23L127.40,110.14L127.35,110.06L127.30,109.98L127.23,109.91L127.16,109.84L127.08,109.78L126.99,109.73L126.91,109.69L126.81,109.66L126.72,109.63L126.62,109.62L126.52,109.61L126.42,109.62L126.33,109.63L126.23,109.66L126.14,109.69L126.05,109.73L125.97,109.78L125.89,109.84L125.82,109.91L125.75,109.98L125.69,110.06L125.64,110.14L125.60,110.23L125.57,110.32L125.54,110.42L125.53,110.52L125.52,110.61L125.53,110.71L125.54,110.81L125.57,110.90L125.60,111.00L125.64,111.09L125.69,111.17L125.75,111.25L125.82,111.32L125.89,111.39L125.97,111.45L126.05,111.50L126.14,111.54L126.23,111.57L126.33,111.59L126.42,111.61L126.52,111.61L126.62,111.61L126.72,111.59L126.81,111.57L126.91,111.54L126.99,111.50L127.08,111.45L127.16,111.39L127.23,111.32L127.30,111.25L127.35,111.17L127.40,111.09L127.45,111.00L127.48,110.90L127.50,110.81L127.52,110.71z"/></g><g><path style="fill:#ffffa0" d="M166.01,97.12L199.15,97.12L199.15,90.91L166.01,90.91z"/><path style="stroke:#000000;stroke-width:0.250;stroke-opacity:0.98" d="M166.01,97.12L199.15,97.12L199.15,90.91L166.01,90.91z"/><text xml:space="preserve" fill="#000000" stroke-width="0" x="166.78" y="95.38" font-size="3.79" opacity="1.00" font-family="MS Shell Dlg">301126-14.37-Rod</text></g></g><g id="PMI361630-Nut.0"><g><path style="stroke:#000000;stroke-width:0.250" d="M89.10,69.24L92.98,69.24L117.44,52.96"/></g><g><path style="fill:#000000" d="M118.44,52.96L118.44,52.86L118.42,52.76L118.40,52.67L118.37,52.57L118.33,52.49L118.28,52.40L118.22,52.32L118.15,52.25L118.08,52.18L118.00,52.13L117.92,52.07L117.83,52.03L117.73,52.00L117.64,51.98L117.54,51.96L117.44,51.96L117.35,51.96L117.25,51.98L117.15,52.00L117.06,52.03L116.97,52.07L116.89,52.13L116.81,52.18L116.74,52.25L116.67,52.32L116.61,52.40L116.56,52.49L116.52,52.57L116.49,52.67L116.46,52.76L116.45,52.86L116.44,52.96L116.45,53.05L116.46,53.15L116.49,53.25L116.52,53.34L116.56,53.43L116.61,53.51L116.67,53.59L116.74,53.66L116.81,53.73L116.89,53.79L116.97,53.84L117.06,53.88L117.15,53.91L117.25,53.94L117.35,53.95L117.44,53.96L117.54,53.95L117.64,53.94L117.73,53.91L117.83,53.88L117.92,53.84L118.00,53.79L118.08,53.73L118.15,53.66L118.22,53.59L118.28,53.51L118.33,53.43L118.37,53.34L118.40,53.25L118.42,53.15L118.44,53.05z"/></g><g><path style="fill:#ffffa0" d="M68.60,72.34L89.88,72.34L89.88,66.14L68.60,66.14z"/><path style="stroke:#000000;stroke-width:0.250;stroke-opacity:0.98" d="M68.60,72.34L89.88,72.34L89.88,66.14L68.60,66.14z"/><text xml:space="preserve" fill="#000000" stroke-width="0" x="69.37" y="70.60" font-size="3.78" opacity="1.00" font-family="MS Shell Dlg">361630-Nut</text></g></g><g id="PMI327175-Bolt.0"><g><path style="stroke:#000000;stroke-width:0.250" d="M182.40,142.21L178.52,142.21L166.68,156.41"/></g><g><path style="fill:#000000" d="M167.68,156.41L167.68,156.31L167.66,156.21L167.64,156.12L167.61,156.03L167.56,155.94L167.51,155.85L167.45,155.77L167.39,155.70L167.32,155.64L167.24,155.58L167.15,155.53L167.06,155.49L166.97,155.45L166.88,155.43L166.78,155.41L166.68,155.41L166.58,155.41L166.49,155.43L166.39,155.45L166.30,155.49L166.21,155.53L166.13,155.58L166.05,155.64L165.97,155.70L165.91,155.77L165.85,155.85L165.80,155.94L165.76,156.03L165.72,156.12L165.70,156.21L165.69,156.31L165.68,156.41L165.69,156.51L165.70,156.60L165.72,156.70L165.76,156.79L165.80,156.88L165.85,156.96L165.91,157.04L165.97,157.12L166.05,157.18L166.13,157.24L166.21,157.29L166.30,157.33L166.39,157.37L166.49,157.39L166.58,157.40L166.68,157.41L166.78,157.40L166.88,157.39L166.97,157.37L167.06,157.33L167.15,157.29L167.24,157.24L167.32,157.18L167.39,157.12L167.45,157.04L167.51,156.96L167.56,156.88L167.61,156.79L167.64,156.70L167.66,156.60L167.68,156.51z"/></g><g><path style="fill:#ffffa0" d="M181.62,145.32L203.57,145.32L203.57,139.11L181.62,139.11z"/><path style="stroke:#000000;stroke-width:0.250;stroke-opacity:0.98" d="M181.62,145.32L203.57,145.32L203.57,139.11L181.62,139.11z"/><text xml:space="preserve" fill="#000000" stroke-width="0" x="182.40" y="143.57" font-size="3.77" opacity="1.00" font-family="MS Shell Dlg">327175-Bolt</text></g></g><g/><g><g/><g><image x="0.373355" y="-0.373358" height="25.000000" width="25.000000" xlink:href="Take-Up-Bearing_files/a2223e682a785204_image_0.jpg" mask="url(#mask0)"/></g></g><g><g/><g><image x="0.000000" y="254.000015" height="25.000000" width="25.000000" xlink:href="Take-Up-Bearing_files/a2223e682a785204_image_1.jpg" mask="url(#mask1)"/></g></g><g><g/><g><image x="407.373352" y="254.000015" height="25.000000" width="25.000000" xlink:href="Take-Up-Bearing_files/a2223e682a785204_image_2.jpg" mask="url(#mask2)"/></g></g><g><g/><g><image x="407.000000" y="0.000000" height="25.000000" width="25.000000" xlink:href="Take-Up-Bearing_files/a2223e682a785204_image_3.jpg" mask="url(#mask3)"/></g></g><g><g/><g><path style="stroke:#000000;stroke-width:0.125;fill:#ffffff" d="M188.17,14.22L269.91,14.22L269.91,31.15L188.17,31.15z"/><text xml:space="preserve" fill="#000000" stroke-width="0" x="190.29" y="25.86" font-size="10.35" opacity="1.00" font-family="MS Shell Dlg">Take Up Bearing</text></g></g><g/><g id="paperID" visibility="hidden" opacity="0.00" transform="scale(0.000100)"><path style="stroke:#000000;stroke-width:0.500;fill:#e6e6e6;fill-rule:evenodd" d="M-2000.00,-2000.00L2432.00,-2000.00L2432.00,2279.00L-2000.00,2279.00zM0.00,0.00L432.00,0.00L432.00,279.00L0.00,279.00z"/><path style="fill:#000000;fill-opacity:0.118" d="M3.00,279.00L432.00,279.00L432.00,3.00L435.00,3.00L435.00,282.00L3.00,282.00z"/></g><g><g><path style="stroke:#000000;stroke-width:0.353;fill:#f0f0ff" d="M332.65,116.01L430.30,116.01L430.30,122.43L332.65,122.43z"/><text xml:space="preserve" fill="#000000" stroke-width="0" x="335.12" y="120.95" font-size="4.62" opacity="1.00" font-family="MS Shell Dlg" font-weight="bold">Description</text><text xml:space="preserve" fill="#000000" stroke-width="0" x="369.76" y="120.95" font-size="4.63" opacity="1.00" font-family="MS Shell Dlg" font-weight="bold">BOM ID</text><text xml:space="preserve" fill="#000000" stroke-width="0" x="420.51" y="120.95" font-size="4.58" opacity="1.00" font-family="MS Shell Dlg" font-weight="bold">Qty</text><path style="stroke:#000000;stroke-width:0.353" d="M367.29,116.01L367.29,122.43"/><path style="stroke:#000000;stroke-width:0.353" d="M418.04,116.01L418.04,122.43"/></g><g id="Line301126-14.37-Rod"><path style="stroke:#000000;stroke-width:0.353;fill:#ffffff" d="M332.65,122.43L430.30,122.43L430.30,128.85L332.65,128.85z"/><text xml:space="preserve" fill="#000000" stroke-width="0" x="335.12" y="127.37" font-size="4.82" opacity="1.00" font-family="MS Shell Dlg">301126-14.37</text><text xml:space="preserve" fill="#000000" stroke-width="0" x="369.76" y="127.37" font-size="4.82" opacity="1.00" font-family="MS Shell Dlg">301126-14.37-Rod</text><text xml:space="preserve" fill="#000000" stroke-width="0" x="420.51" y="127.37" font-size="3.88" opacity="1.00" font-family="MS Shell Dlg">1</text><path style="stroke:#000000;stroke-width:0.353" d="M367.29,122.43L367.29,128.85"/><path style="stroke:#000000;stroke-width:0.353" d="M418.04,122.43L418.04,128.85"/></g><g id="Line327175-Bolt"><path style="stroke:#000000;stroke-width:0.353;fill:#f0f0ff" d="M332.65,128.85L430.30,128.85L430.30,135.27L332.65,135.27z"/><text xml:space="preserve" fill="#000000" stroke-width="0" x="335.12" y="133.79" font-size="4.79" opacity="1.00" font-family="MS Shell Dlg">327175</text><text xml:space="preserve" fill="#000000" stroke-width="0" x="369.76" y="133.79" font-size="4.80" opacity="1.00" font-family="MS Shell Dlg">327175-Bolt</text><text xml:space="preserve" fill="#000000" stroke-width="0" x="420.51" y="133.79" font-size="4.58" opacity="1.00" font-family="MS Shell Dlg">2</text><path style="stroke:#000000;stroke-width:0.353" d="M367.29,128.85L367.29,135.27"/><path style="stroke:#000000;stroke-width:0.353" d="M418.04,128.85L418.04,135.27"/></g><g id="Line361601-Nut"><path style="stroke:#000000;stroke-width:0.353;fill:#ffffff" d="M332.65,135.27L430.30,135.27L430.30,141.69L332.65,141.69z"/><text xml:space="preserve" fill="#000000" stroke-width="0" x="335.12" y="140.20" font-size="4.79" opacity="1.00" font-family="MS Shell Dlg">361601</text><text xml:space="preserve" fill="#000000" stroke-width="0" x="369.76" y="140.20" font-size="4.81" opacity="1.00" font-family="MS Shell Dlg">361601-Nut</text><text xml:space="preserve" fill="#000000" stroke-width="0" x="420.51" y="140.20" font-size="4.58" opacity="1.00" font-family="MS Shell Dlg">2</text><path style="stroke:#000000;stroke-width:0.353" d="M367.29,135.27L367.29,141.69"/><path style="stroke:#000000;stroke-width:0.353" d="M418.04,135.27L418.04,141.69"/></g><g id="Line361630-Nut"><path style="stroke:#000000;stroke-width:0.353;fill:#f0f0ff" d="M332.65,141.69L430.30,141.69L430.30,148.11L332.65,148.11z"/><text xml:space="preserve" fill="#000000" stroke-width="0" x="335.12" y="146.62" font-size="4.79" opacity="1.00" font-family="MS Shell Dlg">361630</text><text xml:space="preserve" fill="#000000" stroke-width="0" x="369.76" y="146.62" font-size="4.81" opacity="1.00" font-family="MS Shell Dlg">361630-Nut</text><text xml:space="preserve" fill="#000000" stroke-width="0" x="420.51" y="146.62" font-size="4.72" opacity="1.00" font-family="MS Shell Dlg">4</text><path style="stroke:#000000;stroke-width:0.353" d="M367.29,141.69L367.29,148.11"/><path style="stroke:#000000;stroke-width:0.353" d="M418.04,141.69L418.04,148.11"/></g><g id="Line364034-Lock Washer"><path style="stroke:#000000;stroke-width:0.353;fill:#ffffff" d="M332.65,148.11L430.30,148.11L430.30,154.52L332.65,154.52z"/><text xml:space="preserve" fill="#000000" stroke-width="0" x="335.12" y="153.04" font-size="4.79" opacity="1.00" font-family="MS Shell Dlg">364034</text><text xml:space="preserve" fill="#000000" stroke-width="0" x="369.76" y="153.04" font-size="4.83" opacity="1.00" font-family="MS Shell Dlg">364034-Lock Washer</text><text xml:space="preserve" fill="#000000" stroke-width="0" x="420.51" y="153.04" font-size="4.58" opacity="1.00" font-family="MS Shell Dlg">2</text><path style="stroke:#000000;stroke-width:0.353" d="M367.29,148.11L367.29,154.52"/><path style="stroke:#000000;stroke-width:0.353" d="M418.04,148.11L418.04,154.52"/></g><g id="Line532011-Bearing"><path style="stroke:#000000;stroke-width:0.353;fill:#f0f0ff" d="M332.65,154.52L430.30,154.52L430.30,160.94L332.65,160.94z"/><text xml:space="preserve" fill="#000000" stroke-width="0" x="335.12" y="159.46" font-size="4.79" opacity="1.00" font-family="MS Shell Dlg">532011</text><text xml:space="preserve" fill="#000000" stroke-width="0" x="369.76" y="159.46" font-size="4.82" opacity="1.00" font-family="MS Shell Dlg">532011-Bearing</text><text xml:space="preserve" fill="#000000" stroke-width="0" x="420.51" y="159.46" font-size="3.88" opacity="1.00" font-family="MS Shell Dlg">1</text><path style="stroke:#000000;stroke-width:0.353" d="M367.29,154.52L367.29,160.94"/><path style="stroke:#000000;stroke-width:0.353" d="M418.04,154.52L418.04,160.94"/></g></g><g id="hotspot.0" onmouseover="ShowHotSpot(evt,'0')" onmouseout="HideHotSpot(evt,'0')" onmousemove="ShowToolTip(evt,'0',&quot;Forward&quot;)" opacity="0"><a xlink:href="javascript:history.go(1)"><path style="fill:#00ff00;fill-rule:evenodd" d="M431.64,278.56L407.40,278.56L407.40,253.98L431.64,253.98z"/></a></g><g id="hotspot.1" onmouseover="ShowHotSpot(evt,'1')" onmouseout="HideHotSpot(evt,'1')" onmousemove="ShowToolTip(evt,'1',&quot;Order&quot;)" opacity="0"><a xlink:href="https://www.mitek-us.com/resources/machinery/Find-and-Order-Parts/" target="_blank"><path style="fill:#00ff00;fill-rule:evenodd" d="M431.64,25.02L407.06,25.02L407.06,0.44L431.64,0.44z"/></a></g><g id="hotspot.2" onmouseover="ShowHotSpot(evt,'2')" onmouseout="HideHotSpot(evt,'2')" onmousemove="ShowToolTip(evt,'2',&quot;Home&quot;)" opacity="0"><a xlink:href="./RT-Overview.svg"><path style="fill:#00ff00;fill-rule:evenodd" d="M25.36,24.68L0.44,24.68L0.44,0.44L25.36,0.44z"/></a></g><g id="hotspot.3" onmouseover="ShowHotSpot(evt,'3')" onmouseout="HideHotSpot(evt,'3')" onmousemove="ShowToolTip(evt,'3',&quot;Back&quot;)" opacity="0"><a xlink:href="javascript:history.go(-1)"><path style="fill:#00ff00;fill-rule:evenodd" d="M25.02,278.56L0.44,278.56L0.44,253.98L25.02,253.98z"/></a></g><g id="hotspot.4" onmouseover="ShowHotSpot(evt,'4')" onmouseout="HideHotSpot(evt,'4')" onmousemove="ShowToolTip(evt,'4',&quot;301126-body-1&quot;)" opacity="0"><path style="fill:#00ff00;fill-rule:evenodd" d="M332.65,122.43L332.65,128.85L430.30,128.85L430.30,122.43zM132.27,5.54L135.69,7.20L137.03,8.92L137.03,20.61L135.90,22.20L132.92,23.63L130.11,24.21L121.73,24.21L117.65,23.20L116.29,22.53L114.96,21.15L114.97,8.39L116.19,6.90L119.24,5.54L123.32,4.87L128.86,4.87zM120.04,61.89L124.11,62.23L130.90,62.00L136.67,60.84L136.18,105.78L136.77,105.91L136.24,106.37L136.00,130.57L134.88,131.83L132.17,133.19L128.41,133.84L121.74,133.84L117.99,133.18L114.62,131.45L113.90,130.48L114.16,76.82L114.50,60.84zM162.33,94.13L165.87,93.92L166.08,91.06L199.14,91.06L199.14,97.31L166.08,97.31L165.87,94.46z"/></g><g id="hotspot.5" onmouseover="ShowHotSpot(evt,'5')" onmouseout="HideHotSpot(evt,'5')" onmousemove="ShowToolTip(evt,'5',&quot;HeadFillet&quot;)" opacity="0"><path style="fill:#00ff00;fill-rule:evenodd" d="M332.65,128.85L332.65,135.27L430.30,135.27L430.30,128.85zM178.28,142.33L181.49,142.11L181.69,139.26L203.55,139.26L203.55,145.51L181.69,145.51L181.49,142.66zM163.47,153.56L164.74,153.56L165.41,153.15L166.20,153.15L166.88,153.53L168.60,154.87L168.58,156.36L167.91,158.06L166.40,159.29L165.16,159.33L163.15,157.94L162.49,156.56L138.71,146.40L138.67,144.44L139.61,143.64L140.40,143.65zM163.14,184.44L164.41,184.45L165.41,184.06L166.55,184.05L167.24,184.40L168.25,185.76L168.25,187.60L167.43,189.15L165.41,190.23L164.50,190.23L163.50,189.49L162.44,187.49L138.73,177.27L138.37,176.95L138.38,175.37L139.26,174.54L140.41,174.55z"/></g><g id="hotspot.6" onmouseover="ShowHotSpot(evt,'6')" onmouseout="HideHotSpot(evt,'6')" onmousemove="ShowToolTip(evt,'6',&quot;EndChamfer&quot;)" opacity="0"><path style="fill:#00ff00;fill-rule:evenodd" d="M332.65,135.27L332.65,141.69L430.30,141.69L430.30,135.27zM82.38,117.53L83.06,118.55L83.05,120.04L82.70,121.06L81.22,122.65L79.97,122.67L77.16,121.39L77.25,118.32L78.85,116.50L80.00,116.51zM62.89,137.36L66.10,137.58L62.89,137.90L62.69,140.76L41.51,140.76L41.51,134.51L62.69,134.51zM82.34,148.46L82.73,149.09L82.71,150.93L82.36,151.94L80.87,153.54L79.99,153.57L76.82,152.28L76.61,149.78L76.28,149.43L76.14,147.73L78.13,147.76L78.50,147.41L80.01,147.40z"/></g><g id="hotspot.7" onmouseover="ShowHotSpot(evt,'7')" onmouseout="HideHotSpot(evt,'7')" onmousemove="ShowToolTip(evt,'7',&quot;EndChamfer&quot;)" opacity="0"><path style="fill:#00ff00;fill-rule:evenodd" d="M332.65,141.69L332.65,148.11L430.30,148.11L430.30,141.69zM140.07,17.08L142.78,19.12L144.84,21.14L144.81,29.75L144.49,35.20L142.99,38.48L144.15,42.53L144.14,50.46L143.79,56.56L140.27,59.15L136.24,60.89L130.90,62.00L124.11,62.23L120.04,61.89L116.28,61.23L111.90,59.51L109.42,58.14L109.25,57.45L107.80,54.10L107.12,51.73L107.11,37.82L106.72,37.53L106.80,28.06L107.12,22.95L109.70,18.40L112.23,16.51L114.61,15.70L114.96,21.15L116.29,22.53L117.65,23.20L121.73,24.21L130.11,24.21L132.92,23.63L135.90,22.20L137.03,20.61L137.24,16.03L138.02,16.02zM90.05,69.14L92.91,69.36L90.05,69.68L89.84,72.53L68.66,72.53L68.66,66.29L89.84,66.29zM140.41,127.39L141.42,128.75L143.12,133.51L143.15,144.81L140.40,143.65L139.61,143.64L138.67,144.44L138.71,146.40L142.46,148.12L142.50,148.54L140.78,149.94L137.58,151.83L134.28,152.95L128.42,153.87L122.41,153.87L118.68,153.53L114.26,152.52L110.87,151.16L108.86,149.78L107.12,146.08L106.44,143.71L106.45,130.55L106.97,129.03L112.12,125.70L113.59,125.33L113.90,130.48L114.62,131.45L117.99,133.18L121.74,133.84L128.41,133.84L132.17,133.19L134.88,131.83L136.00,130.57L136.32,125.34zM140.41,174.55L139.26,174.54L138.38,175.37L138.37,176.95L142.83,179.31L142.83,180.13L139.08,182.87L136.55,184.07L134.28,184.86L128.42,185.78L121.69,185.82L121.29,185.54L121.38,169.24L130.45,168.80L137.26,167.81L142.35,166.05L143.11,166.05L143.11,173.66L142.78,175.40L141.75,175.28z"/></g><g id="hotspot.8" onmouseover="ShowHotSpot(evt,'8')" onmouseout="HideHotSpot(evt,'8')" onmousemove="ShowToolTip(evt,'8',&quot;Gap&quot;)" opacity="0"><path style="fill:#00ff00;fill-rule:evenodd" d="M332.65,148.11L332.65,154.52L430.30,154.52L430.30,148.11zM90.53,121.26L90.51,123.44L90.17,124.45L88.38,126.07L87.11,126.06L85.71,125.05L85.73,122.41L87.12,120.39L89.51,120.25zM89.83,151.50L89.85,155.36L88.70,156.58L86.67,156.93L86.11,157.77L85.10,157.60L84.72,156.94L83.50,156.48L84.98,156.24L85.39,155.54L85.38,153.64L86.45,151.62L88.03,150.79zM61.87,153.99L67.40,154.24L67.54,154.43L61.87,154.53L61.67,157.39L24.20,157.39L24.20,151.14L61.67,151.14zM70.26,154.77L67.69,154.63L67.54,154.43L70.12,154.58zM72.64,155.11L70.40,154.97L70.26,154.77L72.49,154.92zM75.35,155.45L72.78,155.31L72.64,155.11L75.21,155.26zM78.07,155.79L75.49,155.65L75.35,155.45L77.92,155.60zM80.78,156.13L78.21,155.99L78.07,155.79L80.64,155.94zM83.50,156.48L80.92,156.33L80.78,156.13L83.35,156.28zM88.84,123.46L88.03,124.40L87.35,124.48L87.46,122.42L88.38,121.56L88.80,121.59zM88.81,153.14L88.48,154.32L87.70,155.29L87.11,155.26L87.13,153.31L88.03,152.45L88.46,152.50z"/></g><g id="hotspot.9" onmouseover="ShowHotSpot(evt,'9')" onmouseout="HideHotSpot(evt,'9')" onmousemove="ShowToolTip(evt,'9',&quot;BRG_TAKEUP_WIDESLOT__AF0-body-1&quot;)" opacity="0"><path style="fill:#00ff00;fill-rule:evenodd" d="M332.65,154.52L332.65,160.94L430.30,160.94L430.30,154.52zM159.41,144.03L159.41,151.63L155.33,150.15L143.45,145.05L143.35,137.21L143.77,137.18zM107.12,146.08L108.86,149.78L110.87,151.16L114.26,152.52L118.68,153.53L122.41,153.87L128.42,153.87L134.28,152.95L137.58,151.83L140.78,149.94L142.66,148.40L143.46,148.40L159.41,155.23L159.41,181.02L164.16,183.08L165.42,183.09L169.64,181.71L174.73,184.04L174.34,249.35L161.09,253.75L158.28,256.38L152.14,263.47L142.49,270.45L132.17,274.04L122.40,273.69L119.35,272.67L112.90,269.92L112.13,269.92L100.94,273.70L98.64,273.70L94.47,271.76L94.24,268.26L84.06,263.82L82.93,263.82L79.90,264.88L77.93,264.87L73.43,262.93L74.07,197.61L77.25,196.39L88.01,192.89L89.51,191.00L89.83,181.13L90.06,151.49L101.35,147.52L102.65,144.74L106.13,142.33zM180.99,226.17L183.86,225.95L184.06,223.10L212.71,223.10L212.61,229.24L184.06,229.34L183.86,226.49zM143.01,175.70L163.14,184.44L164.41,184.45L165.41,184.06L166.55,184.05L167.24,184.40L168.25,185.76L168.25,187.60L167.43,189.15L165.41,190.23L164.50,190.23L163.50,189.49L162.44,187.49L143.43,179.26L143.03,179.31L142.79,180.12L139.08,182.87L136.55,184.07L134.28,184.86L128.42,185.78L121.69,185.82L121.29,185.54L121.38,169.24L130.45,168.80L137.26,167.81L142.35,166.05L143.11,166.05z"/></g><g id="ToolTip" visibility="hidden" opacity="0" transform="translate(0,0)"><rect id="ToolTipShadow" opacity="0.20" fill="black" stroke="none" x="0" y="0" width="30" height="8"/><rect id="ToolTipBG" fill="#ffffe1" stroke="black" x="0" y="0" width="30" height="8"/><text xml:space="preserve" id="ToolTipText" fill="black" x="0" y="0" width="30" height="8">tooltip</text></g></g></svg>
